<svg width="379" height="379" viewBox="0 0 379 379" fill="none" xmlns="http://www.w3.org/2000/svg">
<path d="M60.37 242.95L29.11 251.69L28.22 248.52L53.23 241.53L28.76 235.13L28.32 233.57L45.79 215.45L20.91 222.4L20.02 219.23L51.28 210.49L52.04 213.21L32.65 233.27L59.59 240.23L60.35 242.95H60.37Z" fill="#852945"/>
<path d="M68.85 257.9L33.34 261.53L35.15 264.61L66.61 261.15L48.24 286.93L50.07 290.05L70.56 260.82L68.85 257.9Z" fill="#852945"/>
<path d="M71.55 313.86L74.12 301.32C73.48 300.77 72.86 300.17 72.25 299.52L66.3 293.14L58.77 300.16L56.43 297.65L80.17 275.51L88.46 284.4C91.29 287.43 92.78 290.48 92.93 293.55C93.09 296.62 91.9 299.33 89.37 301.69C87.52 303.42 85.51 304.41 83.36 304.66C81.21 304.91 79.04 304.43 76.85 303.22L74.12 316.61L71.56 313.86H71.55ZM80.91 301.39C83.11 301.66 85.15 300.93 87.02 299.17C88.94 297.38 89.84 295.38 89.71 293.18C89.58 290.98 88.42 288.7 86.22 286.35L80.34 280.04L68.44 291.14L74.32 297.45C76.51 299.8 78.71 301.11 80.91 301.39Z" fill="#852945"/>
<path d="M111.6 323.71L114.33 325.55L107.42 335.82C105.42 336.08 103.36 335.92 101.25 335.36C99.13 334.79 97.13 333.87 95.23 332.59C92.54 330.78 90.51 328.56 89.15 325.93C87.79 323.3 87.2 320.53 87.37 317.61C87.55 314.69 88.51 311.94 90.25 309.35C91.99 306.76 94.18 304.83 96.82 303.57C99.46 302.31 102.25 301.81 105.2 302.08C108.15 302.35 110.98 303.4 113.7 305.23C115.75 306.61 117.42 308.21 118.69 310.02C119.97 311.83 120.77 313.77 121.08 315.85L118.09 316.47C117.38 312.93 115.38 310.06 112.1 307.85C109.92 306.38 107.63 305.54 105.22 305.32C102.82 305.1 100.54 305.5 98.39 306.54C96.24 307.57 94.46 309.14 93.04 311.24C91.62 313.34 90.85 315.58 90.71 317.94C90.57 320.31 91.04 322.56 92.13 324.71C93.22 326.86 94.85 328.67 97.03 330.13C99.8 331.99 102.61 332.88 105.47 332.79L111.58 323.71H111.6Z" fill="#852945"/>
<path d="M141.88 319.71L138.71 318.51L113.3 343.57L116.64 344.84L139 322.44L140.82 354.04L144.2 355.33L141.88 319.71Z" fill="#852945"/>
<path d="M175.92 360.39L170.04 349.02C169.2 349 168.34 348.92 167.45 348.79L158.82 347.56L157.37 357.75L153.97 357.27L158.54 325.13L170.57 326.84C174.67 327.42 177.75 328.86 179.79 331.15C181.84 333.44 182.62 336.3 182.13 339.73C181.77 342.24 180.84 344.27 179.32 345.82C177.8 347.37 175.81 348.36 173.35 348.79L179.63 360.92L175.91 360.39H175.92ZM175.37 344.8C177.25 343.63 178.38 341.78 178.74 339.24C179.11 336.64 178.55 334.52 177.07 332.89C175.58 331.26 173.25 330.22 170.07 329.76L161.53 328.55L159.24 344.66L167.78 345.87C170.96 346.32 173.5 345.96 175.38 344.8H175.37Z" fill="#852945"/>
<path d="M190.19 328.13L193.62 328.09L194.02 360.55L190.59 360.59L190.19 328.13Z" fill="#852945"/>
<path d="M209.01 329.8L197.73 331.47L197.29 328.53L223.25 324.68L223.69 327.62L212.41 329.29L216.74 358.46L213.34 358.96L209.01 329.79V329.8Z" fill="#852945"/>
<path d="M237.07 319.85L233.87 320.97L230.55 356.51L233.92 355.33L236.62 323.79L258.35 346.81L261.77 345.62L237.07 319.85Z" fill="#852945"/>
<path d="M289.35 287.42L309.58 312.81L307 314.86L290.82 294.55L294.46 319.58L293.19 320.59L269.69 311.57L285.79 331.77L283.21 333.82L262.98 308.43L265.19 306.67L291.21 316.71L287.13 289.19L289.34 287.43L289.35 287.42Z" fill="#852945"/>
<path d="M301.95 271.07L299.92 273.78L316.99 305.12L319.13 302.26L303.78 274.58L334.65 281.55L336.82 278.66L301.95 271.07Z" fill="#852945"/>
<path d="M348.32 247.53L351.01 248.78L339.82 272.93L337.67 271.94L322.1 241.01L313.19 260.24L310.5 258.99L321.32 235.64L323.47 236.63L339.06 267.52L348.32 247.53Z" fill="#852945"/>
<path d="M325.58 218.32L324.83 221.62L353.22 243.26L354.01 239.77L328.68 220.78L359.72 214.54L360.52 211.01L325.58 218.32Z" fill="#852945"/>
<path d="M43.71 136.97C45.1 136.3 46.7 136.21 48.49 136.71C50.71 137.33 52.19 138.61 52.93 140.56C53.68 142.51 53.6 145.08 52.72 148.27L49.47 159.93L23.3 152.65L26.34 141.74C27.13 138.9 28.33 136.85 29.92 135.59C31.52 134.33 33.39 134 35.53 134.6C37.02 135.02 38.17 135.76 38.98 136.83C39.78 137.9 40.22 139.17 40.3 140.64C41.17 138.87 42.3 137.65 43.7 136.97H43.71ZM25.49 151.21L35.92 154.11L38.41 145.18C39.05 142.89 39.1 141 38.56 139.52C38.02 138.04 36.89 137.06 35.17 136.58C33.48 136.11 32.01 136.37 30.79 137.35C29.56 138.34 28.63 139.98 27.99 142.27L25.5 151.2L25.49 151.21ZM51.36 141.68C50.84 140.13 49.66 139.09 47.81 138.58C45.97 138.07 44.43 138.34 43.19 139.41C41.95 140.48 40.98 142.28 40.27 144.82L37.55 154.58L48.35 157.59L51.07 147.83C51.78 145.29 51.87 143.24 51.35 141.69L51.36 141.68Z" fill="#A1842B"/>
<path d="M46.53 114.44C48.27 113.78 50.25 114 52.49 115.08L64.06 120.66L63.25 122.34L60 120.77C60.79 121.87 61.21 123.12 61.27 124.53C61.33 125.94 60.98 127.42 60.22 128.98C59.24 131.01 57.99 132.38 56.47 133.09C54.95 133.81 53.41 133.79 51.84 133.03C50.33 132.3 49.36 131.16 48.94 129.63C48.52 128.09 48.88 126.13 50.03 123.76L53.05 117.5L51.58 116.79C49.88 115.97 48.36 115.81 47.04 116.3C45.71 116.79 44.62 117.93 43.76 119.7C43.18 120.91 42.83 122.17 42.71 123.48C42.6 124.79 42.71 126 43.03 127.1L41.35 127.37C40.97 126.07 40.87 124.67 41.03 123.17C41.19 121.67 41.61 120.22 42.29 118.82C43.38 116.56 44.79 115.1 46.53 114.45V114.44ZM59.72 123.67C59.53 122.27 58.9 120.99 57.83 119.81L54.41 118.16L51.41 124.38C50.54 126.17 50.24 127.63 50.51 128.75C50.77 129.87 51.48 130.7 52.62 131.25C53.81 131.82 54.96 131.83 56.07 131.28C57.18 130.73 58.13 129.65 58.9 128.04C59.63 126.53 59.9 125.07 59.71 123.67H59.72Z" fill="#A1842B"/>
<path d="M68.23 111.67C66.63 112.45 64.93 112.77 63.14 112.61C61.35 112.45 59.65 111.82 58.02 110.71C56.38 109.58 55.16 108.22 54.36 106.61C53.57 105 53.25 103.31 53.41 101.54C53.57 99.77 54.21 98.07 55.32 96.45C56.24 95.11 57.34 94.06 58.61 93.32C59.89 92.58 61.26 92.21 62.73 92.21L62.78 93.99C61.54 94.02 60.41 94.33 59.38 94.93C58.36 95.53 57.48 96.37 56.75 97.43C55.86 98.73 55.35 100.1 55.23 101.54C55.11 102.98 55.38 104.35 56.04 105.67C56.71 106.99 57.73 108.12 59.12 109.07C60.51 110.02 61.94 110.57 63.4 110.71C64.87 110.85 66.25 110.61 67.55 109.98C68.85 109.35 69.94 108.38 70.83 107.08C71.56 106.01 72.02 104.89 72.21 103.72C72.4 102.55 72.28 101.38 71.86 100.21L73.54 99.62C74.08 100.99 74.23 102.4 74 103.86C73.77 105.32 73.19 106.72 72.27 108.06C71.16 109.68 69.8 110.88 68.2 111.67H68.23Z" fill="#A1842B"/>
<path d="M77.09 74.12C79.17 74.07 81.22 74.99 83.23 76.9L91.81 85.05L90.47 86.46L82 78.41C80.35 76.84 78.7 76.07 77.04 76.08C75.38 76.09 73.84 76.85 72.42 78.35C70.78 80.07 70 81.92 70.09 83.9C70.18 85.87 71.09 87.69 72.84 89.35L80.66 96.78L79.32 98.19L58.45 78.36L59.79 76.95L69.04 85.74C68.51 84.27 68.44 82.78 68.83 81.26C69.22 79.74 70.06 78.31 71.34 76.96C73.09 75.12 75 74.18 77.09 74.12Z" fill="#A1842B"/>
<path d="M81.01 60.83C80.58 60.8 80.23 60.61 79.95 60.27C79.67 59.93 79.55 59.54 79.6 59.11C79.65 58.68 79.83 58.32 80.17 58.04C80.51 57.76 80.89 57.64 81.32 57.67C81.75 57.7 82.1 57.89 82.38 58.23C82.66 58.57 82.78 58.96 82.73 59.4C82.68 59.84 82.5 60.19 82.16 60.47C81.82 60.75 81.44 60.87 81.01 60.84V60.83ZM84.55 64.89L86.05 63.66L98.91 79.31L97.41 80.54L84.55 64.89Z" fill="#A1842B"/>
<path d="M88.36 51.14L89.94 50.02L106.64 73.47L105.06 74.6L88.36 51.15V51.14Z" fill="#A1842B"/>
<path d="M98.04 44.67L99.69 43.66L114.73 68.21L113.08 69.22L98.04 44.67Z" fill="#A1842B"/>
<path d="M132.53 48.39L116.74 55.74C117.45 57.15 118.41 58.25 119.61 59.05C120.81 59.85 122.13 60.28 123.57 60.35C125.01 60.42 126.46 60.12 127.92 59.44C129.12 58.88 130.12 58.15 130.94 57.24C131.76 56.33 132.31 55.3 132.6 54.14L134.16 54.83C133.81 56.16 133.15 57.37 132.18 58.45C131.21 59.53 130.03 60.39 128.62 61.05C126.79 61.9 124.97 62.26 123.17 62.13C121.37 62 119.74 61.42 118.27 60.39C116.8 59.36 115.65 57.94 114.81 56.14C113.98 54.36 113.62 52.58 113.72 50.81C113.82 49.04 114.36 47.44 115.32 46.02C116.29 44.6 117.6 43.5 119.27 42.73C120.93 41.96 122.61 41.65 124.3 41.82C125.99 41.99 127.54 42.6 128.96 43.65C130.38 44.7 131.5 46.12 132.33 47.9L132.52 48.41L132.53 48.39ZM116.91 46.74C116.15 47.79 115.7 48.99 115.56 50.32C115.42 51.65 115.61 53 116.13 54.35L130.2 47.8C129.52 46.52 128.62 45.51 127.51 44.77C126.4 44.03 125.19 43.61 123.88 43.51C122.58 43.4 121.28 43.65 119.99 44.25C118.7 44.85 117.67 45.68 116.91 46.73V46.74Z" fill="#A1842B"/>
<path d="M140.4 35.88C141.42 34.73 142.84 33.88 144.64 33.31L145.21 35.12L144.75 35.22C142.6 35.89 141.13 37.09 140.35 38.81C139.56 40.53 139.54 42.59 140.29 44.99L143.44 55.06L141.59 55.64L135.54 36.31L137.32 35.75L138.64 39.97C138.79 38.38 139.38 37.01 140.4 35.86V35.88Z" fill="#A1842B"/>
<path d="M164.3 31.24C165.85 32.27 166.84 34 167.27 36.45L169.51 49.1L167.68 49.43L167.05 45.88C166.62 47.17 165.85 48.24 164.75 49.11C163.64 49.98 162.24 50.56 160.53 50.86C158.31 51.25 156.47 51.04 155 50.23C153.53 49.41 152.64 48.15 152.34 46.45C152.05 44.79 152.4 43.35 153.4 42.1C154.4 40.85 156.2 40.01 158.8 39.55L165.64 38.34L165.36 36.74C165.03 34.88 164.28 33.56 163.1 32.77C161.92 31.98 160.37 31.76 158.43 32.1C157.11 32.34 155.88 32.79 154.75 33.46C153.62 34.13 152.7 34.93 152 35.84L150.8 34.63C151.64 33.56 152.71 32.66 154.02 31.91C155.33 31.16 156.75 30.66 158.28 30.39C160.75 29.95 162.76 30.25 164.31 31.27L164.3 31.24ZM164.53 47.34C165.55 46.37 166.23 45.11 166.56 43.55L165.9 39.81L159.1 41.02C157.14 41.37 155.78 41.98 155.03 42.84C154.28 43.71 154.01 44.77 154.23 46.02C154.46 47.32 155.13 48.26 156.23 48.84C157.33 49.42 158.76 49.55 160.52 49.24C162.18 48.95 163.51 48.31 164.54 47.35L164.53 47.34Z" fill="#A1842B"/>
<path d="M186.63 46.81C186.16 47.3 185.56 47.68 184.84 47.96C184.12 48.24 183.35 48.4 182.55 48.43C180.79 48.51 179.42 48.09 178.41 47.16C177.4 46.23 176.87 44.91 176.79 43.18L176.18 29.96L172.46 30.13L172.38 28.46L176.1 28.29L175.9 23.87L177.84 23.78L178.04 28.2L184.47 27.9L184.55 29.57L178.12 29.87L178.72 42.89C178.78 44.21 179.14 45.19 179.81 45.85C180.47 46.51 181.43 46.8 182.67 46.75C183.94 46.69 184.97 46.27 185.76 45.48L186.64 46.8L186.63 46.81Z" fill="#A1842B"/>
<path d="M193.33 47.12C191.87 46.12 190.76 44.8 190.01 43.17C189.26 41.54 188.97 39.74 189.13 37.78C189.29 35.82 189.87 34.1 190.88 32.61C191.88 31.12 193.19 30 194.8 29.25C196.41 28.5 198.16 28.2 200.07 28.36C201.98 28.52 203.66 29.1 205.12 30.1C206.58 31.1 207.69 32.42 208.43 34.05C209.18 35.68 209.47 37.48 209.31 39.44C209.15 41.4 208.57 43.12 207.56 44.61C206.55 46.1 205.25 47.22 203.64 47.97C202.03 48.72 200.28 49.02 198.37 48.86C196.46 48.7 194.78 48.12 193.32 47.12H193.33ZM202.78 46.38C204.06 45.76 205.11 44.83 205.93 43.6C206.75 42.37 207.22 40.93 207.36 39.28C207.5 37.63 207.26 36.13 206.66 34.78C206.06 33.43 205.17 32.35 204.01 31.53C202.84 30.71 201.49 30.23 199.94 30.11C198.39 29.98 196.98 30.23 195.69 30.85C194.4 31.47 193.36 32.4 192.54 33.63C191.72 34.86 191.25 36.3 191.11 37.95C190.97 39.6 191.21 41.1 191.81 42.45C192.41 43.8 193.3 44.88 194.46 45.7C195.62 46.52 196.98 47 198.53 47.12C200.08 47.25 201.49 47 202.78 46.38Z" fill="#A1842B"/>
<path d="M253.08 34.37L243.98 59.96L242.44 59.41L232.9 30.98L225 53.21L223.13 52.55L232.23 26.96L233.8 27.52L243.3 55.93L251.2 33.7L253.07 34.36L253.08 34.37Z" fill="#A1842B"/>
<path d="M270.97 53.88C271.49 55.66 271.12 57.63 269.87 59.77L263.41 70.87L261.8 69.93L263.62 66.81C262.46 67.51 261.18 67.84 259.78 67.78C258.37 67.73 256.92 67.26 255.43 66.39C253.49 65.26 252.22 63.9 251.62 62.33C251.02 60.76 251.16 59.22 252.04 57.72C252.89 56.27 254.09 55.39 255.66 55.09C257.23 54.79 259.15 55.3 261.43 56.63L267.43 60.13L268.25 58.72C269.2 57.09 269.48 55.59 269.09 54.23C268.7 52.87 267.66 51.69 265.96 50.7C264.8 50.02 263.57 49.58 262.27 49.36C260.97 49.14 259.76 49.16 258.63 49.4L258.49 47.7C259.82 47.43 261.22 47.43 262.71 47.7C264.19 47.98 265.61 48.51 266.95 49.29C269.12 50.55 270.46 52.08 270.98 53.86L270.97 53.88ZM260.75 66.32C262.16 66.24 263.49 65.71 264.75 64.74L266.66 61.45L260.69 57.97C258.97 56.97 257.54 56.55 256.41 56.73C255.27 56.91 254.39 57.54 253.75 58.64C253.09 59.78 252.99 60.93 253.45 62.08C253.91 63.23 254.92 64.26 256.46 65.16C257.91 66.01 259.34 66.39 260.75 66.31V66.32Z" fill="#A1842B"/>
<path d="M272.06 75.74C271.4 74.08 271.22 72.37 271.52 70.6C271.82 68.83 272.58 67.18 273.81 65.65C275.06 64.1 276.52 62.99 278.18 62.32C279.84 61.65 281.56 61.47 283.31 61.77C285.06 62.07 286.7 62.83 288.24 64.07C289.51 65.09 290.46 66.27 291.1 67.6C291.74 68.93 292 70.33 291.88 71.79L290.1 71.71C290.17 70.47 289.94 69.32 289.42 68.25C288.9 67.18 288.14 66.24 287.13 65.43C285.9 64.44 284.57 63.83 283.15 63.6C281.73 63.37 280.33 63.53 278.97 64.09C277.6 64.65 276.39 65.59 275.34 66.9C274.28 68.21 273.63 69.59 273.37 71.04C273.11 72.49 273.25 73.89 273.78 75.23C274.31 76.57 275.19 77.74 276.42 78.73C277.43 79.54 278.51 80.09 279.66 80.37C280.81 80.65 281.99 80.62 283.18 80.29L283.64 82.01C282.23 82.44 280.81 82.48 279.38 82.14C277.95 81.8 276.59 81.12 275.32 80.09C273.79 78.86 272.69 77.41 272.04 75.75L272.06 75.74Z" fill="#A1842B"/>
<path d="M299.26 74.2L300.63 75.57L286.31 89.89L284.94 88.52L299.26 74.2ZM302.95 70.29C302.95 69.86 303.09 69.49 303.4 69.18C303.71 68.87 304.09 68.71 304.53 68.71C304.97 68.71 305.34 68.87 305.65 69.18C305.96 69.49 306.12 69.86 306.13 70.29C306.13 70.72 305.99 71.09 305.68 71.4C305.37 71.71 304.99 71.87 304.55 71.87C304.11 71.87 303.74 71.71 303.42 71.4C303.1 71.09 302.95 70.72 302.94 70.29H302.95Z" fill="#A1842B"/>
<path d="M294.15 96.58C293.88 94.83 294.09 93.12 294.77 91.46C295.45 89.8 296.56 88.36 298.11 87.14C299.65 85.92 301.31 85.17 303.08 84.89C304.85 84.61 306.56 84.8 308.21 85.46C309.85 86.12 311.27 87.2 312.46 88.7C313.65 90.2 314.37 91.83 314.64 93.58C314.91 95.33 314.7 97.04 314.02 98.7C313.34 100.36 312.23 101.8 310.68 103.02C309.14 104.24 307.48 104.99 305.71 105.27C303.94 105.55 302.23 105.36 300.58 104.7C298.94 104.04 297.52 102.96 296.33 101.46C295.14 99.96 294.42 98.33 294.15 96.58ZM301.13 102.97C302.46 103.48 303.85 103.62 305.31 103.37C306.77 103.13 308.14 102.49 309.44 101.46C310.74 100.43 311.67 99.24 312.25 97.88C312.82 96.52 313.01 95.13 312.82 93.72C312.63 92.31 312.05 90.99 311.08 89.77C310.12 88.55 308.97 87.69 307.64 87.17C306.31 86.66 304.92 86.52 303.46 86.76C302 87 300.63 87.64 299.33 88.67C298.03 89.7 297.1 90.89 296.52 92.25C295.95 93.61 295.76 95 295.95 96.41C296.14 97.82 296.72 99.14 297.69 100.36C298.65 101.58 299.8 102.44 301.13 102.96V102.97Z" fill="#A1842B"/>
<path d="M328.95 118.76C328.36 120.76 326.85 122.42 324.41 123.74L314.01 129.39L313.08 127.69L323.34 122.11C325.34 121.02 326.59 119.69 327.08 118.11C327.58 116.53 327.33 114.83 326.34 113.01C325.2 110.92 323.68 109.61 321.78 109.09C319.87 108.56 317.87 108.88 315.75 110.03L306.27 115.18L305.34 113.48L323.14 103.81L324.03 105.45L320.18 107.54C321.76 107.47 323.24 107.86 324.6 108.69C325.96 109.52 327.1 110.77 328 112.43C329.21 114.66 329.52 116.77 328.93 118.77L328.95 118.76Z" fill="#A1842B"/>
<path d="M338.22 141.7C337.45 143.39 335.88 144.63 333.54 145.44L321.39 149.61L320.79 147.85L324.2 146.68C322.87 146.45 321.68 145.86 320.66 144.9C319.63 143.94 318.84 142.64 318.28 141C317.55 138.87 317.47 137.02 318.05 135.44C318.63 133.86 319.74 132.79 321.38 132.23C322.97 131.68 324.46 131.81 325.84 132.61C327.22 133.41 328.34 135.05 329.2 137.55L331.45 144.12L332.99 143.59C334.78 142.98 335.97 142.03 336.57 140.74C337.17 139.45 337.15 137.88 336.51 136.02C336.07 134.75 335.44 133.61 334.6 132.6C333.76 131.59 332.84 130.81 331.83 130.25L332.84 128.88C334.02 129.54 335.09 130.46 336.02 131.64C336.96 132.82 337.68 134.15 338.18 135.62C338.99 137.99 339.01 140.02 338.24 141.71L338.22 141.7ZM322.35 144.42C323.47 145.28 324.82 145.75 326.41 145.84L330.01 144.61L327.77 138.08C327.12 136.2 326.31 134.95 325.34 134.34C324.36 133.73 323.28 133.63 322.08 134.04C320.83 134.47 320.01 135.27 319.6 136.45C319.2 137.63 319.29 139.06 319.87 140.75C320.42 142.34 321.25 143.57 322.36 144.43L322.35 144.42Z" fill="#A1842B"/>
<path d="M351.11 150.46L351.53 152.35L323.42 158.57L323 156.68L351.11 150.46Z" fill="#A1842B"/>
<path d="M24.96 189.29C27.1802 189.29 28.98 187.49 28.98 185.27C28.98 183.05 27.1802 181.25 24.96 181.25C22.7398 181.25 20.94 183.05 20.94 185.27C20.94 187.49 22.7398 189.29 24.96 189.29Z" fill="#852945"/>
<path d="M343.63 189.29C345.85 189.29 347.65 187.49 347.65 185.27C347.65 183.05 345.85 181.25 343.63 181.25C341.41 181.25 339.61 183.05 339.61 185.27C339.61 187.49 341.41 189.29 343.63 189.29Z" fill="#852945"/>
<path d="M189.18 378.35C84.86 378.35 0 293.49 0 189.18C0 84.87 84.86 0 189.18 0C293.5 0 378.36 84.86 378.36 189.18C378.36 293.5 293.5 378.36 189.18 378.36V378.35ZM189.18 4.35C87.26 4.35 4.35 87.26 4.35 189.18C4.35 291.1 87.26 374 189.17 374C291.08 374 373.99 291.09 373.99 189.18C373.99 87.27 291.09 4.35 189.18 4.35Z" fill="#A1842B"/>
<path d="M189.18 316.18C119.15 316.18 62.18 259.21 62.18 189.18C62.18 119.15 119.15 62.18 189.18 62.18C259.21 62.18 316.18 119.15 316.18 189.18C316.18 259.21 259.21 316.18 189.18 316.18ZM189.18 66.18C121.36 66.18 66.18 121.36 66.18 189.18C66.18 257 121.36 312.18 189.18 312.18C257 312.18 312.18 257 312.18 189.18C312.18 121.36 257 66.18 189.18 66.18Z" fill="#852945"/>
<path d="M256.22 255.8C255.71 254.59 254.42 253.69 252.18 252.98C252.35 251.63 252.36 250.04 251.71 248.86C251.26 248.05 250.57 247.49 249.7 247.25C246.03 246.23 243.72 247.32 242.1 248.73C239.67 247.4 236.23 248.05 233.42 249.59C230.7 251.08 228.94 253.3 227.24 255.44C226.56 256.3 225.91 257.11 225.21 257.88C220.27 263.25 212.65 266.75 205.74 269.46C204.87 269.26 204.02 269.03 203.24 268.8C207.55 266.46 213.47 262.78 215.16 260.03C218.5 254.57 216.22 250.82 214.54 249.6L213.29 248.69L212.1 249.66C209.93 251.43 207.66 252.68 205.42 253.61C206.45 247.58 211.66 245.54 216.8 244.37C218.86 243.9 222.57 244.16 226.16 244.41C231.56 244.78 236.65 245.14 239.42 243.54C243.74 241.05 242.66 234.9 242.02 231.22C241.9 230.51 241.76 229.72 241.76 229.43C241.77 228.86 243.03 227.29 244.3 226.25L245.04 225.65V224.7C245.04 223.69 244.58 222.81 244.02 222.09C245.13 220.99 246.26 219.49 246.26 217.91C246.26 216.76 246.03 215.56 245.83 214.51C245.73 214.01 245.64 213.5 245.58 213.06C246.06 212.82 246.84 212.52 247.36 212.32C248.85 211.75 250.4 211.16 251.31 210.16C254.64 206.52 251.47 201.91 249.58 199.15C249.17 198.55 248.78 197.99 248.52 197.53C247.48 195.75 246.44 193.95 245.4 192.15C244.35 190.34 243.31 188.54 242.28 186.78C242.05 185.95 242.19 182.65 242.3 179.99C242.42 177.17 242.56 173.96 242.5 170.7C242.39 163.4 236.77 155.53 235.14 153.4C235.47 148.76 232.8 144.12 229.33 141.04C224.02 136.33 218.15 131.68 209.99 131.05C208.88 130.97 207.93 131.79 207.84 132.89C207.75 133.99 208.58 134.95 209.68 135.04C216.61 135.57 221.67 139.6 226.67 144.03C229.91 146.91 232.47 151.8 230.4 155.74C229.26 157.91 226.5 159.7 224.07 161.27C223.53 161.62 223.02 161.95 222.53 162.28C221.94 162.68 221.32 163.08 220.69 163.47C217.47 165.52 213.82 167.85 212.24 171.91C211.2 174.58 210.52 177.39 209.86 180.12C209.4 182.04 208.92 184.02 208.33 185.87C206.67 191.07 205.38 194.39 201.41 196.71C196.65 199.49 190.81 201.16 184.53 201.52C182.7 201.63 180.8 201.58 178.96 201.54C174.05 201.43 168.97 201.31 164.05 203.89C158.38 206.86 155.19 212.19 155.28 218.5C155.33 221.76 155.96 224.1 156.84 225.79C156.36 225.68 155.92 225.56 155.56 225.45C151.2 224.07 148.76 220.27 147.89 213.49C147.35 209.32 147.1 204.99 148.89 201.55C150.02 199.39 152.01 197.46 154.83 195.83C157.63 194.21 160.97 192.76 164.49 191.65C165.64 191.29 167.13 190.93 168.7 190.55C171.61 189.85 174.62 189.12 176.8 188.1C181.24 186.02 184.01 183.29 186.95 180.41C188.31 179.08 189.71 177.7 191.34 176.34C195.24 173.08 201.43 172.21 205.73 174.33C206.72 174.82 207.92 174.41 208.41 173.42C208.9 172.43 208.49 171.23 207.5 170.74C201.77 167.92 193.9 168.99 188.78 173.27C187.03 174.73 185.57 176.17 184.16 177.55C183.83 177.88 183.5 178.2 183.17 178.51C180.32 175.38 171.86 167.71 158.3 169.08C157.2 169.19 156.4 170.17 156.51 171.27C156.62 172.37 157.6 173.17 158.7 173.06C170.54 171.86 177.87 178.61 180.2 181.2C178.71 182.43 177.1 183.53 175.09 184.47C173.28 185.32 170.34 186.03 167.75 186.65C166.11 187.05 164.55 187.42 163.27 187.83C159.47 189.03 155.85 190.6 152.8 192.36C149.32 194.38 146.8 196.85 145.32 199.69C143.02 204.11 143.28 209.17 143.9 213.99C144.32 217.27 145.11 220.03 146.26 222.29C142.05 219.76 138.48 215.76 135.47 210.21C131.1 202.15 129.57 193.13 131.38 186.09C132.15 183.1 133.61 180.92 135.62 179.79C137.5 178.73 139.79 178.59 142.44 179.38L144.9 180.11L145.01 177.54C145.01 177.36 145.84 160.5 156.99 148.01V166.75L159.22 166.5C159.37 166.48 174.53 164.89 180.43 174C180.81 174.59 181.45 174.91 182.11 174.91C182.18 174.91 182.25 174.89 182.31 174.88C182.41 174.89 182.5 174.91 182.6 174.91C182.6 174.91 182.66 174.91 182.68 174.91C182.98 174.9 183.25 174.82 183.5 174.69C183.54 174.67 183.58 174.64 183.62 174.62C183.71 174.57 183.8 174.5 183.88 174.44C183.92 174.41 183.96 174.37 183.99 174.34C184.08 174.25 184.16 174.16 184.23 174.05C184.24 174.03 184.26 174.02 184.27 174C190.18 164.89 205.33 166.48 205.48 166.5L207.71 166.76V142.35L206.32 141.91C195.54 138.47 188.25 144.7 187.95 144.97C187.12 145.7 187.04 146.95 187.76 147.78C188.48 148.61 189.74 148.7 190.58 147.98C190.81 147.79 195.92 143.5 203.72 145.33V162.39C199.62 162.27 190.75 162.71 184.52 167.84C184.5 162.59 184.63 153.6 185.5 142.7C185.78 139.17 186.79 135.88 188.21 132.89C198.98 132.51 206.95 129.19 211.89 123.03C219.15 113.97 217.05 102.22 216.95 101.73L216.63 100.02L214.89 100.1C183.98 101.59 184.49 121.34 184.5 121.54C184.55 122.64 185.48 123.49 186.57 123.44C187.67 123.4 188.53 122.47 188.49 121.37C188.47 120.73 188.31 106.1 213.21 104.2C213.45 107.5 213.35 114.81 208.74 120.55C204.93 125.29 198.8 128.03 190.52 128.74C196.07 120.14 204.16 114.87 204.28 114.8C205.21 114.21 205.48 112.97 204.89 112.04C204.3 111.11 203.06 110.83 202.13 111.43C201.51 111.83 189.76 119.45 184.24 131.9C182.26 123.77 177.98 115.55 171.56 107.67C164.63 99.17 157.75 94.09 157.46 93.88C156.57 93.23 155.32 93.42 154.67 94.31C154.02 95.2 154.21 96.45 155.1 97.1C155.27 97.23 166.15 105.33 173.89 117.84C162.48 116.46 154.24 112.34 149.39 105.59C143.47 97.34 144.18 87.2 144.76 83.21C177.89 87.35 176.57 106.92 176.49 107.8C176.39 108.9 177.19 109.87 178.28 109.98C179.38 110.09 180.36 109.29 180.47 108.19C180.5 107.93 181.06 101.64 176.59 94.86C170.76 86.03 159.57 80.7 143.33 79.02L141.6 78.84L141.19 80.53C141.04 81.15 137.56 95.9 146.12 107.88C151.96 116.05 161.88 120.82 175.62 122.04C175.68 122.04 175.74 122.04 175.8 122.04C175.96 122.04 176.11 122.02 176.25 121.98C179.4 128.09 181.59 135.02 181.51 142.46C181.39 143.92 181.29 145.35 181.2 146.74C177.59 143.54 170.12 139.01 158.52 141.84L156.99 142.21V142.34C156.89 142.4 156.8 142.47 156.71 142.55C144.76 153.71 141.89 169.13 141.21 175C138.43 174.6 135.85 175.04 133.65 176.28C130.68 177.96 128.55 181 127.51 185.07C125.42 193.18 127.04 203.03 131.95 212.09C137.51 222.34 144.88 227.96 154.48 229.27C156.67 229.94 161.25 230.76 164.36 230.86C163.28 235.91 160.6 244.87 154.84 247.98C143.03 250.47 130.8 257.42 130.1 257.82L127.77 259.16L129.73 261.01C130.41 261.65 146.54 276.78 158.98 279.32C165 280.55 171.48 278.52 177.23 273.6C178.45 272.56 179.56 271.44 180.64 270.35C181.9 269.08 183.08 267.89 184.41 266.83C185.29 266.13 186.3 265.34 187.41 264.57C187.44 264.55 187.46 264.53 187.49 264.51C189.91 262.81 192.75 261.16 195.52 260.49C196.12 260.34 196.76 260.2 197.43 260.05C201.7 259.09 207.4 257.8 212.8 254.06C212.94 254.88 212.8 256.12 211.72 257.88C210.09 260.55 200.03 266.16 197.33 267.2L192.65 269L197.29 270.91C197.65 271.06 206.16 274.54 212.33 274.09C218.86 273.62 227.28 272.58 234.45 268.61C237.32 267.02 239.68 264.9 241.97 262.84C242.6 262.27 243.24 261.7 243.89 261.14C244.16 260.91 244.46 260.64 244.79 260.34C246.26 259 249.33 256.22 250.88 256.71C251.27 256.83 251.58 256.95 251.83 257.05C248.15 261.71 234.08 278.3 216.12 283.9C195.34 290.39 175.14 281.78 174.94 281.69C173.93 281.25 172.75 281.71 172.31 282.72C171.87 283.73 172.33 284.91 173.34 285.35C173.97 285.63 185 290.34 199.45 290.34C205.03 290.34 211.11 289.64 217.31 287.7C239.47 280.78 255.35 259.06 256.01 258.14L256.17 257.87C256.49 257.24 256.5 256.44 256.2 255.72L256.22 255.8ZM161.02 145.45C174 143.02 180.23 151.45 180.51 151.83C180.63 151.99 180.77 152.13 180.92 152.25C180.59 158.99 180.54 164.51 180.56 168.16C174.31 162.76 165.2 162.3 161.03 162.42V145.45H161.02ZM159.81 275.44C151.51 273.75 140.8 265.33 135.6 260.89C162.97 256.88 174.54 266.23 176.89 268.51C176.16 269.24 175.43 269.94 174.66 270.6C171.26 273.5 165.93 276.69 159.8 275.44H159.81ZM181.95 263.75C181.17 264.37 180.45 265.02 179.75 265.69C177.03 262.98 166.53 254.51 143 256.07C150.28 253.01 159.68 250.03 166.18 251.53C175.22 253.6 181.15 259.68 183.51 262.54C182.97 262.95 182.45 263.36 181.95 263.75ZM196.58 256.2C195.89 256.36 195.23 256.5 194.61 256.65C191.86 257.31 189.2 258.67 186.79 260.22C184.21 257.01 177.58 250.03 167.07 247.62C165.43 247.25 163.66 247.11 161.81 247.15C166.55 241.1 168.33 232.19 168.83 228.99C172.16 227.48 175.44 224.58 177.76 220.8C178.34 219.86 178.04 218.63 177.1 218.05C176.16 217.47 174.93 217.77 174.35 218.71C171.36 223.58 166.05 226.93 162.75 226.03C159.81 225.22 159.31 220.94 159.28 218.46C159.21 213.71 161.63 209.7 165.91 207.45C168.56 206.06 171.36 205.64 174.29 205.54C175.19 208.65 178.18 217.5 183.55 219.07C183.79 219.14 184.04 219.2 184.32 219.24V223.99C183.81 224.26 183.45 224.79 183.45 225.41C183.45 226.03 183.8 226.56 184.32 226.83V229.12C183.81 229.39 183.45 229.92 183.45 230.54C183.45 231.16 183.8 231.69 184.32 231.96V234.17C183.21 234.5 182.39 235.51 182.39 236.73C182.39 238.21 183.59 239.41 185.07 239.41C186.55 239.41 187.75 238.21 187.75 236.73C187.75 235.51 186.93 234.5 185.82 234.17V231.95C186.33 231.68 186.69 231.15 186.69 230.53C186.69 229.91 186.34 229.38 185.82 229.11V226.82C186.33 226.55 186.69 226.02 186.69 225.4C186.69 224.78 186.34 224.25 185.82 223.98V219.28C187.23 219.15 188.9 218.51 190.69 216.82C191.49 216.06 191.53 214.8 190.77 213.99C190.01 213.19 188.75 213.15 187.94 213.91C187.06 214.74 186.35 215.1 185.82 215.23V213.76C185.82 213.35 185.48 213.01 185.07 213.01C184.66 213.01 184.32 213.35 184.32 213.76V215.07C182 214.02 179.75 209.44 178.48 205.54C178.61 205.54 178.74 205.54 178.87 205.54C180.79 205.59 182.77 205.63 184.76 205.52C191.67 205.12 198.12 203.27 203.43 200.17C209.01 196.9 210.6 191.91 212.14 187.09C212.77 185.1 213.27 183.05 213.75 181.06C214.41 178.34 215.03 175.78 215.97 173.36C217.07 170.52 220 168.66 222.84 166.85C223.5 166.43 224.15 166.02 224.77 165.6C225.23 165.29 225.73 164.97 226.24 164.63C228.91 162.91 231.89 160.96 233.59 158.17C235.6 161.22 238.41 166.27 238.48 170.76C238.53 173.91 238.4 177.05 238.28 179.82C238.05 185.18 237.99 187.41 238.75 188.72C239.79 190.5 240.85 192.33 241.91 194.16C242.95 195.96 244 197.77 245.04 199.55C245.38 200.13 245.81 200.76 246.26 201.42C248.05 204.02 249.43 206.27 248.34 207.46C248.03 207.77 246.7 208.28 245.9 208.59C243.74 209.42 241.5 210.27 241.5 212.45C241.5 213.33 241.68 214.26 241.87 215.26C242.05 216.18 242.23 217.14 242.23 217.85C242.13 218.35 240.94 219.58 239.8 220.39L237.4 222.09L239.85 223.71C240.08 223.86 240.32 224.06 240.53 224.25C239.29 225.49 237.73 227.44 237.73 229.43C237.73 230.06 237.87 230.88 238.05 231.91C238.48 234.38 239.29 238.98 237.39 240.07C235.67 241.06 230.53 240.7 226.4 240.41C222.34 240.12 218.5 239.86 215.87 240.46C212.29 241.27 201.72 243.69 201.22 255.04C199.58 255.51 198 255.86 196.54 256.19L196.58 256.2ZM228.16 260.57C228.96 259.7 229.68 258.79 230.38 257.91C231.9 256 233.33 254.19 235.35 253.09C236.45 252.49 237.98 251.97 239.15 252C238.75 252.51 238.24 253.18 237.61 254.02C234.52 258.15 228.8 265.79 223.85 268.46C220.72 269.23 217.58 269.67 214.69 269.94C219.68 267.53 224.51 264.54 228.16 260.57ZM242.12 257.44C241.82 257.71 241.54 257.97 241.29 258.18C240.62 258.76 239.97 259.35 239.32 259.93C238.05 261.07 236.81 262.17 235.52 263.16C237.61 260.69 239.45 258.23 240.81 256.42C241.6 255.36 242.29 254.44 242.61 254.08C242.86 253.8 243.1 253.52 243.35 253.22C244.8 251.49 245.71 250.42 248.26 251.01C248.33 251.47 248.26 252.33 248.09 253.21C245.81 254.1 243.7 256 242.12 257.44ZM163.97 137.92C163.45 136.94 163.83 135.73 164.8 135.22C167.34 133.88 171.29 132.31 174.07 132.31C175.17 132.31 176.07 133.21 176.07 134.31C176.07 135.41 175.17 136.31 174.07 136.31C172.46 136.31 169.35 137.34 166.67 138.75C166.37 138.91 166.05 138.98 165.74 138.98C165.02 138.98 164.33 138.59 163.97 137.91V137.92Z" fill="url(#paint0_linear_10322_893)"/>
<defs>
<linearGradient id="paint0_linear_10322_893" x1="191.54" y1="290.41" x2="191.54" y2="78.87" gradientUnits="userSpaceOnUse">
<stop stop-color="#611232"/>
<stop offset="1" stop-color="#9B2247"/>
</linearGradient>
</defs>
</svg>
