<svg width="250" height="58" viewBox="0 0 250 58" fill="none" xmlns="http://www.w3.org/2000/svg">
<path d="M4.47553 0.92937C6.39536 0.92937 7.85052 1.1984 8.82878 1.73645C9.81315 2.27451 10.3023 3.22222 10.3023 4.57959C10.3023 5.11765 10.2167 5.60679 10.0394 6.05313C9.86207 6.49947 9.61139 6.86021 9.28122 7.14147C8.95106 7.42273 8.55364 7.60616 8.08286 7.68564V7.78347C8.56587 7.87518 9.00609 8.04638 9.39128 8.28484C9.78258 8.52941 10.0883 8.87792 10.3206 9.3365C10.5468 9.79507 10.663 10.4004 10.663 11.1524C10.663 12.0268 10.449 12.7788 10.0271 13.4025C9.60527 14.0261 8.99386 14.5031 8.19903 14.8332C7.40419 15.1634 6.46262 15.3285 5.37431 15.3285H0V0.92937H4.47553ZM4.81792 6.63399C5.70447 6.63399 6.32199 6.49336 6.66438 6.2121C7.00677 5.93084 7.17797 5.52119 7.17797 4.98313C7.17797 4.44508 6.9762 4.03542 6.57267 3.79085C6.16914 3.54628 5.53327 3.43011 4.65895 3.43011H3.04483V6.63399H4.81792ZM3.04483 9.05524V12.8094H5.04414C5.95515 12.8094 6.59713 12.6321 6.95786 12.2775C7.31859 11.9228 7.50202 11.4459 7.50202 10.8528C7.50202 10.4921 7.42253 10.1742 7.26968 9.90512C7.11683 9.6361 6.84781 9.42821 6.47485 9.28147C6.09577 9.13472 5.5883 9.06135 4.9402 9.06135H3.04483V9.05524Z" fill="#6C6D70"/>
<path d="M17.8471 4.09656C19.3267 4.09656 20.4578 4.41451 21.2465 5.0565C22.0353 5.69239 22.4266 6.67067 22.4266 7.99136V15.3346H20.3294L19.7425 13.8427H19.663C19.3512 14.234 19.0332 14.5581 18.7031 14.8088C18.3729 15.0656 18 15.249 17.572 15.3652C17.1501 15.4813 16.6243 15.5364 16.0068 15.5364C15.3892 15.5364 14.7778 15.4141 14.2642 15.1634C13.7445 14.9127 13.341 14.5336 13.0414 14.0139C12.7479 13.4942 12.5951 12.84 12.5951 12.0451C12.5951 10.8773 13.0047 10.0091 13.824 9.45267C14.6433 8.89627 15.8722 8.59055 17.5169 8.53553L19.4307 8.47438V7.99136C19.4307 7.4105 19.2778 6.98861 18.9782 6.71959C18.6786 6.45056 18.2567 6.31604 17.7187 6.31604C17.1807 6.31604 16.6548 6.39553 16.1474 6.54839C15.6338 6.70124 15.1263 6.8969 14.6127 7.12313L13.6222 5.08708C14.2153 4.77525 14.8695 4.53679 15.591 4.35948C16.3125 4.18216 17.0584 4.09656 17.841 4.09656H17.8471ZM18.269 10.2659C17.3029 10.2903 16.6304 10.4676 16.2513 10.7917C15.8722 11.1157 15.6888 11.5376 15.6888 12.0635C15.6888 12.522 15.8233 12.8461 16.0923 13.0417C16.3614 13.2374 16.7099 13.3352 17.144 13.3352C17.7921 13.3352 18.3362 13.1457 18.7764 12.7605C19.2228 12.3753 19.4429 11.8372 19.4429 11.1341V10.2292L18.2751 10.272L18.269 10.2659Z" fill="#6C6D70"/>
<path d="M30.0264 15.5303C28.9381 15.5303 28.0088 15.3346 27.2445 14.9372C26.4802 14.5397 25.8933 13.9283 25.4897 13.0907C25.0862 12.2591 24.8844 11.1891 24.8844 9.88678C24.8844 8.58444 25.1107 7.44719 25.5692 6.5973C26.0278 5.74742 26.6636 5.12376 27.4768 4.72022C28.29 4.31668 29.2255 4.11491 30.2893 4.11491C31.0414 4.11491 31.6956 4.18828 32.2581 4.33502C32.8144 4.48176 33.3036 4.65908 33.7193 4.86085L32.8328 7.17816C32.362 6.98861 31.9218 6.83576 31.5121 6.71347C31.1025 6.59119 30.6929 6.53004 30.2893 6.53004C29.7635 6.53004 29.3294 6.65233 28.9809 6.90302C28.6324 7.1537 28.3695 7.52056 28.2044 8.0097C28.0332 8.49884 27.9537 9.11638 27.9537 9.85621C27.9537 10.596 28.0454 11.183 28.2289 11.6599C28.4123 12.1368 28.6752 12.4915 29.0237 12.7299C29.3722 12.9684 29.7941 13.0845 30.2954 13.0845C30.9252 13.0845 31.4877 12.9989 31.9707 12.8339C32.4537 12.6688 32.9245 12.4364 33.3831 12.1368V14.6987C32.9245 14.9922 32.4476 15.2062 31.9401 15.3346C31.4388 15.463 30.8029 15.5241 30.0325 15.5241L30.0264 15.5303Z" fill="#6C6D70"/>
<path d="M38.9652 3.12439C38.9652 3.66245 38.9469 4.18216 38.9163 4.67742C38.8796 5.17268 38.8552 5.5273 38.8246 5.72907H38.9836C39.2281 5.34999 39.5094 5.04428 39.8335 4.81193C40.1575 4.57959 40.5182 4.40228 40.9095 4.28611C41.307 4.16993 41.7288 4.11491 42.169 4.11491C42.9639 4.11491 43.6548 4.25553 44.2478 4.53679C44.8409 4.81805 45.2995 5.25828 45.6296 5.84525C45.9598 6.43833 46.1249 7.20261 46.1249 8.14421V15.3224H43.1228V8.89015C43.1228 8.0953 42.9761 7.50221 42.6887 7.10479C42.4014 6.70736 41.955 6.5117 41.3497 6.5117C40.7444 6.5117 40.2737 6.65233 39.9252 6.93359C39.5828 7.21484 39.3382 7.6245 39.1915 8.16256C39.0447 8.70061 38.9714 9.36095 38.9714 10.1375V15.3224H35.9693V0H38.9714V3.12439H38.9652Z" fill="#6C6D70"/>
<path d="M50.741 0C51.1874 0 51.5664 0.103943 51.8905 0.311828C52.2145 0.519713 52.3735 0.904912 52.3735 1.47354C52.3735 2.04217 52.2145 2.40902 51.8905 2.62302C51.5664 2.83702 51.1874 2.94708 50.741 2.94708C50.2947 2.94708 49.8973 2.83702 49.5793 2.62302C49.2614 2.40902 49.1024 2.02382 49.1024 1.47354C49.1024 0.923255 49.2614 0.519713 49.5793 0.311828C49.8973 0.103943 50.2825 0 50.741 0ZM52.2329 4.31668V15.3285H49.2308V4.31668H52.2329Z" fill="#6C6D70"/>
<path d="M58.4265 15.3285H55.4244V0H58.4265V15.3285Z" fill="#6C6D70"/>
<path d="M64.5956 15.3285H61.5936V0H64.5956V15.3285Z" fill="#6C6D70"/>
<path d="M72.3177 4.11491C73.3388 4.11491 74.2192 4.31056 74.9468 4.70188C75.6805 5.09319 76.2491 5.6557 76.6526 6.39553C77.0562 7.13536 77.2579 8.04027 77.2579 9.11638V10.5655H70.1595C70.1839 11.4153 70.4407 12.0757 70.9176 12.5648C71.3945 13.054 72.0548 13.2924 72.9047 13.2924C73.62 13.2924 74.262 13.2191 74.8429 13.0784C75.4176 12.9378 76.0168 12.7177 76.6404 12.4242V14.7415C76.1024 15.0105 75.5338 15.2062 74.9346 15.3346C74.3354 15.463 73.6139 15.5241 72.7641 15.5241C71.6635 15.5241 70.6853 15.3163 69.8415 14.9066C68.9917 14.4969 68.3313 13.8733 67.8422 13.0417C67.3592 12.2102 67.1146 11.1585 67.1146 9.89289C67.1146 8.62724 67.3347 7.53279 67.7688 6.67679C68.2029 5.82079 68.8144 5.17879 69.5908 4.75079C70.3734 4.32279 71.2783 4.10268 72.3116 4.10268L72.3177 4.11491ZM72.3422 6.2549C71.7614 6.2549 71.2845 6.44444 70.8993 6.81742C70.5141 7.1965 70.2879 7.77736 70.2206 8.57221H74.4332C74.4332 8.12587 74.3537 7.73456 74.2009 7.37993C74.048 7.03141 73.8157 6.75627 73.5039 6.5545C73.1921 6.35273 72.8069 6.2549 72.3361 6.2549H72.3422Z" fill="#6C6D70"/>
<path d="M85.8911 4.11491C86.0378 4.11491 86.2151 4.12102 86.4169 4.13325C86.6186 4.14548 86.7776 4.16993 86.8999 4.19439L86.6798 7.01919C86.5881 6.99473 86.4474 6.97027 86.264 6.94581C86.0806 6.92747 85.9216 6.91524 85.7871 6.91524C85.3958 6.91524 85.0229 6.96416 84.656 7.0681C84.2953 7.16593 83.9651 7.3249 83.6778 7.54501C83.3904 7.75901 83.1581 8.04638 82.993 8.40101C82.8218 8.75564 82.7423 9.19587 82.7423 9.72169V15.3285H79.7403V4.31668H82.0208L82.4672 6.1693H82.6078C82.8218 5.79022 83.0908 5.44782 83.4148 5.1421C83.7389 4.83028 84.1119 4.58571 84.5337 4.39616C84.9556 4.20662 85.4142 4.11491 85.8972 4.11491H85.8911Z" fill="#6C6D70"/>
<path d="M93.069 4.09656C94.5487 4.09656 95.6798 4.41451 96.4685 5.0565C97.2572 5.69239 97.6485 6.67067 97.6485 7.99136V15.3346H95.5514L94.9644 13.8427H94.8849C94.5731 14.234 94.2552 14.5581 93.925 14.8088C93.5948 15.0656 93.2219 15.249 92.7939 15.3652C92.372 15.4813 91.8523 15.5364 91.2287 15.5364C90.6051 15.5364 89.9998 15.4141 89.4862 15.1634C88.9726 14.9127 88.5629 14.5336 88.2633 14.0139C87.9699 13.4942 87.817 12.84 87.817 12.0451C87.817 10.8773 88.2267 10.0091 89.046 9.45267C89.8652 8.89627 91.0942 8.59055 92.7389 8.53553L94.6526 8.47438V7.99136C94.6526 7.4105 94.4997 6.98861 94.2001 6.71959C93.9006 6.45056 93.4787 6.31604 92.9406 6.31604C92.4026 6.31604 91.8768 6.39553 91.3693 6.54839C90.8557 6.70124 90.3482 6.8969 89.8347 7.12313L88.8442 5.08708C89.4373 4.77525 90.0915 4.53679 90.8129 4.35948C91.5344 4.18216 92.2803 4.09656 93.0629 4.09656H93.069ZM93.497 10.2659C92.531 10.2903 91.8584 10.4676 91.4794 10.7917C91.1003 11.1157 90.9169 11.5376 90.9169 12.0635C90.9169 12.522 91.0514 12.8461 91.3204 13.0417C91.5894 13.2374 91.9379 13.3352 92.372 13.3352C93.0201 13.3352 93.5643 13.1457 94.0045 12.7605C94.4508 12.3753 94.6709 11.8372 94.6709 11.1341V10.2292L93.5031 10.272L93.497 10.2659Z" fill="#6C6D70"/>
<path d="M105.413 13.1273C105.75 13.1273 106.074 13.0968 106.379 13.0295C106.691 12.9623 106.997 12.8828 107.309 12.7849V15.0228C106.985 15.1573 106.587 15.2735 106.11 15.3774C105.634 15.4813 105.114 15.5303 104.545 15.5303C103.885 15.5303 103.298 15.4202 102.778 15.2062C102.259 14.9922 101.849 14.6192 101.549 14.0873C101.25 13.5553 101.097 12.8216 101.097 11.88V6.57896H99.6662V5.30719L101.317 4.29833L102.185 1.98102H104.099V4.32279H107.187V6.57896H104.099V11.88C104.099 12.2958 104.221 12.6076 104.46 12.8155C104.704 13.0234 105.016 13.1273 105.407 13.1273H105.413Z" fill="#6C6D70"/>
<path d="M119.568 9.80118C119.568 10.7183 119.445 11.5315 119.195 12.2408C118.944 12.9561 118.589 13.5553 118.125 14.0445C117.66 14.5336 117.098 14.9066 116.443 15.1512C115.783 15.4019 115.037 15.5241 114.206 15.5241C113.441 15.5241 112.732 15.4019 112.078 15.1512C111.424 14.9005 110.861 14.5336 110.396 14.0445C109.926 13.5553 109.559 12.95 109.296 12.2408C109.033 11.5254 108.905 10.7122 108.905 9.80118C108.905 8.57833 109.119 7.54501 109.553 6.70736C109.981 5.8697 110.604 5.2277 111.405 4.78136C112.212 4.33502 113.166 4.11491 114.267 4.11491C115.3 4.11491 116.217 4.33502 117.012 4.78136C117.807 5.2277 118.43 5.8697 118.889 6.70736C119.347 7.54501 119.574 8.57833 119.574 9.80118H119.568ZM111.968 9.80118C111.968 10.5288 112.047 11.1341 112.2 11.6293C112.353 12.1185 112.598 12.4915 112.934 12.736C113.27 12.9867 113.704 13.109 114.242 13.109C114.78 13.109 115.214 12.9867 115.545 12.736C115.875 12.4853 116.119 12.1185 116.272 11.6293C116.425 11.1402 116.504 10.5288 116.504 9.80118C116.504 9.07358 116.425 8.46827 116.272 7.98524C116.119 7.50221 115.875 7.13536 115.538 6.8969C115.202 6.65233 114.768 6.53616 114.23 6.53616C113.435 6.53616 112.86 6.8113 112.506 7.35547C112.151 7.89964 111.974 8.71896 111.974 9.8073L111.968 9.80118Z" fill="#6C6D70"/>
<path d="M136.491 15.3285L130.218 4.43896H130.139C130.163 4.89753 130.188 5.3561 130.212 5.80856C130.231 6.26713 130.255 6.7257 130.273 7.17816C130.292 7.63673 130.31 8.0953 130.322 8.54775V15.3224H127.602V0.92937H131.453L137.708 11.7211H137.769C137.757 11.2747 137.745 10.8345 137.727 10.3882C137.708 9.94181 137.696 9.50158 137.678 9.06747C137.659 8.63335 137.641 8.19313 137.629 7.74678V0.92937H140.374V15.3285H136.491Z" fill="#6C6D70"/>
<path d="M148.31 4.09656C149.79 4.09656 150.921 4.41451 151.71 5.0565C152.498 5.69239 152.89 6.67067 152.89 7.99136V15.3346H150.792L150.205 13.8427H150.126C149.814 14.234 149.496 14.5581 149.166 14.8088C148.836 15.0656 148.463 15.249 148.035 15.3652C147.613 15.4813 147.093 15.5364 146.47 15.5364C145.846 15.5364 145.241 15.4141 144.727 15.1634C144.214 14.9127 143.804 14.5336 143.504 14.0139C143.211 13.4942 143.058 12.84 143.058 12.0451C143.058 10.8773 143.468 10.0091 144.287 9.45267C145.106 8.89627 146.335 8.59055 147.98 8.53553L149.894 8.47438V7.99136C149.894 7.4105 149.741 6.98861 149.441 6.71959C149.142 6.45056 148.72 6.31604 148.182 6.31604C147.644 6.31604 147.118 6.39553 146.61 6.54839C146.097 6.70124 145.589 6.8969 145.076 7.12313L144.085 5.08708C144.678 4.77525 145.332 4.53679 146.054 4.35948C146.775 4.18216 147.521 4.09656 148.304 4.09656H148.31ZM148.732 10.2659C147.766 10.2903 147.093 10.4676 146.714 10.7917C146.335 11.1157 146.152 11.5376 146.152 12.0635C146.152 12.522 146.286 12.8461 146.555 13.0417C146.824 13.2374 147.173 13.3352 147.607 13.3352C148.255 13.3352 148.799 13.1457 149.239 12.7605C149.686 12.3753 149.906 11.8372 149.906 11.1341V10.2292L148.738 10.272L148.732 10.2659Z" fill="#6C6D70"/>
<path d="M160.489 15.5303C159.401 15.5303 158.472 15.3346 157.707 14.9372C156.943 14.5397 156.356 13.9283 155.953 13.0907C155.549 12.2591 155.347 11.1891 155.347 9.88678C155.347 8.58444 155.574 7.44719 156.032 6.5973C156.491 5.74742 157.127 5.12376 157.94 4.72022C158.753 4.31668 159.688 4.11491 160.752 4.11491C161.504 4.11491 162.159 4.18828 162.721 4.33502C163.277 4.48176 163.767 4.65908 164.182 4.86085L163.296 7.17816C162.825 6.98861 162.385 6.83576 161.975 6.71347C161.565 6.59119 161.156 6.53004 160.752 6.53004C160.226 6.53004 159.792 6.65233 159.444 6.90302C159.095 7.1537 158.839 7.52056 158.667 8.0097C158.496 8.49884 158.417 9.11638 158.417 9.85621C158.417 10.596 158.508 11.183 158.686 11.6599C158.869 12.1368 159.132 12.4915 159.481 12.7299C159.829 12.9684 160.251 13.0845 160.752 13.0845C161.382 13.0845 161.945 12.9989 162.428 12.8339C162.911 12.6688 163.381 12.4364 163.84 12.1368V14.6987C163.381 14.9922 162.904 15.2062 162.397 15.3346C161.896 15.463 161.26 15.5241 160.489 15.5241V15.5303Z" fill="#6C6D70"/>
<path d="M167.93 0C168.377 0 168.756 0.103943 169.08 0.311828C169.404 0.519713 169.563 0.904912 169.563 1.47354C169.563 2.04217 169.404 2.40902 169.08 2.62302C168.756 2.83702 168.377 2.94708 167.93 2.94708C167.484 2.94708 167.087 2.83702 166.769 2.62302C166.451 2.40902 166.292 2.02382 166.292 1.47354C166.292 0.923255 166.451 0.519713 166.769 0.311828C167.087 0.103943 167.472 0 167.93 0ZM169.422 4.31668V15.3285H166.42V4.31668H169.422Z" fill="#6C6D70"/>
<path d="M182.592 9.80118C182.592 10.7183 182.47 11.5315 182.219 12.2408C181.968 12.9561 181.614 13.5553 181.149 14.0445C180.684 14.5336 180.122 14.9066 179.468 15.1512C178.807 15.4019 178.061 15.5241 177.23 15.5241C176.466 15.5241 175.756 15.4019 175.102 15.1512C174.448 14.9005 173.885 14.5336 173.421 14.0445C172.95 13.5553 172.583 12.95 172.32 12.2408C172.057 11.5254 171.929 10.7122 171.929 9.80118C171.929 8.57833 172.143 7.54501 172.577 6.70736C173.005 5.8697 173.629 5.2277 174.43 4.78136C175.237 4.33502 176.19 4.11491 177.291 4.11491C178.324 4.11491 179.241 4.33502 180.036 4.78136C180.831 5.2277 181.455 5.8697 181.913 6.70736C182.372 7.54501 182.598 8.57833 182.598 9.80118H182.592ZM174.992 9.80118C174.992 10.5288 175.072 11.1341 175.224 11.6293C175.377 12.1246 175.622 12.4915 175.958 12.736C176.294 12.9867 176.728 13.109 177.266 13.109C177.805 13.109 178.239 12.9867 178.569 12.736C178.899 12.4853 179.144 12.1185 179.296 11.6293C179.449 11.1402 179.529 10.5288 179.529 9.80118C179.529 9.07358 179.449 8.46827 179.296 7.98524C179.144 7.50221 178.899 7.13536 178.563 6.8969C178.226 6.65233 177.792 6.53616 177.254 6.53616C176.459 6.53616 175.885 6.8113 175.53 7.35547C175.175 7.89964 174.998 8.71896 174.998 9.8073L174.992 9.80118Z" fill="#6C6D70"/>
<path d="M191.366 4.11491C192.546 4.11491 193.493 4.43285 194.209 5.07485C194.924 5.71073 195.279 6.73793 195.279 8.15033V15.3285H192.277V8.89627C192.277 8.10141 192.136 7.50833 191.855 7.1109C191.574 6.71347 191.121 6.51782 190.504 6.51782C189.586 6.51782 188.963 6.82964 188.627 7.4533C188.29 8.07696 188.125 8.97575 188.125 10.1436V15.3285H185.123V4.31668H187.422L187.826 5.72907H187.985C188.229 5.34999 188.523 5.04428 188.871 4.81193C189.22 4.57959 189.611 4.40228 190.039 4.28611C190.467 4.16993 190.913 4.11491 191.372 4.11491H191.366Z" fill="#6C6D70"/>
<path d="M202.903 4.09656C204.383 4.09656 205.514 4.41451 206.302 5.0565C207.091 5.69239 207.482 6.67067 207.482 7.99136V15.3346H205.385L204.798 13.8427H204.719C204.407 14.234 204.089 14.5581 203.759 14.8088C203.429 15.0656 203.056 15.249 202.628 15.3652C202.206 15.4813 201.686 15.5364 201.063 15.5364C200.439 15.5364 199.834 15.4141 199.32 15.1634C198.8 14.9127 198.397 14.5336 198.097 14.0139C197.804 13.4942 197.651 12.84 197.651 12.0451C197.651 10.8773 198.061 10.0091 198.88 9.45267C199.699 8.89627 200.928 8.59055 202.573 8.53553L204.487 8.47438V7.99136C204.487 7.4105 204.334 6.98861 204.034 6.71959C203.734 6.45056 203.313 6.31604 202.775 6.31604C202.237 6.31604 201.711 6.39553 201.203 6.54839C200.69 6.70124 200.182 6.8969 199.669 7.12313L198.678 5.08708C199.271 4.77525 199.925 4.53679 200.647 4.35948C201.368 4.18216 202.114 4.09656 202.897 4.09656H202.903ZM203.325 10.2659C202.359 10.2903 201.686 10.4676 201.307 10.7917C200.928 11.1157 200.745 11.5376 200.745 12.0635C200.745 12.522 200.879 12.8461 201.148 13.0417C201.417 13.2374 201.766 13.3352 202.2 13.3352C202.848 13.3352 203.392 13.1457 203.832 12.7605C204.279 12.3753 204.499 11.8372 204.499 11.1341V10.2292L203.331 10.272L203.325 10.2659Z" fill="#6C6D70"/>
<path d="M213.609 15.3285H210.607V0H213.609V15.3285Z" fill="#6C6D70"/>
<path d="M27.8681 48.4556C28.2533 49.7763 26.5108 49.6968 25.612 49.654C24.5421 49.6112 23.7289 49.599 22.7262 49.6418C21.858 49.6479 19.8892 49.7824 20.2622 48.5045C20.3967 48.0337 20.6596 47.8259 21.057 47.1716C21.6012 46.2851 21.7479 45.2089 21.7173 44.2612C21.6195 42.2802 21.6073 37.0586 21.1243 33.6713C21.0754 33.5184 21.0203 33.3656 20.9103 33.4573C20.7085 33.6713 20.3478 34.3867 19.6997 35.9458C18.9843 37.6639 18.4218 39.1375 17.6942 41.0268L17.6759 41.0757C16.8199 43.2952 15.7561 46.2239 14.9735 48.101C14.4354 49.5562 12.6256 50.4489 11.8736 48.6146C10.8342 46.2851 7.23911 37.0158 5.60664 33.4573C5.39876 33.1394 5.16031 33.2616 5.10529 33.5857C4.89741 35.5667 4.87906 39.4737 4.76901 42.3108C4.73232 43.5703 4.73232 44.8176 4.97078 46.0588C5.08083 46.713 5.27648 47.3306 5.78395 47.8136C6.34034 48.2905 6.90895 49.1771 6.07743 49.495C5.07471 49.7213 3.61344 49.6296 2.45176 49.6296C1.45516 49.6296 -0.562499 49.8436 0.171195 48.2966C0.372961 47.8686 0.788721 47.5935 1.17391 47.0249C1.6447 46.3707 1.59578 45.5636 1.65081 44.7809C1.98709 41.2408 2.23165 35.4016 2.25611 32.0388C2.22554 30.6814 2.36005 29.3424 1.60801 28.1807C1.18002 27.502 0.599183 27.1902 0.427988 26.6521C0.201766 26.0896 0.690895 25.5393 1.27174 25.4721C1.80978 25.3742 2.31113 25.4354 2.85529 25.4476C3.63178 25.4782 4.34714 25.4721 5.11751 25.521C6.84169 25.521 7.7099 26.5421 8.40079 27.9606C9.97823 31.4335 12.7846 38.2876 13.9096 40.9045C14.0074 41.1613 14.2459 41.522 14.5088 41.4487C14.68 41.3997 14.7289 41.2285 14.79 41.0818C15.5176 39.2781 18.4402 31.5741 20.1705 27.7343C20.629 26.7866 21.2404 25.8145 22.3165 25.6433C23.1969 25.4721 24.3525 25.4843 25.2941 25.4415C26.3396 25.3437 27.966 25.4354 27.4401 26.805C27.2445 27.2391 26.7982 27.5631 26.4252 28.144C25.6181 29.3241 25.6915 30.7915 25.6793 32.1611C25.7037 36.1965 26.095 42.4331 26.3946 45.105C26.4619 45.7776 26.5842 46.5296 27.006 47.1044C27.434 47.7097 27.7336 47.9726 27.8742 48.4495L27.8681 48.4556Z" fill="#561C32"/>
<path d="M44.1011 34.032C44.792 35.1082 45.1711 36.4655 45.1711 38.0858C45.1711 38.7767 45.1527 39.5104 45.1283 40.238V48.8714C45.1283 48.9753 45.0916 49.067 45.0488 49.1526C44.9449 49.3361 44.7553 49.4706 44.5291 49.4706H41.6065C41.2764 49.4706 41.0074 49.2016 41.0074 48.8714V47.4101C40.9401 47.2817 40.8484 47.1777 40.7445 47.1777C40.6222 47.1777 40.4815 47.3856 40.3409 47.5263C39.2098 48.6268 37.3205 49.4645 35.3335 49.4645C32.3865 49.4645 30.0814 47.9114 30.0814 45.1233C30.0814 42.3352 32.0685 40.6049 35.1623 39.6816C37.4306 39.0335 40.1697 38.9296 40.5916 38.6361C40.7811 38.4955 40.9584 38.2203 40.9584 37.1198C40.9584 35.3588 40.3776 33.867 39.0203 33.2983C38.6412 33.1394 38.2132 33.0538 37.7119 33.0538C37.5835 33.0538 37.4673 33.0599 37.345 33.0721C35.9754 33.1638 34.722 33.9648 34.2818 35.579C33.9272 36.7407 33.9089 36.9914 32.3009 36.8568C31.3837 36.7774 31.237 36.221 31.4938 34.5518C31.6528 33.494 32.4782 32.5891 33.5848 31.9593C34.6731 31.4213 36.0733 31.0789 37.7669 31.0789C38.6229 31.0789 39.4177 31.1706 40.1453 31.3479C41.7655 31.8309 43.08 32.7664 44.0705 33.9709C44.0889 33.9954 44.1011 34.0198 44.1133 34.0443L44.1011 34.032ZM40.9646 42.2191C40.9646 41.1735 40.8606 40.8556 40.6344 40.8556C39.1854 40.8556 38.0176 40.9962 37.021 41.308C35.1745 41.9195 34.3491 43.1423 34.3491 44.3774C34.3491 45.8265 35.4313 46.6641 36.9292 46.6641C39.3015 46.6641 40.9584 44.8849 40.9584 42.2129L40.9646 42.2191Z" fill="#561C32"/>
<path d="M53.9448 38.7828C53.8287 40.1219 53.9142 41.7849 53.8898 43.1973C53.9142 44.7137 53.9081 45.0072 54.0854 46.0588C54.3422 47.0921 54.5012 47.1227 54.9047 47.6608C55.1187 47.942 55.4244 48.3761 55.4489 48.7308C55.4917 49.4033 54.7702 49.6907 54.3667 49.6846C52.667 49.6601 51.7376 49.7029 50.0073 49.6418C47.1826 49.2505 49.0535 47.5079 49.4509 46.1567C49.7261 45.2884 49.6283 44.7565 49.6527 43.5275C49.6527 42.164 49.6527 40.5865 49.6527 39.1925C49.6038 38.043 49.8545 36.5634 49.2492 35.8358C48.9374 35.4139 48.4482 35.0287 48.1976 34.5762C47.7635 33.6591 49.0107 33.2127 49.7505 32.8581C50.5331 32.5463 51.3035 32.1183 52.1228 32.0205C53.1806 31.8859 53.578 33.4023 53.9326 34.0137C54.0243 34.1604 54.1527 34.2766 54.33 34.2216C54.7886 34.0259 55.0454 33.6591 55.6079 33.2555C56.5005 32.5524 57.7172 31.9593 58.885 31.8309C62.3273 31.2501 63.5623 35.6523 61.3674 37.6639C60.8293 38.1408 59.955 38.4771 59.3252 38.0063C58.6771 37.5539 58.4998 36.2393 57.864 35.6401C56.0297 34.2216 54.1038 37.0708 53.9509 38.7095V38.7767H53.9387L53.9448 38.7828Z" fill="#561C32"/>
<path d="M79.6424 35.5056C79.0188 35.5056 78.6092 35.4872 78.5847 35.7685C78.5908 36.331 79.031 37.0647 79.1044 37.7312C79.4896 39.9445 78.2973 42.1579 76.4203 43.234C75.2892 43.9127 73.9502 44.249 72.6357 44.3407C70.991 44.5303 69.0895 43.8699 68.0929 45.374C67.402 46.7803 69.1873 47.4773 70.3918 47.4345C73.296 47.3795 77.1785 46.3034 79.7586 48.0276C81.1343 48.9081 81.599 50.8646 81.2994 52.3565C80.7552 55.9395 75.1363 58.0673 70.7525 58H70.6425C67.8972 58.0795 63.9169 57.1807 63.5073 54.6677C63.2872 53.6894 63.5684 52.6072 64.2043 51.8246C64.6078 51.2315 65.5311 50.8096 65.7512 50.186C65.8307 49.8252 65.4822 49.5256 65.2498 49.226C63.9231 47.7341 64.1737 45.4719 65.8429 44.2979C66.2158 43.9677 66.7294 43.5764 66.7172 43.0934C66.5582 42.2802 65.6656 41.7055 65.3782 40.9045C63.6724 37.401 65.8001 33.2005 69.6336 32.4423C72.8313 31.5313 76.0596 33.1271 79.2328 32.7175C79.8136 32.638 80.3517 32.4913 80.8836 32.3506C81.1893 32.2773 81.5011 32.2345 81.7457 32.4485C82.2348 32.8337 82.1981 34.3072 81.4583 34.9675C80.9814 35.42 80.2783 35.4995 79.6486 35.4934L79.6424 35.5056ZM69.3096 51.1642C69.1445 51.207 68.9855 51.256 68.8327 51.3049C68.0623 51.5861 67.2186 52.1242 66.9312 52.8885C66.919 52.919 66.9067 52.9435 66.9006 52.9741C66.8823 53.023 66.8701 53.078 66.8578 53.133C66.8395 53.2248 66.8273 53.3104 66.8273 53.4021C66.8273 53.4632 66.8273 53.5305 66.8273 53.5977C66.8273 53.61 66.8273 53.6161 66.8273 53.6222C66.8273 53.6894 66.8456 53.7445 66.8517 53.8056C66.9006 54.0379 66.9862 54.2458 67.1207 54.4293C67.1268 54.4415 67.133 54.4476 67.1452 54.4598C67.1819 54.5087 67.2247 54.5577 67.2675 54.6005C67.94 55.2669 69.2851 55.5604 70.618 55.6093C70.6608 55.6093 70.7036 55.6093 70.7464 55.6093C70.8075 55.6093 70.8687 55.6093 70.9298 55.6093C71.6513 55.6093 72.3238 55.5421 72.9353 55.4198C72.9658 55.4198 72.9964 55.4076 73.027 55.4014C73.6017 55.2792 74.152 55.1079 74.6289 54.8939C74.6594 54.8817 74.6839 54.8695 74.7145 54.8511C74.7817 54.8206 74.849 54.7839 74.9162 54.7533C75.8517 54.252 76.4081 53.5672 76.4386 52.7906C76.4386 52.7601 76.4386 52.7356 76.4386 52.705C76.4386 52.6867 76.4386 52.6684 76.4386 52.6439C76.4142 52.3382 76.3103 52.0141 76.1085 51.6656C75.6316 51.1092 74.8612 50.8463 73.993 50.7485C73.8524 50.7362 73.7179 50.724 73.565 50.724C72.6723 50.724 71.5718 50.8035 70.6669 50.9197C70.1533 50.9992 69.6887 51.0909 69.3035 51.1642H69.3096ZM73.5772 41.6871C74.4577 41.2713 74.9896 40.4582 75.2097 39.5227C75.2647 39.2353 75.3014 38.9235 75.3014 38.5811C75.3014 37.8168 75.118 36.814 74.6472 35.9825C74.0969 35.0837 73.2287 34.4356 72.0854 34.3989C72.0854 34.3989 72.0732 34.3989 72.0671 34.3989H71.9692C70.6669 34.46 69.8048 35.1448 69.334 36.0742C69.2484 36.2393 69.1873 36.4166 69.1262 36.6C69.0895 36.7101 69.0589 36.814 69.0345 36.9302C69.0222 36.973 69.0161 37.0219 69.01 37.0647C68.9489 37.3643 68.9122 37.6884 68.9122 38.0247C68.9122 38.361 68.9366 38.6483 68.9794 38.9296C69.169 39.9812 69.6887 40.9534 70.5018 41.5159C70.5446 41.5404 70.5813 41.5648 70.6241 41.5893C70.6364 41.5954 70.6547 41.6076 70.6669 41.6137C71.1255 41.8583 71.6391 41.9806 72.1649 41.9806C72.2994 41.9806 72.4339 41.9745 72.5623 41.9561C72.7029 41.9378 72.8435 41.9256 72.9903 41.8889C73.082 41.8705 73.1676 41.84 73.2532 41.8094C73.3327 41.7849 73.406 41.7605 73.4794 41.7299C73.5161 41.7177 73.5467 41.6993 73.5834 41.681L73.5772 41.6871Z" fill="#561C32"/>
<path d="M97.7952 34.032C98.48 35.1082 98.8591 36.4655 98.8591 38.0858C98.8591 38.7767 98.8408 39.5104 98.8163 40.238V48.8714C98.8163 48.9753 98.7796 49.067 98.7368 49.1526C98.6329 49.3361 98.4433 49.4706 98.2171 49.4706H95.2946C94.9644 49.4706 94.6954 49.2016 94.6954 48.8714V47.4101C94.6281 47.2817 94.5364 47.1777 94.4325 47.1777C94.3102 47.1777 94.1696 47.3856 94.0289 47.5263C92.8978 48.6268 91.0086 49.4645 89.0215 49.4645C86.0745 49.4645 83.7695 47.9114 83.7695 45.1233C83.7695 42.3352 85.7566 40.6049 88.8503 39.6816C91.1186 39.0335 93.8578 38.9296 94.2796 38.6361C94.4692 38.4955 94.6465 38.2203 94.6465 37.1198C94.6465 35.3588 94.0656 33.867 92.7083 33.2983C92.3292 33.1394 91.9012 33.0538 91.3999 33.0538C91.2715 33.0538 91.1553 33.0599 91.033 33.0721C89.6635 33.1638 88.4101 33.9648 87.9699 35.579C87.6152 36.7407 87.5969 36.9914 85.9889 36.8568C85.0718 36.7774 84.925 36.221 85.1818 34.5518C85.3408 33.494 86.1662 32.5891 87.2729 31.9593C88.3612 31.4213 89.7613 31.0789 91.4549 31.0789C92.3109 31.0789 93.1057 31.1706 93.8333 31.3479C95.4535 31.8309 96.7681 32.7664 97.7586 33.9709C97.7769 33.9954 97.7891 34.0198 97.8014 34.0443L97.7952 34.032ZM94.6587 42.2191C94.6587 41.1735 94.5548 40.8556 94.3285 40.8556C92.8795 40.8556 91.7117 40.9962 90.7151 41.308C88.8686 41.9195 88.0432 43.1423 88.0432 44.3774C88.0432 45.8265 89.1254 46.6641 90.6234 46.6641C92.9957 46.6641 94.6526 44.8849 94.6526 42.2129L94.6587 42.2191Z" fill="#561C32"/>
<path d="M107.639 38.7828C107.523 40.1219 107.608 41.7849 107.584 43.1973C107.608 44.7137 107.602 45.0072 107.78 46.0588C108.036 47.0921 108.195 47.1227 108.599 47.6608C108.813 47.942 109.119 48.3761 109.143 48.7308C109.186 49.4033 108.464 49.6907 108.061 49.6846C106.361 49.6601 105.432 49.7029 103.701 49.6418C100.877 49.2505 102.748 47.5079 103.145 46.1567C103.42 45.2884 103.322 44.7565 103.347 43.5275C103.347 42.164 103.347 40.5865 103.347 39.1925C103.298 38.043 103.549 36.5634 102.943 35.8358C102.632 35.4139 102.142 35.0287 101.892 34.5762C101.458 33.6591 102.705 33.2127 103.445 32.8581C104.227 32.5463 104.998 32.1183 105.817 32.0205C106.875 31.8859 107.272 33.4023 107.627 34.0137C107.718 34.1604 107.847 34.2766 108.024 34.2216C108.483 34.0259 108.74 33.6591 109.302 33.2555C110.195 32.5524 111.411 31.9593 112.579 31.8309C116.021 31.2501 117.256 35.6523 115.062 37.6639C114.523 38.1408 113.649 38.4771 113.019 38.0063C112.371 37.5539 112.194 36.2393 111.558 35.6401C109.724 34.2216 107.798 37.0708 107.645 38.7095V38.7767H107.633L107.639 38.7828Z" fill="#561C32"/>
<path d="M124.037 38.3243C124.037 39.9384 124.037 41.8583 124.037 43.7048C124.049 44.7809 123.97 45.7715 124.447 46.6519C124.856 47.4835 126.244 48.7308 124.648 49.3666C123.597 49.6907 122.967 49.4828 121.903 49.5134C120.962 49.4278 117.764 50.0576 118.516 48.1927C118.919 47.4712 119.072 46.872 119.341 46.0588C119.733 44.9155 119.506 43.448 119.568 42.0234C119.476 40.3053 119.788 37.6456 119.378 36.2026C118.822 34.9186 116.578 33.9954 118.956 32.9743C120.13 32.5157 121.347 31.9471 122.557 31.6291C124.636 31.3907 124.147 33.4451 124.117 34.9614C124.074 35.9886 124.043 37.3093 124.037 38.2631V38.3243ZM122.441 24.3715C123.566 24.3593 124.6 25.252 124.581 26.4137C124.63 28.3091 122.417 29.8438 120.515 29.5381C119.072 29.3974 118.644 27.7771 119.225 26.6093C119.733 25.4048 121.053 24.3715 122.362 24.3715H122.441Z" fill="#561C32"/>
<path d="M139.414 44.6464C139.622 44.6464 139.885 44.8054 139.885 45.3618C139.885 45.692 139.763 46.1444 139.5 46.603C138.852 47.8442 137.268 49.6051 134.296 49.6051C131.154 49.6051 129.552 47.514 129.552 43.338C129.552 41.7483 129.778 37.2298 129.778 35.5056C129.778 34.8452 129.619 34.5273 129.1 34.46C127.828 34.3011 127.076 34.2155 127.076 33.5368C127.076 33.011 127.265 32.5585 127.858 32.2773C128.904 31.8065 129.968 31.2134 130.738 30.3757C132.065 28.8899 132.169 27.0067 133.165 27.0067C133.722 27.0067 134.089 27.4775 134.089 28.3702C134.089 29.0489 133.911 31.7575 133.911 31.8798C133.911 31.9654 133.93 32.0205 134.07 32.0205C134.364 32.0205 137.788 31.8431 138.191 31.8431C138.87 31.8431 139.31 32.0327 139.31 32.852C139.31 33.4451 138.98 34.2155 138.68 34.5273C138.576 34.6312 138.368 34.7352 138.087 34.7352C137.72 34.7352 134.669 34.5579 134.211 34.5579C134.107 34.5579 133.948 34.5946 133.93 34.8575C133.875 35.4872 133.771 40.4215 133.771 42.2007C133.771 44.1756 134.186 46.2667 136.351 46.2667C137.451 46.2667 138.289 45.5697 138.778 45.0622C139.041 44.7809 139.182 44.6464 139.408 44.6464H139.414Z" fill="#561C32"/>
<path d="M155.892 34.032C156.576 35.1082 156.955 36.4655 156.955 38.0858C156.955 38.7767 156.937 39.5104 156.913 40.238V48.8714C156.913 48.9753 156.876 49.067 156.833 49.1526C156.729 49.3361 156.54 49.4706 156.313 49.4706H153.391C153.061 49.4706 152.792 49.2016 152.792 48.8714V47.4101C152.724 47.2817 152.633 47.1777 152.529 47.1777C152.407 47.1777 152.266 47.3856 152.125 47.5263C150.994 48.6268 149.105 49.4645 147.118 49.4645C144.171 49.4645 141.866 47.9114 141.866 45.1233C141.866 42.3352 143.853 40.6049 146.947 39.6816C149.215 39.0335 151.954 38.9296 152.376 38.6361C152.565 38.4955 152.743 38.2203 152.743 37.1198C152.743 35.3588 152.162 33.867 150.805 33.2983C150.426 33.1394 149.998 33.0538 149.496 33.0538C149.368 33.0538 149.252 33.0599 149.129 33.0721C147.76 33.1638 146.506 33.9648 146.066 35.579C145.712 36.7407 145.693 36.9914 144.085 36.8568C143.168 36.7774 143.021 36.221 143.278 34.5518C143.437 33.494 144.263 32.5891 145.369 31.9593C146.457 31.4213 147.858 31.0789 149.551 31.0789C150.407 31.0789 151.202 31.1706 151.93 31.3479C153.55 31.8309 154.864 32.7664 155.855 33.9709C155.873 33.9954 155.885 34.0198 155.898 34.0443L155.892 34.032ZM152.755 42.2191C152.755 41.1735 152.651 40.8556 152.425 40.8556C150.976 40.8556 149.808 40.9962 148.811 41.308C146.965 41.9195 146.14 43.1423 146.14 44.3774C146.14 45.8265 147.222 46.6641 148.72 46.6641C151.092 46.6641 152.749 44.8849 152.749 42.2129L152.755 42.2191Z" fill="#561C32"/>
<path d="M198.042 48.4556C198.427 49.7763 196.685 49.6968 195.786 49.654C194.722 49.6112 193.903 49.599 192.9 49.6418C192.032 49.6479 190.063 49.7824 190.436 48.5045C190.571 48.0337 190.834 47.8259 191.231 47.1716C191.775 46.2851 191.922 45.2089 191.898 44.2612C191.8 42.2802 191.788 37.0586 191.298 33.6713C191.249 33.5184 191.194 33.3656 191.084 33.4573C190.883 33.6713 190.522 34.3867 189.874 35.9458C189.158 37.6639 188.596 39.1375 187.868 41.0268L187.85 41.0757C186.994 43.2952 185.93 46.2239 185.148 48.101C184.61 49.5562 182.8 50.4489 182.048 48.6146C181.008 46.2851 177.413 37.0158 175.781 33.4573C175.573 33.1394 175.334 33.2616 175.279 33.5857C175.072 35.5667 175.053 39.4737 174.943 42.3108C174.906 43.5703 174.906 44.8176 175.145 46.0588C175.255 46.713 175.451 47.3306 175.958 47.8136C176.508 48.2905 177.077 49.1771 176.252 49.495C175.249 49.7213 173.788 49.6296 172.626 49.6296C171.629 49.6296 169.612 49.8436 170.345 48.2966C170.547 47.8686 170.963 47.5935 171.348 47.0249C171.819 46.3707 171.77 45.5636 171.825 44.7809C172.155 41.2408 172.406 35.4016 172.43 32.0388C172.4 30.6814 172.534 29.3424 171.782 28.1807C171.354 27.502 170.773 27.1902 170.602 26.6521C170.376 26.0896 170.865 25.5393 171.446 25.4721C171.984 25.3742 172.485 25.4354 173.029 25.4476C173.806 25.4782 174.521 25.4721 175.292 25.521C177.016 25.521 177.884 26.5421 178.575 27.9606C180.152 31.4335 182.959 38.2876 184.084 40.9045C184.182 41.1613 184.42 41.522 184.683 41.4487C184.854 41.3997 184.903 41.2285 184.964 41.0818C185.692 39.2781 188.614 31.5741 190.345 27.7343C190.803 26.7866 191.415 25.8145 192.491 25.6433C193.371 25.4721 194.527 25.4843 195.468 25.4415C196.514 25.3437 198.14 25.4354 197.614 26.805C197.419 27.2391 196.972 27.5631 196.599 28.144C195.792 29.3241 195.866 30.7915 195.853 32.1611C195.878 36.1965 196.275 42.4331 196.569 45.105C196.636 45.7776 196.758 46.5296 197.18 47.1044C197.608 47.7097 197.908 47.9726 198.048 48.4495L198.042 48.4556Z" fill="#561C32"/>
<path d="M214.275 34.032C214.96 35.1082 215.339 36.4655 215.339 38.0858C215.339 38.7767 215.321 39.5104 215.296 40.238V48.8714C215.296 48.9753 215.26 49.067 215.217 49.1526C215.113 49.3361 214.923 49.4706 214.697 49.4706H211.775C211.444 49.4706 211.175 49.2016 211.175 48.8714V47.4101C211.108 47.2817 211.016 47.1777 210.912 47.1777C210.79 47.1777 210.65 47.3856 210.509 47.5263C209.378 48.6268 207.489 49.4645 205.501 49.4645C202.554 49.4645 200.249 47.9114 200.249 45.1233C200.249 42.3352 202.237 40.6049 205.33 39.6816C207.599 39.0335 210.338 38.9296 210.76 38.6361C210.949 38.4955 211.126 38.2203 211.126 37.1198C211.126 35.3588 210.546 33.867 209.188 33.2983C208.809 33.1394 208.381 33.0538 207.88 33.0538C207.751 33.0538 207.635 33.0599 207.513 33.0721C206.143 33.1638 204.89 33.9648 204.45 35.579C204.095 36.7407 204.077 36.9914 202.469 36.8568C201.552 36.7774 201.405 36.221 201.662 34.5518C201.821 33.494 202.646 32.5891 203.753 31.9593C204.841 31.4213 206.241 31.0789 207.935 31.0789C208.791 31.0789 209.586 31.1706 210.313 31.3479C211.934 31.8309 213.248 32.7664 214.239 33.9709C214.257 33.9954 214.269 34.0198 214.281 34.0443L214.275 34.032ZM211.139 42.2191C211.139 41.1735 211.035 40.8556 210.809 40.8556C209.359 40.8556 208.192 40.9962 207.195 41.308C205.349 41.9195 204.523 43.1423 204.523 44.3774C204.523 45.8265 205.605 46.6641 207.103 46.6641C209.476 46.6641 211.133 44.8849 211.133 42.2129L211.139 42.2191Z" fill="#561C32"/>
<path d="M232.226 44.6036C233.382 45.05 232.459 47.8625 232.018 48.7002C231.444 49.7274 230.716 49.8252 229.854 49.7518C229.016 49.6846 227.427 49.6051 226.369 49.5806C224.645 49.5378 222.951 49.5378 221.209 49.5745C220.059 49.5317 218.512 49.9536 218.115 48.8653C217.876 48.046 218.592 47.3551 219.069 46.7375C220.848 44.5547 225.226 39.2108 226.815 37.2543C227.286 36.6428 228.105 35.6768 226.687 35.4934C225.091 35.3405 223.214 35.4139 221.643 35.7379C220.561 35.9152 218.616 37.0708 218.384 35.4383C218.408 34.0993 218.922 31.782 220.512 31.6353C222.603 31.7209 225.122 31.9165 227.439 31.8431C228.821 31.9043 230.979 31.5252 232.006 31.9165C233.113 32.583 232.171 33.9159 231.572 34.619C230.184 36.3616 226.797 40.611 225.171 42.6532C223.501 44.7932 222.028 46.0099 225.806 45.8081C227.366 45.7531 228.802 45.5941 230.209 45.05C230.814 44.8299 231.535 44.463 232.171 44.6036L232.226 44.622V44.6036Z" fill="#561C32"/>
<path d="M248.93 34.032C249.615 35.1082 249.994 36.4655 249.994 38.0858C249.994 38.7767 249.976 39.5104 249.951 40.238V48.8714C249.951 48.9753 249.914 49.067 249.872 49.1526C249.768 49.3361 249.578 49.4706 249.352 49.4706H246.429C246.099 49.4706 245.83 49.2016 245.83 48.8714V47.4101C245.763 47.2817 245.671 47.1777 245.567 47.1777C245.445 47.1777 245.304 47.3856 245.164 47.5263C244.033 48.6268 242.143 49.4645 240.156 49.4645C237.209 49.4645 234.904 47.9114 234.904 45.1233C234.904 42.3352 236.891 40.6049 239.985 39.6816C242.253 39.0335 244.993 38.9296 245.414 38.6361C245.604 38.4955 245.781 38.2203 245.781 37.1198C245.781 35.3588 245.2 33.867 243.843 33.2983C243.464 33.1394 243.036 33.0538 242.535 33.0538C242.406 33.0538 242.29 33.0599 242.168 33.0721C240.798 33.1638 239.545 33.9648 239.105 35.579C238.75 36.7407 238.732 36.9914 237.124 36.8568C236.207 36.7774 236.06 36.221 236.317 34.5518C236.476 33.494 237.301 32.5891 238.408 31.9593C239.496 31.4213 240.896 31.0789 242.59 31.0789C243.446 31.0789 244.241 31.1706 244.968 31.3479C246.588 31.8309 247.903 32.7664 248.893 33.9709C248.912 33.9954 248.924 34.0198 248.936 34.0443L248.93 34.032ZM245.794 42.2191C245.794 41.1735 245.69 40.8556 245.463 40.8556C244.014 40.8556 242.846 40.9962 241.85 41.308C240.003 41.9195 239.178 43.1423 239.178 44.3774C239.178 45.8265 240.26 46.6641 241.758 46.6641C244.13 46.6641 245.787 44.8849 245.787 42.2129L245.794 42.2191Z" fill="#561C32"/>
</svg>
