<svg width="250" height="38" viewBox="0 0 250 38" fill="none" xmlns="http://www.w3.org/2000/svg">
<path d="M19.4355 37.8356H17.5394V22.7518L10.1872 35.4391H9.25187L1.89605 22.8285V37.832H0V18.9744H1.6314L9.75942 32.955L17.8041 18.9744H19.4355V37.8356Z" fill="#9A2544"/>
<path d="M33.0414 18.9781H31.0873L22.5351 37.832H24.5943L32.0517 21.0531L39.509 37.832H41.5936L33.0414 18.9781Z" fill="#9A2544"/>
<path d="M57.4726 37.832L53.1946 31.7714C52.7125 31.8262 52.2158 31.8518 51.6974 31.8518H46.6727V37.832H44.6932V18.9744H51.6974C54.0865 18.9744 55.9572 19.548 57.313 20.6987C58.6689 21.8495 59.3432 23.4276 59.3432 25.4405C59.3432 26.9127 58.9734 28.1584 58.2339 29.1704C57.4943 30.1859 56.4393 30.9166 55.0653 31.3659L59.6369 37.832H57.4726ZM55.8955 28.9183C56.8744 28.0927 57.3638 26.9346 57.3638 25.4441C57.3638 23.9537 56.8744 22.7445 55.8955 21.9298C54.9131 21.1115 53.4992 20.7024 51.643 20.7024H46.6727V30.1567H51.643C53.4956 30.1567 54.9131 29.7439 55.8955 28.9183Z" fill="#9A2544"/>
<path d="M77.2017 28.4068H79.0977V35.5999C78.224 36.3707 77.1908 36.9662 75.9981 37.379C74.8053 37.7918 73.5473 38 72.2277 38C70.357 38 68.6712 37.5872 67.174 36.7616C65.6767 35.936 64.5021 34.7925 63.6465 33.3276C62.7909 31.8627 62.3631 30.2261 62.3631 28.4105C62.3631 26.5949 62.7909 24.9583 63.6465 23.4934C64.5021 22.0285 65.6767 20.885 67.174 20.0594C68.6712 19.2338 70.3643 18.821 72.2531 18.821C73.6778 18.821 74.9902 19.0511 76.1829 19.5078C77.3757 19.9644 78.3835 20.6439 79.2029 21.5426L77.9739 22.8102C76.4947 21.338 74.6132 20.6001 72.3328 20.6001C70.8174 20.6001 69.4507 20.9362 68.2289 21.6083C67.0072 22.2805 66.0501 23.2157 65.3541 24.4103C64.658 25.6049 64.31 26.9383 64.31 28.4105C64.31 29.8827 64.658 31.2125 65.3541 32.3961C66.0501 33.5797 67.0036 34.5149 68.2144 35.198C69.4253 35.8812 70.7884 36.2209 72.3038 36.2209C74.2289 36.2209 75.8603 35.7351 77.1944 34.767V28.4105L77.2017 28.4068Z" fill="#9A2544"/>
<path d="M92.1997 18.9781H90.2493L81.6935 37.832H83.7527L91.21 21.0531L98.6673 37.832H100.752L92.1997 18.9781Z" fill="#9A2544"/>
<path d="M116.631 37.832L112.353 31.7714C111.871 31.8262 111.374 31.8518 110.856 31.8518H105.831V37.832H103.852V18.9744H110.856C113.245 18.9744 115.115 19.548 116.471 20.6987C117.827 21.8495 118.502 23.4276 118.502 25.4405C118.502 26.9127 118.132 28.1584 117.392 29.1704C116.653 30.1859 115.598 30.9166 114.224 31.3659L118.795 37.832H116.631ZM115.057 28.9183C116.036 28.0927 116.526 26.9346 116.526 25.4441C116.526 23.9537 116.036 22.7445 115.057 21.9298C114.075 21.1115 112.661 20.7024 110.805 20.7024H105.835V30.1567H110.805C112.658 30.1567 114.075 29.7439 115.057 28.9183Z" fill="#9A2544"/>
<path d="M123.182 18.9781H125.161V37.8356H123.182V18.9781Z" fill="#9A2544"/>
<path d="M134.892 20.7024H128.315V18.9781H143.444V20.7024H136.868V37.8356H134.888V20.7024H134.892Z" fill="#9A2544"/>
<path d="M153.174 18.9781H151.224L142.668 37.832H144.727L152.185 21.0531L159.646 37.832H161.73L153.174 18.9781Z" fill="#9A2544"/>
<path d="M191.269 18.9781V37.8356H189.37V22.7518L182.018 35.4391H181.082L173.73 22.8321V37.8356H171.83V18.9781H173.462L181.59 32.9587L189.634 18.9781H191.269Z" fill="#9A2544"/>
<path d="M204.875 18.9781H202.925L194.369 37.832H196.428L203.886 21.0531L211.343 37.832H213.431L204.875 18.9781Z" fill="#9A2544"/>
<path d="M230.032 36.1113V37.8356H214.686V36.462L227.088 20.7024H214.87V18.9781H229.709V20.3517L217.332 36.1113H230.032Z" fill="#9A2544"/>
<path d="M241.444 18.9781H239.494L230.938 37.832H232.997L240.454 21.0531L247.915 37.832H250L241.444 18.9781Z" fill="#9A2544"/>
<path d="M9.92619 8.29629C10.4192 8.86253 10.6658 9.59681 10.6658 10.5028C10.6658 11.6206 10.2597 12.4828 9.45127 13.0856C8.63919 13.6883 7.43558 13.9915 5.84043 13.9915H0V0.792732H5.46339C6.88453 0.792732 7.99025 1.08498 8.7842 1.66949C9.57815 2.25399 9.97332 3.08691 9.97332 4.16824C9.97332 4.92078 9.77755 5.55643 9.38239 6.07153C8.99085 6.58662 8.45792 6.95924 7.78361 7.18208C8.71895 7.35743 9.43314 7.73005 9.92619 8.29264V8.29629ZM0.953465 1.622V6.88252H5.42351C6.56912 6.88252 7.4537 6.65968 8.07001 6.214C8.68632 5.76831 8.99447 5.11075 8.99447 4.24495C8.99447 3.37916 8.68632 2.73986 8.07001 2.29417C7.4537 1.84849 6.56912 1.62565 5.42351 1.62565H0.953465V1.622ZM8.7262 12.4901C9.38239 12.0444 9.70867 11.3576 9.70867 10.4261C9.70867 9.49452 9.38239 8.81138 8.7262 8.36935C8.07001 7.93097 7.1093 7.70813 5.8368 7.70813H0.953465V13.155H5.8368C7.1093 13.155 8.07364 12.9321 8.7262 12.4864V12.4901Z" fill="#AD851A"/>
<path d="M19.8488 5.00481C20.4977 5.62584 20.8203 6.54278 20.8203 7.74832V13.9879H19.9213V12.2344C19.6095 12.8116 19.1527 13.2609 18.5545 13.5824C17.9563 13.9039 17.2385 14.0646 16.4047 14.0646C15.3207 14.0646 14.4615 13.8089 13.8307 13.2901C13.1999 12.775 12.8845 12.0956 12.8845 11.2553C12.8845 10.4151 13.1745 9.77581 13.7545 9.26803C14.3346 8.76024 15.2591 8.50452 16.5316 8.50452H19.8814V7.71179C19.8814 6.79485 19.6349 6.0971 19.1418 5.61853C18.6488 5.13997 17.9273 4.90252 16.9811 4.90252C16.3322 4.90252 15.7122 5.01577 15.1213 5.24226C14.5304 5.46876 14.0265 5.77197 13.6168 6.14824L13.1491 5.46876C13.6349 5.03038 14.2222 4.68698 14.9074 4.44222C15.5926 4.19746 16.3104 4.07326 17.0572 4.07326C18.2681 4.07326 19.1962 4.38377 19.8451 5.00481H19.8488ZM18.6053 12.7239C19.1744 12.3476 19.5986 11.7997 19.8886 11.0836V9.23515H16.5569C15.5962 9.23515 14.9002 9.4105 14.4724 9.76485C14.041 10.1156 13.8271 10.6014 13.8271 11.2152C13.8271 11.8289 14.0627 12.3622 14.5376 12.7312C15.0125 13.1038 15.6796 13.2865 16.5388 13.2865C17.3509 13.2865 18.0397 13.0965 18.6053 12.7202V12.7239Z" fill="#AD851A"/>
<path d="M26.0227 13.4217C25.2759 12.9942 24.6886 12.4024 24.2644 11.6389C23.8403 10.8791 23.63 10.0206 23.63 9.0671C23.63 8.11363 23.8403 7.23688 24.2644 6.47337C24.6886 5.71352 25.2759 5.12171 26.0227 4.7016C26.7695 4.28148 27.6179 4.0696 28.5677 4.0696C29.3544 4.0696 30.0686 4.22303 30.7103 4.5299C31.352 4.83676 31.874 5.2861 32.2728 5.87791L31.5804 6.38569C31.2323 5.89617 30.7973 5.52721 30.2789 5.28245C29.7604 5.03769 29.1913 4.91348 28.5677 4.91348C27.8064 4.91348 27.1248 5.08518 26.5194 5.43222C25.9139 5.77927 25.439 6.26514 25.0982 6.89348C24.7538 7.52182 24.5834 8.24514 24.5834 9.0598C24.5834 9.87445 24.7538 10.5978 25.0982 11.2261C25.4427 11.8545 25.9139 12.3403 26.5194 12.6874C27.1248 13.0344 27.8064 13.2061 28.5677 13.2061C29.1913 13.2061 29.7604 13.0856 30.2789 12.8371C30.7973 12.5924 31.2287 12.2234 31.5804 11.7339L32.2728 12.2417C31.874 12.8335 31.352 13.2828 30.7103 13.5897C30.0686 13.8966 29.3544 14.05 28.5677 14.05C27.6179 14.05 26.7732 13.8381 26.0227 13.4107V13.4217Z" fill="#AD851A"/>
<path d="M42.5796 5.14728C43.2902 5.8633 43.6455 6.89348 43.6455 8.23784V13.9879H42.7102V8.31456C42.7102 7.20765 42.431 6.36743 41.8763 5.79023C41.3217 5.21304 40.5458 4.92444 39.5489 4.92444C38.3996 4.92444 37.4969 5.27149 36.8371 5.96193C36.1773 6.65237 35.8474 7.58393 35.8474 8.75293V13.9952H34.912V0H35.8474V6.20304C36.1845 5.52355 36.6812 5.00115 37.3447 4.62853C38.0045 4.25957 38.7839 4.07326 39.683 4.07326C40.9047 4.07326 41.8727 4.43126 42.5833 5.14728H42.5796Z" fill="#AD851A"/>
<path d="M47.4267 1.53797C47.2781 1.3955 47.202 1.21284 47.202 1.00096C47.202 0.789079 47.2781 0.606422 47.4267 0.45299C47.5754 0.303211 47.7566 0.226495 47.9705 0.226495C48.1844 0.226495 48.3621 0.299558 48.5143 0.44203C48.663 0.588156 48.7391 0.76716 48.7391 0.979042C48.7391 1.19092 48.663 1.37358 48.5143 1.52701C48.3657 1.67679 48.1844 1.75351 47.9705 1.75351C47.7566 1.75351 47.579 1.68045 47.4267 1.53797ZM47.4992 4.14632H48.4346V13.9879H47.4992V4.14632Z" fill="#AD851A"/>
<path d="M52.3826 0H53.3179V13.9879H52.3826V0Z" fill="#AD851A"/>
<path d="M57.2659 0H58.2012V13.9879H57.2659V0Z" fill="#AD851A"/>
<path d="M70.4005 9.2936H62.0006C62.026 10.0608 62.2181 10.7439 62.5807 11.3394C62.9432 11.9348 63.4326 12.3988 64.0489 12.7239C64.6652 13.049 65.3613 13.2134 66.1335 13.2134C66.7679 13.2134 67.3589 13.0965 67.9027 12.8664C68.4465 12.6326 68.896 12.2928 69.2585 11.8398L69.8023 12.4609C69.3782 12.976 68.8453 13.3705 68.2036 13.6481C67.5619 13.9258 66.8658 14.0646 66.119 14.0646C65.1474 14.0646 64.281 13.8527 63.5196 13.4253C62.7583 12.9979 62.1637 12.4061 61.7323 11.6535C61.3009 10.901 61.087 10.0388 61.087 9.07076C61.087 8.10267 61.29 7.2588 61.6961 6.49894C62.1021 5.73909 62.6604 5.14363 63.371 4.71621C64.0816 4.28879 64.8791 4.07691 65.7673 4.07691C66.6555 4.07691 67.4495 4.28879 68.1528 4.7089C68.8561 5.12901 69.4108 5.71717 69.8168 6.46972C70.2229 7.22226 70.4259 8.0771 70.4259 9.03422L70.4078 9.29725L70.4005 9.2936ZM63.9075 5.36281C63.3601 5.66968 62.9178 6.1044 62.5879 6.66333C62.258 7.22226 62.0659 7.85426 62.0187 8.55932H69.5014C69.4652 7.85426 69.2767 7.22592 68.9395 6.67429C68.6024 6.12267 68.1601 5.68794 67.6126 5.37377C67.0652 5.0596 66.4453 4.90252 65.7601 4.90252C65.0749 4.90252 64.455 5.05595 63.9075 5.36281Z" fill="#AD851A"/>
<path d="M75.6174 4.6468C76.2518 4.26322 77.0277 4.07326 77.9376 4.07326V4.9975L77.7128 4.97923C76.6289 4.97923 75.7805 5.32263 75.1679 6.00577C74.5552 6.69256 74.2506 7.64238 74.2506 8.86253V13.9915H73.3153V4.14632H74.2144V6.29437C74.5153 5.57835 74.983 5.02673 75.6174 4.64315V4.6468Z" fill="#AD851A"/>
<path d="M86.5986 5.00481C87.2475 5.62584 87.5702 6.54278 87.5702 7.74832V13.9879H86.6711V12.2344C86.3593 12.8116 85.9025 13.2609 85.3043 13.5824C84.7061 13.9039 83.9883 14.0646 83.1545 14.0646C82.0705 14.0646 81.2113 13.8089 80.5805 13.2901C79.9497 12.775 79.6343 12.0956 79.6343 11.2553C79.6343 10.4151 79.9243 9.77581 80.5044 9.26803C81.0844 8.76024 82.0089 8.50452 83.2814 8.50452H86.6312V7.71179C86.6312 6.79485 86.3847 6.0971 85.8916 5.61853C85.3986 5.13997 84.6771 4.90252 83.7309 4.90252C83.082 4.90252 82.462 5.01577 81.8675 5.24226C81.2766 5.46876 80.7726 5.77197 80.363 6.14824L79.8953 5.46876C80.3811 5.03038 80.9684 4.68698 81.6536 4.44222C82.3388 4.19746 83.0566 4.07326 83.8034 4.07326C85.0143 4.07326 85.9424 4.38377 86.5913 5.00481H86.5986ZM85.3551 12.7239C85.9206 12.3476 86.3484 11.7997 86.6384 11.0836V9.23515H83.3067C82.346 9.23515 81.65 9.4105 81.2222 9.76485C80.7908 10.1156 80.5769 10.6014 80.5769 11.2152C80.5769 11.8289 80.8125 12.3622 81.2874 12.7312C81.7624 13.1038 82.4294 13.2865 83.2886 13.2865C84.1007 13.2865 84.7895 13.0965 85.3551 12.7202V12.7239Z" fill="#AD851A"/>
<path d="M96.271 13.3669C96.0353 13.5933 95.738 13.765 95.3828 13.8856C95.0275 14.0062 94.6577 14.0646 94.2698 14.0646C93.4215 14.0646 92.7653 13.8308 92.3048 13.3559C91.8444 12.8846 91.6124 12.2271 91.6124 11.3868V4.95732H89.8179V4.14632H91.6124V1.99827H92.5477V4.14632H95.6547V4.95732H92.5477V11.2919C92.5477 11.9312 92.7 12.4207 93.0045 12.7531C93.3091 13.0856 93.7622 13.2536 94.3604 13.2536C94.9586 13.2536 95.477 13.0709 95.8758 12.7056L96.2673 13.3669H96.271Z" fill="#AD851A"/>
<path d="M99.8347 13.4217C99.0915 12.9942 98.5078 12.4024 98.0873 11.6389C97.6631 10.8791 97.4528 10.0206 97.4528 9.0671C97.4528 8.11363 97.6631 7.25514 98.0873 6.49529C98.5114 5.73544 99.0951 5.13997 99.8347 4.71256C100.578 4.28514 101.408 4.07326 102.333 4.07326C103.257 4.07326 104.087 4.28879 104.83 4.71256C105.574 5.13997 106.154 5.73544 106.578 6.49529C107.002 7.25514 107.212 8.11363 107.212 9.0671C107.212 10.0206 106.998 10.8791 106.578 11.6389C106.154 12.3988 105.57 12.9942 104.83 13.4217C104.087 13.8491 103.257 14.061 102.333 14.061C101.408 14.061 100.578 13.8491 99.8347 13.4217ZM104.345 12.6874C104.936 12.3367 105.403 11.8471 105.748 11.2152C106.092 10.5868 106.262 9.87079 106.262 9.0671C106.262 8.26341 106.092 7.54739 105.748 6.91905C105.403 6.29071 104.936 5.80119 104.345 5.44684C103.754 5.09614 103.083 4.91713 102.333 4.91713C101.582 4.91713 100.915 5.09248 100.32 5.44684C99.7295 5.79754 99.2619 6.29071 98.9175 6.91905C98.5731 7.54739 98.4027 8.26341 98.4027 9.0671C98.4027 9.87079 98.5731 10.5868 98.9175 11.2152C99.2619 11.8435 99.7295 12.333 100.32 12.6874C100.911 13.0381 101.582 13.2134 102.333 13.2134C103.083 13.2134 103.75 13.0381 104.345 12.6874Z" fill="#AD851A"/>
<path d="M125.886 0.792732V13.9879H125.1L116.174 2.52432V13.9879H115.221V0.792732H116.025L124.929 12.2563V0.792732H125.886Z" fill="#AD851A"/>
<path d="M136.233 5.00481C136.882 5.62584 137.205 6.54278 137.205 7.74832V13.9879H136.306V12.2344C135.994 12.8116 135.537 13.2609 134.939 13.5824C134.341 13.9039 133.623 14.0646 132.789 14.0646C131.705 14.0646 130.846 13.8089 130.215 13.2901C129.584 12.775 129.269 12.0956 129.269 11.2553C129.269 10.4151 129.559 9.77581 130.139 9.26803C130.719 8.76024 131.643 8.50452 132.916 8.50452H136.266V7.71179C136.266 6.79485 136.019 6.0971 135.526 5.61853C135.033 5.13997 134.312 4.90252 133.365 4.90252C132.717 4.90252 132.097 5.01577 131.502 5.24226C130.907 5.46876 130.407 5.77197 129.998 6.14824L129.53 5.46876C130.016 5.03038 130.603 4.68698 131.288 4.44222C131.973 4.19746 132.691 4.07326 133.438 4.07326C134.649 4.07326 135.577 4.38377 136.226 5.00481H136.233ZM134.99 12.7239C135.555 12.3476 135.983 11.7997 136.273 11.0836V9.23515H132.941C131.981 9.23515 131.285 9.4105 130.857 9.76485C130.425 10.1156 130.211 10.6014 130.211 11.2152C130.211 11.8289 130.447 12.3622 130.922 12.7312C131.397 13.1038 132.064 13.2865 132.923 13.2865C133.735 13.2865 134.424 13.0965 134.99 12.7202V12.7239Z" fill="#AD851A"/>
<path d="M142.407 13.4217C141.66 12.9942 141.073 12.4024 140.649 11.6389C140.225 10.8791 140.014 10.0206 140.014 9.0671C140.014 8.11363 140.225 7.23688 140.649 6.47337C141.073 5.71352 141.66 5.12171 142.407 4.7016C143.154 4.28148 144.002 4.0696 144.952 4.0696C145.739 4.0696 146.453 4.22303 147.095 4.5299C147.736 4.83676 148.258 5.2861 148.657 5.87791L147.965 6.38569C147.617 5.89617 147.182 5.52721 146.663 5.28245C146.145 5.03769 145.576 4.91348 144.952 4.91348C144.191 4.91348 143.509 5.08518 142.904 5.43222C142.298 5.77927 141.823 6.26514 141.483 6.89348C141.138 7.52182 140.968 8.24514 140.968 9.0598C140.968 9.87445 141.138 10.5978 141.483 11.2261C141.827 11.8545 142.298 12.3403 142.904 12.6874C143.509 13.0344 144.191 13.2061 144.952 13.2061C145.576 13.2061 146.145 13.0856 146.663 12.8371C147.182 12.5887 147.613 12.2234 147.965 11.7339L148.657 12.2417C148.258 12.8335 147.736 13.2828 147.095 13.5897C146.453 13.8966 145.739 14.05 144.952 14.05C144.002 14.05 143.158 13.8381 142.407 13.4107V13.4217Z" fill="#AD851A"/>
<path d="M151.387 1.53797C151.238 1.3955 151.162 1.21284 151.162 1.00096C151.162 0.789079 151.238 0.606422 151.387 0.45299C151.536 0.303211 151.717 0.226495 151.931 0.226495C152.145 0.226495 152.322 0.299558 152.475 0.44203C152.623 0.588156 152.699 0.76716 152.699 0.979042C152.699 1.19092 152.623 1.37358 152.475 1.52701C152.326 1.67679 152.145 1.75351 151.931 1.75351C151.717 1.75351 151.539 1.68045 151.387 1.53797ZM151.463 4.14632H152.399V13.9879H151.463V4.14632Z" fill="#AD851A"/>
<path d="M157.663 13.4217C156.919 12.9942 156.336 12.4024 155.915 11.6389C155.491 10.8791 155.281 10.0206 155.281 9.0671C155.281 8.11363 155.491 7.25514 155.915 6.49529C156.339 5.73544 156.923 5.13997 157.663 4.71256C158.406 4.28514 159.236 4.07326 160.16 4.07326C161.085 4.07326 161.915 4.28879 162.658 4.71256C163.401 5.13997 163.981 5.73544 164.406 6.49529C164.83 7.25514 165.04 8.11363 165.04 9.0671C165.04 10.0206 164.826 10.8791 164.406 11.6389C163.981 12.3988 163.398 12.9942 162.658 13.4217C161.915 13.8491 161.085 14.061 160.16 14.061C159.236 14.061 158.406 13.8491 157.663 13.4217ZM162.172 12.6874C162.763 12.3367 163.231 11.8471 163.575 11.2152C163.92 10.5868 164.09 9.87079 164.09 9.0671C164.09 8.26341 163.92 7.54739 163.575 6.91905C163.231 6.29071 162.763 5.80119 162.172 5.44684C161.582 5.09614 160.911 4.91713 160.16 4.91713C159.41 4.91713 158.743 5.09248 158.148 5.44684C157.557 5.79754 157.09 6.29071 156.745 6.91905C156.401 7.54739 156.231 8.26341 156.231 9.0671C156.231 9.87079 156.401 10.5868 156.745 11.2152C157.09 11.8435 157.557 12.333 158.148 12.6874C158.739 13.0381 159.41 13.2134 160.16 13.2134C160.911 13.2134 161.578 13.0381 162.172 12.6874Z" fill="#AD851A"/>
<path d="M175.615 5.14728C176.326 5.8633 176.681 6.89348 176.681 8.23784V13.9879H175.746V8.31456C175.746 7.20765 175.467 6.36743 174.912 5.79023C174.357 5.21304 173.581 4.92444 172.581 4.92444C171.432 4.92444 170.529 5.27149 169.869 5.96193C169.209 6.65237 168.879 7.58393 168.879 8.75293V13.9952H167.944V4.14632H168.843V6.2761C169.18 5.58566 169.681 5.04499 170.348 4.6541C171.015 4.26322 171.805 4.0696 172.715 4.0696C173.937 4.0696 174.905 4.42761 175.615 5.14363V5.14728Z" fill="#AD851A"/>
<path d="M186.615 5.00481C187.263 5.62584 187.586 6.54278 187.586 7.74832V13.9879H186.687V12.2344C186.375 12.8116 185.918 13.2609 185.32 13.5824C184.722 13.9039 184.004 14.0646 183.17 14.0646C182.086 14.0646 181.227 13.8089 180.596 13.2901C179.966 12.775 179.65 12.0956 179.65 11.2553C179.65 10.4151 179.94 9.77581 180.52 9.26803C181.1 8.76024 182.025 8.50452 183.297 8.50452H186.647V7.71179C186.647 6.79485 186.401 6.0971 185.908 5.61853C185.415 5.13997 184.693 4.90252 183.747 4.90252C183.098 4.90252 182.478 5.01577 181.883 5.24226C181.289 5.46876 180.789 5.77197 180.379 6.14824L179.911 5.46876C180.397 5.03038 180.984 4.68698 181.67 4.44222C182.355 4.19746 183.073 4.07326 183.819 4.07326C185.03 4.07326 185.958 4.38377 186.607 5.00481H186.615ZM185.371 12.7239C185.937 12.3476 186.364 11.7997 186.654 11.0836V9.23515H183.323C182.362 9.23515 181.666 9.4105 181.238 9.76485C180.807 10.1156 180.593 10.6014 180.593 11.2152C180.593 11.8289 180.828 12.3622 181.303 12.7312C181.778 13.1038 182.445 13.2865 183.305 13.2865C184.117 13.2865 184.805 13.0965 185.371 12.7202V12.7239Z" fill="#AD851A"/>
<path d="M191.44 0H192.375V13.9879H191.44V0Z" fill="#AD851A"/>
</svg>
