<svg xmlns="http://www.w3.org/2000/svg" xmlns:xlink="http://www.w3.org/1999/xlink" style="display: none;">
    <symbol id="ico-ingreso" viewBox="0 0 67 68" fill="none">
        <path d="M45.043 4.55373C46.7174 4.62564 48.838 4.85173 50.8252 5.39845L50.5596 6.36232L50.2949 7.32716C48.5021 6.83391 46.5426 6.61986 44.957 6.55177L45.043 4.55373Z" fill="#A57F2C"/>
        <path d="M45.043 8.43373C46.7174 8.50564 48.838 8.73173 50.8252 9.27845L50.5596 10.2423L50.2949 11.2072C48.5021 10.7139 46.5426 10.4999 44.957 10.4318L45.043 8.43373Z" fill="#A57F2C"/>
        <path d="M45.043 12.7137C46.7174 12.7856 48.838 13.0117 50.8252 13.5585L50.5596 14.5223L50.2949 15.4872C48.5021 14.9939 46.5426 14.7799 44.957 14.7118L45.043 12.7137Z" fill="#A57F2C"/>
        <path d="M62.8225 6.55177C61.2371 6.61988 59.2782 6.834 57.4856 7.32716L56.9544 5.39845C58.9416 4.8517 61.0631 4.62563 62.7376 4.55373L62.8225 6.55177Z" fill="#A57F2C"/>
        <path d="M62.8225 10.4318C61.2371 10.4999 59.2782 10.714 57.4856 11.2072L56.9544 9.27845C58.9416 8.7317 61.0631 8.50563 62.7376 8.43373L62.8225 10.4318Z" fill="#A57F2C"/>
        <path d="M59.8997 14.993C59.0857 15.1079 58.2685 15.2695 57.4866 15.4861L56.9534 13.5594C57.8314 13.3161 58.7345 13.1376 59.6204 13.0125L59.8997 14.993Z" fill="#A57F2C"/>
        <path d="M35.26 13.0627C35.26 12.4122 34.7412 11.8832 34.0832 11.8722C32.8433 11.8532 31.8383 10.8469 31.8205 9.60662L31.8176 9.46404C31.7369 8.85616 31.2216 8.39275 30.5998 8.39275H20.7004C17.2827 8.39275 14.51 11.1655 14.51 14.5832V19.3332C14.5102 19.6084 14.6816 19.8489 14.9387 19.9386H14.9407L16.6399 20.5334V17.0685L16.6409 17.0431C16.7876 14.071 20.4822 12.9174 22.3948 15.0656L22.7043 15.3996C24.3324 17.0966 27.2005 19.1714 30.9973 18.2521C31.9679 18.0095 32.993 18.4724 33.4446 19.3752C33.6984 19.8827 34.2846 20.1255 34.8352 19.9367C35.0901 19.8459 35.2598 19.6069 35.26 19.3332V13.0627ZM37.26 19.3332C37.2598 20.4575 36.5518 21.457 35.4895 21.8273L35.4846 21.8283C33.9953 22.3393 32.3617 21.6821 31.6555 20.2697C31.6422 20.2432 31.6185 20.2189 31.5842 20.2033C31.5498 20.1876 31.514 20.1848 31.4827 20.1926L31.4758 20.1945C26.3096 21.4495 22.606 18.2983 20.9055 16.3996L20.9026 16.3967C20.1183 15.5136 18.7063 16.0505 18.6399 17.1261V20.6027C18.6399 21.9387 17.3298 22.9013 16.0452 22.4455L14.2805 21.8263C13.2184 21.4559 12.5102 20.4573 12.51 19.3332V14.5832C12.51 10.0609 16.1781 6.39275 20.7004 6.39275H30.5998C32.3694 6.39275 33.8014 7.81417 33.8303 9.57634L33.8313 9.65154C33.8659 9.77612 33.9808 9.87131 34.1145 9.87322H34.1164C35.8585 9.90225 37.26 11.3133 37.26 13.0627V19.3332Z" fill="#A57F2C"/>
        <path d="M24.936 34.0913C27.347 34.0502 29.1789 33.0582 30.4877 31.9029L30.4897 31.9019C32.0703 30.5134 32.9646 28.4487 33.0004 26.2867L33.0161 25.3023H34.6196C34.9598 25.3023 35.2643 25.0102 35.2602 24.6333V21.0728C35.2602 20.9613 35.2246 20.837 35.1528 20.7173L36.8676 19.688C37.0958 20.0683 37.2602 20.5443 37.2602 21.0728V24.6119L37.2495 24.8833C37.1373 26.12 36.1746 27.1321 34.937 27.2818C34.6749 29.6138 33.6039 31.8262 31.811 33.4019C30.2236 34.8031 27.9433 36.0481 24.9448 36.0923H24.9223C22.1109 36.0715 19.9306 34.9956 18.3452 33.7173L18.0366 33.4595C16.2314 31.9022 15.1407 29.6981 14.8598 27.3667C13.1481 27.2056 11.8102 25.7673 11.81 24.0132V21.8628C11.81 20.8131 12.2825 19.8852 13.0317 19.2632L14.309 20.8023C13.9982 21.0603 13.81 21.4326 13.81 21.8628V24.0132C13.8103 24.7707 14.4226 25.3824 15.1801 25.3824H16.7651L16.7895 26.3579C16.8431 28.5202 17.7546 30.5755 19.3432 31.9458C20.6762 33.0975 22.5156 34.0731 24.936 34.0913Z" fill="#A57F2C"/>
        <path d="M47.0801 63.9424C47.0799 63.335 46.5878 62.843 45.9805 62.8428H3.09961C2.4922 62.843 2.00021 63.335 2 63.9424C2 64.5499 2.49208 65.0427 3.09961 65.0429H45.9805C46.588 65.0427 47.0801 64.5499 47.0801 63.9424ZM49.0801 63.9424C49.0801 65.6545 47.6925 67.0427 45.9805 67.0429H3.09961C1.3875 67.0427 0 65.6545 0 63.9424C0.000210195 62.2304 1.38763 60.843 3.09961 60.8428H45.9805C47.6924 60.843 49.0799 62.2304 49.0801 63.9424Z" fill="#A57F2C"/>
        <path d="M7.01 57.2928V61.8328H5.01V57.2928H7.01Z" fill="#A57F2C"/>
        <path d="M42.0803 40.7527C42.0803 39.9678 41.4406 39.333 40.6604 39.3328H8.42992C7.64496 39.3328 7.01004 39.9723 7.01 40.7527V52.7029H5.01V40.7527C5.01004 38.8731 6.53501 37.3328 8.42992 37.3328H40.6604C42.5398 37.333 44.0803 38.8579 44.0803 40.7527V61.8328H42.0803V40.7527Z" fill="#A57F2C"/>
        <path d="M28.15 34.8824V34.0327H30.15V34.8824C30.15 35.9595 30.7257 36.9293 31.6227 37.4644L30.5973 39.1812C29.1144 38.2963 28.15 36.6851 28.15 34.8824Z" fill="#A57F2C"/>
        <path d="M18.94 34.8825V33.6227H20.94V34.8825C20.94 36.6815 19.9783 38.3069 18.4868 39.1843L17.4732 37.4606C18.3616 36.9379 18.94 35.9635 18.94 34.8825Z" fill="#A57F2C"/>
        <path d="M45.4997 54.2624C45.4996 50.8585 44.3127 47.7002 42.2936 45.2136L43.8464 43.9519C46.147 46.7851 47.4996 50.3868 47.4997 54.2624V61.9031H45.4997V54.2624Z" fill="#A57F2C"/>
        <path d="M1.58 54.2524C1.58007 50.3871 2.93242 46.7754 5.23332 43.9419L6.78605 45.2036C4.76728 47.6899 3.58007 50.8582 3.58 54.2524V61.8931H1.58V54.2524Z" fill="#A57F2C"/>
        <path d="M27.6497 50.8931C27.6497 49.1755 26.2579 47.7829 24.5404 47.7827C22.8226 47.7827 21.43 49.1754 21.43 50.8931C21.4302 52.6107 22.8228 54.0025 24.5404 54.0025C26.2578 54.0023 27.6495 52.6105 27.6497 50.8931ZM29.6497 50.8931C29.6495 53.7151 27.3624 56.0023 24.5404 56.0025C21.7182 56.0025 19.4302 53.7152 19.43 50.8931C19.43 48.0708 21.7181 45.7827 24.5404 45.7827C27.3625 45.7829 29.6497 48.0709 29.6497 50.8931Z" fill="#A57F2C"/>
        <path d="M65.0004 17.5932V2.03268C65.0004 2.02768 64.9995 2.02445 64.9985 2.02194C64.9971 2.01879 64.9943 2.01491 64.9907 2.0112C64.9871 2.00756 64.9835 2.00549 64.9809 2.00436C64.979 2.00351 64.9766 2.00249 64.9721 2.00241C63.9197 1.98792 62.1528 2.0153 60.2592 2.27096C58.3466 2.52923 56.3917 3.0095 54.9155 3.85104L54.9106 3.85397C54.2862 4.2052 53.5243 4.2052 52.8998 3.85397L52.895 3.85104C51.4187 3.00939 49.464 2.52925 47.5512 2.27096C46.1293 2.07896 44.7787 2.0159 43.7485 2.00241H42.8256C42.8248 2.00302 42.8233 2.00372 42.8217 2.00534C42.8181 2.00903 42.815 2.01403 42.8129 2.01901C42.8112 2.02331 42.81 2.02752 42.81 2.03268V5.54245H40.81V2.03268C40.81 0.950511 41.6753 0.0110355 42.8061 0.0033837C43.9141 -0.0120047 45.7899 0.0155534 47.8188 0.289517C49.8288 0.560933 52.0766 1.08467 53.8793 2.11081C53.8949 2.11957 53.9145 2.11957 53.9301 2.11081C55.7329 1.08451 57.9815 0.560954 59.9916 0.289517C61.5131 0.0840894 62.9485 0.0165816 64.0385 0.00240714H65.0043L65.0082 0.0033837C66.1156 0.0233719 67.0004 0.929839 67.0004 2.03268V17.5932C67.0002 18.8023 66.015 19.7329 64.85 19.7329H64.8354C62.8215 19.7031 58.7199 19.8606 55.7514 21.1577L55.7524 21.1587C54.5999 21.6652 53.2771 21.6968 52.0971 21.1782L52.0942 21.1762C49.072 19.833 44.8477 19.703 42.8647 19.7329L42.8637 19.7319C41.7261 19.7497 40.81 18.8201 40.81 17.7026V10.143H42.81V17.7026C42.81 17.7066 42.8106 17.7101 42.812 17.7133C42.8136 17.7172 42.8165 17.7219 42.8207 17.726C42.825 17.7303 42.829 17.7323 42.8305 17.7329H42.8354C44.8318 17.7028 49.4447 17.8123 52.9018 19.3471C53.5418 19.6284 54.2802 19.621 54.9477 19.3276L54.9496 19.3266C58.3329 17.8478 62.7975 17.7026 64.85 17.7319C64.9447 17.7319 65.0002 17.6638 65.0004 17.5932Z" fill="#A57F2C"/>
        <path d="M54.91 3.12275V20.5524H52.91V3.12275H54.91Z" fill="#A57F2C"/>    
    </symbol>
    <symbol id="ico-egreso" viewBox="0 0 83 67" fill="none">
        <path d="M78.9 15.2075L45.62 0.9375C42.69 -0.3125 39.34 -0.3125 36.41 0.9375L3.13 15.1975C1.2 16.0275 0 17.8375 0 19.9375C0 22.0375 1.2 23.8475 3.12 24.6775L7.05 26.3675C7.05 26.3675 7.05 26.4475 7.05 26.4875V45.1075C5.53 45.6175 4.43 47.0575 4.43 48.7475C4.43 49.7275 4.8 50.6275 5.41 51.3075C4.74 51.9675 4.29 52.8575 4.2 53.8675L3.26 64.2375C3.2 64.9475 3.43 65.6575 3.91 66.1775C4.39 66.6975 5.07 67.0075 5.78 67.0075H10.77C11.48 67.0075 12.16 66.7075 12.64 66.1775C13.12 65.6475 13.36 64.9475 13.29 64.2375L12.35 53.8675C12.26 52.8575 11.81 51.9675 11.14 51.3075C11.75 50.6275 12.12 49.7275 12.12 48.7475C12.12 47.0575 11.02 45.6175 9.5 45.1075V27.4175L16.22 30.2975C16.22 30.2975 16.22 30.3775 16.22 30.4175V39.7875C16.22 43.6975 18.9 47.3175 23.76 49.9775C28.39 52.5075 34.52 53.9075 41.01 53.9075C47.5 53.9075 53.64 52.5175 58.26 49.9775C63.12 47.3175 65.8 43.6975 65.8 39.7875V30.4175C65.8 30.4175 65.8 30.3375 65.8 30.2975L78.9 24.6875C80.83 23.8575 82.03 22.0475 82.03 19.9475C82.03 17.8475 80.83 16.0375 78.91 15.2075H78.9ZM10.83 64.5175C10.83 64.5175 10.78 64.5475 10.77 64.5475H5.78C5.78 64.5475 5.74 64.5475 5.72 64.5175C5.7 64.4875 5.7 64.4675 5.7 64.4575L6.64 54.0875C6.72 53.2375 7.42 52.5975 8.27 52.5975C9.12 52.5975 9.83 53.2375 9.9 54.0875L10.84 64.4575C10.84 64.4575 10.84 64.4975 10.82 64.5175H10.83ZM8.28 50.1375C7.51 50.1375 6.89 49.5175 6.89 48.7475C6.89 47.9775 7.51 47.3575 8.28 47.3575C9.05 47.3575 9.67 47.9775 9.67 48.7475C9.67 49.5175 9.05 50.1375 8.28 50.1375ZM63.35 34.5475C63.35 37.7175 60.74 40.8175 56.18 43.0475C55.57 43.3475 55.32 44.0775 55.62 44.6875C55.83 45.1275 56.27 45.3775 56.72 45.3775C56.9 45.3775 57.08 45.3375 57.26 45.2475C59.79 44.0075 61.81 42.5075 63.25 40.8275C62.79 43.4175 60.64 45.8675 57.08 47.8075C52.81 50.1475 47.1 51.4275 41 51.4275C34.9 51.4275 29.2 50.1375 24.92 47.8075C21.37 45.8675 19.22 43.4275 18.75 40.8475C19.99 42.2775 21.67 43.5875 23.74 44.7175C28.37 47.2475 34.5 48.6475 40.99 48.6475C42.81 48.6475 44.62 48.5375 46.38 48.3175C47.05 48.2375 47.53 47.6175 47.45 46.9475C47.37 46.2775 46.75 45.7975 46.08 45.8775C44.42 46.0875 42.71 46.1875 40.99 46.1875C34.9 46.1875 29.19 44.8975 24.91 42.5675C20.87 40.3575 18.65 37.5075 18.65 34.5275V31.3175L36.39 38.9175C37.85 39.5475 39.42 39.8575 40.99 39.8575C42.56 39.8575 44.14 39.5475 45.6 38.9175L63.33 31.3175V34.5275L63.35 34.5475ZM77.93 22.4275L44.65 36.6875C42.33 37.6775 39.68 37.6775 37.37 36.6875L11.94 25.7875L35.24 21.7375C36.29 22.9775 38.42 23.7875 41.01 23.7875C44.7 23.7875 47.48 22.1375 47.48 19.9375C47.48 17.7375 44.7 16.0875 41.01 16.0875C37.66 16.0875 35.06 17.4475 34.61 19.3475L8.06 23.9675C7.98 23.9775 7.91 23.9975 7.84 24.0275L4.09 22.4175C3.07 21.9775 2.45 21.0475 2.45 19.9375C2.45 18.8275 3.06 17.8975 4.09 17.4575L37.37 3.1975C38.53 2.6975 39.77 2.4575 41.01 2.4575C42.25 2.4575 43.49 2.7075 44.65 3.1975L77.94 17.4675C78.96 17.9075 79.58 18.8375 79.58 19.9475C79.58 21.0575 78.97 21.9875 77.94 22.4275H77.93ZM37 19.9375C37 19.5775 38.38 18.5475 41.01 18.5475C43.64 18.5475 45.02 19.5775 45.02 19.9375C45.02 20.2975 43.64 21.3275 41.01 21.3275C38.38 21.3275 37 20.2975 37 19.9375Z" fill="#A57F2C"/>
        <path d="M50.1799 47.6576C50.2699 47.6576 50.3599 47.6476 50.4599 47.6276C51.3899 47.4176 52.2999 47.1676 53.1699 46.8876C53.8199 46.6876 54.1699 45.9976 53.9699 45.3476C53.7699 44.6976 53.0799 44.3476 52.4299 44.5476C51.6199 44.8076 50.7699 45.0376 49.9099 45.2376C49.2499 45.3876 48.8399 46.0476 48.9899 46.7076C49.1199 47.2776 49.6299 47.6576 50.1799 47.6576Z" fill="#A57F2C"/>
    </symbol>


    <symbol id="ico-modalidad" viewBox="0 0 65 54" fill="none">
        <path d="M7.00404 43.9979C6.44792 43.9979 6.00464 43.5466 6.00464 42.9985V13.0003C6.00464 12.4442 6.45598 12.0009 7.00404 12.0009H22.0031C22.5593 12.0009 23.0026 12.4523 23.0026 13.0003C23.0026 13.5484 22.5512 13.9997 22.0031 13.9997H8.00344V41.9991H56.007V29.9982C56.007 29.4421 56.4584 28.9988 57.0064 28.9988C57.5545 28.9988 58.0058 29.4502 58.0058 29.9982V42.9985C58.0058 43.5546 57.5545 43.9979 57.0064 43.9979H7.00404Z" fill="#A57F2C"/>
        <path d="M10.002 35.0033C9.44591 35.0033 9.00263 34.5519 9.00263 34.0039V16.0066C9.00263 15.4504 9.45397 15.0072 10.002 15.0072H22.0029C22.559 15.0072 23.0023 15.4585 23.0023 16.0066C23.0023 16.5546 22.551 17.006 22.0029 17.006H11.0014V34.0039C11.0014 34.56 10.5501 35.0033 10.002 35.0033Z" fill="#A57F2C"/>
        <path d="M53.9999 40.9997H10.002C9.44591 40.9997 9.00263 40.5484 9.00263 40.0003V37.0021C9.00263 36.446 9.45397 36.0027 10.002 36.0027C10.5501 36.0027 11.0014 36.454 11.0014 37.0021V39.0009H53.0005V29.9982C53.0005 29.4421 53.4519 28.9988 53.9999 28.9988C54.548 28.9988 54.9994 29.4501 54.9994 29.9982V40.0003C54.9994 40.5564 54.548 40.9997 53.9999 40.9997Z" fill="#A57F2C"/>
        <path d="M2.99821 54.0001C1.33791 54.0001 0 52.6541 0 51.0018V49.003C0 48.4469 0.451343 48.0036 0.999403 48.0036H25.0012C25.2672 48.0036 25.517 48.1084 25.7105 48.2938L26.4197 49.003H37.5905L38.2997 48.2938C38.4851 48.1084 38.743 48.0036 39.009 48.0036H63.0108C63.5669 48.0036 64.0102 48.455 64.0102 49.003V51.0018C64.0102 52.6621 62.6642 54.0001 61.012 54.0001H2.99821ZM1.99881 50.0024V51.0018C1.99881 51.558 2.45015 52.0012 2.99821 52.0012H60.9958C61.552 52.0012 61.9952 51.5499 61.9952 51.0018V50.0024H39.4119L38.7027 50.7117C38.5173 50.8971 38.2594 51.0018 37.9934 51.0018H25.9925C25.7266 51.0018 25.4767 50.8971 25.2833 50.7117L24.574 50.0024H1.99881Z" fill="#A57F2C"/>
        <path d="M62.2935 49.7042L56.5873 43.9979H7.41502L1.70875 49.7042L0.298303 48.2937L6.29472 42.2973C6.4801 42.1119 6.73801 42.0072 7.00398 42.0072H57.0064C57.2723 42.0072 57.5222 42.1119 57.7156 42.2973L63.712 48.2937L62.3016 49.7042H62.2935Z" fill="#A57F2C"/>
        <path d="M30.9976 36.0027C30.4415 36.0027 29.9982 35.5513 29.9982 35.0033C29.9982 34.9227 30.0063 34.8421 30.0305 34.7615L31.723 28.0075H29.0069C26.2505 28.0075 24.0099 25.7669 24.0099 23.0105V4.99702C24.0099 2.2406 26.2505 0 29.0069 0H59.0051C61.7615 0 64.0021 2.2406 64.0021 4.99702V5.99642C64.0021 6.55254 63.5508 6.99582 63.0027 6.99582C62.4547 6.99582 62.0033 6.54448 62.0033 5.99642V4.99702C62.0033 3.33672 60.6574 1.99881 59.0051 1.99881H29.0069C27.3466 1.99881 26.0087 3.34478 26.0087 4.99702V22.9943C26.0087 24.6546 27.3547 25.9925 29.0069 25.9925H33.0045C33.5606 25.9925 34.0039 26.4439 34.0039 26.9919C34.0039 27.0725 33.9959 27.1531 33.9717 27.2337L32.5693 32.8513L43.4821 26.1376C43.6433 26.0409 43.8206 25.9925 44.006 25.9925H59.0051C60.6654 25.9925 62.0033 24.6466 62.0033 22.9943V9.00269C62.0033 8.44657 62.4547 8.00329 63.0027 8.00329C63.5508 8.00329 64.0021 8.45463 64.0021 9.00269V23.0024C64.0021 25.7588 61.7615 27.9994 59.0051 27.9994H44.2881L31.5296 35.8496C31.3684 35.9463 31.1911 35.9946 31.0057 35.9946L30.9976 36.0027Z" fill="#A57F2C"/>
        <path d="M43.9978 15.9985C43.8849 15.9985 43.764 15.9743 43.6593 15.9421L32.6578 11.9444C32.1419 11.7591 31.8679 11.1788 32.0613 10.663C32.1661 10.3809 32.3837 10.1633 32.6578 10.0665L43.6593 6.06892C43.8769 5.98832 44.1187 5.98832 44.3443 6.06892L55.3458 10.0665C55.8616 10.2519 56.1357 10.8322 55.9422 11.348C55.7569 11.8638 55.1766 12.1379 54.6608 11.9444L44.0058 8.06773L35.93 11.0015L44.0058 13.9352L48.6643 12.2427C49.1802 12.0573 49.7605 12.3233 49.9458 12.8391C50.1312 13.3549 49.8652 13.9352 49.3494 14.1206L44.3524 15.9421C44.2396 15.9824 44.1267 15.9985 44.0139 15.9985H43.9978Z" fill="#A57F2C"/>
        <path d="M43.998 22.003C43.176 22.003 35.9948 21.9224 35.9948 19.0048V16.0066C35.9948 15.4504 36.4461 15.0072 36.9942 15.0072C37.5422 15.0072 37.9936 15.4585 37.9936 16.0066V18.8758C38.4127 19.2869 40.5163 20.0042 43.99 20.0042C47.4637 20.0042 49.5673 19.2869 49.9864 18.8758V16.0066C49.9864 15.4504 50.4377 15.0072 50.9858 15.0072C51.5339 15.0072 51.9852 15.4585 51.9852 16.0066V19.0048C51.9852 21.9224 44.804 22.003 43.9819 22.003H43.998Z" fill="#A57F2C"/>
        <path d="M54.9995 16.9979C54.4434 16.9979 54.0001 16.5466 54.0001 15.9985V12.0009H43.998C43.4419 12.0009 42.9986 11.5496 42.9986 11.0015C42.9986 10.4535 43.4499 10.0021 43.998 10.0021H54.9995C55.5556 10.0021 55.9989 10.4535 55.9989 11.0015V15.9985C55.9989 16.5547 55.5476 16.9979 54.9995 16.9979Z" fill="#A57F2C"/>
    </symbol>

    <symbol id="ico-duracion" viewBox="0 0 58 54" fill="none">
        <path fill-rule="evenodd" clip-rule="evenodd" d="M42.8682 34.0443V41.0884C42.8682 41.7332 43.4308 42.2651 44.132 42.2651H51.698C52.3906 42.2651 52.9619 41.7413 52.9619 41.0884C52.9619 40.4356 52.3992 39.9117 51.698 39.9117H45.3959V34.0443C45.3959 33.3995 44.8332 32.8675 44.132 32.8675C43.4308 32.8675 42.8682 33.3914 42.8682 34.0443Z" fill="#A57F2C"/>
        <path fill-rule="evenodd" clip-rule="evenodd" d="M15.1318 21.3662C15.1318 20.6812 14.8374 20.0283 14.318 19.5367C13.7986 19.0531 13.0888 18.7791 12.353 18.7791H10.3359C9.60011 18.7791 8.89892 19.0531 8.37086 19.5367C7.85146 20.0203 7.55713 20.6812 7.55713 21.3662V23.2441C7.55713 23.9292 7.85146 24.5821 8.37086 25.0737C8.89026 25.5573 9.60011 25.8313 10.3359 25.8313H12.353C13.0888 25.8313 13.79 25.5573 14.318 25.0737C14.8374 24.5901 15.1318 23.9292 15.1318 23.2441V21.3662ZM12.6127 21.3662V23.2441C12.6127 23.3086 12.5867 23.365 12.5347 23.4134C12.4915 23.4618 12.4222 23.4859 12.353 23.4859H10.3359C10.2667 23.4859 10.2061 23.4618 10.1541 23.4134C10.1022 23.3731 10.0762 23.3086 10.0762 23.2441V21.3662C10.0762 21.3018 10.1022 21.2453 10.1541 21.197C10.1974 21.1486 10.2667 21.1244 10.3359 21.1244H12.353C12.4222 21.1244 12.4828 21.1486 12.5347 21.197C12.5867 21.2373 12.6127 21.3018 12.6127 21.3662Z" fill="#A57F2C"/>
        <path fill-rule="evenodd" clip-rule="evenodd" d="M15.1318 30.7559C15.1318 30.0709 14.8374 29.418 14.318 28.9264C13.7986 28.4428 13.0888 28.1688 12.353 28.1688H10.3359C9.60011 28.1688 8.89892 28.4428 8.37086 28.9264C7.85146 29.41 7.55713 30.0709 7.55713 30.7559V32.6339C7.55713 33.3189 7.85146 33.9718 8.37086 34.4634C8.89026 34.947 9.60011 35.221 10.3359 35.221H12.353C13.0888 35.221 13.79 34.947 14.318 34.4634C14.8374 33.9798 15.1318 33.3189 15.1318 32.6339V30.7559ZM12.6127 30.7559V32.6339C12.6127 32.6983 12.5867 32.7548 12.5347 32.8031C12.4915 32.8515 12.4222 32.8757 12.353 32.8757H10.3359C10.2667 32.8757 10.2061 32.8515 10.1541 32.8031C10.1022 32.7628 10.0762 32.6983 10.0762 32.6339V30.7559C10.0762 30.6915 10.1022 30.6351 10.1541 30.5867C10.1974 30.5383 10.2667 30.5142 10.3359 30.5142H12.353C12.4222 30.5142 12.4828 30.5383 12.5347 30.5867C12.5867 30.627 12.6127 30.6915 12.6127 30.7559Z" fill="#A57F2C"/>
        <path fill-rule="evenodd" clip-rule="evenodd" d="M15.1318 40.1453C15.1318 39.4602 14.8374 38.8074 14.318 38.3158C13.7986 37.8322 13.0888 37.5581 12.353 37.5581H10.3359C9.60011 37.5581 8.89892 37.8322 8.37086 38.3158C7.85146 38.7993 7.55713 39.4602 7.55713 40.1453V42.0232C7.55713 42.7083 7.85146 43.3611 8.37086 43.8528C8.89026 44.3364 9.60011 44.6104 10.3359 44.6104H12.353C13.0888 44.6104 13.79 44.3364 14.318 43.8528C14.8374 43.3692 15.1318 42.7083 15.1318 42.0232V40.1453ZM12.6127 40.1453V42.0232C12.6127 42.0877 12.5867 42.1441 12.5347 42.1925C12.4915 42.2408 12.4222 42.265 12.353 42.265H10.3359C10.2667 42.265 10.2061 42.2408 10.1541 42.1925C10.1022 42.1522 10.0762 42.0877 10.0762 42.0232V40.1453C10.0762 40.0808 10.1022 40.0244 10.1541 39.9761C10.1974 39.9277 10.2667 39.9035 10.3359 39.9035H12.353C12.4222 39.9035 12.4828 39.9277 12.5347 39.9761C12.5867 40.0163 12.6127 40.0808 12.6127 40.1453Z" fill="#A57F2C"/>
        <path fill-rule="evenodd" clip-rule="evenodd" d="M25.2172 21.3662C25.2172 20.6812 24.9229 20.0283 24.4035 19.5367C23.8841 19.0531 23.1742 18.7791 22.4384 18.7791H20.4214C19.6856 18.7791 18.9844 19.0531 18.4563 19.5367C17.9369 20.0203 17.6426 20.6812 17.6426 21.3662V23.2441C17.6426 23.9292 17.9369 24.5821 18.4563 25.0737C18.9757 25.5573 19.6856 25.8313 20.4214 25.8313H22.4384C23.1742 25.8313 23.8754 25.5573 24.4035 25.0737C24.9229 24.5901 25.2172 23.9292 25.2172 23.2441V21.3662ZM22.6981 21.3662V23.2441C22.6981 23.3086 22.6721 23.365 22.6202 23.4134C22.5769 23.4618 22.5077 23.4859 22.4384 23.4859H20.4214C20.3521 23.4859 20.2915 23.4618 20.2396 23.4134C20.1877 23.3731 20.1617 23.3086 20.1617 23.2441V21.3662C20.1617 21.3018 20.1877 21.2453 20.2396 21.197C20.2829 21.1486 20.3521 21.1244 20.4214 21.1244H22.4384C22.5077 21.1244 22.5682 21.1486 22.6202 21.197C22.6721 21.2373 22.6981 21.3018 22.6981 21.3662Z" fill="#A57F2C"/>
        <path fill-rule="evenodd" clip-rule="evenodd" d="M25.2172 30.7559C25.2172 30.0709 24.9229 29.418 24.4035 28.9264C23.8841 28.4428 23.1742 28.1688 22.4384 28.1688H20.4214C19.6856 28.1688 18.9844 28.4428 18.4563 28.9264C17.9369 29.41 17.6426 30.0709 17.6426 30.7559V32.6339C17.6426 33.3189 17.9369 33.9718 18.4563 34.4634C18.9757 34.947 19.6856 35.221 20.4214 35.221H22.4384C23.1742 35.221 23.8754 34.947 24.4035 34.4634C24.9229 33.9798 25.2172 33.3189 25.2172 32.6339V30.7559ZM22.6981 30.7559V32.6339C22.6981 32.6983 22.6721 32.7548 22.6202 32.8031C22.5769 32.8515 22.5077 32.8757 22.4384 32.8757H20.4214C20.3521 32.8757 20.2915 32.8515 20.2396 32.8031C20.1877 32.7628 20.1617 32.6983 20.1617 32.6339V30.7559C20.1617 30.6915 20.1877 30.6351 20.2396 30.5867C20.2829 30.5383 20.3521 30.5142 20.4214 30.5142H22.4384C22.5077 30.5142 22.5682 30.5383 22.6202 30.5867C22.6721 30.627 22.6981 30.6915 22.6981 30.7559Z" fill="#A57F2C"/>
        <path fill-rule="evenodd" clip-rule="evenodd" d="M25.2172 40.1453C25.2172 39.4602 24.9229 38.8074 24.4035 38.3158C23.8841 37.8322 23.1742 37.5581 22.4384 37.5581H20.4214C19.6856 37.5581 18.9844 37.8322 18.4563 38.3158C17.9369 38.7993 17.6426 39.4602 17.6426 40.1453V42.0232C17.6426 42.7083 17.9369 43.3611 18.4563 43.8528C18.9757 44.3364 19.6856 44.6104 20.4214 44.6104H22.4384C23.1742 44.6104 23.8754 44.3364 24.4035 43.8528C24.9229 43.3692 25.2172 42.7083 25.2172 42.0232V40.1453ZM22.6981 40.1453V42.0232C22.6981 42.0877 22.6721 42.1441 22.6202 42.1925C22.5769 42.2408 22.5077 42.265 22.4384 42.265H20.4214C20.3521 42.265 20.2915 42.2408 20.2396 42.1925C20.1877 42.1522 20.1617 42.0877 20.1617 42.0232V40.1453C20.1617 40.0808 20.1877 40.0244 20.2396 39.9761C20.2829 39.9277 20.3521 39.9035 20.4214 39.9035H22.4384C22.5077 39.9035 22.5682 39.9277 22.6202 39.9761C22.6721 40.0163 22.6981 40.0808 22.6981 40.1453Z" fill="#A57F2C"/>
        <path fill-rule="evenodd" clip-rule="evenodd" d="M35.3022 21.3662C35.3022 20.6812 35.0078 20.0283 34.4884 19.5367C33.969 19.0531 33.2592 18.7791 32.5234 18.7791H30.5063C29.7705 18.7791 29.0693 19.0531 28.5413 19.5367C28.0219 20.0203 27.7275 20.6812 27.7275 21.3662V23.2441C27.7275 23.9292 28.0219 24.5821 28.5413 25.0737C29.0607 25.5573 29.7705 25.8313 30.5063 25.8313H32.5234C33.2592 25.8313 33.9604 25.5573 34.4884 25.0737C35.0078 24.5901 35.3022 23.9292 35.3022 23.2441V21.3662ZM32.7831 21.3662V23.2441C32.7831 23.3086 32.7571 23.365 32.7052 23.4134C32.6619 23.4618 32.5926 23.4859 32.5234 23.4859H30.5063C30.4371 23.4859 30.3765 23.4618 30.3246 23.4134C30.2726 23.3731 30.2466 23.3086 30.2466 23.2441V21.3662C30.2466 21.3018 30.2726 21.2453 30.3246 21.197C30.3678 21.1486 30.4371 21.1244 30.5063 21.1244H32.5234C32.5926 21.1244 32.6532 21.1486 32.7052 21.197C32.7571 21.2373 32.7831 21.3018 32.7831 21.3662Z" fill="#A57F2C"/>
        <path fill-rule="evenodd" clip-rule="evenodd" d="M45.3871 21.3662C45.3871 20.6812 45.0928 20.0283 44.5734 19.5367C44.054 19.0531 43.3441 18.7791 42.6083 18.7791H40.5913C39.8555 18.7791 39.1543 19.0531 38.6262 19.5367C38.1068 20.0203 37.8125 20.6812 37.8125 21.3662V23.2441C37.8125 23.9292 38.1068 24.5821 38.6262 25.0737C39.1456 25.5573 39.8555 25.8313 40.5913 25.8313H42.6083C43.3441 25.8313 44.0453 25.5573 44.5734 25.0737C45.0928 24.5901 45.3871 23.9292 45.3871 23.2441V21.3662ZM42.868 21.3662V23.2441C42.868 23.3086 42.8421 23.365 42.7901 23.4134C42.7468 23.4618 42.6776 23.4859 42.6083 23.4859H40.5913C40.5221 23.4859 40.4615 23.4618 40.4095 23.4134C40.3576 23.3731 40.3316 23.3086 40.3316 23.2441V21.3662C40.3316 21.3018 40.3576 21.2453 40.4095 21.197C40.4528 21.1486 40.5221 21.1244 40.5913 21.1244H42.6083C42.6776 21.1244 42.7382 21.1486 42.7901 21.197C42.8421 21.2373 42.868 21.3018 42.868 21.3662Z" fill="#A57F2C"/>
        <path fill-rule="evenodd" clip-rule="evenodd" d="M33.4322 49.3012H6.30209C4.63134 49.3012 3.02985 48.6806 1.84388 47.5845C0.666567 46.4803 0 44.9893 0 43.4337V10.5663C0 7.32627 2.82209 4.69881 6.30209 4.69881H10.0851V3.52209C10.0851 1.5797 11.7818 0 13.8681 0C15.9543 0 17.651 1.5797 17.651 3.52209V4.69881H35.3021V3.52209C35.3021 1.5797 36.9988 0 39.0851 0C41.1713 0 42.8681 1.5797 42.8681 3.52209V4.69881H46.651C50.131 4.69881 52.9531 7.32627 52.9531 10.5663V31.1266C56.0349 33.4961 58 37.0746 58 41.0884C58 48.2131 51.7845 54 44.1319 54C39.8296 54 35.986 52.1704 33.4322 49.3012ZM44.1319 30.5221C50.3907 30.5221 55.4809 35.2531 55.4809 41.0884C55.4809 46.9236 50.3994 51.6546 44.1319 51.6546C37.8645 51.6546 32.783 46.9236 32.783 41.0884C32.783 35.2531 37.8645 30.5221 44.1319 30.5221ZM50.434 29.5872V16.4418H2.5191V43.4418C2.5191 44.3767 2.91731 45.2713 3.62716 45.9322C4.33702 46.5931 5.29791 46.9639 6.30209 46.9639H31.7701C30.8006 45.2069 30.2552 43.2081 30.2552 41.0964C30.2552 33.9716 36.4707 28.1848 44.1233 28.1848C46.3913 28.1848 48.5382 28.6925 50.4254 29.5952L50.434 29.5872ZM42.8681 7.04418V8.22089C42.8681 10.1633 41.1713 11.743 39.0851 11.743C36.9988 11.743 35.3021 10.1633 35.3021 8.22089V7.04418H17.651V8.22089C17.651 10.1633 15.9543 11.743 13.8681 11.743C11.7818 11.743 10.0851 10.1633 10.0851 8.22089V7.04418H6.30209C4.21582 7.04418 2.5191 8.62388 2.5191 10.5663V14.0884H50.434V10.5663C50.434 8.62388 48.7373 7.04418 46.651 7.04418H42.8681ZM40.349 3.52209V8.22089C40.349 8.86567 39.7863 9.39761 39.0851 9.39761C38.3839 9.39761 37.8212 8.87373 37.8212 8.22089V3.52209C37.8212 2.87731 38.3839 2.34537 39.0851 2.34537C39.7863 2.34537 40.349 2.86925 40.349 3.52209ZM15.1319 3.52209V8.22089C15.1319 8.86567 14.5693 9.39761 13.8681 9.39761C13.1669 9.39761 12.6042 8.87373 12.6042 8.22089V3.52209C12.6042 2.87731 13.1669 2.34537 13.8681 2.34537C14.5693 2.34537 15.1319 2.86925 15.1319 3.52209Z" fill="#A57F2C"/>
    </symbol>

    <symbol id="ico-plan-estudios" viewBox="0 0 56 54" fill="none">
        <path d="M0.982984 40.6108L6.71037 43.6735V49.1944C6.71037 49.7988 7.09153 50.363 7.72345 50.7015L13.3204 53.6997C13.6815 53.8932 14.1128 53.9979 14.5542 53.9979C15.0056 53.9979 15.4469 53.8851 15.818 53.6836L21.2746 50.5968L26.7512 53.6917C27.5035 54.0947 28.4865 54.0947 29.2388 53.6917L34.7154 50.7579L40.192 53.6917C40.9443 54.0947 41.9273 54.0947 42.6796 53.6917L48.2766 50.6935C48.8984 50.363 49.2696 49.7988 49.2696 49.2024V43.6815L54.997 40.6188C55.6188 40.2884 55.99 39.7242 55.99 39.1197V33.7842C55.99 33.1797 55.6188 32.6236 54.997 32.2851L49.2696 29.2224V23.7015C49.2696 23.0971 48.8984 22.5329 48.2766 22.2024L42.6796 19.2042C41.9273 18.8012 40.9443 18.8012 40.192 19.2042L34.7154 22.1379L29.2388 19.2042C28.4865 18.8012 27.5035 18.8012 26.7512 19.2042L21.2746 22.1379L15.798 19.2042C15.0457 18.8012 14.0627 18.8012 13.3104 19.2042L7.71341 22.2024C7.09153 22.5329 6.7204 23.0971 6.7204 23.6935V29.2144L0.993014 32.2771C0.371127 32.6075 0 33.1717 0 33.7762V39.1117C0 39.7162 0.371127 40.2723 0.993014 40.6108H0.982984ZM2.22676 34.9851L6.71037 37.3788V41.5215L2.22676 39.1197V34.9851ZM13.4308 27.3123V31.6162L8.94716 29.2144V25.0314L13.4308 27.3123ZM41.4358 45.7206L36.7315 43.1979L41.4358 40.6753L46.1401 43.1979L41.4358 45.7206ZM27.995 45.7206L23.2907 43.1979L27.995 40.6753L32.6993 43.1979L27.995 45.7206ZM14.5542 45.7206L9.8499 43.1979L14.5542 40.6753L19.2585 43.1979L14.5542 45.7206ZM47.0328 41.5135L42.5492 39.1117V34.969L47.0328 37.3708V41.5135ZM15.6676 34.9771L20.1512 37.3788V41.5215L15.6676 39.1197V34.9771ZM22.388 41.5135V37.3708L26.8716 34.969V39.1117L22.388 41.5135ZM29.1084 34.9771L33.592 37.3788V41.5215L29.1084 39.1197V34.9771ZM35.8288 41.5135V37.3708L40.3124 34.969V39.1117L35.8288 41.5135ZM34.7154 35.8153L30.0111 33.2926L34.7154 30.7699L39.4197 33.2926L34.7154 35.8153ZM21.2746 35.8153L16.5703 33.2926L21.2746 30.7699L25.9789 33.2926L21.2746 35.8153ZM13.4308 39.1197L8.94716 41.5215V37.3788L13.4308 34.9771V39.1197ZM48.1562 35.8153L43.4519 33.2926L48.1562 30.7699L52.8605 33.2926L48.1562 35.8153ZM47.0328 29.2144L42.5492 31.6162V27.3123L47.0328 25.0314V29.2144ZM40.3124 31.6162L35.8288 29.2144V25.0314L40.3124 27.3123V31.6162ZM33.592 29.2144L29.1084 31.6162V27.3123L33.592 25.0314V29.2144ZM26.8716 31.6162L22.388 29.2144V25.0314L26.8716 27.3123V31.6162ZM20.1512 29.2144L15.6676 31.6162V27.3123L20.1512 25.0314V29.2144ZM7.83378 30.7779L12.5381 33.3006L7.83378 35.8233L3.1295 33.3006L7.83378 30.7779ZM8.94716 49.1944V44.8744L13.4308 47.2762V51.5962L8.94716 49.1944ZM15.6676 51.5639V47.2762L20.1512 44.8744V49.0251L15.6676 51.5639ZM22.388 49.0251V44.8744L26.8716 47.2762V51.5639L22.388 49.0251ZM29.1084 51.6203V47.2842L33.592 44.8824V49.2024L29.1084 51.6203ZM35.8288 49.1944V44.8744L40.3124 47.2762V51.5962L35.8288 49.1944ZM42.5492 51.5962V47.2762L47.0328 44.8744V49.1944L42.5492 51.5962ZM49.2696 41.5135V37.3708L53.7532 34.9771V39.1117L49.2696 41.5135ZM41.4358 20.6953L46.2705 23.2905L41.4358 25.7568L36.6011 23.2905L41.4358 20.6953ZM27.995 20.6953L32.8297 23.2905L27.995 25.7487L23.1603 23.2905L27.995 20.6953ZM14.5542 20.6953L19.3889 23.2905L14.5542 25.7568L9.7195 23.2905L14.5542 20.6953Z" fill="#A57F2C"/>
        <path d="M20.4827 19.5347C20.924 19.8893 21.6262 19.8893 22.0675 19.5347L24.3043 17.7374C24.7356 17.3828 24.7256 16.8105 24.2742 16.464C23.8429 16.1254 23.1508 16.1254 22.7195 16.464L22.3885 16.7299V13.909L26.8922 15.9804C27.2332 16.1254 27.6043 16.206 27.9955 16.206C28.3867 16.206 28.7679 16.1254 29.1189 15.9723L33.6025 13.909V16.7299L33.2715 16.464C32.8302 16.1174 32.118 16.1254 31.6867 16.4881C31.2654 16.8347 31.2654 17.3908 31.6867 17.7374L33.9235 19.5347C34.3648 19.8893 35.067 19.8893 35.5083 19.5347L37.7451 17.7374C38.1764 17.3828 38.1664 16.8105 37.715 16.464C37.2837 16.1254 36.5916 16.1254 36.1603 16.464L35.8293 16.7219V12.8693C36.5214 12.5469 36.9527 11.9505 36.9527 11.3057V4.8741C36.9527 4.22933 36.5214 3.63291 35.8293 3.31052L29.0888 0.223657C28.3967 -0.0745522 27.5642 -0.0745522 26.8721 0.223657L20.1517 3.31052C19.4596 3.63291 19.0383 4.22933 19.0283 4.8741V11.3057C19.0283 11.9505 19.4596 12.5469 20.1517 12.8693V16.7219L19.8207 16.4559C19.3794 16.1093 18.6672 16.1174 18.2359 16.4801C17.8146 16.8266 17.8146 17.3828 18.2359 17.7293L20.4827 19.5347ZM34.7159 5.91381V11.3138L29.1189 13.8848V8.48485L34.7159 5.91381ZM26.8721 13.8848L21.2751 11.3057V5.90575L26.8721 8.47679V13.8848ZM27.9955 1.7953L33.5825 4.36634L27.9955 6.92933L22.3985 4.36634L27.9955 1.80336V1.7953Z" fill="#A57F2C"/>
    </symbol>

    <symbol id="ico-plataforma" viewBox="0 0 67 57" fill="none">
        <path d="M31.6797 37.7415C31.6797 36.7668 30.7355 35.763 29.2998 35.7629H4.39941C2.96393 35.7631 2.01953 36.7669 2.01953 37.7415V52.0217C2.01965 52.9962 2.96402 54.0001 4.39941 54.0002H29.2998C30.7354 54.0002 31.6796 52.9963 31.6797 52.0217V37.7415ZM33.7002 52.0217C33.7001 54.3438 31.604 56.0198 29.2998 56.0198H4.39941C2.0953 56.0196 0.000114753 54.3437 0 52.0217V37.7415C0 35.4194 2.09523 33.7436 4.39941 33.7434H29.2998C31.6041 33.7434 33.7002 35.4193 33.7002 37.7415V52.0217Z" fill="#A57F2C"/>
        <path d="M64.3799 43.7883V28.0627C64.3799 27.0793 63.4357 26.0756 61.9902 26.0754H32.0195C30.5781 26.0756 29.6396 27.0757 29.6396 28.0627V33.7482C31.8094 33.9069 33.7002 35.5265 33.7002 37.7326V45.7668H50.29C50.8477 45.7669 51.2997 46.2189 51.2998 46.7766C51.2998 47.3343 50.8478 47.7862 50.29 47.7863H32.6895C32.1318 47.7861 31.6797 47.3342 31.6797 46.7766V37.7326C31.6797 36.7598 30.7377 35.7542 29.29 35.7541H28.6299C28.0721 35.7541 27.6201 35.3021 27.6201 34.7443V28.0627C27.6201 25.7355 29.7013 24.056 32.0195 24.0559H61.9902C64.3044 24.056 66.3994 25.7319 66.3994 28.0627V43.7883C66.3994 46.1209 64.2924 47.795 61.9902 47.7951H61.7998C61.242 47.7951 60.79 47.3431 60.79 46.7854C60.7901 46.2276 61.2421 45.7756 61.7998 45.7756H61.9902C63.4278 45.7754 64.3799 44.7698 64.3799 43.7883Z" fill="#A57F2C"/>
        <path d="M7.82 26.123V4.00684C7.82 1.67779 9.91319 0.000170212 12.2194 0C12.7772 0 13.2302 0.451958 13.2302 1.00977C13.2302 1.56757 12.7772 2.01953 12.2194 2.01953C10.786 2.01969 9.83953 3.02168 9.83953 4.00684V26.123C9.83953 27.1029 10.7804 28.1016 12.2302 28.1016H27.6198V28.0537C27.6199 25.7352 29.7118 24.0469 32.0202 24.0469H55.3893V4.00684C55.3893 3.02862 54.4411 2.01953 53.0095 2.01953H23.7302C23.1723 2.01953 22.7194 1.56757 22.7194 1.00977C22.7194 0.451958 23.1723 0 23.7302 0H53.0095C55.3178 0 57.4098 1.68829 57.4098 4.00684V25.0566C57.4098 25.6143 56.9577 26.0662 56.4001 26.0664H32.0202C30.5886 26.0664 29.6394 27.0755 29.6393 28.0537V29.1113C29.6393 29.6691 29.1874 30.1221 28.6296 30.1221H12.2302C9.91992 30.1221 7.82 28.4576 7.82 26.123Z" fill="#A57F2C"/>
        <path d="M43.23 30.2175C43.7877 30.2176 44.2397 30.6695 44.2397 31.2272V37.0182C44.2397 37.576 43.7877 38.0289 43.23 38.029H39.8101C38.5403 38.029 37.27 37.0966 37.27 35.6696V32.5759C37.27 31.1657 38.5212 30.2175 39.8101 30.2175H43.23ZM39.2896 35.6696C39.2896 35.7195 39.3102 35.7906 39.396 35.8659C39.4844 35.9435 39.6287 36.0085 39.8101 36.0085H42.2202V32.237H39.8101C39.6256 32.237 39.483 32.3035 39.396 32.3805C39.3103 32.4564 39.2896 32.5277 39.2896 32.5759V35.6696Z" fill="#A57F2C"/>
        <path d="M55.3501 28.4907C55.6395 28.4502 55.9323 28.5372 56.1528 28.729C56.3733 28.9208 56.4995 29.1985 56.4995 29.4907V38.729C56.4994 39.0212 56.3733 39.299 56.1528 39.4907C55.9323 39.6825 55.6395 39.7695 55.3501 39.729L43.0894 38.0102C42.5909 37.9402 42.2204 37.5136 42.2202 37.0102V31.2095C42.2203 30.706 42.5909 30.2796 43.0894 30.2095L55.3501 28.4907ZM44.2397 32.0874V36.1304L54.48 37.5659V30.6518L44.2397 32.0874Z" fill="#A57F2C"/>
        <path d="M43.3706 36.0186L48.77 36.7764C49.0719 36.8188 49.3387 36.9955 49.4956 37.2568C49.6525 37.5183 49.6832 37.8366 49.5786 38.1231L47.9087 42.6982C47.7632 43.0964 47.3844 43.3611 46.9604 43.3613H43.23C42.6722 43.3613 42.2202 42.9094 42.2202 42.3516V37.0186C42.2202 36.7264 42.3466 36.4486 42.5669 36.2568C42.7875 36.065 43.0811 35.9779 43.3706 36.0186ZM44.2397 41.3418H46.2534L47.2524 38.6025L44.2397 38.1797V41.3418Z" fill="#A57F2C"/>
        <path d="M57.0493 32.8443C57.6071 32.8443 58.0601 33.2962 58.0601 33.854C58.0601 34.4118 57.6071 34.8638 57.0493 34.8638H55.4897C54.9319 34.8638 54.48 34.4118 54.48 33.854C54.48 33.2962 54.9319 32.8443 55.4897 32.8443H57.0493Z" fill="#A57F2C"/>
        <path d="M12.9399 39.9555C13.2322 39.7705 13.5989 39.7481 13.9116 39.8959L21.8921 43.6684C22.2367 43.8314 22.4595 44.175 22.4692 44.5561C22.4789 44.9372 22.2739 45.2917 21.938 45.4721L13.9575 49.7553C13.6445 49.9233 13.2663 49.9152 12.9614 49.7328C12.6565 49.5505 12.4702 49.2209 12.4702 48.8656V40.809C12.4702 40.4629 12.6476 40.1407 12.9399 39.9555ZM14.4897 47.1772L19.2173 44.6381L14.4897 42.4028V47.1772Z" fill="#A57F2C"/>
        <path d="M7.81982 26.1324V23.3375C7.81996 23.0117 7.97676 22.7057 8.2417 22.5162L25.2319 10.3697C25.5871 10.1158 26.0656 10.1182 26.4175 10.3765L45.2241 24.191C45.5261 24.3656 45.73 24.6921 45.73 25.066V25.0748C45.7299 25.4554 45.5149 25.8033 45.1753 25.9752C44.9954 26.0662 44.7969 26.098 44.604 26.0758L32.0195 26.0754C30.5781 26.0756 29.6396 27.0757 29.6396 28.0627L29.6392 29.1207C29.639 29.6784 29.1871 30.1305 28.6294 30.1305H12.23C9.9298 30.1305 7.81993 28.4581 7.81982 26.1324ZM9.83936 26.1324C9.83947 27.1034 10.7903 28.1109 12.23 28.1109H27.6196L27.6201 28.0627C27.6201 25.7355 29.7013 24.056 32.0195 24.0559L41.6265 24.0553L25.8101 12.4381L9.83936 23.858V26.1324Z" fill="#A57F2C"/>
        <path d="M46.9473 14.1476C47.2559 14.0013 47.6221 14.0199 47.917 14.2052L56.9365 19.8731C57.2306 20.058 57.4092 20.3812 57.4092 20.7286V25.0655C57.4092 25.6233 56.9572 26.0753 56.3994 26.0753H44.7197C44.5048 26.0753 44.2953 26.0071 44.1221 25.88L38.252 21.5694C37.9 21.311 37.7537 20.8554 37.8896 20.4405C37.9719 20.1897 38.1469 19.9896 38.3682 19.8692L46.8184 14.2208L46.9473 14.1476ZM40.6133 20.797L45.0518 24.0558H55.3896V21.2862L47.3955 16.2638L40.6133 20.797Z" fill="#A57F2C"/>
        <path d="M41.0293 8.61657C41.029 7.74784 40.1749 6.8236 38.8594 6.8236C37.5441 6.82375 36.6897 7.74791 36.6895 8.61657C36.6895 9.48534 37.5439 10.4104 38.8594 10.4105C40.1772 10.4105 41.0293 9.49231 41.0293 8.61657ZM43.0498 8.61657C43.0498 10.8437 41.0415 12.43 38.8594 12.43C36.6752 12.4299 34.6699 10.8328 34.6699 8.61657C34.6702 6.40052 36.6753 4.80422 38.8594 4.80407C41.0436 4.80407 43.0496 6.40041 43.0498 8.61657Z" fill="#A57F2C"/>
    </symbol>

    <symbol id="ico-desarrollo-int" viewBox="0 0 66 54" fill="none">
        <path d="M43.6485 25.928C44.3667 25.928 44.9488 25.4553 44.9488 24.8722C44.9488 24.2891 44.3667 23.8164 43.6485 23.8164C42.9303 23.8164 42.3481 24.2891 42.3481 24.8722C42.3481 25.4553 42.9303 25.928 43.6485 25.928Z" fill="#A57F2C"/>
        <path d="M43.867 29.3937C43.1623 29.3051 42.4972 29.708 42.388 30.2803C42.0307 32.2227 40.0057 33.8427 36.9682 34.6003C33.7223 35.4062 29.2158 35.1403 26.4563 32.7062C25.9699 32.2791 25.146 32.2468 24.6199 32.6418C24.0938 33.0367 24.0541 33.7056 24.5405 34.1328C26.1287 35.5433 28.2927 36.5024 30.7941 36.9053C31.6775 37.0504 32.5907 37.123 33.5139 37.123C34.9333 37.123 36.3727 36.9537 37.7226 36.6152C41.7428 35.6158 44.4427 33.3591 44.949 30.5865C45.0582 30.0143 44.5619 29.4743 43.8571 29.3856L43.867 29.3937Z" fill="#A57F2C"/>
        <path d="M61.9228 20.0687C59.5603 17.8442 56.3045 16.4015 52.3836 15.8293C56.1357 13.774 59.3816 11.7269 61.6845 9.93761C65.2084 7.21343 66.3896 5.29522 65.397 3.91701C64.2951 2.37761 61.1286 2.38567 55.4309 3.94925C50.6167 5.27104 44.6113 7.56806 38.5265 10.4212C37.4743 10.9128 36.432 11.4206 35.4195 11.9284C34.6651 10.1955 35.1614 8.22089 36.829 6.50418C38.0798 5.22269 38.3577 3.58657 37.5537 2.24866C36.7199 0.838209 34.8736 0 32.6302 0H32.5707C24.6495 0 16.897 2.53881 10.7427 7.14895C4.58841 11.751 0.826342 17.8603 0.131501 24.3403C-0.692383 32.1421 2.37485 39.557 8.77731 45.231C15.0706 50.8003 23.9844 53.9919 33.2457 53.9919C38.2287 53.9919 42.9139 53.2505 47.1524 51.7916C51.0336 50.4537 54.478 48.5516 57.3964 46.1257C60.0963 43.877 62.2305 41.2898 63.7293 38.4287C65.1587 35.7125 65.933 32.8272 65.9826 30.0949C66.0521 26.1215 64.6426 22.6558 61.9029 20.0767L61.9228 20.0687ZM35.5684 14.3301C36.9482 13.629 38.3776 12.9278 39.8268 12.2427C45.4451 9.60716 51.0435 7.4391 55.5898 6.12537C60.5926 4.69075 62.6374 4.7794 63.1139 4.96478C63.0742 5.20657 62.697 6.30269 59.4114 8.75284C56.6717 10.8 52.6714 13.2098 48.145 15.5391C46.7157 16.2725 45.2267 17.006 43.7179 17.7152C41.6433 18.6904 39.5687 19.6012 37.5338 20.4313C37.1268 19.4722 36.6107 18.5373 35.9754 17.6427C35.36 16.7803 34.6453 15.9663 33.8512 15.2167C34.417 14.9185 34.9927 14.6203 35.5684 14.3221V14.3301ZM35.1813 21.3743C31.5085 22.7848 28.1435 23.8648 25.4634 24.4854C25.3245 23.9373 25.0763 23.4134 24.7289 22.9218C24.4013 22.4543 23.9844 22.0433 23.508 21.6806C25.523 20.1009 28.352 18.2794 31.6872 16.4096C32.4615 17.1107 33.1464 17.8845 33.732 18.7066C34.3375 19.5609 34.8239 20.4555 35.1912 21.3743H35.1813ZM63.4018 30.0546C63.2132 40.5484 51.6391 51.8803 33.2556 51.8803C24.719 51.8803 16.5 48.9385 10.703 43.8045C4.79686 38.5818 1.96787 31.731 2.73219 24.5257C4.03254 12.154 17.4231 2.09552 32.5707 2.09552H32.6302C33.871 2.09552 34.814 2.48239 35.2111 3.1594C35.5783 3.78 35.4195 4.53761 34.7842 5.19045C32.4416 7.6003 31.856 10.5663 33.1762 13.0648C32.4813 13.4275 31.7964 13.7982 31.1314 14.1609C27.002 16.4257 23.5179 18.6743 21.1951 20.5684C19.4382 20.0767 17.5025 20.2218 15.8548 20.9955C13.1548 22.2609 9.61112 28.1606 8.92621 29.3293C8.74753 29.6436 8.75746 30.0063 8.97584 30.3045C9.19422 30.6027 9.57142 30.8042 9.99825 30.8284C10.7129 30.8767 12.7578 30.9976 15.021 30.9976C17.7705 30.9976 20.8676 30.8203 22.3466 30.1272C23.9447 29.3776 25.0565 28.1203 25.4436 26.6776C28.6299 26.0006 32.789 24.6707 37.2956 22.8896C39.8169 21.8901 42.4176 20.7698 45.0182 19.5528C46.3385 18.9322 47.6388 18.2955 48.8994 17.6588H48.9193C59.7489 17.9087 63.4911 24.2275 63.3918 30.0546H63.4018ZM22.9918 25.7588C22.9124 26.8227 22.1878 27.7657 21.0462 28.2976C19.8154 28.8699 15.5967 28.9504 12.1324 28.8215C13.7305 26.323 15.9243 23.3893 17.1452 22.817C18.3066 22.269 19.7062 22.2528 20.8973 22.7525C21.5525 23.0266 22.0984 23.4537 22.4657 23.9776C22.8528 24.5176 23.0315 25.1382 22.9819 25.7588H22.9918Z" fill="#A57F2C"/>
        <path d="M22.8628 6.50415C19.9941 6.50415 17.6714 8.39818 17.6714 10.7194C17.6714 13.0406 20.0041 14.9346 22.8628 14.9346C25.7216 14.9346 28.0543 13.0406 28.0543 10.7194C28.0543 8.39818 25.7216 6.50415 22.8628 6.50415ZM22.8628 12.831C21.4335 12.831 20.2622 11.888 20.2622 10.7194C20.2622 9.55072 21.4235 8.60773 22.8628 8.60773C24.3022 8.60773 25.4635 9.55072 25.4635 10.7194C25.4635 11.888 24.3022 12.831 22.8628 12.831Z" fill="#A57F2C"/>
        <path d="M16.3711 34.8501C13.5024 34.8501 11.1797 36.7441 11.1797 39.0653C11.1797 41.3865 13.5124 43.2805 16.3711 43.2805C19.2299 43.2805 21.5626 41.3865 21.5626 39.0653C21.5626 36.7441 19.2299 34.8501 16.3711 34.8501ZM16.3711 41.177C14.9418 41.177 13.7705 40.234 13.7705 39.0653C13.7705 37.8967 14.9318 36.9537 16.3711 36.9537C17.8105 36.9537 18.9718 37.8967 18.9718 39.0653C18.9718 40.234 17.8105 41.177 16.3711 41.177Z" fill="#A57F2C"/>
        <path d="M29.3545 41.177C26.4858 41.177 24.1631 43.071 24.1631 45.3922C24.1631 47.7134 26.4958 49.6074 29.3545 49.6074C32.2133 49.6074 34.546 47.7134 34.546 45.3922C34.546 43.071 32.2133 41.177 29.3545 41.177ZM29.3545 47.5039C27.9252 47.5039 26.7539 46.5609 26.7539 45.3922C26.7539 44.2236 27.9152 43.2806 29.3545 43.2806C30.7939 43.2806 31.9552 44.2236 31.9552 45.3922C31.9552 46.5609 30.7939 47.5039 29.3545 47.5039Z" fill="#A57F2C"/>
        <path d="M44.939 39.0654C42.0703 39.0654 39.7476 40.9595 39.7476 43.2807C39.7476 45.6018 42.0802 47.4959 44.939 47.4959C47.7978 47.4959 50.1305 45.6018 50.1305 43.2807C50.1305 40.9595 47.7978 39.0654 44.939 39.0654ZM44.939 45.3923C43.5096 45.3923 42.3383 44.4493 42.3383 43.2807C42.3383 42.112 43.4997 41.169 44.939 41.169C46.3783 41.169 47.5397 42.112 47.5397 43.2807C47.5397 44.4493 46.3783 45.3923 44.939 45.3923Z" fill="#A57F2C"/>
        <path d="M55.3316 28.5153C52.4629 28.5153 50.1401 30.4093 50.1401 32.7305C50.1401 35.0517 52.4728 36.9457 55.3316 36.9457C58.1904 36.9457 60.5231 35.0517 60.5231 32.7305C60.5231 30.4093 58.1904 28.5153 55.3316 28.5153ZM55.3316 34.8502C53.9022 34.8502 52.7309 33.9072 52.7309 32.7385C52.7309 31.5699 53.8923 30.6269 55.3316 30.6269C56.7709 30.6269 57.9323 31.5699 57.9323 32.7385C57.9323 33.9072 56.7709 34.8502 55.3316 34.8502Z" fill="#A57F2C"/>
    </symbol>

</svg>