<svg xmlns="http://www.w3.org/2000/svg" xmlns:xlink="http://www.w3.org/1999/xlink" style="display: none;">

  <symbol id="ico-aspirantes" viewBox="0 0 66 70" fill="none">
    <path d="M11.01 21.48V26.79C11.01 28.36 12.29 29.63 13.85 29.63H19.16C20.73 29.63 22 28.35 22 26.79V23.44L25.14 20.59C25.59 20.18 25.62 19.49 25.21 19.05C24.8 18.6 24.11 18.57 23.67 18.98L21.86 20.62C21.49 19.48 20.42 18.65 19.15 18.65H13.84C12.27 18.65 11 19.93 11 21.49L11.01 21.48ZM19.82 21.48V22.47L18.19 23.95L16.35 22.11C15.92 21.68 15.23 21.68 14.8 22.11C14.37 22.54 14.37 23.23 14.8 23.66L17.38 26.24C17.59 26.45 17.87 26.56 18.15 26.56C18.41 26.56 18.68 26.47 18.88 26.28L19.81 25.44V26.8C19.81 27.16 19.51 27.46 19.15 27.46H13.84C13.48 27.46 13.18 27.16 13.18 26.8V21.49C13.18 21.13 13.48 20.83 13.84 20.83H19.15C19.51 20.83 19.81 21.13 19.81 21.49L19.82 21.48ZM23.68 33.86L21.87 35.5C21.5 34.36 20.43 33.53 19.16 33.53H13.85C12.28 33.53 11.01 34.81 11.01 36.37V41.68C11.01 43.25 12.29 44.52 13.85 44.52H19.16C20.73 44.52 22 43.24 22 41.68V38.33L25.14 35.48C25.59 35.07 25.62 34.38 25.21 33.94C24.8 33.49 24.11 33.46 23.67 33.86H23.68ZM19.82 41.67C19.82 42.03 19.52 42.33 19.16 42.33H13.85C13.49 42.33 13.19 42.03 13.19 41.67V36.36C13.19 36 13.49 35.7 13.85 35.7H19.16C19.52 35.7 19.82 36 19.82 36.36V37.35L18.19 38.83L16.35 36.99C15.92 36.56 15.23 36.56 14.8 36.99C14.37 37.42 14.37 38.11 14.8 38.54L17.38 41.12C17.59 41.33 17.87 41.44 18.15 41.44C18.41 41.44 18.68 41.35 18.88 41.16L19.81 40.32V41.68L19.82 41.67ZM23.68 48.74L21.87 50.38C21.5 49.24 20.43 48.41 19.16 48.41H13.85C12.28 48.41 11.01 49.69 11.01 51.25V56.56C11.01 58.13 12.29 59.4 13.85 59.4H19.16C20.73 59.4 22 58.12 22 56.56V53.21L25.14 50.36C25.59 49.95 25.62 49.26 25.21 48.82C24.8 48.37 24.11 48.34 23.67 48.74H23.68ZM19.82 56.55C19.82 56.91 19.52 57.21 19.16 57.21H13.85C13.49 57.21 13.19 56.91 13.19 56.55V51.24C13.19 50.88 13.49 50.58 13.85 50.58H19.16C19.52 50.58 19.82 50.88 19.82 51.24V52.23L18.19 53.71L16.35 51.87C15.92 51.44 15.23 51.44 14.8 51.87C14.37 52.3 14.37 52.99 14.8 53.42L17.38 56C17.59 56.21 17.87 56.32 18.15 56.32C18.41 56.32 18.68 56.23 18.88 56.04L19.81 55.2V56.56L19.82 56.55ZM28.91 5.31C28.91 6.06 28.3 6.68 27.54 6.68C26.78 6.68 26.17 6.07 26.17 5.31C26.17 4.55 26.78 3.94 27.54 3.94C28.3 3.94 28.91 4.55 28.91 5.31ZM63.27 12.89L62.25 12.3C60.32 11.19 57.84 11.85 56.73 13.78L55.09 16.62V9.91C55.09 7.63 53.24 5.78 50.96 5.78H40.35V5.04C40.35 4.44 39.86 3.95 39.26 3.95H33.38C32.45 1.58 30.16 0 27.56 0C24.96 0 22.67 1.59 21.74 3.95H15.86C15.26 3.95 14.77 4.44 14.77 5.04V5.78H4.13C1.85 5.77 0 7.62 0 9.9V65.84C0 68.12 1.85 69.97 4.13 69.97H50.95C53.23 69.97 55.08 68.12 55.08 65.84V35.14L64.74 18.41C65.85 16.48 65.19 14 63.26 12.89H63.27ZM58.62 14.87C59.04 14.14 59.9 13.8 60.68 14L45.35 40.55L44.18 39.87L58.61 14.87H58.62ZM43.79 42.17L46.64 43.81L43.79 45.45V42.16V42.17ZM50.95 7.96C52.02 7.96 52.9 8.83 52.9 9.91V20.41L50.86 23.95V11.11C50.86 10.51 50.37 10.02 49.77 10.02H40.35V7.98H50.96L50.95 7.96ZM16.93 6.12H22.52C23.03 6.12 23.46 5.77 23.58 5.28C24.02 3.45 25.65 2.16 27.54 2.16C29.43 2.16 31.06 3.44 31.5 5.28C31.62 5.77 32.06 6.12 32.56 6.12H38.15V11.84H16.93V6.12ZM39.25 14.02C39.85 14.02 40.34 13.53 40.34 12.93V12.19H48.67V27.73L41.74 39.73C41.64 39.9 41.59 40.08 41.59 40.28V47.36C41.59 47.75 41.8 48.11 42.14 48.31C42.31 48.41 42.5 48.46 42.69 48.46C42.88 48.46 43.07 48.41 43.24 48.31L48.67 45.17V63.57H6.42V12.19H14.75V12.93C14.75 13.53 15.24 14.02 15.84 14.02H39.25ZM52.9 65.85C52.9 66.92 52.03 67.8 50.95 67.8H4.13C3.06 67.8 2.18 66.93 2.18 65.85V9.9C2.18 8.83 3.05 7.95 4.13 7.95H14.74V9.99H5.32C4.72 9.99 4.23 10.48 4.23 11.08V64.64C4.23 65.24 4.72 65.73 5.32 65.73H49.76C50.36 65.73 50.85 65.24 50.85 64.64V42.45L52.89 38.91V65.83L52.9 65.85ZM62.86 17.31L48.43 42.31L47.26 41.63L62.59 15.08C63.15 15.66 63.29 16.57 62.87 17.3L62.86 17.31ZM27.12 26.52C27.12 25.92 27.61 25.43 28.21 25.43H34.46C35.06 25.43 35.55 25.92 35.55 26.52C35.55 27.12 35.06 27.61 34.46 27.61H28.21C27.61 27.61 27.12 27.12 27.12 26.52ZM27.12 21.75C27.12 21.15 27.61 20.66 28.21 20.66H40.72C41.32 20.66 41.81 21.15 41.81 21.75C41.81 22.35 41.32 22.84 40.72 22.84H28.21C27.61 22.84 27.12 22.35 27.12 21.75ZM27.12 39.89C27.12 39.29 27.61 38.8 28.21 38.8H34.46C35.06 38.8 35.55 39.29 35.55 39.89C35.55 40.49 35.06 40.98 34.46 40.98H28.21C27.61 40.98 27.12 40.49 27.12 39.89ZM27.12 35.12C27.12 34.52 27.61 34.03 28.21 34.03H40.72C41.32 34.03 41.81 34.52 41.81 35.12C41.81 35.72 41.32 36.21 40.72 36.21H28.21C27.61 36.21 27.12 35.72 27.12 35.12ZM27.12 56.28C27.12 55.68 27.61 55.19 28.21 55.19H34.46C35.06 55.19 35.55 55.68 35.55 56.28C35.55 56.88 35.06 57.37 34.46 57.37H28.21C27.61 57.37 27.12 56.88 27.12 56.28ZM27.12 51.51C27.12 50.91 27.61 50.42 28.21 50.42H40.72C41.32 50.42 41.81 50.91 41.81 51.51C41.81 52.11 41.32 52.6 40.72 52.6H28.21C27.61 52.6 27.12 52.11 27.12 51.51Z" fill="currentColor"/>
  </symbol>

  <symbol id="ico-estudiantes" viewBox="0 0 73 70" fill="none">
    <path d="M44.3507 42.58C50.9107 39.91 55.1707 33.49 55.0607 26.41C55.0607 16.67 46.6507 8.75 36.3107 8.75C25.9707 8.75 17.5607 16.67 17.5607 26.41C17.4507 33.49 21.7107 39.92 28.2707 42.58L28.4207 42.66L29.4107 44.29C27.6407 45.32 27.0307 47.58 28.0607 49.36C28.1907 49.59 28.3507 49.81 28.5407 50.01C27.1507 51.53 27.2607 53.89 28.7807 55.28C29.4707 55.91 30.3807 56.26 31.3107 56.26H41.3107C43.3707 56.26 45.0507 54.6 45.0607 52.54C45.0607 51.6 44.7207 50.7 44.0807 50.01C45.4607 48.5 45.3607 46.16 43.8507 44.77C43.6507 44.59 43.4307 44.43 43.2007 44.29L44.1907 42.66L44.3407 42.58H44.3507ZM41.3207 53.75H31.3207C30.6307 53.75 30.0707 53.19 30.0707 52.5C30.0707 51.81 30.6307 51.25 31.3207 51.25H41.3207C42.0107 51.25 42.5707 51.81 42.5707 52.5C42.5707 53.19 42.0107 53.75 41.3207 53.75ZM41.3207 48.75H31.3207C30.6307 48.75 30.0707 48.19 30.0707 47.5C30.0707 46.81 30.6307 46.25 31.3207 46.25H41.3207C42.0107 46.25 42.5707 46.81 42.5707 47.5C42.5707 48.19 42.0107 48.75 41.3207 48.75ZM43.2207 40.35L42.7207 40.62C42.5307 40.73 42.3607 40.88 42.2507 41.07L40.6207 43.75H40.0707V34.27L45.9507 28.39L44.1807 26.62L37.9307 32.87C37.7007 33.1 37.5607 33.42 37.5607 33.75V43.75H35.0607V33.75C35.0607 33.42 34.9307 33.1 34.6907 32.87L28.4407 26.62L26.6707 28.39L32.5507 34.27V43.75H32.0007L30.3707 41.07C30.2607 40.88 30.0907 40.73 29.9007 40.62L29.4007 40.35C29.4007 40.35 29.3207 40.31 29.2807 40.29C23.6307 38.02 19.9607 32.5 20.0607 26.41C20.0607 18.05 27.3507 11.25 36.3107 11.25C45.2707 11.25 52.5607 18.05 52.5607 26.41C52.6507 32.5 48.9907 38.02 43.3407 40.29C43.3007 40.31 43.2607 40.33 43.2207 40.35Z" fill="currentColor"/>
    <path d="M10.6299 8.87676L9.51172 11.1127L17.0067 14.861L18.1249 12.6251L10.6299 8.87676Z" fill="currentColor"/>
    <path d="M62.1544 9.35885L54.2051 12.0109L54.9963 14.3824L62.9455 11.7303L62.1544 9.35885Z" fill="currentColor"/>
    <path d="M12.5703 25H5.07031V27.5H12.5703V25Z" fill="currentColor"/>
    <path d="M67.5703 25H60.0703V27.5H67.5703V25Z" fill="currentColor"/>
    <path d="M16.9969 40.1268L9.50195 43.8751L10.6202 46.1111L18.1152 42.3628L16.9969 40.1268Z" fill="currentColor"/>
    <path d="M55.6358 40.1416L54.5176 42.3776L62.0126 46.1259L63.1308 43.8899L55.6358 40.1416Z" fill="currentColor"/>
    <path d="M37.5703 0H35.0703V6.25H37.5703V0Z" fill="currentColor"/>
    <path d="M72.5703 58.75V56.25C56.2603 56.25 38.9303 60.19 38.8203 67.5H33.8203C33.7103 60.19 16.3803 56.25 0.0703125 56.25V58.75C18.3803 58.75 31.1703 63.35 31.3103 67.5H0.0703125V70H72.5703V67.5H41.3303C41.4703 63.35 54.2603 58.75 72.5703 58.75Z" fill="currentColor"/>
    <path d="M0.131711 62.5132L0 65.0098L23.757 66.2631L23.8887 63.7666L0.131711 62.5132Z" fill="currentColor"/>
    <path d="M72.505 62.508L48.748 63.7614L48.8798 66.2579L72.6367 65.0045L72.505 62.508Z" fill="currentColor"/>
  </symbol>

  <symbol id="ico-servicios" viewBox="0 0 71 72" fill="none">    
    <path d="M38.4298 26.54V28.98L36.8498 30.57C36.4398 30.42 36.0198 30.34 35.5698 30.34C33.5798 30.34 31.9498 31.96 31.9498 33.96C31.9498 35.96 33.5698 37.58 35.5698 37.58C37.5698 37.58 39.1898 35.96 39.1898 33.96C39.1898 33.52 39.1098 33.09 38.9598 32.68L40.9898 30.65C41.2698 30.37 41.4298 29.99 41.4298 29.59V26.71H48.6798V34.64C47.3998 35.22 46.5598 36.5 46.5598 37.93C46.5598 39.92 48.1798 41.55 50.1798 41.55C52.1798 41.55 53.7998 39.93 53.7998 37.93C53.7998 36.5 52.9598 35.22 51.6798 34.64V26.71H58.9298V29.59C58.9298 29.99 59.0798 30.36 59.3598 30.65L61.3898 32.67C61.2398 33.08 61.1598 33.5 61.1598 33.95C61.1598 35.95 62.7798 37.57 64.7798 37.57C66.7798 37.57 68.3998 35.95 68.3998 33.95C68.3998 31.95 66.7798 30.33 64.7798 30.33C64.3398 30.33 63.9098 30.41 63.4998 30.56L61.9098 28.97V26.53C66.0598 25.71 69.1398 22 69.1398 17.74C69.1398 12.8 65.1198 8.78 60.1798 8.78H57.6898C57.3498 6.58 56.3298 4.58 54.7198 3C52.7598 1.07 50.1698 0 47.4198 0C44.6698 0 42.0298 1.08 40.0698 3.05C38.3898 4.74 37.3298 6.95 37.0898 9.32C33.5898 10.65 31.2598 13.99 31.2598 17.75C31.2598 22.02 34.3398 25.72 38.4798 26.54H38.4298ZM64.1098 33.95C64.1098 33.6 64.3898 33.32 64.7398 33.32C65.0898 33.32 65.3698 33.6 65.3698 33.95C65.3698 34.3 65.0898 34.58 64.7398 34.58C64.3898 34.58 64.1098 34.3 64.1098 33.95ZM50.7898 37.93C50.7898 38.28 50.5098 38.56 50.1598 38.56C49.8098 38.56 49.5298 38.28 49.5298 37.93C49.5298 37.58 49.8098 37.3 50.1598 37.3C50.5098 37.3 50.7898 37.58 50.7898 37.93ZM36.1998 33.95C36.1998 34.3 35.9198 34.58 35.5698 34.58C35.2198 34.58 34.9398 34.3 34.9398 33.95C34.9398 33.6 35.2198 33.32 35.5698 33.32C35.9198 33.32 36.1998 33.6 36.1998 33.95ZM34.1898 17.74C34.1898 14.96 36.0998 12.55 38.8298 11.88C39.4998 11.72 39.9698 11.12 39.9698 10.43C39.9698 8.43 40.7398 6.56 42.1398 5.16C43.5398 3.76 45.3998 2.99 47.3798 2.99C51.4098 2.99 54.7398 6.27 54.7898 10.3C54.7998 11.11 55.4698 11.77 56.2798 11.77H60.1398C63.4398 11.77 66.1198 14.45 66.1198 17.75C66.1198 21.05 63.4398 23.73 60.1398 23.73H40.1698C36.8698 23.73 34.1898 21.05 34.1898 17.75V17.74Z" fill="currentColor"/>
    <path d="M70.7008 45.55C70.1508 43.93 68.8508 42.76 67.0408 42.25C65.1808 41.73 62.7908 41.89 59.9308 42.73L47.7508 46.31C46.9808 44.99 45.7408 44.05 44.2708 43.66L35.4208 41.3C28.8408 36.72 25.1208 37.97 19.8108 40.58C17.1008 41.91 14.2808 43.25 11.6208 44.51L11.6008 44.46C10.8108 42.67 8.71083 41.85 6.92083 42.64L2.13083 44.74C1.26083 45.12 0.590833 45.82 0.240833 46.7C-0.0991667 47.58 -0.0791667 48.55 0.300833 49.42L8.86083 68.89C9.43083 70.18 10.7108 71.01 12.1208 71.01C12.6108 71.01 13.0908 70.91 13.5408 70.71L18.3308 68.61C19.2008 68.23 19.8708 67.53 20.2208 66.65C20.5608 65.77 20.5408 64.8 20.1608 63.93L19.5208 62.47L23.3608 60.6C24.3908 60.1 25.4308 60.01 26.5208 60.33L36.5708 63.24C37.3208 63.46 38.1308 63.57 38.9908 63.57C41.7608 63.57 44.6708 62.43 47.0108 61.52L66.4708 54.01C69.7608 52.74 71.7908 48.72 70.7208 45.57L70.7008 45.55ZM18.3108 59.72L12.8208 47.23C15.9108 45.77 18.5308 44.52 21.1208 43.25C25.8708 40.92 28.4008 39.97 33.9108 43.88C34.0608 43.98 34.2208 44.06 34.3908 44.11L43.5008 46.54C44.2108 46.73 44.8108 47.19 45.1908 47.84C45.5608 48.48 45.6608 49.23 45.4708 49.95C45.2808 50.66 44.8208 51.26 44.1708 51.64C43.5208 52.01 42.7808 52.12 42.0608 51.92L29.9508 48.69C29.5708 48.59 29.1608 48.64 28.8208 48.84C28.4708 49.04 28.2308 49.36 28.1208 49.75C28.0208 50.13 28.0708 50.54 28.2708 50.88C28.4708 51.22 28.7908 51.47 29.1808 51.57L41.2908 54.8C42.7708 55.19 44.3308 54.99 45.6608 54.22C47.0008 53.45 47.9508 52.2 48.3508 50.72C48.4808 50.22 48.5508 49.7 48.5508 49.19L60.7708 45.6C64.5808 44.48 67.3008 44.83 67.8808 46.52C68.4408 48.15 67.1708 50.52 65.3808 51.21L45.9108 58.73C43.2208 59.78 39.8808 61.08 37.4008 60.36L27.3508 57.45C26.6508 57.25 25.9508 57.15 25.2608 57.15C24.1708 57.15 23.0908 57.4 22.0508 57.91L18.3108 59.73V59.72ZM17.4408 65.55C17.3808 65.69 17.2808 65.8 17.1308 65.86L12.3408 67.96C12.0608 68.08 11.7208 67.96 11.5908 67.67L3.03083 48.21C2.97083 48.07 2.96083 47.91 3.02083 47.77C3.07083 47.63 3.18083 47.52 3.33083 47.46L8.12083 45.36C8.19083 45.33 8.27083 45.31 8.35083 45.31C8.58083 45.31 8.78083 45.44 8.87083 45.65L17.4408 65.12C17.5008 65.26 17.5108 65.42 17.4508 65.56L17.4408 65.55Z" fill="currentColor"/>
  </symbol>

  <symbol id="ico-comunicacion" viewBox="0 0 70 71" fill="none">
    <path d="M2.33 2.63C2.33 2.47 2.46 2.34 2.62 2.34H36.16V0H2.62C1.18 0 0 1.18 0 2.63V7H2.33V2.63Z" fill="currentColor"/>
    <path d="M2.33 9.33002H0V49.87C0 51.32 1.18 52.49 2.62 52.49H27.99V50.16H2.62C2.46 50.16 2.33 50.03 2.33 49.87V47.83H28V45.5H2.33V9.33002Z" fill="currentColor"/>
    <path d="M61.8302 59.5C62.4702 59.5 63.0002 58.98 63.0002 58.33V49C63.0002 48.36 62.4802 47.83 61.8302 47.83H36.1602C35.5202 47.83 34.9902 48.35 34.9902 49V58.33C34.9902 58.97 35.5102 59.5 36.1602 59.5H61.8302ZM37.3302 50.17H60.6602V57.17H37.3302V50.17Z" fill="currentColor"/>
    <path d="M65.9205 31.5H65.3405V23.33C65.3405 23.02 65.2205 22.72 65.0005 22.51L60.6205 18.13C60.9705 16.23 59.7005 14.4 57.8005 14.06C57.5905 14.02 57.3905 14 57.1805 14H54.8505V8.17C55.4905 8.17 56.0205 7.65 56.0205 7V5.78C56.0205 3.91 54.7505 2.27 52.9305 1.82L50.4705 1.21L50.4005 1.48C49.6105 0.54 48.4605 0 47.2505 0H39.6705C39.0205 0 38.5005 0.52 38.5005 1.17V4.09C38.5005 5.67 39.4105 7.1 40.8305 7.78V14.69C40.8305 16.12 41.5905 17.45 42.8105 18.19L43.6105 18.67L42.1205 21.65C42.1205 21.65 42.1005 21.69 42.0905 21.7C42.0905 21.7 42.0805 21.73 42.0705 21.74V21.77L36.4705 23.86C34.8805 24.46 33.8305 25.98 33.8205 27.68V36.16H29.1505C28.5105 36.16 27.9805 36.68 27.9805 37.33V42C27.9805 42.64 28.5005 43.17 29.1505 43.17H30.3205V52.5H32.6505V43.17H65.3205V67.67H32.6505V54.84H30.3205V68.84C30.3205 69.48 30.8405 70.01 31.4905 70.01H66.4905C67.1305 70.01 67.6605 69.49 67.6605 68.84V43.17H68.8305C69.4705 43.17 70.0005 42.65 70.0005 42V35.58C70.0005 33.33 68.1705 31.5 65.9205 31.5ZM67.6705 35.58V36.16H60.6705V35.58C60.6705 34.61 61.4505 33.83 62.4205 33.83H65.9205C66.8905 33.83 67.6705 34.61 67.6705 35.58ZM63.0005 31.5H62.4205C62.2205 31.5 62.0305 31.51 61.8405 31.54V27.69C61.8405 25.99 60.7805 24.47 59.1905 23.87L53.6005 21.78V21.75C53.6005 21.75 53.5805 21.72 53.5705 21.71C53.5705 21.71 53.5505 21.67 53.5405 21.66L52.9405 20.46C53.5005 20.82 54.1605 21.02 54.8305 21.01H57.1605C57.9705 21.01 58.7605 20.73 59.3805 20.21L62.9905 23.82V31.5H63.0005ZM43.5905 24.24L45.4005 26.05L42.6805 26.5L43.5905 24.23V24.24ZM52.0705 24.24L52.9805 26.51L50.2605 26.06L52.0705 24.25V24.24ZM57.1705 16.33C57.8105 16.33 58.3405 16.85 58.3405 17.5C58.3405 18.15 57.8205 18.67 57.1705 18.67H54.8405C54.2105 18.67 53.6905 18.17 53.6705 17.54C53.9905 17.21 54.2605 16.82 54.4605 16.4C54.5805 16.36 54.7105 16.34 54.8405 16.34H57.1705V16.33ZM52.3405 4.08C53.1205 4.27 53.6705 4.97 53.6705 5.78V5.84H51.3405V4.09C51.3405 4 51.3405 3.92 51.3405 3.83L52.3605 4.08H52.3405ZM40.8305 2.33H47.2505C48.2205 2.33 49.0005 3.11 49.0005 4.08V5.83H42.5805C41.6105 5.83 40.8305 5.05 40.8305 4.08V2.33ZM43.1705 8.17H52.5005V14.69C52.5005 14.77 52.5005 14.84 52.4905 14.91C52.0905 15.27 51.7705 15.73 51.5805 16.23L48.7405 17.93C48.1905 18.26 47.4905 18.26 46.9405 17.93L44.0205 16.18C43.4905 15.86 43.1705 15.29 43.1705 14.68V8.16V8.17ZM45.7305 19.93C47.0205 20.71 48.6405 20.71 49.9305 19.93L50.0405 19.86L51.0805 21.93L47.8305 25.18L44.5805 21.93L45.6205 19.86L45.7305 19.93ZM36.1705 27.69C36.1705 26.96 36.6205 26.31 37.3105 26.05L40.9005 24.7L39.7505 27.57C39.5105 28.17 39.8005 28.85 40.4005 29.09C40.5405 29.15 40.6805 29.17 40.8305 29.17C40.8905 29.17 40.9605 29.17 41.0205 29.15L47.8305 28.02L54.6405 29.15C55.2805 29.26 55.8805 28.83 55.9805 28.19C56.0205 27.98 55.9905 27.76 55.9105 27.56L54.7605 24.69L58.3505 26.04C59.0305 26.3 59.4805 26.95 59.4905 27.68V32.66H59.5505C58.7605 33.43 58.3205 34.48 58.3205 35.58V36.16H36.1505V27.68L36.1705 27.69ZM67.6705 40.83H30.3305V38.5H67.6605V40.83H67.6705Z" fill="currentColor"/>
    <path d="M29.1695 4.66998C28.8595 4.66998 28.5595 4.78998 28.3495 5.00998L26.0195 7.33998L27.6695 8.98998L29.6595 6.99998H35.0095V4.66998H29.1695Z" fill="currentColor"/>
    <path d="M34.9999 9.33002H29.1699V11.66H34.9999V9.33002Z" fill="currentColor"/>
    <path d="M13.6597 7.33998L11.3297 5.00998C11.1097 4.78998 10.8097 4.66998 10.5097 4.66998H4.67969V6.99998H10.0297L12.0197 8.98998L13.6697 7.33998H13.6597Z" fill="currentColor"/>
    <path d="M10.4999 9.33002H4.66992V11.66H10.4999V9.33002Z" fill="currentColor"/>
    <path d="M32.6698 28V25.67H29.6498L27.6598 23.68L26.0098 25.33L28.3398 27.66C28.5598 27.88 28.8598 28 29.1598 28H32.6698Z" fill="currentColor"/>
    <path d="M34.9999 21H29.1699V23.33H34.9999V21Z" fill="currentColor"/>
    <path d="M10.5002 28C10.8102 28 11.1102 27.88 11.3202 27.66L13.6502 25.33L12.0002 23.68L10.0102 25.67H4.66016V28H10.5002Z" fill="currentColor"/>
    <path d="M10.4999 21H4.66992V23.33H10.4999V21Z" fill="currentColor"/>
    <path d="M26.8298 17.5V15.17H24.3498C24.2398 14.75 24.0698 14.34 23.8498 13.97L25.6098 12.21L23.9598 10.56L22.1998 12.32C21.8198 12.1 21.4198 11.93 20.9998 11.82V9.34003H18.6698V11.82C18.2498 11.93 17.8398 12.1 17.4698 12.32L15.7098 10.56L14.0598 12.21L15.8198 13.97C15.5998 14.35 15.4298 14.75 15.3198 15.17H12.8398V17.5H15.3198C15.4298 17.92 15.5998 18.33 15.8198 18.7L14.0598 20.46L15.7098 22.11L17.4698 20.35C17.8498 20.57 18.2498 20.74 18.6698 20.85V23.33H20.9998V20.85C21.4198 20.74 21.8298 20.57 22.1998 20.35L23.9598 22.11L25.6098 20.46L23.8498 18.7C24.0698 18.32 24.2398 17.92 24.3498 17.5H26.8298ZM19.8298 18.67C18.5398 18.67 17.4998 17.63 17.4998 16.34C17.4998 15.05 18.5398 14.01 19.8298 14.01C21.1198 14.01 22.1598 15.05 22.1598 16.34C22.1598 17.63 21.1098 18.67 19.8298 18.67Z" fill="currentColor"/>
    <path d="M4.67016 42C4.67016 42.64 5.19016 43.17 5.84016 43.17H24.5102C25.1502 43.17 25.6802 42.65 25.6802 42V35C25.6802 34.36 25.1602 33.83 24.5102 33.83H21.0102V29.16C21.0102 28.52 20.4902 27.99 19.8402 27.99H15.1702C14.5302 27.99 14.0002 28.51 14.0002 29.16V31.49H10.5002C9.86016 31.49 9.33016 32.01 9.33016 32.66V33.83H5.83016C5.19016 33.83 4.66016 34.35 4.66016 35V42H4.67016ZM23.3302 36.17V40.84H21.0002V36.17H23.3302ZM16.3302 30.33H18.6602V40.83H16.3302V30.33ZM11.6702 33.83H14.0002V40.83H11.6702V33.83ZM7.00016 36.17H9.33016V40.84H7.00016V36.17Z" fill="currentColor"/>
  </symbol>

  <symbol id="ico-inicio" viewBox="0 0 49 49" fill="none">
    <path d="M4.08983 48.993C2.99826 48.993 1.97758 48.573 1.20498 47.817C0.432374 47.054 0 46.039 0 44.961V13.797C0 12.516 0.722986 11.361 1.88543 10.787L22.9938 0.357C23.9507 -0.119 25.0848 -0.119 26.0487 0.357L47.1146 10.766C48.277 11.34 49 12.495 49 13.776V44.947C49 47.18 47.1571 48.993 44.9031 48.993H34.1008C32.2154 48.993 30.6844 47.481 30.6844 45.619V27.37C30.6844 27.37 30.6844 27.342 30.6702 27.328C30.656 27.314 30.6418 27.314 30.6277 27.314H18.4078C18.3723 27.314 18.344 27.342 18.344 27.384V45.626C18.344 47.488 16.813 49 14.9275 49H4.09692H4.08983V48.993ZM3.35267 44.954C3.35267 45.22 3.49443 45.395 3.5724 45.465C3.65746 45.549 3.82757 45.682 4.08983 45.682H14.9063C14.9417 45.682 14.9701 45.654 14.9701 45.619V27.377C14.9701 25.515 16.5082 24.003 18.3865 24.003H30.6347C31.542 24.003 32.3997 24.36 33.0376 24.997C33.6755 25.634 34.0299 26.481 34.0299 27.384V45.626C34.0299 45.661 34.0583 45.689 34.0937 45.689H44.896C45.3071 45.689 45.6473 45.36 45.6473 44.947V13.776C45.6473 13.776 45.6402 13.734 45.619 13.727L24.539 3.318C24.539 3.318 24.5035 3.311 24.4894 3.318L3.38102 13.748C3.38102 13.748 3.35267 13.776 3.35267 13.804V44.961V44.954Z" fill="currentColor"/>
  </symbol>


</svg>