<svg xmlns="http://www.w3.org/2000/svg" xmlns:xlink="http://www.w3.org/1999/xlink" style="display: none;">

  <symbol id="ico-registro" viewBox="0 0 32 30" fill="none">
    <path d="M20.7977 16.0256H1.02558C0.460465 16.0256 0 15.5651 0 15C0 14.4349 0.460465 13.9744 1.02558 13.9744H20.7977C21.3628 13.9744 21.8233 14.4349 21.8233 15C21.8233 15.5651 21.3628 16.0256 20.7977 16.0256Z" fill="currentColor"/>
    <path d="M15.3418 21.4744C15.0767 21.4744 14.8186 21.3767 14.6163 21.1744C14.2186 20.7767 14.2186 20.1279 14.6163 19.7302L19.3465 15L14.6163 10.2697C14.2186 9.87207 14.2186 9.22324 14.6163 8.82556C15.0139 8.42789 15.6628 8.42789 16.0604 8.82556L21.5163 14.2814C21.9139 14.679 21.9139 15.3279 21.5163 15.7256L16.0604 21.1814C15.8581 21.3837 15.6 21.4814 15.3349 21.4814L15.3418 21.4744Z" fill="currentColor"/>
    <path d="M16.3605 30C10.1582 30 4.67447 26.2674 2.40005 20.4907C2.19075 19.9674 2.44889 19.3744 2.97912 19.1651C3.50237 18.9628 4.0954 19.214 4.3047 19.7442C6.27214 24.7326 11.0024 27.9558 16.3605 27.9558C23.5047 27.9558 29.3163 22.1442 29.3163 15C29.3163 7.85581 23.5047 2.04419 16.3605 2.04419C11.0024 2.04419 6.27214 5.26744 4.3047 10.2558C4.0954 10.786 3.50237 11.0372 2.97912 10.8349C2.45586 10.6256 2.19772 10.0326 2.40005 9.5093C4.68144 3.73256 10.1582 0 16.3605 0C24.628 0 31.3605 6.73256 31.3605 15C31.3605 23.2674 24.628 30 16.3605 30Z" fill="currentColor"/>
  </symbol>

  <symbol id="ico-plan-estudio" viewBox="0 0 37 30" fill="none">
    <path d="M35.791 5.37546C35.7212 5.37546 34.298 5.32662 32.2119 5.37546V1.08473C32.2119 0.456817 31.6747 -0.045513 31.0398 0.00332465C26.8746 0.352165 21.5793 2.19404 18.4188 5.54988C15.2652 2.19404 9.96287 0.352165 5.79772 0.00332465C5.16283 -0.045513 4.62562 0.44984 4.62562 1.08473V5.48011C3.43956 5.43825 2.3163 5.40337 1.11629 5.36849C0.509307 5.34756 0 5.83593 0 6.44989V26.1803C0 26.7524 0.439539 27.2198 1.01164 27.2617C5.3233 27.5547 12.5443 27.5826 17.9932 29.9129C18.4816 30.1222 18.9141 29.885 18.8443 29.9129C24.3002 27.5896 31.5142 27.5547 35.8259 27.2617C36.398 27.2268 36.8375 26.7524 36.8375 26.1803V6.45687C36.8375 5.87082 36.377 5.39639 35.791 5.37546ZM30.0421 2.30567V20.8779C26.9165 21.5756 22.9607 23.0686 19.5002 26.2291V7.60106C21.8723 4.6429 26.3584 2.86381 30.0421 2.30567ZM6.79541 2.30567C10.4792 2.86381 14.9652 4.6429 17.3374 7.60106V26.2221C13.8769 23.0617 9.92101 21.5686 6.79541 20.8709V2.30567ZM2.16979 25.1686V7.57316C2.94421 7.59409 3.77445 7.62199 4.62562 7.65688V21.764C4.62562 22.2872 4.99539 22.7337 5.51167 22.8314C7.98844 23.2989 11.2047 24.3035 14.1978 26.4733C9.92101 25.5105 5.44191 25.357 2.16281 25.1756L2.16979 25.1686ZM34.6677 25.1686C31.3956 25.35 26.9165 25.5035 22.6327 26.4663C25.6328 24.2966 28.8491 23.2849 31.3189 22.8244C31.8282 22.7268 32.2049 22.2803 32.2049 21.757V7.53827C33.2026 7.51734 34.0538 7.51734 34.6608 7.52432V25.1756L34.6677 25.1686Z" fill="currentColor"/>
    <path d="M14.5255 10.0988C13.6883 9.51271 12.2371 8.7941 10.6952 8.53596C10.1022 8.43828 9.54406 8.83596 9.44638 9.42201C9.34871 10.015 9.74638 10.5732 10.3324 10.6709C11.5255 10.8732 12.6697 11.4453 13.2836 11.8778C13.772 12.2197 14.4487 12.1011 14.7906 11.6057C15.1325 11.1174 15.0139 10.4406 14.5185 10.0988H14.5255Z" fill="currentColor"/>
    <path d="M14.4214 16.2034C13.6469 15.729 12.1399 14.9058 10.7027 14.6616C10.1097 14.5639 9.55155 14.9616 9.45388 15.5476C9.3562 16.1406 9.75388 16.6988 10.3399 16.7965C11.4632 16.9848 12.7818 17.7383 13.2911 18.0523C13.8004 18.3663 14.4702 18.2058 14.7772 17.6895C15.0911 17.1802 14.9307 16.5104 14.4144 16.2034H14.4214Z" fill="currentColor"/>
    <path d="M23.5537 11.8778C24.1677 11.4453 25.3119 10.8732 26.5049 10.6709C27.098 10.5732 27.4956 10.015 27.391 9.42202C27.2933 8.82899 26.7352 8.43131 26.1421 8.53596C24.6003 8.7941 23.1491 9.51271 22.3119 10.0988C21.8235 10.4406 21.6979 11.1174 22.0398 11.6058C22.3816 12.0941 23.0584 12.2197 23.5468 11.8778H23.5537Z" fill="currentColor"/>
    <path d="M26.1418 14.6616C24.7046 14.9058 23.1906 15.729 22.4232 16.2034C21.9139 16.5174 21.7534 17.1802 22.0604 17.6895C22.3743 18.1988 23.0371 18.3593 23.5464 18.0523C24.0627 17.7383 25.3813 16.9848 26.4976 16.7965C27.0907 16.6988 27.4883 16.1407 27.3837 15.5476C27.286 14.9546 26.7279 14.5569 26.1348 14.6616H26.1418Z" fill="currentColor"/>
  </symbol>

  <symbol id="ico-estudio" viewBox="0 0 43 30" fill="none">    
    <path d="M39.1275 30H3.00202C1.32224 30 0 28.6508 0 26.9373C0 25.8646 0.87025 24.9944 1.94288 24.9944H40.1799C40.7466 24.9944 41.2863 25.2237 41.6573 25.6218C42.0014 25.9928 42.17 26.4785 42.1228 26.9777C42.1228 28.6305 40.7803 30 39.1275 30ZM1.94288 25.9726C1.42343 25.9726 0.984934 26.4111 0.984934 26.9305C0.984934 28.0976 1.86868 29.0083 2.99528 29.0083H39.1208C40.2136 29.0083 41.1311 28.0571 41.1311 26.9305C41.1513 26.6674 41.0771 26.4515 40.922 26.2829C40.7398 26.0872 40.47 25.9726 40.1732 25.9726H1.94288Z" fill="currentColor"/>
    <path d="M36.092 25.9119H5.96386C4.39202 25.9119 3.16422 24.6841 3.16422 23.1122V2.79964C3.16422 1.23454 4.39876 0 5.96386 0H36.1595C36.9083 0 37.6369 0.317068 38.1564 0.863504C38.6691 1.40319 38.9322 2.09804 38.8917 2.82663V23.1055C38.8917 24.6773 37.6639 25.9051 36.092 25.9051V25.9119ZM5.96386 0.99168C4.9452 0.99168 4.14916 1.78772 4.14916 2.80639V23.1122C4.14916 24.1309 4.9452 24.9269 5.96386 24.9269H36.092C37.1107 24.9269 37.9068 24.1309 37.9068 23.1122V2.79964C37.9337 2.32067 37.7651 1.88217 37.4413 1.54486C37.104 1.19406 36.6385 0.984934 36.1595 0.984934H5.96386V0.99168Z" fill="currentColor"/>
    <path d="M10.9769 9.82245C10.8555 9.82245 10.734 9.77523 10.6396 9.68753L9.64792 8.76331C9.44554 8.57442 9.43879 8.2641 9.62094 8.06171C9.80983 7.85933 10.1202 7.85258 10.3225 8.03473L10.9567 8.62839L12.9265 6.60455C13.1154 6.40891 13.4325 6.40217 13.6281 6.5978C13.8238 6.7867 13.8305 7.10376 13.6349 7.2994L11.3277 9.67404C11.2333 9.77523 11.1051 9.82245 10.9702 9.82245H10.9769Z" fill="currentColor"/>
    <path d="M19.5507 7.84584H16.0562C15.7863 7.84584 15.5637 7.62321 15.5637 7.35337C15.5637 7.08352 15.7863 6.8609 16.0562 6.8609H19.5507C19.8205 6.8609 20.0432 7.08352 20.0432 7.35337C20.0432 7.62321 19.8205 7.84584 19.5507 7.84584Z" fill="currentColor"/>
    <path d="M18.4917 9.49189H16.0496C15.7798 9.49189 15.5571 9.26927 15.5571 8.99942C15.5571 8.72958 15.7798 8.50696 16.0496 8.50696H18.4917C18.7615 8.50696 18.9842 8.72958 18.9842 8.99942C18.9842 9.26927 18.7615 9.49189 18.4917 9.49189Z" fill="currentColor"/>
    <path d="M10.9772 15.4959C10.849 15.4959 10.7208 15.4419 10.6264 15.3542L9.63468 14.3626C9.43905 14.1669 9.43905 13.8566 9.63468 13.661C9.83032 13.4653 10.1406 13.4653 10.3363 13.661L10.9704 14.2951L12.9268 12.2848C13.1157 12.0891 13.4328 12.0824 13.6284 12.278C13.824 12.4669 13.8308 12.784 13.6351 12.9796L11.328 15.3542C11.2335 15.4487 11.1121 15.5027 10.9772 15.5027V15.4959Z" fill="currentColor"/>
    <path d="M19.5507 13.4519H16.0562C15.7863 13.4519 15.5637 13.2292 15.5637 12.9594C15.5637 12.6895 15.7863 12.4669 16.0562 12.4669H19.5507C19.8205 12.4669 20.0431 12.6895 20.0431 12.9594C20.0431 13.2292 19.8205 13.4519 19.5507 13.4519Z" fill="currentColor"/>
    <path d="M18.4917 15.1654H16.0496C15.7797 15.1654 15.5571 14.9427 15.5571 14.6729C15.5571 14.403 15.7797 14.1804 16.0496 14.1804H18.4917C18.7615 14.1804 18.9841 14.403 18.9841 14.6729C18.9841 14.9427 18.7615 15.1654 18.4917 15.1654Z" fill="currentColor"/>
    <path d="M27.9224 19.4491C27.9224 19.4491 27.882 19.4491 27.855 19.4491C27.6593 19.4221 27.4974 19.2804 27.4435 19.0915L25.7974 13.2224C25.7502 13.0538 25.7974 12.8649 25.9256 12.7367C26.0538 12.6085 26.2359 12.5613 26.4113 12.6085L32.2804 14.2546C32.4693 14.3085 32.611 14.4705 32.638 14.6661C32.665 14.8617 32.5773 15.0506 32.4086 15.1586L30.911 16.076L31.8959 17.0137C31.9903 17.1082 32.0443 17.2296 32.0511 17.3645C32.0578 17.4995 31.9971 17.6276 31.9094 17.7221L30.9177 18.7138C30.7288 18.9027 30.4185 18.9094 30.2296 18.7205L29.2244 17.7626L28.3542 19.213C28.2665 19.3614 28.1046 19.4558 27.9292 19.4558L27.9224 19.4491ZM26.9847 13.8026L28.0843 17.7221L28.678 16.7304C28.7522 16.6022 28.8871 16.5145 29.0355 16.4943C29.184 16.4741 29.3324 16.5213 29.4403 16.6292L30.5399 17.6816L30.83 17.3915L29.7439 16.3594C29.6359 16.2514 29.5752 16.103 29.5955 15.9479C29.609 15.7927 29.6967 15.6578 29.8316 15.5768L30.911 14.9157L26.978 13.8093L26.9847 13.8026Z" fill="currentColor"/>
    <path d="M24.2241 17.3375C24.0959 17.3375 23.9677 17.2903 23.8733 17.1891C23.6776 16.9934 23.6776 16.6831 23.8733 16.4875L24.6626 15.6982C24.8582 15.5025 25.1685 15.5025 25.3642 15.6982C25.5598 15.8938 25.5598 16.2041 25.3642 16.3998L24.5749 17.1891C24.4804 17.2835 24.3522 17.3307 24.2241 17.3307V17.3375Z" fill="currentColor"/>
    <path d="M29.169 12.3319C29.0409 12.3319 28.9127 12.2846 28.8182 12.1902C28.6226 11.9945 28.6226 11.6842 28.8182 11.4886L29.675 10.6318C29.8706 10.4362 30.1809 10.4362 30.3766 10.6318C30.5722 10.8275 30.5722 11.1378 30.3766 11.3334L29.5198 12.1902C29.4254 12.2846 29.2972 12.3319 29.169 12.3319Z" fill="currentColor"/>
    <path d="M25.0208 12.3319C24.8859 12.3319 24.7577 12.2779 24.6565 12.17L23.8672 11.3132C23.6851 11.1108 23.6918 10.8005 23.8942 10.6116C24.0966 10.4227 24.4069 10.4362 24.5958 10.6386L25.3851 11.4954C25.5673 11.6978 25.5605 12.0081 25.3581 12.197C25.2637 12.2847 25.1422 12.3319 25.0208 12.3319Z" fill="currentColor"/>
    <path d="M24.1641 14.4367H22.9768C22.707 14.4367 22.4843 14.2141 22.4843 13.9442C22.4843 13.6744 22.707 13.4517 22.9768 13.4517H24.1641C24.434 13.4517 24.6566 13.6744 24.6566 13.9442C24.6566 14.2141 24.434 14.4367 24.1641 14.4367Z" fill="currentColor"/>
    <path d="M27.1259 11.4684C26.8561 11.4684 26.6335 11.2458 26.6335 10.9759V9.78862C26.6335 9.51203 26.8561 9.29615 27.1259 9.29615C27.3958 9.29615 27.6184 9.51878 27.6184 9.78862V10.9759C27.6184 11.2525 27.3958 11.4684 27.1259 11.4684Z" fill="currentColor"/>
    <path d="M35.8959 23.3416H6.29387C6.02402 23.3416 5.8014 23.119 5.8014 22.8491V3.06274C5.8014 2.79289 6.02402 2.57027 6.29387 2.57027H35.8959C36.1657 2.57027 36.3883 2.79289 36.3883 3.06274V22.8424C36.3883 23.119 36.1657 23.3348 35.8959 23.3348V23.3416ZM6.79308 22.3499H35.4034V3.56195H6.79308V22.3499Z" fill="currentColor"/>
  </symbol>

  <symbol id="ico-actividades" viewBox="0 0 33 31" fill="none">
    <path d="M29.5097 24.7923V3.16635C29.5097 1.62413 28.2606 0.375 26.7183 0.375H6.82999C5.28777 0.375 4.03864 1.62413 4.03864 3.16635V5.77626C4.03864 5.97863 4.20612 6.14611 4.4085 6.14611H8.89559V17.458C8.89559 17.6604 9.06307 17.8279 9.26544 17.8279C9.46781 17.8279 9.63529 17.6604 9.63529 17.458V3.16635C9.63529 2.35686 9.28638 1.61715 8.72811 1.10773H26.7323C27.8698 1.10773 28.7909 2.02887 28.7909 3.16635V24.7853H14.1224C13.92 24.7853 13.7525 24.9528 13.7525 25.1552V27.5837C13.7525 28.7211 12.8314 29.6423 11.6939 29.6423C10.5564 29.6423 9.63529 28.7211 9.63529 27.5837V27.4999C9.63529 27.2975 9.46781 27.1301 9.26544 27.1301C9.06307 27.1301 8.89559 27.2975 8.89559 27.4999V27.5837C8.89559 29.1259 10.1447 30.375 11.6869 30.375H28.8816C30.4239 30.375 31.673 29.1259 31.673 27.5837V25.1552C31.673 24.9528 31.5055 24.7923 31.3031 24.7923H29.5097ZM8.88861 3.16635V5.4064H4.77835V3.16635C4.77835 2.02887 5.69949 1.10773 6.83697 1.10773C7.97444 1.10773 8.88861 2.03585 8.88861 3.16635ZM30.9333 27.5906C30.9333 28.7281 30.0121 29.6493 28.8747 29.6493H13.5711C14.1294 29.1398 14.4783 28.4071 14.4783 27.5906V25.532H30.9333V27.5906Z" fill="currentColor"/>
    <path d="M13.1187 29.5527C12.7892 29.7915 12.3994 29.9513 11.9742 30H12.6304L13.1187 29.5527ZM14.8531 27.5908C14.8531 28.2101 14.6756 28.7871 14.3687 29.2744H28.8746C29.8049 29.2744 30.5581 28.5211 30.5582 27.5908V25.9072H14.8531V27.5908ZM7.11872 0.75C7.56944 0.80224 7.98014 0.978949 8.31989 1.24316L7.77985 0.75H7.11872ZM32.0484 27.584C32.0482 29.3332 30.6306 30.75 28.8814 30.75H11.6871C9.93786 30.75 8.52124 29.3332 8.52106 27.584V27.5C8.52106 27.0906 8.85583 26.755 9.26521 26.7549C9.67468 26.7549 10.0103 27.0905 10.0103 27.5V27.584C10.0105 28.5142 10.7637 29.2676 11.6939 29.2676C12.6242 29.2676 13.3773 28.5142 13.3775 27.584V25.1553C13.3775 24.7458 13.7131 24.4102 14.1226 24.4102H28.4156V3.16602C28.4154 2.2358 27.6623 1.48242 26.732 1.48242H9.52399C9.83173 1.97181 10.0103 2.55089 10.0103 3.16602V17.458C10.0103 17.8675 9.67468 18.2031 9.26521 18.2031C8.85583 18.203 8.52106 17.8674 8.52106 17.458V6.52148H4.40876C3.99932 6.52148 3.6637 6.1858 3.66364 5.77637V3.16602C3.66382 1.41695 5.0806 0.000178941 6.82966 0H26.7183C28.4675 0 29.8842 1.41684 29.8843 3.16602V24.417H31.3033C31.7033 24.4171 32.0484 24.7366 32.0484 25.1553V27.584ZM8.51325 3.16602C8.51307 2.24029 7.76427 1.48242 6.83649 1.48242C5.90646 1.48268 5.15308 2.23596 5.1529 3.16602V5.03125H8.51325V3.16602Z" fill="currentColor"/>
    <path d="M12.5523 25.4134V22.0428L15.2599 21.1915C15.4134 21.1426 15.5181 21.0031 15.5181 20.8356C15.5181 20.6681 15.4134 20.5285 15.2599 20.4797L8.10703 18.2326C8.03027 18.2047 7.96049 18.2047 7.88372 18.2326L0.730897 20.4936C0.577373 20.5425 0.472697 20.682 0.472697 20.8495C0.472697 21.017 0.577373 21.1566 0.730897 21.2054L1.35895 21.4008V23.1315C0.793702 23.292 0.375 23.8084 0.375 24.4225C0.375 25.1691 0.982118 25.7763 1.7288 25.7763C2.47549 25.7763 3.08261 25.1691 3.08261 24.4225C3.08261 23.8084 2.6639 23.292 2.09866 23.1315V21.6311L3.4385 22.0498V25.4204C3.4385 25.5809 3.54318 25.7204 3.6967 25.7693C5.10633 26.2229 6.55086 26.4601 8.00236 26.4601C9.45386 26.4601 10.8984 26.2299 12.308 25.7693C12.4615 25.7274 12.5662 25.5809 12.5662 25.4204L12.5523 25.4134ZM2.3429 24.4225C2.3429 24.7644 2.07074 25.0366 1.7288 25.0366C1.38686 25.0366 1.11471 24.7644 1.11471 24.4225C1.11471 24.0805 1.38686 23.8084 1.7288 23.8084C2.07074 23.8084 2.3429 24.0805 2.3429 24.4225ZM7.99538 18.9933L13.92 20.8495L7.99538 22.7058L2.07074 20.8495L7.99538 18.9933ZM4.17821 25.1482V22.2801L7.8907 23.4455C7.8907 23.4455 7.96746 23.4594 7.99538 23.4594C8.02329 23.4594 8.07214 23.4594 8.10005 23.4455L11.8125 22.2801V25.1482C9.30731 25.9088 6.67647 25.9088 4.17123 25.1482H4.17821Z" fill="currentColor"/>
    <path d="M7.77051 17.8767C7.92007 17.8256 8.06919 17.826 8.21875 17.8767L8.21973 17.8748L15.3721 20.1219H15.374C15.6826 20.2202 15.8926 20.5046 15.8926 20.8357C15.8925 21.1668 15.6824 21.4503 15.374 21.5486L15.3721 21.5496L12.9277 22.3172V25.1814L12.9414 25.1883V25.4207C12.9413 25.7316 12.7421 26.0282 12.4238 26.1238L12.4248 26.1258C10.978 26.5985 9.49349 26.8348 8.00195 26.8348C6.50973 26.8347 5.0272 26.5904 3.58301 26.1258C3.30638 26.0378 3.10526 25.7988 3.07031 25.5096C2.75317 25.9003 2.27018 26.1512 1.72852 26.1512C0.774919 26.151 0.000102787 25.3763 0 24.4226C0 23.7363 0.406313 23.1497 0.984375 22.8738V21.6765L0.619141 21.5633H0.617188C0.308578 21.465 0.0976562 21.1806 0.0976562 20.8494C0.0977104 20.5182 0.309515 20.2347 0.618164 20.1365L7.77051 17.8748V17.8767ZM8.21191 23.8035L8.21094 23.8006C8.15369 23.8203 8.10493 23.8288 8.08203 23.8308C8.04352 23.8343 8.00751 23.8348 7.99512 23.8348C7.94754 23.8347 7.89242 23.8256 7.87598 23.823C7.86197 23.8209 7.84891 23.8187 7.83984 23.8172C7.8355 23.8164 7.83182 23.8157 7.8291 23.8152L7.8252 23.8142H7.82324L7.80078 23.8103L7.77832 23.8035L4.55273 22.7898V24.867C6.81607 25.5008 9.17435 25.5001 11.4375 24.865V22.7898L8.21191 23.8035ZM1.65625 23.4363C1.68011 23.4346 1.70419 23.4334 1.72852 23.4334C1.75274 23.4334 1.77701 23.4346 1.80078 23.4363L1.72852 23.4158L1.65625 23.4363ZM2.47363 22.8738C2.70226 22.983 2.90315 23.1414 3.06348 23.3348V22.325L2.47363 22.1414V22.8738ZM3.32422 20.8494L7.99512 22.3113L12.665 20.8494L7.99512 19.3865L3.32422 20.8494ZM4.56348 19.6756L7.99512 18.6004L15.1348 20.8367L15.1406 20.8357L7.99609 18.5906L4.56348 19.6756ZM1.48926 24.4226C1.48936 24.5573 1.59389 24.6618 1.72852 24.6619C1.86329 24.6619 1.96768 24.5574 1.96777 24.4226C1.96777 24.2878 1.86335 24.1834 1.72852 24.1834C1.59382 24.1835 1.48926 24.2879 1.48926 24.4226Z" fill="currentColor"/>
    <path d="M19.2026 2.39176C16.3066 2.39176 13.9549 4.74347 13.9549 7.63949C13.9549 10.5355 16.3066 12.8872 19.2026 12.8872C22.0986 12.8872 24.4503 10.5285 24.4503 7.63949C24.4503 4.75045 22.0917 2.39176 19.2026 2.39176ZM19.2026 12.1545C16.7113 12.1545 14.6876 10.1308 14.6876 7.63949C14.6876 5.14821 16.7113 3.12449 19.2026 3.12449C21.6939 3.12449 23.7176 5.14821 23.7176 7.63949C23.7176 10.1308 21.6939 12.1545 19.2026 12.1545Z" fill="currentColor"/>
    <path d="M23.3426 7.63981C23.3426 5.35574 21.4869 3.49935 19.2029 3.49918C16.9188 3.49918 15.0623 5.35564 15.0623 7.63981C15.0625 9.92383 16.9189 11.7795 19.2029 11.7795C21.4868 11.7793 23.3424 9.92373 23.3426 7.63981ZM24.825 7.63981C24.8248 10.7354 22.3061 13.2617 19.2029 13.2619C16.0999 13.2619 13.58 10.7428 13.5799 7.63981C13.5799 4.53668 16.0998 2.01676 19.2029 2.01676C22.2989 2.01693 24.825 4.54376 24.825 7.63981Z" fill="currentColor"/>
    <path d="M21.003 5.93676L18.3721 8.5676L17.4021 7.59761C17.2626 7.45804 17.0253 7.45804 16.8787 7.59761C16.7322 7.73717 16.7392 7.97444 16.8787 8.12099L18.1139 9.35616C18.1907 9.43292 18.2814 9.46083 18.3721 9.46083C18.4628 9.46083 18.5605 9.42594 18.6303 9.35616L21.5263 6.46013C21.6659 6.32057 21.6659 6.0833 21.5263 5.93676C21.3868 5.79021 21.1495 5.79719 21.003 5.93676Z" fill="currentColor"/>
    <path d="M20.7441 5.66539C21.0057 5.4162 21.4409 5.36981 21.7402 5.62339L21.7978 5.67808L21.8886 5.79429C22.0695 6.08077 22.0447 6.4718 21.7919 6.72496L18.8955 9.62144C18.7483 9.7686 18.5517 9.83628 18.372 9.83628C18.1984 9.83626 18.0065 9.7794 17.8486 9.62144L16.6132 8.38609L16.6074 8.37925C16.3418 8.10027 16.307 7.62499 16.6201 7.32652L16.7363 7.2357C17.0228 7.05462 17.4137 7.07937 17.6669 7.33238L18.372 8.03648L20.7441 5.66539Z" fill="currentColor"/>
    <path d="M18.0579 18.3932C17.8555 18.3932 17.688 18.5606 17.688 18.763C17.688 18.9654 17.8555 19.1329 18.0579 19.1329H27.1228C27.3252 19.1329 27.4926 18.9654 27.4926 18.763C27.4926 18.5606 27.3252 18.3932 27.1228 18.3932H18.0579Z" fill="currentColor"/>
    <path d="M27.8677 18.7633C27.8676 19.1726 27.532 19.5074 27.1226 19.5074H18.0581C17.6741 19.5074 17.3551 19.2129 17.3169 18.8385L17.313 18.7633L17.3169 18.6871C17.3553 18.3129 17.6743 18.0182 18.0581 18.0182H27.1226C27.5321 18.0182 27.8677 18.3538 27.8677 18.7633Z" fill="currentColor"/>
    <path d="M18.0579 20.4099C17.8555 20.4099 17.688 20.5774 17.688 20.7798C17.688 20.9821 17.8555 21.1496 18.0579 21.1496H27.1228C27.3252 21.1496 27.4926 20.9821 27.4926 20.7798C27.4926 20.5774 27.3252 20.4099 27.1228 20.4099H18.0579Z" fill="currentColor"/>
    <path d="M27.8677 20.78C27.8676 21.1894 27.532 21.5242 27.1226 21.5242H18.0581C17.6741 21.5242 17.3551 21.2296 17.3169 20.8552L17.313 20.78L17.3169 20.7039C17.3553 20.3296 17.6743 20.0349 18.0581 20.0349H27.1226C27.5321 20.0349 27.8677 20.3705 27.8677 20.78Z" fill="currentColor"/>
    <path d="M27.1163 22.4336H21.0032C20.8009 22.4336 20.6334 22.6011 20.6334 22.8035C20.6334 23.0058 20.8009 23.1733 21.0032 23.1733H27.1163C27.3187 23.1733 27.4862 23.0058 27.4862 22.8035C27.4862 22.6011 27.3256 22.4336 27.1163 22.4336Z" fill="currentColor"/>
    <path d="M27.8609 22.8037C27.8608 23.2131 27.5252 23.5479 27.1158 23.5479H21.0035C20.6195 23.5479 20.3005 23.2533 20.2623 22.8789L20.2584 22.8037L20.2623 22.7276C20.3007 22.3533 20.6196 22.0586 21.0035 22.0586H27.1158C27.5369 22.0586 27.8609 22.3989 27.8609 22.8037Z" fill="currentColor"/>
    <path d="M12.9014 14.0038C12.9921 14.1224 13.1387 14.1782 13.2852 14.1433L15.3369 13.6269L15.8812 15.6646C15.9231 15.8042 16.0417 15.9158 16.1882 15.9368C16.2022 15.9368 16.2231 15.9368 16.2371 15.9368C16.3627 15.9368 16.4883 15.867 16.5581 15.7553L17.6467 13.9061C17.7514 13.7316 17.6886 13.5013 17.5141 13.4036C17.3397 13.3059 17.1094 13.3618 17.0117 13.5362L16.3697 14.6318L15.958 13.0966C15.9021 12.9012 15.6998 12.7895 15.5113 12.8384L13.9621 13.2292L14.7018 11.98C14.8065 11.8056 14.7437 11.5753 14.5693 11.4776C14.3948 11.3799 14.1645 11.4357 14.0668 11.6102L12.8805 13.6269C12.8177 13.7456 12.8247 13.9061 12.9154 14.0247L12.9014 14.0038Z" fill="currentColor"/>
    <path d="M13.7436 11.42C13.9523 11.0564 14.4139 10.9609 14.7524 11.1505C15.1109 11.3512 15.2374 11.8167 15.0239 12.1729L14.7436 12.6446L15.4194 12.4747C15.755 12.3888 16.1056 12.5509 16.2631 12.8546L16.3188 12.9933L16.3198 12.9991L16.4994 13.6681L16.6879 13.3468C16.8965 12.9825 17.3589 12.8866 17.6977 13.0763C18.0552 13.2766 18.1806 13.74 17.9692 14.0958L16.8813 15.9454L16.8764 15.9542C16.7571 16.1451 16.5551 16.276 16.3334 16.3058L16.2368 16.3116H16.1616L16.1352 16.3077C15.8307 16.2642 15.6018 16.0387 15.5219 15.7725L15.519 15.7618L15.0698 14.0802L13.3764 14.5069L13.3725 14.5079C13.0842 14.5765 12.7987 14.468 12.6205 14.2501L12.6176 14.252C12.6127 14.2456 12.6096 14.238 12.6049 14.2315L12.603 14.2325L12.5893 14.212L12.5912 14.21C12.4364 13.9766 12.4274 13.6815 12.5493 13.4513L12.5532 13.4444L12.5571 13.4366L13.7436 11.42Z" fill="currentColor"/>
    <path d="M24.3458 11.5822C24.2412 11.4078 24.0178 11.345 23.8434 11.4496C23.6689 11.5543 23.6061 11.7776 23.7108 11.9521L24.4505 13.2012L22.9083 12.8104C22.7199 12.7616 22.5175 12.8802 22.4617 13.0686L22.0499 14.6039L21.4079 13.5083C21.3033 13.3338 21.08 13.271 20.9055 13.3757C20.731 13.4803 20.6682 13.7037 20.7729 13.8781L21.8615 15.7274C21.9313 15.839 22.0499 15.9088 22.1825 15.9088C22.1965 15.9088 22.2174 15.9088 22.2314 15.9088C22.3779 15.8879 22.5035 15.7832 22.5384 15.6367L23.0827 13.599L25.1344 14.1154C25.2739 14.1503 25.4275 14.0944 25.5182 13.9758C25.6089 13.8572 25.6159 13.6967 25.5461 13.5711L24.3737 11.5683L24.3458 11.5822Z" fill="currentColor"/>
    <path d="M23.7191 11.0911C23.9494 10.9835 24.2032 11.0119 24.4056 11.1331L24.5198 11.0755L25.8694 13.3811L25.8743 13.389C26.0132 13.639 26.0011 13.961 25.8157 14.2034C25.6607 14.4062 25.4088 14.5209 25.1526 14.4974L25.0433 14.4788L23.3489 14.052L22.9026 15.7229C22.8289 16.0325 22.5695 16.2388 22.2845 16.2796L22.2581 16.2835H22.1829C21.9137 16.2835 21.6776 16.141 21.5433 15.9261L21.5384 15.9173L20.4495 14.0686L20.4505 14.0677C20.2353 13.7054 20.3722 13.2581 20.7122 13.054L20.7816 13.0179C21.0842 12.8765 21.4301 12.9635 21.6419 13.1976L21.7298 13.3157L21.7318 13.3186L21.9202 13.6399L22.0999 12.972L22.1019 12.9622C22.2125 12.5887 22.6086 12.3471 22.9993 12.4466L23.6683 12.6155L23.389 12.1448C23.1715 11.782 23.3097 11.3328 23.6507 11.1282L23.7191 11.0911ZM24.2142 12.0657L25.2093 13.7464L25.2161 13.7483L24.2269 12.0599L24.2142 12.0657Z" fill="currentColor"/>
  </symbol>

  <symbol id="ico-soporte" viewBox="0 0 33 30" fill="none">
    <path d="M15.9873 8.29341C15.9873 5.41966 13.6506 3.08299 10.7769 3.08299C7.90315 3.08299 5.56648 5.41966 5.56648 8.29341C5.56648 11.1672 7.90315 13.5038 10.7769 13.5038C13.6506 13.5038 15.9873 11.1672 15.9873 8.29341ZM7.01033 8.29341C7.01033 6.21483 8.69831 4.51987 10.7839 4.51987C12.8694 4.51987 14.5574 6.20785 14.5574 8.29341C14.5574 10.379 12.8694 12.067 10.7839 12.067C8.69831 12.067 7.01033 10.379 7.01033 8.29341Z" fill="currentColor"/>
    <path d="M32.4693 1.97396C32.4693 0.885841 31.5765 0 30.4814 0H3.30632C2.2182 0 1.33236 0.885841 1.33236 1.97396V12.7645C1.33236 13.1621 1.65321 13.4829 2.0508 13.4829C2.44838 13.4829 2.76923 13.1621 2.76923 12.7645V1.97396C2.76923 1.67403 2.99941 1.44385 3.29934 1.44385H30.4744C30.7744 1.44385 31.0185 1.68101 31.0185 1.97396V17.8772C31.0185 18.1702 30.7744 18.4074 30.4744 18.4074H27.1334C26.7358 18.4074 26.4149 18.7282 26.4149 19.1258C26.4149 19.5234 26.7358 19.8442 27.1334 19.8442H30.4744C31.5695 19.8442 32.4623 18.9584 32.4623 17.8703V1.97396H32.4693Z" fill="currentColor"/>
    <path d="M28.7305 21.595C28.0051 20.9463 26.9658 20.737 26.0172 21.0509L23.1853 21.9786C22.9342 22.0623 22.6552 21.9507 22.5366 21.7136L19.8931 16.6147C19.2304 15.3383 17.9121 14.5431 16.4543 14.5431H5.43362C2.44129 14.5431 0 16.9774 0 19.9767V22.3762C0 24.1688 0.885841 25.8498 2.37154 26.8612L2.51105 26.9588C2.99233 27.2867 3.52941 27.5378 4.08742 27.6912V28.026C4.08742 29.1142 4.97327 30 6.06139 30H15.7847C16.8728 30 17.7587 29.1142 17.7587 28.026V24.5315L17.8703 24.7408C18.4632 25.8777 19.4467 26.7775 20.6394 27.2658C21.302 27.5308 21.9995 27.6703 22.6971 27.6703C23.269 27.6703 23.841 27.5796 24.385 27.3983L27.7261 26.3032C28.6678 25.9963 29.3792 25.2011 29.5815 24.2316C29.7838 23.269 29.456 22.2506 28.7236 21.6019L28.7305 21.595ZM19.1537 24.0711L17.6889 21.2392C17.6819 21.2253 17.675 21.2113 17.661 21.1974C17.661 21.1904 17.654 21.1834 17.6471 21.1765C17.6401 21.1695 17.6331 21.1555 17.6261 21.1486C17.6192 21.1416 17.6122 21.1346 17.6052 21.1207C17.6052 21.1207 17.5982 21.1137 17.5913 21.1067C17.5494 21.0579 17.5006 21.016 17.4518 20.9812C17.382 20.9323 17.2983 20.8975 17.2146 20.8765C17.2146 20.8765 17.2076 20.8765 17.2007 20.8765C17.1867 20.8765 17.1728 20.8765 17.1658 20.8765C17.1518 20.8765 17.1449 20.8765 17.1309 20.8765H17.103C17.103 20.8765 17.0751 20.8765 17.0542 20.8765H17.0333C17.0333 20.8765 17.0054 20.8765 16.9844 20.8765C16.9775 20.8765 16.9635 20.8765 16.9565 20.8765C16.9426 20.8765 16.9286 20.8765 16.9147 20.8765C16.9007 20.8765 16.8938 20.8765 16.8798 20.8835C16.8659 20.8835 16.8589 20.8835 16.8449 20.8905C16.831 20.8905 16.817 20.8975 16.8031 20.9044C16.7961 20.9044 16.7891 20.9044 16.7752 20.9114C16.7543 20.9114 16.7473 20.9254 16.7333 20.9323C16.7333 20.9323 16.7264 20.9323 16.7124 20.9393C16.6985 20.9463 16.6845 20.9602 16.6706 20.9672C16.6636 20.9672 16.6566 20.9742 16.6496 20.9812C16.6427 20.9881 16.6287 20.9951 16.6217 21.0021C16.6148 21.0091 16.6008 21.016 16.5938 21.023C16.5938 21.023 16.5869 21.03 16.5799 21.037C16.5311 21.0788 16.4892 21.1276 16.4543 21.1765C16.4055 21.2462 16.3706 21.3299 16.3497 21.4136V21.4276C16.3497 21.4415 16.3497 21.4485 16.3497 21.4624C16.3497 21.4764 16.3497 21.4903 16.3497 21.4973V21.5252C16.3497 21.5252 16.3497 21.5531 16.3497 21.5741V28.0191C16.3497 28.319 16.1195 28.5492 15.8196 28.5492H6.10324C5.80331 28.5492 5.57313 28.312 5.57313 28.0191V27.8796H5.58708C6.26366 27.8796 6.94025 27.754 7.57499 27.5099C7.63776 27.5029 7.70054 27.482 7.75634 27.4541L8.91421 26.9588L9.22112 27.2309C9.47222 27.4471 9.7861 27.5587 10.1 27.5587C10.4139 27.5587 10.7277 27.4471 10.9788 27.2309L14.5989 24.0781C14.9407 23.7782 15.0523 23.2899 14.8779 22.8854L13.0993 18.7631C12.9668 18.4422 12.6947 18.219 12.3669 18.1493C12.0391 18.0795 11.7043 18.1772 11.4532 18.4143L8.20972 21.4206L5.48245 18.498C5.17554 18.1702 4.68031 18.0725 4.28273 18.2609C3.88515 18.4422 3.64799 18.8747 3.69682 19.3211L4.10137 22.8923C4.14323 23.283 4.35248 23.6317 4.67334 23.8549L4.81284 23.9456C4.81284 23.9456 4.82679 23.9526 4.83376 23.9595C5.05697 24.106 5.31505 24.1758 5.57313 24.1758C5.75448 24.1758 5.92886 24.1409 6.09626 24.0711L8.36318 23.0946C8.93514 22.9202 9.535 23.2062 9.77215 23.7573C10.0093 24.3153 9.80005 24.943 9.27692 25.236L7.33086 26.073C7.27506 26.08 7.22623 26.1009 7.17043 26.1218C5.89398 26.6659 4.46408 26.5334 3.34109 25.7661L3.20856 25.6754C2.12044 24.9291 1.46478 23.6945 1.46478 22.3762V19.9767C1.46478 17.7796 3.25738 15.98 5.46152 15.98H16.4822C17.396 15.98 18.226 16.4752 18.6375 17.2774L21.2811 22.3762C21.6299 23.0458 22.3134 23.4434 23.0388 23.4434C23.2411 23.4434 23.4504 23.4155 23.6596 23.3457L26.4915 22.418C26.9589 22.2646 27.4401 22.3553 27.7959 22.6691C28.1516 22.983 28.3051 23.4713 28.2074 23.9386C28.1098 24.406 27.768 24.7826 27.3146 24.9361L23.9735 26.0381C22.1042 26.6519 20.0884 25.8289 19.1816 24.0851L19.1537 24.0711ZM5.55918 22.718L5.50338 22.6761L5.23832 20.3674L6.89143 22.139L5.5522 22.718H5.55918ZM11.9763 19.8582L13.4062 23.1783L11.1044 25.1802C11.3555 24.5594 11.3625 23.8479 11.0765 23.1783C10.8184 22.5715 10.3581 22.1111 9.814 21.8531L11.9763 19.8582Z" fill="currentColor"/>
  </symbol>


</svg>