<svg xmlns="http://www.w3.org/2000/svg" xmlns:xlink="http://www.w3.org/1999/xlink" style="display: none;">

  <symbol id="doc-rector" viewBox="0 0 63 69" fill="none">
    <path fill-rule="evenodd" clip-rule="evenodd" d="M47.46 13.75L45.69 16.93L42.12 17.63C41.53 17.75 41.05 18.17 40.86 18.75C40.67 19.32 40.81 19.95 41.22 20.39L43.69 23.06L43.26 26.67C43.19 27.27 43.45 27.86 43.93 28.21C44.42 28.56 45.06 28.63 45.6 28.37L48.9 26.84L52.2 28.37C52.75 28.62 53.39 28.56 53.87 28.21C54.36 27.86 54.61 27.27 54.54 26.67L54.11 23.06L56.58 20.39C56.99 19.95 57.13 19.32 56.94 18.75C56.75 18.18 56.27 17.75 55.68 17.63L52.11 16.93L50.34 13.75C50.05 13.22 49.49 12.9 48.89 12.9C48.29 12.9 47.73 13.23 47.44 13.75H47.46ZM48.91 14.86L50.76 18.18C50.89 18.41 51.11 18.57 51.37 18.63L55.09 19.36L52.51 22.14C52.33 22.33 52.24 22.6 52.28 22.86L52.73 26.63L49.29 25.03C49.05 24.92 48.77 24.92 48.53 25.03L45.09 26.63L45.54 22.86C45.57 22.6 45.49 22.33 45.31 22.14L42.73 19.36L46.45 18.63C46.71 18.58 46.93 18.42 47.06 18.18L48.91 14.86Z" fill="#A57F2C"/>
    <path fill-rule="evenodd" clip-rule="evenodd" d="M48.91 7.24C41.48 7.24 35.44 13.28 35.44 20.71C35.44 28.14 41.48 34.18 48.91 34.18C56.34 34.18 62.38 28.14 62.38 20.71C62.38 13.28 56.34 7.24 48.91 7.24ZM48.91 9.05C55.35 9.05 60.57 14.28 60.57 20.71C60.57 27.14 55.34 32.37 48.91 32.37C42.48 32.37 37.25 27.14 37.25 20.71C37.25 14.28 42.48 9.05 48.91 9.05Z" fill="#A57F2C"/>
    <path fill-rule="evenodd" clip-rule="evenodd" d="M38.79 28.78C38.79 28.78 36.58 32.62 35.25 34.92C34.88 35.55 34.87 36.33 35.22 36.98C35.57 37.62 36.23 38.04 36.96 38.08L39.82 38.24L41.38 40.63C41.78 41.24 42.47 41.6 43.2 41.58C43.93 41.56 44.6 41.16 44.97 40.53C46.39 38.07 48.85 33.81 48.85 33.81C49.1 33.38 48.95 32.83 48.52 32.58C48.09 32.33 47.54 32.48 47.29 32.91C47.29 32.91 44.83 37.17 43.41 39.63C43.36 39.72 43.26 39.78 43.16 39.78C43.06 39.78 42.96 39.73 42.9 39.64L41.09 36.86C40.93 36.62 40.67 36.47 40.38 36.45L37.07 36.27C36.97 36.27 36.87 36.2 36.82 36.11C36.77 36.02 36.77 35.91 36.82 35.82L40.36 29.68C40.61 29.25 40.46 28.7 40.03 28.45C39.6 28.2 39.05 28.35 38.8 28.78H38.79Z" fill="#A57F2C"/>
    <path fill-rule="evenodd" clip-rule="evenodd" d="M57.47 29.69L61.02 35.83C61.07 35.92 61.07 36.03 61.02 36.12C60.97 36.21 60.88 36.27 60.77 36.28L57.46 36.46C57.17 36.48 56.91 36.63 56.75 36.87L54.94 39.65C54.88 39.74 54.78 39.79 54.68 39.79C54.58 39.79 54.48 39.73 54.43 39.64L50.56 32.93C50.31 32.5 49.76 32.35 49.33 32.6C48.9 32.85 48.75 33.4 49 33.83C49 33.83 51.45 38.08 52.87 40.53C53.24 41.16 53.9 41.56 54.64 41.58C55.38 41.6 56.06 41.24 56.46 40.63L58.02 38.24L60.88 38.08C61.61 38.04 62.27 37.62 62.62 36.98C62.97 36.34 62.96 35.56 62.59 34.92C61.26 32.62 59.05 28.78 59.05 28.78C58.8 28.35 58.25 28.2 57.82 28.45C57.39 28.7 57.24 29.25 57.49 29.68L57.47 29.69Z" fill="#A57F2C"/>
    <path fill-rule="evenodd" clip-rule="evenodd" d="M53.92 68C53.92 68 54.77 66.41 53.92 66.22V66.2H53.73C51.57 66.2 49.82 64.45 49.82 62.29V33.38C49.82 32.88 49.42 32.48 48.92 32.48C48.42 32.48 48.02 32.88 48.02 33.38V62.29C48.02 63.8 48.61 65.18 49.57 66.2H5.72C4.68 66.2 3.69 65.79 2.95 65.05C2.22 64.32 1.8 63.32 1.8 62.28V1.81H48V8.08C48 8.58 48.4 8.98 48.9 8.98C49.4 8.98 49.8 8.58 49.8 8.08V0.9C49.8 0.4 49.4 0 48.9 0H0.9C0.4 0 0 0.4 0 0.9V62.28C0 63.8 0.6 65.25 1.67 66.32C2.74 67.39 4.2 67.99 5.71 67.99H53.91L53.92 68Z" fill="#A57F2C"/>
    <path fill-rule="evenodd" clip-rule="evenodd" d="M54.23 68C55.75 68 57.2 67.4 58.27 66.33C59.34 65.26 59.94 63.8 59.94 62.29V52.92C59.94 52.42 59.54 52.02 59.04 52.02H49.01C48.51 52.02 48.11 52.42 48.11 52.92C48.11 53.42 48.51 53.82 49.01 53.82H58.14V62.29C58.14 63.33 57.73 64.32 56.99 65.06C56.26 65.79 55.26 66.21 54.22 66.21C53.72 66.21 53.32 66.61 53.32 67.11C53.32 67.61 53.72 68.01 54.22 68.01L54.23 68Z" fill="#A57F2C"/>
    <path fill-rule="evenodd" clip-rule="evenodd" d="M11.33 15.63H18C18.5 15.63 18.9 15.23 18.9 14.73C18.9 14.23 18.5 13.83 18 13.83H11.33C10.83 13.83 10.43 14.23 10.43 14.73C10.43 15.23 10.83 15.63 11.33 15.63Z" fill="#A57F2C"/>
    <path fill-rule="evenodd" clip-rule="evenodd" d="M11.33 22.05H23.38C23.88 22.05 24.28 21.65 24.28 21.15C24.28 20.65 23.88 20.25 23.38 20.25H11.33C10.83 20.25 10.43 20.65 10.43 21.15C10.43 21.65 10.83 22.05 11.33 22.05Z" fill="#A57F2C"/>
    <path fill-rule="evenodd" clip-rule="evenodd" d="M11.33 28.48H18C18.5 28.48 18.9 28.08 18.9 27.58C18.9 27.08 18.5 26.68 18 26.68H11.33C10.83 26.68 10.43 27.08 10.43 27.58C10.43 28.08 10.83 28.48 11.33 28.48Z" fill="#A57F2C"/>
    <path fill-rule="evenodd" clip-rule="evenodd" d="M11.33 34.9H30.46C30.96 34.9 31.36 34.5 31.36 34C31.36 33.5 30.96 33.1 30.46 33.1H11.33C10.83 33.1 10.43 33.5 10.43 34C10.43 34.5 10.83 34.9 11.33 34.9Z" fill="#A57F2C"/>
    <path fill-rule="evenodd" clip-rule="evenodd" d="M11.33 41.33H30.46C30.96 41.33 31.36 40.93 31.36 40.43C31.36 39.93 30.96 39.53 30.46 39.53H11.33C10.83 39.53 10.43 39.93 10.43 40.43C10.43 40.93 10.83 41.33 11.33 41.33Z" fill="#A57F2C"/>
    <path fill-rule="evenodd" clip-rule="evenodd" d="M11.33 47.75H30.46C30.96 47.75 31.36 47.35 31.36 46.85C31.36 46.35 30.96 45.95 30.46 45.95H11.33C10.83 45.95 10.43 46.35 10.43 46.85C10.43 47.35 10.83 47.75 11.33 47.75Z" fill="#A57F2C"/>
    <path fill-rule="evenodd" clip-rule="evenodd" d="M11.33 54.18H30.46C30.96 54.18 31.36 53.78 31.36 53.28C31.36 52.78 30.96 52.38 30.46 52.38H11.33C10.83 52.38 10.43 52.78 10.43 53.28C10.43 53.78 10.83 54.18 11.33 54.18Z" fill="#A57F2C"/>
  </symbol>

  <symbol id="reglamento-esc" viewBox="0 0 68 68" fill="none">
    <path d="M38.6507 32.2514C38.8507 32.6414 39.2507 32.8714 39.6607 32.8714C39.8307 32.8714 40.0107 32.8314 40.1707 32.7514C40.2407 32.7214 46.9107 29.3314 50.2007 28.2914C50.8007 28.1014 51.1307 27.4614 50.9407 26.8714C50.7507 26.2714 50.1207 25.9414 49.5207 26.1314C46.0507 27.2314 39.4307 30.5914 39.1507 30.7314C38.5907 31.0114 38.3707 31.7014 38.6507 32.2514Z" fill="#A57F2C"/>
    <path d="M39.6607 19.2714C39.8307 19.2714 40.0107 19.2314 40.1707 19.1514C40.2407 19.1214 46.9107 15.7314 50.2007 14.6914C50.8007 14.5014 51.1307 13.8614 50.9407 13.2714C50.7507 12.6714 50.1207 12.3414 49.5207 12.5314C46.0507 13.6314 39.4307 16.9914 39.1507 17.1314C38.5907 17.4114 38.3707 18.1014 38.6507 18.6514C38.8507 19.0414 39.2507 19.2714 39.6607 19.2714Z" fill="#A57F2C"/>
    <path d="M66.86 17.0014C66.23 17.0014 65.73 17.5114 65.73 18.1314V62.3314C65.73 64.2014 64.2 65.7314 62.33 65.7314H35.13V63.1214C36.78 62.5414 41.09 61.1914 45.33 61.1914C55.2 61.1914 61.91 63.3814 61.97 63.4014C62.31 63.5114 62.69 63.4614 62.99 63.2414C63.29 63.0314 63.46 62.6814 63.46 62.3214V12.4714C63.46 11.9414 63.09 11.4814 62.57 11.3614C62.57 11.3614 61.68 11.1614 60.16 10.8814C59.55 10.7714 58.95 11.1714 58.84 11.7914C58.73 12.4114 59.13 13.0014 59.75 13.1114C60.33 13.2214 60.81 13.3114 61.19 13.3914V60.8314C58.62 60.1614 52.92 58.9414 45.32 58.9414C40.38 58.9414 35.53 60.5614 34.03 61.1114C32.7 60.5214 28.66 58.9414 23.79 58.9414C15.98 58.9414 9.55 60.2314 6.79 60.8814V13.3414C9.05 12.7814 15.74 11.3314 23.79 11.3314C27.92 11.3314 31.47 12.6214 32.86 13.2014V57.8014C32.86 58.2114 33.08 58.5914 33.43 58.7914C33.78 58.9914 34.22 58.9914 34.57 58.7814C34.68 58.7114 45.91 52.0114 55.88 48.6814C56.34 48.5214 56.66 48.0914 56.66 47.6014V1.13139C56.66 0.761388 56.48 0.411388 56.17 0.201388C55.87 -0.00861201 55.48 -0.058612 55.13 0.071388C46.06 3.47139 36.89 9.18139 36.8 9.24139C36.27 9.57139 36.11 10.2714 36.44 10.8014C36.77 11.3314 37.47 11.4914 38 11.1614C38.08 11.1114 46.07 6.14139 54.4 2.79139V46.7914C46.66 49.4814 38.59 53.8714 35.13 55.8314V12.4714C35.13 12.0414 34.89 11.6514 34.5 11.4614C34.31 11.3614 29.66 9.07139 23.79 9.07139C13.55 9.07139 5.68 11.2914 5.35 11.3814C4.86 11.5214 4.53 11.9614 4.53 12.4714V62.3414C4.53 62.6914 4.7 63.0314 4.98 63.2414C5.18 63.3914 5.42 63.4714 5.66 63.4714C5.76 63.4714 5.87 63.4614 5.97 63.4314C6.05 63.4114 13.89 61.2114 23.79 61.2114C27.93 61.2114 31.47 62.5014 32.86 63.0814V65.7414H5.66C3.79 65.7414 2.26 64.2114 2.26 62.3414V18.1314C2.26 17.5014 1.75 17.0014 1.13 17.0014C0.51 17.0014 0 17.5114 0 18.1314V62.3314C0 65.4514 2.54 68.0014 5.67 68.0014H62.34C65.46 68.0014 68.01 65.4614 68.01 62.3314V18.1314C68.01 17.5014 67.5 17.0014 66.88 17.0014H66.86Z" fill="#A57F2C"/>
    <path d="M38.6507 25.4514C38.8507 25.8414 39.2507 26.0714 39.6607 26.0714C39.8307 26.0714 40.0107 26.0314 40.1707 25.9514C40.2407 25.9214 46.9107 22.5314 50.2007 21.4914C50.8007 21.3014 51.1307 20.6614 50.9407 20.0714C50.7507 19.4714 50.1207 19.1414 49.5207 19.3314C46.0507 20.4314 39.4307 23.7914 39.1507 23.9314C38.5907 24.2114 38.3707 24.9014 38.6507 25.4514Z" fill="#A57F2C"/>
    <path d="M38.6507 39.0514C38.8507 39.4414 39.2507 39.6714 39.6607 39.6714C39.8307 39.6714 40.0107 39.6314 40.1707 39.5514C40.2407 39.5214 46.9107 36.1314 50.2007 35.0914C50.8007 34.9014 51.1307 34.2614 50.9407 33.6714C50.7507 33.0714 50.1207 32.7414 49.5207 32.9314C46.0507 34.0314 39.4307 37.3914 39.1507 37.5314C38.5907 37.8114 38.3707 38.5014 38.6507 39.0514Z" fill="#A57F2C"/>
    <path d="M27.4503 21.0314C20.4503 19.3914 12.5003 21.4814 12.1603 21.5714C11.5603 21.7314 11.2003 22.3514 11.3603 22.9614C11.5003 23.4714 11.9503 23.8014 12.4503 23.8014C12.5503 23.8014 12.6503 23.7914 12.7403 23.7614C12.8203 23.7414 20.4703 21.7214 26.9203 23.2414C27.5303 23.3814 28.1403 23.0014 28.2803 22.3914C28.4203 21.7814 28.0403 21.1714 27.4303 21.0314H27.4503Z" fill="#A57F2C"/>
    <path d="M27.4503 27.8314C20.4503 26.1914 12.5003 28.2814 12.1603 28.3714C11.5603 28.5314 11.2003 29.1514 11.3603 29.7614C11.5003 30.2714 11.9503 30.6014 12.4503 30.6014C12.5503 30.6014 12.6503 30.5914 12.7403 30.5614C12.8203 30.5414 20.4703 28.5214 26.9203 30.0414C27.5303 30.1814 28.1403 29.8014 28.2803 29.1914C28.4203 28.5814 28.0403 27.9714 27.4303 27.8314H27.4503Z" fill="#A57F2C"/>
    <path d="M38.6507 45.8514C38.8507 46.2414 39.2507 46.4714 39.6607 46.4714C39.8307 46.4714 40.0107 46.4314 40.1707 46.3514C40.2407 46.3214 46.9107 42.9314 50.2007 41.8914C50.8007 41.7014 51.1307 41.0614 50.9407 40.4714C50.7507 39.8714 50.1207 39.5414 49.5207 39.7314C46.0507 40.8314 39.4307 44.1914 39.1507 44.3314C38.5907 44.6114 38.3707 45.3014 38.6507 45.8514Z" fill="#A57F2C"/>
    <path d="M27.4503 34.6314C20.4503 32.9914 12.5003 35.0814 12.1603 35.1714C11.5603 35.3314 11.2003 35.9514 11.3603 36.5614C11.5003 37.0714 11.9503 37.4014 12.4503 37.4014C12.5503 37.4014 12.6503 37.3914 12.7403 37.3614C12.8203 37.3414 20.4703 35.3214 26.9203 36.8414C27.5303 36.9814 28.1403 36.6014 28.2803 35.9914C28.4203 35.3814 28.0403 34.7714 27.4303 34.6314H27.4503Z" fill="#A57F2C"/>
    <path d="M27.4503 48.2314C20.4503 46.5914 12.5003 48.6814 12.1603 48.7714C11.5603 48.9314 11.2003 49.5514 11.3603 50.1614C11.5003 50.6714 11.9503 51.0014 12.4503 51.0014C12.5503 51.0014 12.6503 50.9914 12.7403 50.9614C12.8203 50.9414 20.4703 48.9214 26.9203 50.4414C27.5303 50.5814 28.1403 50.2014 28.2803 49.5914C28.4203 48.9814 28.0403 48.3714 27.4303 48.2314H27.4503Z" fill="#A57F2C"/>
    <path d="M27.4503 41.4314C20.4503 39.7914 12.5003 41.8814 12.1603 41.9714C11.5603 42.1314 11.2003 42.7514 11.3603 43.3614C11.5003 43.8714 11.9503 44.2014 12.4503 44.2014C12.5503 44.2014 12.6503 44.1914 12.7403 44.1614C12.8203 44.1414 20.4703 42.1214 26.9203 43.6414C27.5303 43.7814 28.1403 43.4014 28.2803 42.7914C28.4203 42.1814 28.0403 41.5714 27.4303 41.4314H27.4503Z" fill="#A57F2C"/>
  </symbol>

  <symbol id="aviso-priv" viewBox="0 0 37 41" fill="none">    
    <path d="M18.42 40.0075C17.86 40.0075 17.3 39.8675 16.81 39.5875L10.44 36.0475C4 32.4675 0 25.6675 0 18.2975V8.4775C0 6.7875 1.28 5.3675 2.96 5.1875C5.49 4.9175 7.99 4.3575 10.39 3.5075C12.59 2.7275 14.71 1.7175 16.69 0.4875C17.75 -0.1625 19.08 -0.1625 20.14 0.4875C22.13 1.7175 24.24 2.7275 26.44 3.5075C28.84 4.3575 31.34 4.9175 33.87 5.1875C35.55 5.3575 36.83 6.7775 36.83 8.4775V18.2975C36.83 25.6775 32.83 32.4675 26.38 36.0575L20.01 39.5975C19.52 39.8675 18.97 40.0175 18.4 40.0175L18.42 40.0075ZM18.19 2.9075C16.03 4.2375 13.73 5.3375 11.34 6.1875C8.73 7.1075 6.02 7.7175 3.27 8.0075C3.03 8.0275 2.84 8.2275 2.84 8.4775V18.2975C2.84 24.6475 6.28 30.4875 11.83 33.5775L18.2 37.1175C18.34 37.1975 18.52 37.1975 18.66 37.1175L25.03 33.5775C30.58 30.4975 34.02 24.6475 34.02 18.2975V8.4775C34.02 8.2375 33.83 8.0275 33.59 8.0075C30.84 7.7175 28.13 7.1075 25.52 6.1875C23.13 5.3375 20.83 4.2475 18.67 2.9075C18.52 2.8175 18.34 2.8175 18.2 2.9075H18.19Z" fill="#717171"/>
    <path d="M23.15 29.8875H13.7C11.35 29.8875 9.45 27.9875 9.45 25.6375V19.9675C9.45 17.6175 11.35 15.7175 13.7 15.7175H23.15C25.5 15.7175 27.4 17.6175 27.4 19.9675V25.6375C27.4 27.9875 25.5 29.8875 23.15 29.8875ZM13.7 18.5475C12.92 18.5475 12.28 19.1775 12.28 19.9675V25.6375C12.28 26.4175 12.91 27.0575 13.7 27.0575H23.15C23.93 27.0575 24.57 26.4275 24.57 25.6375V19.9675C24.57 19.1875 23.94 18.5475 23.15 18.5475H13.7Z" fill="#717171"/>
    <path d="M22.2 18.5475H14.64C13.86 18.5475 13.22 17.9175 13.22 17.1275V13.3475C13.22 10.4775 15.55 8.1475 18.42 8.1475C21.29 8.1475 23.62 10.4775 23.62 13.3475V17.1275C23.62 17.9075 22.99 18.5475 22.2 18.5475ZM16.06 15.7175H20.78V13.3575C20.78 12.0575 19.72 10.9975 18.42 10.9975C17.12 10.9975 16.06 12.0575 16.06 13.3575V15.7175Z" fill="#717171"/>
  </symbol>

  <symbol id="ico-download" viewBox="0 0 31 31" fill="none">
    <path fill-rule="evenodd" clip-rule="evenodd" d="M15.1 0C14.34 0.0101326 13.73 0.648486 13.74 1.41856V20.3158L7.85 14.3477C7.56 14.0438 7.14 13.8816 6.72 13.9222C5.97 13.9931 5.41 14.6821 5.49 15.4421C5.52 15.7663 5.67 16.0703 5.9 16.3033L14.14 24.6526C14.68 25.1896 15.54 25.1896 16.08 24.6526L24.32 16.3033C24.9 15.8068 24.96 14.9253 24.47 14.3376C23.98 13.7499 23.11 13.6891 22.53 14.1856C22.48 14.2363 22.43 14.287 22.38 14.3376L16.48 20.3158V1.41856C16.5 0.638353 15.87 0 15.1 0ZM1.36 22.2714C0.6 22.2816 0 22.9098 0 23.6799V29.2528C0 30.0229 0.61 30.6511 1.37 30.6511C1.37 30.6511 1.37 30.6511 1.38 30.6511H28.84C29.6 30.6511 30.22 30.033 30.22 29.2629C30.22 29.2629 30.22 29.2629 30.22 29.2528V23.6799C30.2 22.9098 29.57 22.3018 28.82 22.3221C28.09 22.3424 27.49 22.9402 27.48 23.6799V27.8646H2.75V23.6799C2.75 22.9098 2.15 22.2816 1.39 22.2714C1.39 22.2714 1.37 22.2714 1.36 22.2714Z" fill="currentColor"/>
  </symbol>
</svg>