<svg xmlns="http://www.w3.org/2000/svg" xmlns:xlink="http://www.w3.org/1999/xlink" style="display: none;">

  <symbol id="ico-com-cultural" viewBox="0 0 70 70" fill="none">
    <path d="M1.01 17.82C0.45 17.82 0 17.37 0 16.81V13.82C0 11.48 1.91 9.57001 4.25 9.57001H9.21C9.77 9.57001 10.22 10.02 10.22 10.58C10.22 11.14 9.77 11.59 9.21 11.59H4.25C3.02 11.59 2.03 12.59 2.03 13.81V16.8C2.03 17.36 1.58 17.81 1.02 17.81L1.01 17.82Z" fill="#A57F2C"/>
    <path d="M52.45 55.27H4.25C1.91 55.27 0 53.37 0 51.02V21.57C0 21.01 0.45 20.56 1.01 20.56C1.57 20.56 2.02 21.01 2.02 21.57V51.02C2.02 52.25 3.02 53.24 4.24 53.24H52.44C53 53.24 53.45 53.69 53.45 54.25C53.45 54.81 53 55.26 52.44 55.26L52.45 55.27Z" fill="#A57F2C"/>
    <path d="M64.7798 55.27H57.3198C56.7598 55.27 56.3098 54.82 56.3098 54.26C56.3098 53.7 56.7598 53.25 57.3198 53.25H64.7798C66.0098 53.25 66.9998 52.25 66.9998 51.03V13.82C66.9998 12.59 65.9998 11.6 64.7798 11.6H40.3098C39.7498 11.6 39.2998 11.15 39.2998 10.59C39.2998 10.03 39.7498 9.58002 40.3098 9.58002H64.7798C67.1198 9.58002 69.0298 11.48 69.0298 13.83V51.04C69.0298 53.38 67.1198 55.29 64.7798 55.29V55.27Z" fill="#A57F2C"/>
    <path d="M63.46 51.23H5.56004C4.72004 51.23 4.04004 50.55 4.04004 49.71V15.13C4.04004 14.29 4.72004 13.61 5.56004 13.61H9.21004C9.77004 13.61 10.22 14.06 10.22 14.62C10.22 15.18 9.77004 15.63 9.21004 15.63H6.07004V49.2H62.96V15.64H40.31C39.75 15.64 39.3 15.19 39.3 14.63C39.3 14.07 39.75 13.62 40.31 13.62H63.46C64.3 13.62 64.98 14.3 64.98 15.14V49.72C64.98 50.56 64.3 51.24 63.46 51.24V51.23Z" fill="#A57F2C"/>
    <path d="M54.4704 46.33H39.9304C38.6704 46.33 37.6504 45.31 37.6504 44.05V30.41C37.6504 29.15 38.6704 28.13 39.9304 28.13H54.4704C55.7304 28.13 56.7504 29.15 56.7504 30.41V44.05C56.7504 45.31 55.7304 46.33 54.4704 46.33ZM39.9404 30.15C39.8004 30.15 39.6804 30.27 39.6804 30.41V44.05C39.6804 44.19 39.8004 44.31 39.9404 44.31H54.4804C54.6204 44.31 54.7404 44.19 54.7404 44.05V30.41C54.7404 30.27 54.6204 30.15 54.4804 30.15H39.9404Z" fill="#A57F2C"/>
    <path d="M49.9004 69.02H19.1204C18.0504 69.02 17.1904 68.15 17.1904 67.09V65.99C17.1904 64.32 18.5504 62.96 20.2204 62.96H48.8004C50.4704 62.96 51.8304 64.32 51.8304 65.99V67.09C51.8304 68.16 50.9604 69.02 49.9004 69.02ZM19.2104 67H49.8104V65.99C49.8104 65.43 49.3604 64.98 48.8004 64.98H20.2204C19.6604 64.98 19.2104 65.43 19.2104 65.99V67Z" fill="#A57F2C"/>
    <path d="M45.2997 64.98H23.7297C23.1697 64.98 22.7197 64.53 22.7197 63.97V54.26C22.7197 53.7 23.1697 53.25 23.7297 53.25H45.2997C45.8597 53.25 46.3097 53.7 46.3097 54.26V63.97C46.3097 64.53 45.8597 64.98 45.2997 64.98ZM24.7397 62.96H44.2897V55.28H24.7397V62.96Z" fill="#A57F2C"/>
    <path d="M24.7404 25.61C24.1404 25.61 23.5604 25.32 23.2104 24.83L20.9804 21.74C20.8704 21.59 20.7004 21.5 20.5204 21.5H12.0504C10.1504 21.5 8.61035 19.96 8.61035 18.07V3.43C8.61035 1.54 10.1504 0 12.0504 0H37.4504C39.3504 0 40.8904 1.54 40.8904 3.43V18.06C40.8904 19.95 39.3504 21.49 37.4504 21.49H28.9804C28.8004 21.49 28.6304 21.58 28.5204 21.73L26.2904 24.83C25.9404 25.32 25.3604 25.61 24.7604 25.61H24.7404ZM12.0404 2.02C11.2604 2.02 10.6204 2.65 10.6204 3.43V18.06C10.6204 18.84 11.2504 19.47 12.0404 19.47H20.5104C21.3404 19.47 22.1304 19.87 22.6104 20.55L24.7304 23.49L26.8504 20.55C27.3304 19.88 28.1204 19.48 28.9504 19.48H37.4203C38.2003 19.48 38.8404 18.85 38.8404 18.07V3.43C38.8404 2.65 38.2104 2.02 37.4203 2.02H12.0404Z" fill="#A57F2C"/>
    <path d="M21.3198 7.28001H16.0998C15.5398 7.28001 15.0898 6.83001 15.0898 6.27001C15.0898 5.71001 15.5398 5.26001 16.0998 5.26001H21.3198C21.8798 5.26001 22.3298 5.71001 22.3298 6.27001C22.3298 6.83001 21.8798 7.28001 21.3198 7.28001Z" fill="#A57F2C"/>
    <path d="M33.3598 11.59H16.0998C15.5398 11.59 15.0898 11.14 15.0898 10.58C15.0898 10.02 15.5398 9.57001 16.0998 9.57001H33.3598C33.9198 9.57001 34.3698 10.02 34.3698 10.58C34.3698 11.14 33.9198 11.59 33.3598 11.59Z" fill="#A57F2C"/>
    <path d="M33.3598 15.91H16.0998C15.5398 15.91 15.0898 15.46 15.0898 14.9C15.0898 14.34 15.5398 13.89 16.0998 13.89H33.3598C33.9198 13.89 34.3698 14.34 34.3698 14.9C34.3698 15.46 33.9198 15.91 33.3598 15.91Z" fill="#A57F2C"/>
    <path d="M24.7396 46.33C19.7196 46.33 15.6396 42.25 15.6396 37.23C15.6396 32.21 19.7196 28.13 24.7396 28.13C29.7596 28.13 33.8396 32.21 33.8396 37.23C33.8396 42.25 29.7596 46.33 24.7396 46.33ZM24.7396 30.15C20.8396 30.15 17.6596 33.32 17.6596 37.23C17.6596 41.14 20.8296 44.31 24.7396 44.31C28.6496 44.31 31.8196 41.13 31.8196 37.23C31.8196 33.33 28.6496 30.15 24.7396 30.15Z" fill="#A57F2C"/>
    <path d="M18.1096 42.38C17.9096 42.38 17.7096 42.32 17.5296 42.2C17.0696 41.88 16.9596 41.25 17.2796 40.79C18.9796 38.36 21.7696 36.91 24.7396 36.91C27.7096 36.91 30.4796 38.35 32.1796 40.78C32.4996 41.24 32.3896 41.87 31.9396 42.19C31.4796 42.51 30.8496 42.4 30.5296 41.94C29.1996 40.06 27.0396 38.93 24.7396 38.93C22.4396 38.93 20.2696 40.06 18.9396 41.95C18.7396 42.23 18.4296 42.38 18.1096 42.38Z" fill="#A57F2C"/>
    <path d="M24.7396 38.93C22.9596 38.93 21.5 37.48 21.5 35.69C21.5 33.9 22.95 32.46 24.74 32.46C26.53 32.46 27.98 33.91 27.98 35.69C27.98 37.47 26.5296 38.93 24.7396 38.93ZM24.74 34.48C24.07 34.48 23.53 35.02 23.53 35.69C23.53 36.36 24.07 36.9 24.74 36.9C25.41 36.9 25.95 36.36 25.95 35.69C25.95 35.02 25.41 34.48 24.74 34.48Z" fill="#A57F2C"/>
    <path d="M47.8295 33.93H43.7795C43.2195 33.93 42.7695 33.48 42.7695 32.92C42.7695 32.36 43.2195 31.91 43.7795 31.91H47.8295C48.3895 31.91 48.8395 32.36 48.8395 32.92C48.8395 33.48 48.3895 33.93 47.8295 33.93Z" fill="#A57F2C"/>
    <path d="M50.8695 38.24H43.7895C43.2295 38.24 42.7795 37.79 42.7795 37.23C42.7795 36.67 43.2295 36.22 43.7895 36.22H50.8695C51.4295 36.22 51.8795 36.67 51.8795 37.23C51.8795 37.79 51.4295 38.24 50.8695 38.24Z" fill="#A57F2C"/>
    <path d="M50.8695 42.56H43.7895C43.2295 42.56 42.7795 42.11 42.7795 41.55C42.7795 40.99 43.2295 40.54 43.7895 40.54H50.8695C51.4295 40.54 51.8795 40.99 51.8795 41.55C51.8795 42.11 51.4295 42.56 50.8695 42.56Z" fill="#A57F2C"/>
  </symbol>
  
  <symbol id="ico-ciencia-tecnologia" viewBox="0 0 77 70" fill="none">
    <path d="M59.3487 21.56H44.2587C42.9787 21.56 41.9287 20.52 41.9287 19.23V16.82C41.9287 15.54 42.9687 14.49 44.2587 14.49H59.3487C60.6287 14.49 61.6787 15.53 61.6787 16.82V19.23C61.6787 20.51 60.6387 21.56 59.3487 21.56ZM44.2587 16.73C44.2587 16.73 44.1687 16.77 44.1687 16.82V19.23C44.1687 19.23 44.2087 19.32 44.2587 19.32H59.3487C59.3487 19.32 59.4387 19.28 59.4387 19.23V16.82C59.4387 16.82 59.3987 16.73 59.3487 16.73H44.2587Z" fill="#A57F2C"/>
    <path d="M57.8387 27.89C57.2187 27.89 56.7188 27.39 56.7188 26.77V20.43C56.7188 19.81 57.2187 19.31 57.8387 19.31C58.4587 19.31 58.9587 19.81 58.9587 20.43V26.77C58.9587 27.39 58.4587 27.89 57.8387 27.89Z" fill="#A57F2C"/>
    <path d="M38.7892 52.37C38.5292 52.37 38.2692 52.28 38.0592 52.1C37.5892 51.7 37.5292 50.99 37.9292 50.52L44.6392 42.65V20.43C44.6392 19.81 45.1392 19.31 45.7592 19.31C46.3792 19.31 46.8792 19.81 46.8792 20.43V43.06C46.8792 43.33 46.7892 43.58 46.6092 43.79L39.6292 51.97C39.4092 52.23 39.0892 52.36 38.7792 52.36L38.7892 52.37Z" fill="#A57F2C"/>
    <path d="M72.0387 69.24H31.5687C30.3887 69.24 29.2687 68.78 28.4387 67.94C27.5987 67.1 27.1387 65.99 27.1387 64.81C27.1387 63.76 27.5187 62.74 28.1987 61.94L34.5287 54.52C34.9287 54.05 35.6387 53.99 36.1087 54.39C36.5787 54.79 36.6387 55.5 36.2387 55.97L29.9087 63.4C29.5687 63.8 29.3887 64.3 29.3887 64.82C29.3887 65.4 29.6187 65.95 30.0287 66.37C30.4387 66.78 30.9887 67.01 31.5787 67.01H72.0487C73.2587 67.01 74.2387 66.03 74.2387 64.82C74.2387 64.56 74.1887 64.31 74.0987 64.07C74.0087 63.82 73.8787 63.6 73.7087 63.41L56.9987 43.81C56.8287 43.61 56.7287 43.35 56.7287 43.08V32.03C56.7287 31.41 57.2287 30.91 57.8487 30.91C58.4687 30.91 58.9687 31.41 58.9687 32.03V42.67L75.4087 61.95C75.7487 62.35 76.0187 62.8 76.1987 63.29C76.3787 63.78 76.4687 64.29 76.4687 64.82C76.4687 67.26 74.4787 69.25 72.0387 69.25V69.24Z" fill="#A57F2C"/>
    <path d="M65.4693 64.41H57.0493C56.4293 64.41 55.9293 63.91 55.9293 63.29C55.9293 62.67 56.4293 62.17 57.0493 62.17H65.4693C65.6893 62.17 65.7793 62.03 65.8193 61.94C65.8593 61.86 65.8993 61.69 65.7593 61.52L58.3593 52.84C58.2293 52.69 58.0393 52.6 57.8293 52.6H45.7593C45.5593 52.6 45.3593 52.69 45.2293 52.84L37.8293 61.52C37.6893 61.69 37.7293 61.85 37.7693 61.94C37.8093 62.02 37.9093 62.17 38.1193 62.17H51.7893C52.4093 62.17 52.9093 62.67 52.9093 63.29C52.9093 63.91 52.4093 64.41 51.7893 64.41H38.1193C37.0793 64.41 36.1693 63.83 35.7293 62.88C35.2993 61.94 35.4393 60.86 36.1193 60.07L43.5193 51.39C44.0793 50.74 44.8893 50.36 45.7493 50.36H57.8193C58.6793 50.36 59.4893 50.73 60.0493 51.39L67.4493 60.07C68.1193 60.86 68.2693 61.94 67.8393 62.88C67.3993 63.82 66.4893 64.41 65.4493 64.41H65.4693Z" fill="#A57F2C"/>
    <path d="M51.7987 11.9C51.1787 11.9 50.6787 11.4 50.6787 10.78V6.56C50.6887 2.94 53.6287 0 57.2387 0H59.9587C61.4087 0 62.5887 1.18 62.5887 2.63V5.35C62.5887 8.96 59.6487 11.9 56.0387 11.9H51.7987ZM52.9287 9.66H56.0287C58.4087 9.66 60.3387 7.73 60.3387 5.35V2.63C60.3387 2.42 60.1687 2.24 59.9487 2.24H57.2287C54.8487 2.24 52.9187 4.17 52.9187 6.55V9.65L52.9287 9.66Z" fill="#A57F2C"/>
    <path d="M51.8093 11.9H47.5793C43.9693 11.9 41.0293 8.96 41.0293 5.35V2.63C41.0293 1.18 42.2093 0 43.6593 0H46.3793C49.9893 0 52.9293 2.94 52.9293 6.55V10.77C52.9293 11.39 52.4293 11.89 51.8093 11.89V11.9ZM43.6593 2.24C43.4493 2.24 43.2693 2.41 43.2693 2.63V5.35C43.2693 7.73 45.1993 9.66 47.5793 9.66H50.6793L50.6787 6.56C50.6787 4.18 48.7493 2.25 46.3693 2.25H43.6493L43.6593 2.24Z" fill="#A57F2C"/>
    <path d="M51.8093 11.9C51.5193 11.9 51.2395 11.79 51.0195 11.57C50.5795 11.13 50.5795 10.42 51.0195 9.99002L55.8495 5.16002C56.2895 4.72002 56.9995 4.72002 57.4295 5.16002C57.8595 5.60002 57.8695 6.31002 57.4295 6.74002L52.5995 11.57C52.3795 11.79 52.0893 11.9 51.8093 11.9Z" fill="#A57F2C"/>
    <path d="M51.8095 52.61C51.1895 52.61 50.6895 52.11 50.6895 51.49V20.44C50.6895 19.82 51.1895 19.32 51.8095 19.32C52.4295 19.32 52.9295 19.82 52.9295 20.44V51.49C52.9295 52.11 52.4295 52.61 51.8095 52.61Z" fill="#A57F2C"/>
    <path d="M51.8094 16.73C51.1894 16.73 50.6894 16.23 50.6894 15.61V11.24L46.1894 6.74C45.7494 6.3 45.7494 5.59 46.1894 5.16C46.6294 4.73 47.3394 4.72 47.7694 5.16L52.5994 9.99C52.8094 10.2 52.9294 10.49 52.9294 10.78V15.61C52.9294 16.23 52.4294 16.73 51.8094 16.73Z" fill="#A57F2C"/>
    <path d="M19.9586 27.89C16.8486 27.89 14.3086 25.36 14.3086 22.24C14.3086 19.12 16.8386 16.59 19.9586 16.59C23.0786 16.59 25.6086 19.12 25.6086 22.24C25.6086 25.36 23.0786 27.89 19.9586 27.89ZM19.9586 18.84C18.0786 18.84 16.5486 20.37 16.5486 22.25C16.5486 24.13 18.0786 25.66 19.9586 25.66C21.8386 25.66 23.3686 24.13 23.3686 22.25C23.3686 20.37 21.8386 18.84 19.9586 18.84Z" fill="#A57F2C"/>
    <path d="M19.9591 44.49C14.2491 44.49 9.78906 34.72 9.78906 22.24C9.78906 9.76 14.2491 0 19.9591 0C25.6691 0 30.1291 9.77 30.1291 22.25C30.1291 29.01 28.7991 35.29 26.4791 39.49C26.1791 40.03 25.4991 40.23 24.9591 39.93C24.4191 39.63 24.2191 38.95 24.5191 38.41C26.6591 34.53 27.8891 28.64 27.8891 22.25C27.8891 12.79 24.6291 2.24 19.9591 2.24C15.2891 2.24 12.0291 12.78 12.0291 22.25C12.0291 31.72 15.2891 42.25 19.9591 42.25C20.5691 42.25 21.1791 42.05 21.7891 41.66C22.3091 41.32 22.9991 41.47 23.3391 41.99C23.6791 42.51 23.5291 43.2 23.0091 43.54C22.0391 44.17 21.0091 44.5 19.9591 44.5V44.49Z" fill="#A57F2C"/>
    <path d="M31.9594 36.52C31.1994 36.52 30.3995 36.47 29.5595 36.37C25.0994 35.84 19.8795 33.95 14.8695 31.06C4.06945 24.82 -2.16055 16.06 0.689451 11.12C1.05945 10.49 1.54945 9.93999 2.16945 9.48999C2.66945 9.11999 3.36945 9.23999 3.73945 9.73999C4.09945 10.24 3.98945 10.94 3.48945 11.3C3.12945 11.56 2.83945 11.88 2.62945 12.24C0.289451 16.29 7.78945 24.38 15.9895 29.11C20.7495 31.86 25.6595 33.64 29.8295 34.14C33.6095 34.59 36.3295 33.9 37.2895 32.24C38.2495 30.58 37.4894 27.88 35.2094 24.83C32.6995 21.47 28.6895 18.11 23.9395 15.36C18.0895 11.98 11.9694 10.04 7.48945 10.2C6.87945 10.19 6.34945 9.73999 6.32945 9.11999C6.30945 8.49999 6.78945 7.97999 7.40945 7.95999C12.2495 7.79999 18.8494 9.83999 25.0494 13.42C30.0695 16.32 34.3095 19.89 36.9995 23.48C39.8895 27.34 40.6795 30.84 39.2295 33.35C38.0395 35.42 35.4995 36.5 31.9694 36.5L31.9594 36.52Z" fill="#A57F2C"/>
    <path d="M7.95922 36.52C4.42922 36.52 1.88922 35.43 0.699216 33.37C-2.15078 28.43 4.07922 19.67 14.8792 13.44C21.0792 9.86001 27.6792 7.82001 32.5192 7.98001C33.1392 8.00001 33.6192 8.52001 33.5992 9.14001C33.5792 9.76001 33.0692 10.21 32.4392 10.22C27.9992 10.06 21.8392 12 15.9892 15.38C7.79922 20.11 0.289217 28.2 2.62922 32.25C3.58922 33.91 6.29922 34.6 10.0892 34.15C14.2492 33.65 19.1692 31.87 23.9192 29.12C28.6792 26.37 32.6792 23.01 35.1892 19.65C37.4692 16.6 38.2292 13.9 37.2692 12.24C37.0592 11.88 36.7692 11.57 36.4092 11.3C35.9092 10.94 35.7992 10.24 36.1592 9.73001C36.5192 9.22001 37.2192 9.12001 37.7192 9.48001C38.3392 9.93001 38.8292 10.48 39.1992 11.11C40.6492 13.62 39.8592 17.12 36.9692 20.98C34.2792 24.57 30.0392 28.15 25.0192 31.05C19.9992 33.95 14.7892 35.83 10.3292 36.36C9.48922 36.46 8.68922 36.51 7.92922 36.51L7.95922 36.52Z" fill="#A57F2C"/>
    <path d="M5.04855 12.99C3.09855 12.99 1.51855 11.41 1.51855 9.45999C1.51855 7.50999 3.10855 5.92999 5.04855 5.92999C6.98855 5.92999 8.57856 7.50999 8.57856 9.45999C8.57856 11.41 6.98855 12.99 5.04855 12.99ZM5.04855 8.15999C4.33855 8.15999 3.75855 8.73999 3.75855 9.44999C3.75855 10.16 4.33855 10.74 5.04855 10.74C5.75855 10.74 6.33855 10.16 6.33855 9.44999C6.33855 8.73999 5.75855 8.15999 5.04855 8.15999Z" fill="#A57F2C"/>
    <path d="M34.8591 12.99C32.9091 12.99 31.3291 11.41 31.3291 9.45999C31.3291 7.50999 32.9191 5.92999 34.8591 5.92999C36.7991 5.92999 38.3891 7.50999 38.3891 9.45999C38.3891 11.41 36.7991 12.99 34.8591 12.99ZM34.8591 8.15999C34.1491 8.15999 33.5691 8.73999 33.5691 9.44999C33.5691 10.16 34.1491 10.74 34.8591 10.74C35.5691 10.74 36.1491 10.16 36.1491 9.44999C36.1491 8.73999 35.5691 8.15999 34.8591 8.15999Z" fill="#A57F2C"/>
    <path d="M24.1687 44.49C22.2187 44.49 20.6387 42.91 20.6387 40.96C20.6387 39.01 22.2287 37.43 24.1687 37.43C26.1087 37.43 27.6987 39.01 27.6987 40.96C27.6987 42.91 26.1087 44.49 24.1687 44.49ZM24.1687 39.66C23.4587 39.66 22.8787 40.24 22.8787 40.95C22.8787 41.66 23.4587 42.24 24.1687 42.24C24.8787 42.24 25.4587 41.66 25.4587 40.95C25.4587 40.24 24.8787 39.66 24.1687 39.66Z" fill="#A57F2C"/>
  </symbol>

  <symbol id="ico-filosofia" viewBox="0 0 60 67" fill="none">
    <path d="M54.95 48.91C55.32 48.42 55.22 47.73 54.73 47.36C54.54 47.22 54.31 47.14 54.07 47.14H41.82C41.29 44.57 39.03 42.73 36.41 42.73H33.1V40.07C36.97 39.29 40.57 37.47 43.49 34.82L45.56 36.89L47.12 35.33L45.05 33.26C45.63 32.62 46.18 31.94 46.68 31.23L44.88 29.95C44.45 30.56 43.98 31.14 43.48 31.69L41.91 30.12C48.36 22.81 47.66 11.66 40.36 5.21C33.69 -0.68 23.68 -0.68 17 5.21L15.43 3.64C15.98 3.14 16.57 2.68 17.17 2.24L15.89 0.44C15.18 0.94 14.51 1.49 13.86 2.07L11.79 0L10.23 1.56L12.3 3.63C4.46 12.28 4.72 25.7 13.06 34.05C16.66 37.65 21.39 39.9 26.46 40.39V42.72H23.15C20.1 42.72 17.64 45.19 17.63 48.24C17.63 48.85 18.12 49.34 18.73 49.34H22.72C21.83 51.46 21.83 53.84 22.72 55.96H9.75C8.5 53.93 8.5 51.37 9.75 49.34H15.42V47.13H2.56C2.21 47.13 1.89 47.29 1.68 47.57C-0.56 50.58 -0.56 54.71 1.68 57.72C1.89 58 2.22 58.16 2.56 58.16H5.08C3.91 60.94 4.29 64.13 6.09 66.55C6.3 66.83 6.63 66.99 6.97 66.99H58.47C59.08 66.99 59.57 66.5 59.57 65.89C59.57 65.65 59.49 65.42 59.35 65.23C57.69 63 57.69 59.95 59.35 57.73C59.72 57.24 59.62 56.55 59.13 56.18C58.94 56.04 58.71 55.96 58.47 55.96H54.64C53.28 53.77 53.4 50.97 54.94 48.9L54.95 48.91ZM52.17 49.35C51.87 50.06 51.67 50.8 51.58 51.56H32.1C32.24 50.78 32.52 50.03 32.94 49.35H52.17ZM34.88 64.8H29.63C28.38 62.77 28.38 60.21 29.63 58.18H34.88C33.99 60.3 33.99 62.68 34.88 64.8ZM14.18 58.18H27.15C26.26 60.3 26.26 62.68 27.15 64.8H14.18C12.93 62.77 12.93 60.21 14.18 58.18ZM44.14 18.45C44.14 19.19 44.09 19.93 43.98 20.66H41.16L38.62 18.97V15.15C38.62 14.95 38.57 14.75 38.46 14.58L35.31 9.32V4.5C40.7 7.06 44.13 12.49 44.14 18.46V18.45ZM33.1 3.64V9.62C33.1 9.82 33.15 10.02 33.26 10.19L36.41 15.45V19.56C36.41 19.93 36.59 20.27 36.9 20.48L40.21 22.69C40.39 22.81 40.6 22.88 40.82 22.88H43.49C41.05 31.06 32.45 35.71 24.27 33.28C16.92 31.09 12.29 23.85 13.39 16.26H15.68L16.57 19.84C16.69 20.33 17.13 20.68 17.64 20.68H20.95V23.99C20.95 24.21 21.01 24.42 21.14 24.6L23.16 27.63V30.61C23.16 31.22 23.65 31.71 24.26 31.71H28.67C29.01 31.71 29.32 31.56 29.53 31.3L33.94 25.78C34.32 25.3 34.24 24.61 33.77 24.23C33.57 24.07 33.33 23.99 33.08 23.99H30.87V19.58C30.87 18.97 30.38 18.48 29.77 18.48H23.15V16.61L24.84 14.07H28.66C29.27 14.07 29.76 13.58 29.76 12.97C29.76 12.8 29.72 12.63 29.64 12.48L27.43 8.07C27.24 7.7 26.86 7.46 26.44 7.46H23.13V4.06C26.31 2.84 29.8 2.71 33.06 3.68L33.1 3.64ZM29.79 26.17H30.8L28.15 29.48H25.37V27.27C25.37 27.05 25.31 26.84 25.18 26.66L23.16 23.63V20.65H28.68V25.06C28.68 25.67 29.17 26.16 29.78 26.16L29.79 26.17ZM20.96 5.07V8.51C20.96 9.12 21.45 9.61 22.06 9.61H25.79L26.89 11.82H24.26C23.89 11.82 23.55 12 23.34 12.31L21.13 15.62C21.01 15.8 20.94 16.01 20.94 16.23V18.44H18.49L17.6 14.86C17.48 14.37 17.04 14.02 16.53 14.02H13.86C15 10.24 17.53 7.04 20.94 5.06L20.96 5.07ZM13.88 5.2L15.45 6.77C9 14.07 9.69 25.23 16.99 31.68C23.66 37.58 33.69 37.58 40.36 31.68L41.93 33.25C34.14 40.23 22.12 39.98 14.64 32.49C7.16 25 6.9 12.99 13.88 5.2ZM28.68 40.51C29.42 40.51 30.15 40.47 30.89 40.4V42.73H28.68V40.51ZM36.41 44.94C37.81 44.94 39.06 45.83 39.53 47.15H20.04C20.51 45.83 21.76 44.94 23.16 44.94H36.41ZM25.22 49.35H30.47C29.58 51.47 29.58 53.85 30.47 55.97H25.22C23.97 53.94 23.97 51.38 25.22 49.35ZM3.15 49.35H7.29C6.4 51.47 6.4 53.85 7.29 55.97H3.15C1.9 53.94 1.9 51.38 3.15 49.35ZM11.7 58.18C10.81 60.3 10.81 62.68 11.7 64.8H7.55C6.3 62.77 6.3 60.21 7.55 58.18H11.7ZM37.36 64.8C36.94 64.12 36.65 63.38 36.52 62.59H56C56.1 63.35 56.3 64.09 56.59 64.8H37.36ZM55.99 60.39H36.51C36.65 59.61 36.93 58.86 37.35 58.18H56.58C56.28 58.89 56.08 59.63 55.99 60.39ZM32.94 55.97C32.52 55.29 32.23 54.55 32.1 53.76H51.58C51.68 54.52 51.88 55.26 52.17 55.97H32.94Z" fill="#A57F2C"/>
  </symbol>

  <symbol id="ico-socioemocional" viewBox="0 0 67 68" fill="none">
    <path d="M59.93 51.13C60.92 49.97 61.52 48.48 61.52 46.84V46.13C61.52 42.48 58.55 39.52 54.91 39.52C51.27 39.52 48.3 42.49 48.3 46.13V46.84C48.3 48.48 48.9 49.97 49.89 51.13C47.47 51.75 45.43 53.32 44.19 55.42C42.94 53.33 40.9 51.76 38.49 51.13C39.48 49.97 40.08 48.48 40.08 46.84V46.13C40.08 42.48 37.11 39.52 33.47 39.52C29.83 39.52 26.86 42.49 26.86 46.13V46.84C26.86 48.48 27.46 49.97 28.45 51.13C26.03 51.75 23.99 53.32 22.75 55.42C21.5 53.33 19.46 51.76 17.05 51.13C18.04 49.97 18.64 48.48 18.64 46.84V46.13C18.64 42.48 15.67 39.52 12.03 39.52C8.39 39.52 5.42 42.49 5.42 46.13V46.84C5.42 48.48 6.02 49.97 7.01 51.13C2.98 52.17 0 55.83 0 60.18V65.7C0 66.42 0.59 67.01 1.31 67.01H65.69C66.41 67.01 67 66.42 67 65.7V60.18C67 55.83 64.02 52.17 59.99 51.13H59.93ZM50.91 46.13C50.91 43.93 52.7 42.13 54.91 42.13C57.12 42.13 58.91 43.92 58.91 46.13V46.84C58.91 49.04 57.12 50.84 54.91 50.84C52.7 50.84 50.91 49.05 50.91 46.84V46.13ZM29.44 46.13C29.44 43.93 31.23 42.13 33.44 42.13C35.65 42.13 37.44 43.92 37.44 46.13V46.84C37.44 49.04 35.65 50.84 33.44 50.84C31.23 50.84 29.44 49.05 29.44 46.84V46.13ZM7.98 46.13C7.98 43.93 9.77 42.13 11.98 42.13C14.19 42.13 15.98 43.92 15.98 46.13V46.84C15.98 49.04 14.19 50.84 11.98 50.84C9.77 50.84 7.98 49.05 7.98 46.84V46.13ZM2.56 60.17C2.56 56.46 5.57 53.45 9.28 53.45H14.68C18.39 53.45 21.4 56.47 21.4 60.17V64.38H2.56V60.17ZM24.02 60.17C24.02 56.46 27.03 53.45 30.74 53.45H36.14C39.85 53.45 42.86 56.47 42.86 60.17V64.38H24.02V60.17ZM64.32 64.38H45.48V60.17C45.48 56.46 48.49 53.45 52.2 53.45H57.6C61.31 53.45 64.32 56.47 64.32 60.17V64.38Z" fill="#717171"/>
    <path d="M10.0607 26.25V33.52C10.0507 34.03 10.3407 34.49 10.8007 34.7C10.9807 34.78 11.1707 34.83 11.3607 34.83C11.6607 34.83 11.9507 34.73 12.1907 34.53L19.5807 28.48H27.7607L32.4407 34.33C32.7007 34.65 33.0907 34.83 33.5007 34.82C33.9107 34.81 34.2907 34.61 34.5307 34.28L38.7007 28.48H47.3607L54.7207 34.53C55.1107 34.85 55.6507 34.92 56.1107 34.7C56.5707 34.48 56.8607 34.02 56.8607 33.52V26.23C60.9207 23.62 63.4107 19.1 63.4107 14.24C63.4107 6.39 57.0207 0 49.1707 0H17.7107C9.8607 0 3.4707 6.39 3.4707 14.24C3.4707 19.11 5.9807 23.64 10.0607 26.25ZM17.7107 2.62H49.1707C55.5807 2.62 60.7907 7.83 60.7907 14.24C60.7907 18.41 58.5307 22.29 54.9007 24.35C54.4907 24.58 54.2407 25.02 54.2407 25.49V30.75L48.6607 26.16C48.4307 25.97 48.1307 25.86 47.8307 25.86H38.0307C37.6107 25.86 37.2107 26.06 36.9707 26.4L33.4107 31.35L29.4207 26.35C29.1707 26.04 28.8007 25.86 28.4007 25.86H19.1307C18.8307 25.86 18.5407 25.96 18.3007 26.16L12.6907 30.75V25.51C12.6907 25.04 12.4407 24.6 12.0307 24.37C8.3807 22.31 6.1107 18.43 6.1107 14.24C6.1107 7.83 11.3207 2.62 17.7307 2.62H17.7107Z" fill="#717171"/>
    <path d="M49.1701 7.84999H49.2201C49.9401 7.84999 50.5301 7.26999 50.5301 6.54999C50.5301 5.82999 49.9501 5.23999 49.2301 5.23999H49.1801C48.4601 5.23999 47.8701 5.82999 47.8701 6.54999C47.8701 7.26999 48.4601 7.85999 49.1801 7.85999L49.1701 7.84999Z" fill="#717171"/>
    <path d="M53.3607 9.43003C54.7507 10.65 55.5507 12.4 55.5507 14.24C55.5507 15.98 54.8607 17.61 53.6007 18.83C53.0807 19.33 53.0707 20.16 53.5707 20.68C53.8307 20.95 54.1707 21.08 54.5107 21.08C54.8507 21.08 55.1707 20.96 55.4207 20.71C57.1907 19 58.1707 16.7 58.1707 14.24C58.1707 11.64 57.0407 9.17003 55.0807 7.46003C54.5407 6.98003 53.7107 7.04003 53.2307 7.59003C52.7507 8.14003 52.8107 8.96003 53.3507 9.44003L53.3607 9.43003Z" fill="#717171"/>
    <path d="M29.4206 18.35C31.0506 19.86 32.6606 20.95 32.7206 21C32.9406 21.15 33.2006 21.23 33.4606 21.23C33.7206 21.23 33.9706 21.15 34.2006 21C34.2706 20.95 35.8806 19.86 37.5006 18.35C39.9006 16.13 41.0706 14.23 41.0706 12.54C41.0706 9.61999 38.8506 7.23999 36.1106 7.23999C35.1706 7.23999 34.2506 7.52999 33.4606 8.05999C32.6706 7.52999 31.7506 7.23999 30.8106 7.23999C28.0806 7.23999 25.8506 9.61999 25.8506 12.54C25.8506 14.22 27.0206 16.12 29.4206 18.35ZM30.8106 9.85999C31.4406 9.85999 32.0306 10.14 32.4706 10.66C32.7206 10.95 33.0806 11.11 33.4606 11.11C33.8406 11.11 34.2006 10.94 34.4506 10.66C34.8906 10.15 35.4806 9.85999 36.1106 9.85999C37.4006 9.85999 38.4506 11.06 38.4506 12.54C38.4506 14.02 35.6906 16.64 33.4606 18.31C31.2206 16.65 28.4706 14.01 28.4706 12.54C28.4706 11.06 29.5206 9.85999 30.8106 9.85999Z" fill="#717171"/>
  </symbol>
</svg>