<svg xmlns="http://www.w3.org/2000/svg" xmlns:xlink="http://www.w3.org/1999/xlink" style="display: none;">

  <symbol id="ico-recursos-educativos" viewBox="0 0 70 70" fill="none">
    <path d="M42.4101 56.08C42.9678 56.0802 43.4199 56.5321 43.4199 57.0898C43.4199 57.6475 42.9678 58.0993 42.4101 58.0995H26.7998C26.242 58.0995 25.79 57.6476 25.79 57.0898C25.79 56.532 26.242 56.08 26.7998 56.08H42.4101Z" fill="#A57F2C"/>
    <path d="M4.16 39.9502V17.9101C4.16 16.0523 5.67231 14.54 7.53012 14.54H15.2293C15.7871 14.54 16.2401 14.992 16.2401 15.5498C16.2401 16.1076 15.7871 16.5595 15.2293 16.5595H7.53012C6.78792 16.5595 6.17953 17.1679 6.17953 17.9101V39.9502C6.17932 40.5078 5.72744 40.9599 5.16977 40.9599C4.61209 40.9599 4.16021 40.5078 4.16 39.9502Z" fill="#A57F2C"/>
    <path d="M62.8397 39.8493V17.9001C62.8397 17.158 62.2321 16.5497 61.4901 16.5495H53.6698C53.112 16.5495 52.66 16.0976 52.66 15.5398C52.66 14.982 53.112 14.53 53.6698 14.53H61.4901C63.3477 14.5302 64.8602 16.0424 64.8602 17.9001V39.8493C64.8602 40.4071 64.4073 40.8601 63.8495 40.8601C63.2918 40.8599 62.8397 40.407 62.8397 39.8493Z" fill="#A57F2C"/>
    <path d="M20.1121 31.8303C21.4413 30.4031 23.7087 30.403 25.0379 31.8303L35.2478 42.76C35.6286 43.1676 35.6066 43.807 35.199 44.1877C34.7914 44.5684 34.152 44.5465 33.7713 44.1389L23.5613 33.2092L23.5603 33.2073C23.0299 32.637 22.1201 32.6372 21.5896 33.2073L21.5877 33.2092L14.738 40.5393C14.3573 40.9467 13.7179 40.9687 13.3103 40.5881C12.9029 40.2074 12.8809 39.568 13.2615 39.1604L20.1121 31.8303Z" fill="#A57F2C"/>
    <path d="M43.9818 31.8303C45.311 30.403 47.5784 30.4031 48.9076 31.8303L60.0375 43.7405C60.4182 44.1479 60.3968 44.7863 59.9896 45.1672C59.5821 45.5481 58.9428 45.5269 58.5619 45.1194L47.432 33.2092L47.4301 33.2073C46.8996 32.6371 45.9898 32.6371 45.4594 33.2073L45.4574 33.2092L27.348 52.5891C26.9673 52.9966 26.3279 53.0186 25.9203 52.6379C25.5128 52.2571 25.4908 51.6178 25.8715 51.2102L43.9818 31.8303Z" fill="#A57F2C"/>
    <path d="M39.3702 15.5499C39.3702 12.8677 37.192 10.6896 34.5099 10.6895C31.8277 10.6895 29.6495 12.8677 29.6495 15.5499C29.6496 18.232 31.8277 20.4102 34.5099 20.4102C37.192 20.4102 39.3702 18.232 39.3702 15.5499ZM41.3898 15.5499C41.3897 19.3476 38.3076 22.4297 34.5099 22.4298C30.7121 22.4298 27.6301 19.3476 27.63 15.5499C27.63 11.7521 30.7121 8.67 34.5099 8.67C38.3076 8.67006 41.3898 11.7521 41.3898 15.5499Z" fill="#A57F2C"/>
    <path d="M32.7246 5.09668L32.7237 5.0957C32.5498 5.56768 32.1633 5.91634 31.6905 6.05469L31.6914 6.05664C31.0255 6.25734 30.3895 6.52131 29.793 6.84668C29.7827 6.85232 29.7723 6.858 29.7618 6.86328C29.3588 7.06475 28.8645 7.10602 28.4053 6.90527L28.3946 6.90039L25.3916 5.54492L24.5049 6.43164L25.8604 9.43457L25.8653 9.44531C26.0618 9.89475 26.0326 10.4088 25.8106 10.8252L25.8067 10.833C25.4813 11.4295 25.2173 12.0655 25.0166 12.7314L25.0157 12.7305C24.873 13.2086 24.5181 13.5752 24.084 13.7539C24.075 13.7576 24.0658 13.7612 24.0567 13.7646L20.9795 14.9268V16.1719L24.0567 17.335C24.5285 17.5087 24.8761 17.8956 25.0147 18.3682H25.0166C25.1672 18.8676 25.3534 19.35 25.5743 19.8115L25.8067 20.2666L25.8233 20.2979C26.0248 20.7008 26.0661 21.1951 25.8653 21.6543L25.8604 21.665L24.5049 24.667L25.3907 25.5527L28.3946 24.1992L28.4053 24.1943C28.7987 24.0223 29.2415 24.023 29.625 24.1748L29.7852 24.249L29.793 24.2529C30.3895 24.5783 31.0255 24.8423 31.6914 25.043C32.1096 25.1677 32.4413 25.4549 32.6377 25.8154L32.7139 25.9756L32.7246 26.0029L33.8877 29.0801H35.1319L36.295 26.0029C36.4689 25.5313 36.8556 25.1813 37.3282 25.043L37.8223 24.8809C38.3098 24.7068 38.7793 24.4969 39.2266 24.2529L39.2579 24.2363C39.6608 24.0348 40.1551 23.9935 40.6143 24.1943L40.625 24.1992L43.628 25.5527L44.5127 24.668L43.1592 21.665L43.1543 21.6543C42.9578 21.2049 42.9869 20.6908 43.209 20.2744L43.2129 20.2656C43.4569 19.8184 43.6669 19.3497 43.8409 18.8623L44.003 18.3682C44.1458 17.8903 44.5017 17.5244 44.9356 17.3457L44.9629 17.335L48.0401 16.1719V14.9268L44.9629 13.7646C44.4912 13.5906 44.1411 13.2033 44.003 12.7305C43.8023 12.0645 43.5383 11.4295 43.2129 10.833C43.2073 10.8227 43.2016 10.8123 43.1963 10.8018C42.9948 10.3988 42.9536 9.90448 43.1543 9.44531L43.1592 9.43457L44.5127 6.43066L43.627 5.54492L40.625 6.90039L40.6143 6.90527C40.1648 7.10179 39.6508 7.07266 39.2344 6.85059L39.2256 6.84668C38.6293 6.52148 37.9939 6.25726 37.3282 6.05664C36.8504 5.91376 36.4843 5.55781 36.3057 5.12402C36.302 5.11502 36.2984 5.10578 36.295 5.09668L35.1319 2.01953H33.8877L32.7246 5.09668ZM50.0596 16.4795C50.0596 17.1223 49.656 17.722 49.0362 17.9531L49.0371 17.9541L45.8741 19.1494C45.6658 19.801 45.405 20.4317 45.0909 21.0352L46.4805 24.1143L46.4942 24.1475C46.7254 24.7126 46.6351 25.4028 46.1543 25.8838L44.8438 27.1943C44.3876 27.6503 43.6907 27.7994 43.0743 27.5205L39.9952 26.1309C39.3917 26.445 38.761 26.7058 38.1094 26.9141L36.918 30.0635L36.919 30.0645C36.6947 30.6812 36.1067 31.0996 35.4395 31.0996H33.5801C32.9373 31.0996 32.3365 30.6962 32.1055 30.0762L32.1045 30.0771L30.9092 26.9141C30.2577 26.7058 29.6269 26.4451 29.0235 26.1309L25.9454 27.5205C25.9345 27.5254 25.9232 27.5297 25.9121 27.5342C25.3471 27.7653 24.6568 27.675 24.1758 27.1943L22.8653 25.8838C22.4088 25.4271 22.2599 24.7292 22.5401 24.1123L23.9278 21.0352C23.6137 20.4317 23.3528 19.8009 23.1446 19.1494L19.9942 17.958C19.3778 17.7335 18.96 17.1465 18.96 16.4795V14.6201C18.96 13.9774 19.3627 13.3757 19.9825 13.1445L23.1446 11.9492C23.3528 11.2977 23.6136 10.6669 23.9278 10.0635L22.5391 6.98535C22.5342 6.97449 22.5299 6.96318 22.5254 6.95215C22.2943 6.38706 22.3845 5.69679 22.8653 5.21582L24.1758 3.90527L24.2637 3.82324C24.7184 3.43206 25.3674 3.31753 25.9454 3.5791L29.0235 4.96777C29.6269 4.65362 30.2577 4.39284 30.9092 4.18457L32.1045 1.02246C32.332 0.412244 32.9172 0 33.5801 0H35.4395C36.0821 0 36.6829 0.402906 36.9141 1.02246L38.1094 4.18457C38.7609 4.3928 39.3917 4.65366 39.9952 4.96777L43.0743 3.5791C43.0851 3.57419 43.0964 3.56995 43.1075 3.56543C43.6726 3.33425 44.3628 3.4245 44.8438 3.90527L46.1543 5.21582C46.6102 5.6719 46.7582 6.36808 46.4795 6.98438L45.0909 10.0635C45.4051 10.6669 45.6658 11.2977 45.8741 11.9492L49.0371 13.1445L49.0362 13.1455C49.6466 13.3729 50.0596 13.9571 50.0596 14.6201V16.4795Z" fill="#A57F2C"/>
    <path d="M66.9994 49.9493V47.13C66.9994 46.1978 66.242 45.4396 65.3099 45.4395H45.1C44.1678 45.4395 43.4095 46.1978 43.4095 47.13V65.3194C43.4095 66.2516 44.1678 67.0098 45.1 67.0098H65.3099C66.242 67.0098 66.9994 66.2515 66.9994 65.3194V55.3097C66.9994 54.7519 67.4523 54.2999 68.0101 54.2999C68.5677 54.3001 69.0198 54.752 69.0199 55.3097V65.3194C69.0199 67.3672 67.3577 69.0293 65.3099 69.0294H45.1C43.0522 69.0294 41.39 67.3672 41.39 65.3194V47.13C41.39 45.0822 43.0522 43.42 45.1 43.42H65.3099C67.3577 43.4201 69.0199 45.0822 69.0199 47.13V49.9493C69.0199 50.507 68.5678 50.9599 68.0101 50.96C67.4523 50.96 66.9994 50.5071 66.9994 49.9493Z" fill="#A57F2C"/>
    <path d="M25.6094 47.12C25.6094 46.1878 24.852 45.4296 23.9199 45.4295H3.70996C2.77777 45.4295 2.01953 46.1878 2.01953 47.12V65.3094C2.01953 66.2416 2.77777 66.9998 3.70996 66.9998H23.9199C24.852 66.9998 25.6094 66.2416 25.6094 65.3094V47.12ZM27.6299 65.3094C27.6299 67.3572 25.9677 69.0193 23.9199 69.0194H3.70996C1.66215 69.0194 0 67.3572 0 65.3094V47.12C0 45.0722 1.66215 43.41 3.70996 43.41H23.9199C25.9677 43.4101 27.6299 45.0722 27.6299 47.12V65.3094Z" fill="#A57F2C"/>
    <path d="M49.39 51.3899C49.39 50.0972 50.7691 49.2945 51.89 49.9172L51.892 49.9182L60.5423 54.7483L60.5472 54.7502C61.6908 55.3969 61.6907 57.042 60.5472 57.6887L60.5423 57.6917L51.892 62.5217L51.89 62.5227C50.7581 63.1513 49.3902 62.3198 49.39 61.0501V51.3899ZM51.4095 60.4768L59.0336 56.22L51.4095 51.9622V60.4768Z" fill="#A57F2C"/>
    <path d="M20.8498 50.35C21.4076 50.35 21.8596 50.802 21.8596 51.3598C21.8596 51.9175 21.4076 52.3695 20.8498 52.3695H6.76977C6.21196 52.3695 5.76 51.9176 5.76 51.3598C5.76 50.802 6.21196 50.35 6.76977 50.35H20.8498Z" fill="#A57F2C"/>
    <path d="M20.8498 55.21C21.4076 55.21 21.8596 55.662 21.8596 56.2198C21.8596 56.7776 21.4076 57.2295 20.8498 57.2295H6.76977C6.21196 57.2295 5.76 56.7776 5.76 56.2198C5.76 55.662 6.21196 55.21 6.76977 55.21H20.8498Z" fill="#A57F2C"/>
    <path d="M20.8498 60.08C21.4076 60.08 21.8596 60.532 21.8596 61.0898C21.8596 61.6475 21.4076 62.0995 20.8498 62.0995H6.76977C6.21196 62.0995 5.76 61.6476 5.76 61.0898C5.76 60.532 6.21196 60.08 6.76977 60.08H20.8498Z" fill="#A57F2C"/>
  </symbol>

  <symbol id="ico-actividades" viewBox="0 0 73 67" fill="none" >
    <path fill-rule="evenodd" clip-rule="evenodd" d="M44.87 6.93H34.58C34.14 6.93 33.79 6.58 33.79 6.14C33.79 5.7 34.14 5.35 34.58 5.35H44.87C45.31 5.35 45.66 5.7 45.66 6.14C45.66 6.58 45.31 6.93 44.87 6.93Z" fill="#A57F2C"/>
    <path fill-rule="evenodd" clip-rule="evenodd" d="M49.58 11.65H29.85C29.41 11.65 29.06 11.3 29.06 10.86C29.06 10.42 29.41 10.07 29.85 10.07H49.58C50.02 10.07 50.37 10.42 50.37 10.86C50.37 11.3 50.02 11.65 49.58 11.65Z" fill="#A57F2C"/>
    <path fill-rule="evenodd" clip-rule="evenodd" d="M62.12 67H17.32C16.08 67 15.07 65.99 15.07 64.76V2.24C15.07 1.01 16.08 0 17.32 0H62.12C63.36 0 64.37 1.01 64.37 2.24V19.08C64.37 19.52 64.02 19.87 63.58 19.87C63.14 19.87 62.79 19.52 62.79 19.08V2.24C62.79 1.87 62.49 1.58 62.13 1.58H17.32C16.95 1.58 16.66 1.88 16.66 2.24V64.75C16.66 65.12 16.96 65.41 17.32 65.41H62.12C62.49 65.41 62.78 65.11 62.78 64.75V42.95C62.78 42.51 63.13 42.16 63.57 42.16C64.01 42.16 64.36 42.51 64.36 42.95V64.75C64.36 65.99 63.35 66.99 62.11 66.99L62.12 67Z" fill="#A57F2C"/>
    <path fill-rule="evenodd" clip-rule="evenodd" d="M37.85 22.56H21.24C20.8 22.56 20.45 22.21 20.45 21.77C20.45 21.33 20.8 20.98 21.24 20.98H37.85C38.29 20.98 38.64 21.33 38.64 21.77C38.64 22.21 38.29 22.56 37.85 22.56Z" fill="#A57F2C"/>
    <path fill-rule="evenodd" clip-rule="evenodd" d="M35.05 51.3V60.04C39.7 59.66 43.41 55.94 43.79 51.3H35.05ZM34.26 61.65C33.82 61.65 33.47 61.3 33.47 60.86V50.5C33.47 50.06 33.82 49.71 34.26 49.71H44.62C45.06 49.71 45.41 50.06 45.41 50.5C45.41 56.65 40.41 61.65 34.26 61.65Z" fill="#A57F2C"/>
    <path fill-rule="evenodd" clip-rule="evenodd" d="M31.36 38.03C26.08 38.03 21.79 42.32 21.79 47.6C21.79 52.61 25.66 56.73 30.57 57.13V47.6C30.57 47.16 30.92 46.81 31.36 46.81H40.89C40.49 41.9 36.36 38.03 31.36 38.03ZM31.36 58.75C25.21 58.75 20.21 53.75 20.21 47.6C20.21 41.45 25.21 36.45 31.36 36.45C37.51 36.45 42.51 41.45 42.51 47.6C42.51 48.04 42.16 48.39 41.72 48.39H32.15V57.96C32.15 58.4 31.8 58.75 31.36 58.75Z" fill="#A57F2C"/>
    <path fill-rule="evenodd" clip-rule="evenodd" d="M58.44 61.65H45.38C44.94 61.65 44.59 61.3 44.59 60.86C44.59 60.42 44.94 60.07 45.38 60.07H58.44C58.88 60.07 59.23 60.42 59.23 60.86C59.23 61.3 58.88 61.65 58.44 61.65Z" fill="#A57F2C"/>
    <path fill-rule="evenodd" clip-rule="evenodd" d="M55.74 58.58H48.07C47.63 58.58 47.28 58.23 47.28 57.79C47.28 57.35 47.63 57 48.07 57H55.74C56.18 57 56.53 57.35 56.53 57.79C56.53 58.23 56.18 58.58 55.74 58.58Z" fill="#A57F2C"/>
    <path fill-rule="evenodd" clip-rule="evenodd" d="M37.85 27.4H21.24C20.8 27.4 20.45 27.05 20.45 26.61C20.45 26.17 20.8 25.82 21.24 25.82H37.85C38.29 25.82 38.64 26.17 38.64 26.61C38.64 27.05 38.29 27.4 37.85 27.4Z" fill="#A57F2C"/>
    <path fill-rule="evenodd" clip-rule="evenodd" d="M37.85 32.24H21.24C20.8 32.24 20.45 31.89 20.45 31.45C20.45 31.01 20.8 30.66 21.24 30.66H37.85C38.29 30.66 38.64 31.01 38.64 31.45C38.64 31.89 38.29 32.24 37.85 32.24Z" fill="#A57F2C"/>
    <path fill-rule="evenodd" clip-rule="evenodd" d="M51.56 41C51.68 41 51.8 41.03 51.91 41.08C52.33 41.28 52.76 41.46 53.19 41.61C53.48 41.71 53.68 41.96 53.72 42.26L53.99 44.43C54.02 44.67 54.17 45.07 54.54 45.07H59.12C59.5 45.07 59.65 44.66 59.68 44.43L59.95 42.26C59.99 41.96 60.19 41.71 60.48 41.61C60.91 41.46 61.34 41.28 61.76 41.08C62.03 40.95 62.36 40.98 62.6 41.17L64.33 42.52C64.52 42.67 64.91 42.85 65.18 42.58L68.42 39.34C68.69 39.07 68.5 38.68 68.36 38.49L67.01 36.76C66.82 36.52 66.79 36.2 66.92 35.92C67.12 35.51 67.3 35.08 67.45 34.64C67.55 34.35 67.8 34.15 68.1 34.11L70.27 33.84C70.51 33.81 70.91 33.66 70.91 33.29V28.71C70.91 28.33 70.5 28.18 70.27 28.15L68.1 27.88C67.8 27.84 67.55 27.64 67.45 27.35C67.3 26.91 67.12 26.48 66.92 26.07C66.79 25.8 66.82 25.47 67.01 25.23L68.36 23.5C68.51 23.31 68.69 22.92 68.42 22.65L65.18 19.41C64.91 19.14 64.52 19.33 64.33 19.47L62.6 20.82C62.36 21.01 62.04 21.04 61.77 20.91C61.35 20.71 60.92 20.53 60.49 20.38C60.2 20.28 60 20.03 59.96 19.73L59.69 17.56C59.66 17.32 59.51 16.92 59.13 16.92H54.56C54.19 16.92 54.04 17.33 54.01 17.56L53.74 19.73C53.7 20.03 53.5 20.28 53.21 20.38C52.78 20.53 52.35 20.71 51.93 20.91C51.66 21.04 51.33 21.01 51.09 20.82L49.36 19.47C49.17 19.32 48.78 19.14 48.51 19.41L45.27 22.65C45 22.92 45.18 23.31 45.33 23.5L46.68 25.23C46.87 25.47 46.9 25.79 46.77 26.07C46.57 26.48 46.39 26.92 46.24 27.35C46.14 27.64 45.89 27.84 45.59 27.88L43.42 28.15C43.18 28.18 42.78 28.33 42.78 28.71V33.29C42.78 33.66 43.19 33.81 43.42 33.84L45.59 34.11C45.89 34.15 46.14 34.35 46.24 34.64C46.39 35.08 46.57 35.51 46.77 35.92C46.9 36.19 46.87 36.52 46.68 36.76L45.33 38.49C45.18 38.68 45 39.07 45.27 39.34L48.51 42.58C48.78 42.85 49.17 42.67 49.36 42.52L51.09 41.17C51.23 41.06 51.4 41 51.58 41H51.56ZM54.53 46.66C53.44 46.66 52.55 45.8 52.41 44.63L52.2 42.94C52.02 42.87 51.84 42.8 51.66 42.72L50.32 43.77C49.38 44.5 48.15 44.47 47.38 43.71L44.14 40.47C43.37 39.7 43.34 38.47 44.08 37.53L45.13 36.19C45.05 36.01 44.98 35.83 44.91 35.65L43.22 35.44C42.04 35.29 41.19 34.4 41.19 33.32V28.74C41.19 27.65 42.05 26.76 43.22 26.62L44.91 26.41C44.98 26.23 45.06 26.05 45.13 25.87L44.08 24.53C43.35 23.59 43.38 22.36 44.14 21.59L47.38 18.35C48.15 17.58 49.38 17.56 50.32 18.29L51.67 19.34C51.85 19.26 52.03 19.19 52.21 19.12L52.42 17.43C52.57 16.25 53.46 15.4 54.54 15.4H59.12C60.21 15.4 61.1 16.26 61.24 17.43L61.45 19.12C61.63 19.19 61.81 19.27 61.99 19.34L63.33 18.29C64.26 17.56 65.5 17.59 66.27 18.35L69.51 21.59C70.28 22.36 70.3 23.6 69.57 24.53L68.52 25.87C68.6 26.05 68.67 26.23 68.74 26.41L70.43 26.62C71.61 26.77 72.46 27.66 72.46 28.74V33.32C72.46 34.41 71.6 35.3 70.43 35.44L68.74 35.65C68.67 35.83 68.59 36.01 68.52 36.19L69.57 37.53C70.3 38.47 70.27 39.7 69.51 40.47L66.27 43.71C65.5 44.48 64.26 44.51 63.33 43.77L61.99 42.72C61.81 42.8 61.63 42.87 61.45 42.94L61.24 44.63C61.1 45.81 60.2 46.66 59.12 46.66H54.53Z" fill="#A57F2C"/>
    <path fill-rule="evenodd" clip-rule="evenodd" d="M56.82 23.65C52.76 23.65 49.45 26.95 49.45 31.02C49.45 35.09 52.76 38.39 56.82 38.39C60.88 38.39 64.19 35.08 64.19 31.02C64.19 26.96 60.89 23.65 56.82 23.65ZM56.82 39.97C51.89 39.97 47.87 35.96 47.87 31.02C47.87 26.08 51.88 22.07 56.82 22.07C61.75 22.07 65.77 26.08 65.77 31.02C65.77 35.96 61.76 39.97 56.82 39.97Z" fill="#A57F2C"/>
    <path fill-rule="evenodd" clip-rule="evenodd" d="M6.76 64C6.46 64 6.19 63.83 6.05 63.57L1.47 54.59C1.41 54.48 1.38 54.36 1.38 54.23V19.17C1.38 18.73 1.73 18.38 2.17 18.38C2.61 18.38 2.96 18.73 2.96 19.17V54.05L6.75 61.47L10.54 54.05V19.17C10.54 18.73 10.89 18.38 11.33 18.38C11.77 18.38 12.12 18.73 12.12 19.17V54.24C12.12 54.37 12.09 54.49 12.03 54.6L7.45 63.58C7.31 63.84 7.04 64.01 6.75 64.01L6.76 64Z" fill="#A57F2C"/>
    <path fill-rule="evenodd" clip-rule="evenodd" d="M4.63 59.84C4.29 59.84 3.98 59.62 3.88 59.29C3.75 58.87 3.98 58.43 4.39 58.3C5.96 57.8 7.55 57.8 9.12 58.3C9.54 58.43 9.77 58.88 9.64 59.29C9.51 59.71 9.06 59.94 8.65 59.81C7.4 59.41 6.13 59.41 4.88 59.81C4.8 59.83 4.72 59.85 4.64 59.85L4.63 59.84Z" fill="#A57F2C"/>
    <path fill-rule="evenodd" clip-rule="evenodd" d="M1.6 13.56C1.6 13.56 1.59 13.56 1.59 13.57V15.16C1.59 15.16 1.59 15.17 1.6 15.17H11.92C11.92 15.17 11.93 15.17 11.93 15.16V13.57C11.93 13.57 11.93 13.56 11.92 13.56H1.6ZM11.92 16.76H1.6C0.72 16.76 0 16.04 0 15.16V13.57C0 12.69 0.72 11.97 1.6 11.97H11.92C12.8 11.97 13.52 12.69 13.52 13.57V15.16C13.52 16.04 12.8 16.76 11.92 16.76Z" fill="#A57F2C"/>
    <path fill-rule="evenodd" clip-rule="evenodd" d="M11.92 19.96H1.6C0.72 19.96 0 19.24 0 18.36V16.77C0 15.89 0.72 15.17 1.6 15.17C2.04 15.17 2.39 15.52 2.39 15.96C2.39 16.4 2.04 16.75 1.6 16.75C1.6 16.75 1.59 16.75 1.59 16.76V18.35C1.59 18.35 1.59 18.36 1.6 18.36H11.92C11.92 18.36 11.93 18.36 11.93 18.35V16.76C11.93 16.76 11.93 16.75 11.92 16.75C11.48 16.75 11.13 16.4 11.13 15.96C11.13 15.52 11.48 15.17 11.92 15.17C12.8 15.17 13.52 15.89 13.52 16.77V18.36C13.52 19.24 12.8 19.96 11.92 19.96Z" fill="#A57F2C"/>
    <path fill-rule="evenodd" clip-rule="evenodd" d="M3.07 55.27C2.6 55.27 2.16 55.12 1.8 54.93C1.41 54.73 1.27 54.25 1.47 53.86C1.67 53.47 2.15 53.32 2.54 53.53C2.87 53.7 3.42 53.99 4.28 52.74C4.43 52.52 4.68 52.39 4.94 52.4C5.2 52.4 5.45 52.54 5.59 52.76C5.78 53.06 6.24 53.25 6.75 53.25C7.26 53.25 7.72 53.06 7.91 52.76C8.05 52.54 8.3 52.41 8.56 52.4C8.82 52.4 9.06 52.53 9.21 52.74C10.07 54 10.62 53.71 10.95 53.53C11.34 53.33 11.82 53.48 12.02 53.86C12.22 54.25 12.08 54.72 11.69 54.93C10.86 55.37 9.67 55.57 8.48 54.34C8 54.65 7.39 54.82 6.73 54.82C6.07 54.82 5.47 54.65 4.98 54.34C4.31 55.03 3.65 55.27 3.04 55.27H3.07Z" fill="#A57F2C"/>
    <path fill-rule="evenodd" clip-rule="evenodd" d="M4.93 53.98C4.49 53.98 4.14 53.63 4.14 53.19V19.17C4.14 18.73 4.49 18.38 4.93 18.38C5.37 18.38 5.72 18.73 5.72 19.17V53.19C5.72 53.63 5.37 53.98 4.93 53.98Z" fill="#A57F2C"/>
    <path fill-rule="evenodd" clip-rule="evenodd" d="M8.58 53.98C8.14 53.98 7.79 53.63 7.79 53.19V19.17C7.79 18.73 8.14 18.38 8.58 18.38C9.02 18.38 9.37 18.73 9.37 19.17V53.19C9.37 53.63 9.02 53.98 8.58 53.98Z" fill="#A57F2C"/>
    <path fill-rule="evenodd" clip-rule="evenodd" d="M11.34 13.56C10.9 13.56 10.55 13.21 10.55 12.77V8.27C10.55 5.74 8.58 4.59 6.76 4.59C4.94 4.59 2.97 5.74 2.97 8.27V12.77C2.97 13.21 2.62 13.56 2.18 13.56C1.74 13.56 1.39 13.21 1.39 12.77V8.27C1.39 4.81 4.09 3 6.77 3C9.45 3 12.15 4.81 12.15 8.27V12.77C12.15 13.21 11.8 13.56 11.36 13.56H11.34Z" fill="#A57F2C"/>
  </symbol>

  <symbol id="ico-foros" viewBox="0 0 67 67" fill="none">    
    <path d="M39.7798 12.56H14.6598C13.4998 12.56 12.5698 13.5 12.5698 14.65C12.5698 15.8 13.5098 16.74 14.6598 16.74H39.7798C40.9398 16.74 41.8698 15.8 41.8698 14.65C41.8698 13.5 40.9298 12.56 39.7798 12.56Z" fill="#A57F2C"/>
	<path d="M31.4098 20.94H14.6598C13.4998 20.94 12.5698 21.88 12.5698 23.03C12.5698 24.18 13.5098 25.12 14.6598 25.12H31.4098C32.5698 25.12 33.4998 24.18 33.4998 23.03C33.4998 21.88 32.5598 20.94 31.4098 20.94Z" fill="#A57F2C"/>
	<path d="M8.37 0C3.76 0 0 3.76 0 8.37V50.24C0 51.05 0.47 51.79 1.21 52.14C1.49 52.27 1.8 52.34 2.1 52.34C2.58 52.34 3.06 52.17 3.44 51.85L15.42 41.87H46.07C50.69 41.87 54.44 38.11 54.44 33.5V8.37C54.44 3.75 50.68 0 46.07 0H8.37ZM50.25 33.5C50.25 35.81 48.37 37.69 46.06 37.69H14.66C14.17 37.69 13.7 37.86 13.32 38.18L4.19 45.79V8.37C4.19 6.06 6.07 4.18 8.38 4.18H46.07C48.38 4.18 50.26 6.06 50.26 8.37V33.49L50.25 33.5Z" fill="#A57F2C"/>
	<path d="M58.62 16.75C57.46 16.75 56.53 17.69 56.53 18.84C56.53 19.99 57.47 20.93 58.62 20.93C60.93 20.93 62.81 22.81 62.81 25.12V60.54L55.74 54.89C55.37 54.6 54.91 54.43 54.43 54.43H25.12C22.81 54.43 20.93 52.55 20.93 50.24V48.15C20.93 46.99 19.99 46.06 18.84 46.06C17.69 46.06 16.75 47 16.75 48.15V50.24C16.75 54.86 20.51 58.61 25.12 58.61H53.7L63.6 66.53C63.98 66.83 64.45 66.99 64.91 66.99C65.22 66.99 65.53 66.92 65.82 66.78C66.54 66.43 67.01 65.7 67.01 64.89V25.12C67.01 20.5 63.25 16.75 58.64 16.75H58.62Z" fill="#A57F2C"/>
  </symbol>

  <symbol id="ico-portafolio" viewBox="0 0 67 68" fill="none">
    <path d="M49.45 67H7.98C3.58 67 0.01 63.43 0 59.02V7.98C0 3.57 3.57 0 7.98 0H37.06C39.31 0 41.45 0.95 42.96 2.61L55.35 16.25C56.69 17.71 57.43 19.63 57.42 21.61V37.51C57.42 38.39 56.71 39.11 55.82 39.11C54.93 39.11 54.22 38.4 54.22 37.51V21.61C54.22 20.42 53.78 19.27 52.98 18.4L40.58 4.75C39.67 3.76 38.39 3.19 37.04 3.18H7.98C5.34 3.18 3.19 5.32 3.19 7.97V59.02C3.19 61.66 5.33 63.81 7.98 63.81H49.46C50.34 63.81 51.06 64.52 51.06 65.41C51.06 66.3 50.35 67.01 49.46 67.01L49.45 67Z" fill="#A57F2C"/>
    <path d="M49.4498 22.33H43.0698C40.4298 22.33 38.2798 20.19 38.2798 17.54V2.26998C38.2798 1.38998 38.9898 0.669983 39.8798 0.669983C40.7698 0.669983 41.4798 1.37998 41.4798 2.26998V17.55C41.4798 18.43 42.1898 19.15 43.0798 19.15H49.4598C50.3398 19.15 51.0598 19.86 51.0598 20.75C51.0598 21.64 50.3498 22.35 49.4598 22.35L49.4498 22.33Z" fill="#A57F2C"/>
    <path d="M16.75 23.13H11.96C10.2 23.13 8.77002 21.7 8.77002 19.94V15.15C8.77002 13.39 10.2 11.96 11.96 11.96H16.75C18.51 11.96 19.94 13.39 19.94 15.15V19.94C19.94 21.7 18.51 23.13 16.75 23.13ZM11.96 15.15V19.94H16.75V15.15H11.96Z" fill="#A57F2C"/>
    <path d="M16.75 39.08H11.96C10.2 39.08 8.77002 37.65 8.77002 35.89V31.1C8.77002 29.34 10.2 27.91 11.96 27.91H16.75C18.51 27.91 19.94 29.34 19.94 31.1V35.89C19.94 37.65 18.51 39.08 16.75 39.08ZM11.96 31.11V35.9H16.75V31.11H11.96Z" fill="#A57F2C"/>
    <path d="M35.1001 38.29H23.9301C23.0501 38.29 22.3301 37.58 22.3301 36.69C22.3301 35.8 23.0401 35.09 23.9301 35.09H35.1001C35.9801 35.09 36.7001 35.8 36.7001 36.69C36.7001 37.58 35.9901 38.29 35.1001 38.29Z" fill="#A57F2C"/>
    <path d="M31.8998 31.9H23.9198C23.0398 31.9 22.3198 31.19 22.3198 30.3C22.3198 29.41 23.0298 28.7 23.9198 28.7H31.8998C32.7798 28.7 33.4998 29.41 33.4998 30.3C33.4998 31.19 32.7898 31.9 31.8998 31.9Z" fill="#A57F2C"/>
    <path d="M16.75 55.04H11.96C10.2 55.04 8.77002 53.61 8.77002 51.85V47.06C8.77002 45.3 10.2 43.87 11.96 43.87H16.75C18.51 43.87 19.94 45.3 19.94 47.06V51.85C19.94 53.61 18.51 55.04 16.75 55.04ZM11.96 47.06V51.85H16.75V47.06H11.96Z" fill="#A57F2C"/>
    <path d="M35.1001 54.24H23.9301C23.0501 54.24 22.3301 53.53 22.3301 52.64C22.3301 51.75 23.0401 51.04 23.9301 51.04H35.1001C35.9801 51.04 36.7001 51.75 36.7001 52.64C36.7001 53.53 35.9901 54.24 35.1001 54.24Z" fill="#A57F2C"/>
    <path d="M31.8998 47.86H23.9198C23.0398 47.86 22.3198 47.15 22.3198 46.26C22.3198 45.37 23.0298 44.66 23.9198 44.66H31.8998C32.7798 44.66 33.4998 45.37 33.4998 46.26C33.4998 47.15 32.7898 47.86 31.8998 47.86Z" fill="#A57F2C"/>
    <path d="M35.1001 22.33H23.9301C23.0501 22.33 22.3301 21.62 22.3301 20.73C22.3301 19.84 23.0401 19.13 23.9301 19.13H35.1001C35.9801 19.13 36.7001 19.84 36.7001 20.73C36.7001 21.62 35.9901 22.33 35.1001 22.33Z" fill="#A57F2C"/>
    <path d="M31.8998 15.95H23.9198C23.0398 15.95 22.3198 15.24 22.3198 14.35C22.3198 13.46 23.0298 12.75 23.9198 12.75H31.8998C32.7798 12.75 33.4998 13.46 33.4998 14.35C33.4998 15.24 32.7898 15.95 31.8998 15.95Z" fill="#A57F2C"/>
    <path d="M49.4502 57.43C49.0302 57.43 48.6202 57.26 48.3202 56.96L43.5302 52.17C42.9202 51.54 42.9402 50.53 43.5702 49.91C44.1902 49.31 45.1702 49.31 45.7902 49.91L49.3402 53.46L56.2002 45.23C56.7502 44.54 57.7502 44.42 58.4402 44.97C59.1302 45.52 59.2502 46.52 58.7002 47.21C58.6802 47.23 58.6702 47.25 58.6502 47.27L50.6702 56.84C50.3802 57.18 49.9602 57.39 49.5202 57.41H49.4502V57.43Z" fill="#A57F2C"/>
    <path d="M51.0501 67C42.2401 67 35.1001 59.86 35.1001 51.05C35.1001 42.24 42.2401 35.1 51.0501 35.1C59.8601 35.1 67.0001 42.24 67.0001 51.05C67.0001 59.86 59.8501 66.99 51.0501 67ZM51.0501 38.29C44.0001 38.29 38.2901 44 38.2901 51.05C38.2901 58.1 44.0001 63.81 51.0501 63.81C58.1001 63.81 63.8101 58.1 63.8101 51.05C63.8101 44.01 58.0901 38.3 51.0501 38.29Z" fill="#A57F2C"/>
  </symbol>

  <symbol id="ico-recursos-apoyo" viewBox="0 0 35 35" fill="none">
    <path d="M30.0396 34.748L26.5202 31.15L24.4557 33.222C24.137 33.544 22.9731 33.838 22.8068 33.348L21.2827 28.966L2.79889 28.938C1.20546 28.938 0 27.524 0 25.998V3.052C0 1.694 1.02534 0.042 2.61877 0.042L29.1528 0C30.8709 0 32.6445 0.994 32.6445 2.982L32.6861 22.82C32.9632 23.17 33.4204 24.108 33.1433 24.388L30.774 26.824L34.9861 31.192L31.5914 34.804C31.3143 35.098 30.3167 35.042 30.0257 34.748H30.0396ZM22.4743 2.086H1.96754V6.202H22.4743V2.086ZM30.6354 6.188L30.5107 2.156L24.4972 2.044L24.5249 6.174H30.6215L30.6354 6.188ZM18.2067 19.586C18.4006 18.97 18.9964 18.578 19.6061 18.592L30.6215 22.288V8.246H1.98139L1.95368 25.984C2.16152 26.39 2.63262 26.782 3.06215 26.908H20.6176L18.2067 19.572V19.586ZM32.2288 31.22L28.7233 27.678C28.4462 27.398 28.3492 26.432 28.4462 26.334L30.2613 24.374L20.9501 21.252L24.0261 30.73L25.772 29.022C26.0907 28.7 27.0606 28.84 27.3793 29.162L30.8155 32.676L32.2288 31.234V31.22Z" fill="#A57F2C"/>
    <path d="M15.671 24.724C15.4493 24.948 14.521 24.948 14.2716 24.766C13.4264 24.136 14.2716 22.75 15.8373 21.616C16.0867 21.434 16.8211 21.504 17.0705 21.644C17.3753 21.812 17.5139 22.806 17.2783 23.058L15.671 24.71V24.724Z" fill="#A57F2C"/>
    <path d="M22.9592 17.388C22.7098 17.654 21.6706 17.57 21.4351 17.346C21.1441 17.094 21.0748 16.226 21.3658 15.946L22.9731 14.35C23.2086 14.112 24.0261 14.196 24.2755 14.364C24.5804 14.574 24.7051 15.526 24.4418 15.792L22.9454 17.374L22.9592 17.388Z" fill="#A57F2C"/>
    <path d="M15.8927 17.5L14.2162 15.904C14.0222 15.708 13.9945 14.938 14.0914 14.672C14.2023 14.35 15.0752 13.986 15.3246 14.21C16.6686 15.414 17.7633 16.17 17.2922 17.262C17.1675 17.542 16.156 17.738 15.8927 17.5Z" fill="#A57F2C"/>
    <path d="M14.6041 20.594H12.5812C12.2348 20.622 11.6251 20.16 11.4865 19.866C11.348 19.572 11.7359 18.662 12.0546 18.634C14.1053 18.494 15.671 18.41 15.574 19.642C15.5463 19.992 14.9644 20.594 14.6041 20.594Z" fill="#A57F2C"/>
    <path d="M20.4652 14.728C20.4652 15.05 20.0079 15.666 19.7169 15.792C19.426 15.918 18.5115 15.54 18.4976 15.218L18.4006 12.642C18.3868 12.278 19.1211 11.662 19.4814 11.676C19.8416 11.69 20.4513 12.292 20.4513 12.67V14.728H20.4652Z" fill="#A57F2C"/>
  </symbol>
</svg>