<svg xmlns="http://www.w3.org/2000/svg" xmlns:xlink="http://www.w3.org/1999/xlink" style="display: none;">

    <symbol id="ico-actividadesd" viewBox="0 0 28 28" fill="none">
        <path
            d="M13.75 0C6.17 0 0 6.17 0 13.75C0 21.33 6.17 27.5 13.75 27.5C21.33 27.5 27.5 21.33 27.5 13.75C27.5 6.17 21.33 0 13.75 0ZM14.62 4.47L18.16 2.57C20.12 3.35 21.83 4.62 23.13 6.23L22.29 10.12L19.59 11.44L14.63 7.83V4.48L14.62 4.47ZM9.37 2.56L12.91 4.47V7.83L7.95 11.44L5.24 10.12L4.4 6.21C5.7 4.6 7.41 3.33 9.38 2.56H9.37ZM3.83 20.55C2.71 18.92 1.98 17 1.78 14.92L4.69 11.76L7.34 13.06L9.34 18.74L7.65 20.76L3.83 20.55ZM16.81 25.37C15.83 25.63 14.81 25.78 13.75 25.78C12.47 25.78 11.23 25.57 10.07 25.2L8.99 21.83L10.71 19.76H16.78L18.47 21.76L16.8 25.36L16.81 25.37ZM19.82 20.7L18.16 18.73L20.19 13.05L22.83 11.76L25.72 14.92C25.55 16.71 24.97 18.38 24.1 19.85L19.83 20.69L19.82 20.7Z"
            fill="#717170" />
    </symbol>

    <symbol id="ico-actividadesf" viewBox="0 0 21 28" fill="none">
        <path
            d="M18.6711 0C14.2611 0.39 11.0111 2.59 9.11109 5.77C7.84109 7.36 5.30109 12.23 4.38109 14.77C2.71109 17.94 1.25109 21.7 0.101086 25.1C-0.598914 27.18 2.54109 28.53 3.24109 26.45C4.09109 23.91 5.13109 21.16 6.29109 18.61C7.45109 21.2 8.62109 23.78 9.89109 26.32C10.8711 28.29 13.8111 26.56 12.8411 24.6C11.5411 21.98 10.3311 19.33 9.14109 16.66C9.16109 16.61 9.17109 16.56 9.19109 16.51C9.39109 16.57 9.61109 16.58 9.85109 16.54C11.6711 16.2 13.4911 15.86 15.3111 15.52C16.0911 15.37 16.3911 14.52 16.2611 13.84C15.8911 11.8 14.7311 10.37 13.2811 9.03C13.0611 8.3 12.3511 7.65 11.5511 7.01C13.1611 4.4 15.8011 2.98 19.2311 2.68C20.9811 2.53 20.4011 -0.14 18.6611 0.01L18.6711 0ZM12.0311 11.62C12.4811 12.09 12.8611 12.58 13.1511 13.15C12.2711 13.32 11.3911 13.48 10.5111 13.65C10.9511 12.93 11.4711 12.26 12.0311 11.62Z"
            fill="#717170" />
        <path
            d="M15.8029 9.28999C17.0952 9.28999 18.1429 8.24233 18.1429 6.94999C18.1429 5.65764 17.0952 4.60999 15.8029 4.60999C14.5105 4.60999 13.4629 5.65764 13.4629 6.94999C13.4629 8.24233 14.5105 9.28999 15.8029 9.28999Z"
            fill="#717170" />
    </symbol>

    <symbol id="ico-est-nacionales" viewBox="0 0 43 28" fill="none">
        <path fill-rule="evenodd" clip-rule="evenodd"
            d="M0.000518263 0.351881C3.85052 -1.08812 7.39052 2.37188 9.79052 2.14188C12.9605 2.16188 12.0205 1.21188 13.6005 1.52188C14.4205 1.69188 15.1405 1.85188 15.7405 2.24188C16.2105 2.59188 16.4505 3.11188 16.8405 3.58188C18.4205 4.94188 17.5905 4.21188 18.4805 5.32188C18.6805 5.53188 18.9505 5.48188 19.1805 5.28188C19.5205 4.99188 19.7805 4.53188 20.0905 4.45188C20.8905 4.22188 22.3405 4.78188 22.7705 5.30188C23.3305 5.89188 23.6005 6.84188 24.0405 7.41188C25.9405 9.84188 25.9605 9.52188 27.4405 9.94188C27.6105 10.0119 28.0905 10.1119 27.9305 10.2719C27.3905 11.1119 27.3505 12.0319 27.2905 12.9519C27.0305 18.5119 27.8005 17.8519 28.6905 19.1719C29.0205 19.6919 29.1905 20.1919 29.6405 20.5919C30.1105 21.0119 30.7105 21.0819 31.2505 21.3219C31.7105 21.4919 31.9805 21.9919 32.4805 22.0519C33.2105 22.1419 33.8605 21.8019 34.5805 21.7219C35.7005 21.5519 36.3405 21.2419 36.9005 20.3119C37.2705 19.6819 37.5805 19.1419 37.6505 18.5219C37.7905 17.3619 39.1805 17.1719 40.2305 17.1819C40.7205 17.1819 41.1505 17.2219 41.5205 17.1919C43.6205 16.9819 41.2505 17.6019 41.3305 19.9719C41.3105 20.3619 41.2805 20.7419 41.1505 21.0919C41.0005 21.7519 39.5605 22.4019 38.6805 22.7719C38.3505 23.0319 36.5705 22.7519 36.5905 23.3419C38.9005 26.5219 35.8105 24.8719 35.4205 26.1019C35.2305 26.5819 35.4305 27.2219 35.0505 27.5419C34.8705 27.5019 34.7305 27.3719 34.5805 27.2519C30.7805 23.9619 30.0905 26.0719 28.2205 25.7919C27.1905 25.6619 26.2405 25.2319 25.2705 24.8619C22.4205 24.0719 22.8305 23.5119 20.8805 22.5719C20.1405 22.2719 19.2005 22.1819 18.7005 21.8219C17.8305 21.2119 16.3205 19.9219 16.2605 19.1619C16.1905 18.7619 16.4705 18.1519 16.4205 17.6119C16.3205 16.7919 15.7805 15.1819 15.3305 14.7719C14.1505 13.6919 13.9905 12.8419 13.1605 11.9219C12.4705 11.1319 11.6205 10.9019 10.7105 10.3219C10.6005 10.2219 10.7005 9.89188 10.6105 9.70188C10.3405 8.49188 9.04052 7.67188 8.09052 6.77188C6.51052 5.39188 6.67052 3.01188 5.05052 2.09188C4.67052 1.88188 4.17052 1.71188 3.81052 1.88188C2.86052 3.00188 4.26052 4.12188 4.86052 5.18188C6.44052 8.38188 7.16052 7.86188 7.90052 9.44188C8.54052 10.7619 8.78052 12.2619 9.62052 12.9119C10.1105 13.3319 10.7805 13.7819 10.9105 14.2419C11.0005 14.5519 10.8005 14.8919 10.2005 15.1819C9.40052 15.5319 9.21052 14.2219 8.75052 13.8219C6.67052 11.7219 7.33052 12.2019 6.92052 10.1919C6.54052 8.98188 5.14052 9.15188 4.20052 8.69188C2.74052 7.79188 3.97052 7.60188 4.04052 6.96188C4.02052 6.19188 3.52052 5.72188 2.99052 5.33188C2.79052 5.17188 2.60052 5.02188 2.44052 4.81188C2.17052 4.46188 2.02052 4.08188 1.87052 3.67188C1.25052 1.20188 -0.0294817 1.38188 0.000518263 0.351881Z"
            fill="#717170" />
    </symbol>

    <symbol id="ico-salud" viewBox="0 0 30 28" fill="none">
        <path
            d="M26.7592 2.63897C25.0592 0.968965 22.7992 0.018965 20.4092 0.018965C18.3492 0.018965 16.3192 0.708965 14.7192 2.01897C10.8292 -1.12104 5.13924 -0.541035 1.99924 3.35896C-0.330757 6.23897 -0.650757 10.289 1.17924 13.499H5.55924L10.1092 5.61896L13.0892 14.649L16.4292 8.72896L19.2392 13.539H21.9192C22.4792 13.539 22.8992 13.969 22.8992 14.519C22.8992 15.069 22.4692 15.499 21.9192 15.499H18.1292L16.4592 12.689L12.5992 19.459L9.58924 10.399L6.67924 15.469H2.68924L14.7292 27.509L26.8292 15.409C30.3292 11.879 30.2992 6.14897 26.7592 2.64897V2.63897Z"
            fill="#717170" />
    </symbol>

    <symbol id="ico-msfm" viewBox="0 0 102 70" fill="none">
        <path
            d="M31.4 6.96H62.81C63.64 6.96 64.3 6.29 64.3 5.47C64.3 4.65 63.63 3.98 62.81 3.98H31.4C30.57 3.98 29.91 4.65 29.91 5.47C29.91 6.29 30.58 6.96 31.4 6.96Z"
            fill="#A57F2C" />
        <path
            d="M3.31 21.57H34.72C35.55 21.57 36.21 20.9 36.21 20.08C36.21 19.26 35.54 18.59 34.72 18.59H3.31C2.48 18.59 1.82 19.26 1.82 20.08C1.82 20.9 2.49 21.57 3.31 21.57Z"
            fill="#A57F2C" />
        <path
            d="M11.74 36.94C11.74 37.77 12.41 38.43 13.23 38.43H44.64C45.47 38.43 46.13 37.76 46.13 36.94C46.13 36.12 45.46 35.45 44.64 35.45H13.23C12.4 35.45 11.74 36.12 11.74 36.94Z"
            fill="#A57F2C" />
        <path
            d="M29.72 54.31H1.49C0.66 54.31 0 54.98 0 55.8C0 56.62 0.67 57.29 1.49 57.29H29.71C30.54 57.29 31.2 56.62 31.2 55.8C31.2 54.98 30.53 54.31 29.71 54.31H29.72Z"
            fill="#A57F2C" />
        <path
            d="M80.5 16.32C85.01 16.32 88.66 12.67 88.66 8.16C88.66 3.65 85.01 0 80.5 0C75.99 0 72.34 3.65 72.34 8.16C72.34 12.67 75.99 16.32 80.5 16.32Z"
            fill="#A57F2C" />
        <path
            d="M93.92 13.97C89.23 20.54 82.96 21.3 76.2 17.29C75.74 17.02 73.7 15.89 73.25 15.63C62.39 9.18 51.53 11.71 44.26 21.9C41.17 26.23 48.32 30.34 51.38 26.06C55.14 20.79 59.92 19.27 65.15 20.94C62.47 25.59 60.13 30.21 56.83 36.77C53.53 43.33 46.23 48.57 39.22 44.47C34.16 41.51 29.6 48.78 34.64 51.73C44.21 57.32 55.43 53.89 61.16 46.62C61.36 46.73 61.57 46.82 61.8 46.9C66.48 48.53 72.61 52.87 74.48 54.41C76.35 55.95 79.56 63.78 81.46 67.72C83.77 72.5 91.24 69.02 88.92 64.22C86.76 59.75 83.13 50.84 80.3 48.58C78.03 46.77 73.62 43.4 69.89 41.49C72.42 36.59 75.05 31.75 77.82 26.99C86.65 29.7 95.05 26.51 101.03 18.13C104.12 13.8 96.97 9.69 93.91 13.97H93.92Z"
            fill="#A57F2C" />
    </symbol>

    <symbol id="ico-fortalece" viewBox="0 0 70 70" fill="none">
        <path
            d="M34.7609 8.89C35.5209 8.89 36.1409 8.27 36.1409 7.51V1.38C36.1409 0.62 35.5209 0 34.7609 0C34.0009 0 33.3809 0.62 33.3809 1.38V7.52C33.3809 8.28 34.0009 8.9 34.7609 8.9V8.89Z"
            fill="#A57F2C" />
        <path
            d="M68.41 47.3L65.98 44.87C65.11 44.01 63.96 43.53 62.73 43.53C61.94 43.53 61.19 43.73 60.52 44.09L55.94 39.51L56.16 39.29C58.02 37.43 58.02 34.4 56.16 32.54C55.5 31.87 54.67 31.43 53.76 31.24C53.88 30.81 53.95 30.36 53.95 29.9C53.95 28.62 53.45 27.42 52.55 26.53C51.89 25.86 51.06 25.42 50.15 25.23C50.27 24.8 50.34 24.35 50.34 23.89C50.34 22.61 49.84 21.41 48.94 20.51C48.26 19.83 47.42 19.4 46.55 19.22C47.02 17.6 46.62 15.78 45.34 14.5C44.28 13.44 42.84 12.99 41.45 13.14L32.37 11.42C30.98 11.16 29.25 10.98 28.16 11.98C28.09 12.04 28.02 12.12 27.95 12.2C26.26 11.58 24.28 11.95 22.93 13.3C22.03 14.2 21.54 15.4 21.54 16.68C21.54 17.14 21.61 17.59 21.73 18.02C20.83 18.21 20 18.65 19.34 19.31C18.44 20.21 17.94 21.4 17.94 22.68C17.94 23.14 18.01 23.59 18.13 24.02C17.23 24.21 16.4 24.65 15.73 25.31C14.83 26.21 14.33 27.41 14.33 28.69C14.33 29.67 14.62 30.6 15.16 31.39C14.48 31.62 13.85 32.01 13.33 32.53C11.47 34.39 11.47 37.42 13.33 39.28L13.55 39.5L8.97 44.08C7.27 43.28 5.17 43.58 3.76 44.98L1.33 47.41C0.48 48.29 0 49.44 0 50.67C0 51.9 0.48 53.05 1.34 53.92L4.38 56.95C4.92 57.49 5.79 57.49 6.33 56.95C6.87 56.41 6.87 55.54 6.33 55L3.29 51.97C2.95 51.63 2.76 51.16 2.76 50.67C2.76 50.18 2.95 49.72 3.29 49.37L5.72 46.94C6.33 46.33 7.26 46.24 7.97 46.66C8.02 46.73 8.08 46.81 8.14 46.87C8.26 46.99 8.39 47.08 8.54 47.15L22.5 61.09C22.57 61.23 22.66 61.37 22.78 61.49C22.9 61.61 23.03 61.7 23.17 61.76C23.47 62.09 23.63 62.52 23.63 62.97C23.63 63.46 23.44 63.92 23.1 64.27L20.67 66.7C19.95 67.42 18.78 67.42 18.07 66.7L15.03 63.66C14.49 63.12 13.62 63.12 13.08 63.66C12.54 64.2 12.54 65.07 13.08 65.61L16.12 68.65C17.01 69.54 18.19 69.99 19.37 69.99C20.55 69.99 21.72 69.54 22.62 68.65L25.05 66.22C25.92 65.36 26.39 64.2 26.39 62.97C26.39 62.09 26.15 61.25 25.69 60.53L30.85 55.38C30.85 55.38 30.86 55.37 30.87 55.36C31.46 54.75 33.11 54.86 34.7 54.97C35.83 55.05 37.09 55.14 38.32 54.99L43.97 60.63C43.6 61.3 43.41 62.05 43.41 62.84C43.41 64.07 43.89 65.22 44.75 66.09L47.18 68.52C48.05 69.38 49.2 69.86 50.43 69.86C51.66 69.86 52.81 69.38 53.68 68.52L68.44 53.78C69.31 52.92 69.78 51.76 69.78 50.53C69.78 49.3 69.3 48.15 68.44 47.28L68.41 47.3ZM31.87 14.14L37.84 15.27L34.26 18.84C33.71 18.57 32.95 18.08 32.12 17.28C30.98 16.19 30.17 14.93 30.09 14.15C30.09 14.09 30.09 14.05 30.09 14.01C30.27 13.97 30.75 13.92 31.87 14.13V14.14ZM24.89 15.26C25.59 14.56 26.67 14.48 27.46 15.02C27.91 16.89 29.5 18.59 30.22 19.28C30.75 19.79 32.46 21.32 34.19 21.74C34.42 22.07 34.55 22.47 34.55 22.89C34.55 23.43 34.34 23.94 33.96 24.32C33.58 24.7 33.07 24.91 32.53 24.91C31.99 24.91 31.48 24.7 31.1 24.32L24.89 18.12C24.51 17.74 24.3 17.24 24.3 16.69C24.3 16.15 24.51 15.64 24.89 15.26ZM21.29 21.27C21.67 20.89 22.18 20.68 22.72 20.68C23.26 20.68 23.77 20.89 24.15 21.27L29.15 26.26C29.94 27.05 29.94 28.33 29.15 29.12C28.77 29.5 28.26 29.71 27.72 29.71C27.18 29.71 26.67 29.5 26.29 29.12L22.5 25.33C22.5 25.33 22.49 25.32 22.48 25.31L21.29 24.12C20.91 23.74 20.7 23.23 20.7 22.69C20.7 22.15 20.91 21.64 21.29 21.26V21.27ZM17.69 27.28C18.07 26.9 18.58 26.69 19.12 26.69C19.66 26.69 20.16 26.9 20.54 27.27L24.34 31.07C24.72 31.45 24.93 31.95 24.93 32.5C24.93 33.05 24.72 33.55 24.34 33.93C23.96 34.31 23.45 34.52 22.91 34.52C22.37 34.52 21.86 34.31 21.48 33.93L17.69 30.14C17.31 29.76 17.1 29.25 17.1 28.71C17.1 28.17 17.31 27.66 17.69 27.28ZM15.29 34.5C15.67 34.12 16.18 33.91 16.72 33.91C17.26 33.91 17.77 34.12 18.15 34.5L19.53 35.88C19.91 36.26 20.12 36.76 20.12 37.31C20.12 37.86 19.91 38.36 19.53 38.74C19.15 39.12 18.64 39.33 18.1 39.33C17.56 39.33 17.05 39.12 16.67 38.74L15.31 37.38C14.52 36.59 14.52 35.31 15.31 34.52L15.29 34.5ZM43.35 50.14C42.81 49.6 41.94 49.6 41.4 50.14L40.18 51.36C39.02 52.52 36.91 52.38 34.87 52.24C32.66 52.09 30.36 51.93 28.88 53.45L23.81 58.52L11.13 45.86L15.62 41.38C16.36 41.83 17.22 42.08 18.11 42.08C19.39 42.08 20.59 41.58 21.49 40.69C22.39 39.79 22.89 38.59 22.89 37.31C22.89 37.3 22.89 37.29 22.89 37.27C22.9 37.27 22.91 37.27 22.93 37.27C24.21 37.27 25.41 36.78 26.3 35.88C27.2 34.98 27.7 33.78 27.7 32.5C27.7 32.49 27.7 32.48 27.7 32.46C27.71 32.46 27.72 32.46 27.74 32.46C29.02 32.46 30.22 31.97 31.12 31.07C32.06 30.13 32.52 28.89 32.51 27.66C32.52 27.66 32.53 27.66 32.55 27.66C33.83 27.66 35.03 27.16 35.93 26.26C36.83 25.36 37.32 24.16 37.32 22.88C37.32 21.99 37.08 21.13 36.62 20.39L40.55 16.46C40.84 16.17 41.2 15.98 41.58 15.91C41.62 15.91 41.66 15.9 41.7 15.89C42.31 15.81 42.95 15.99 43.41 16.46C44.2 17.25 44.2 18.53 43.41 19.32L42.21 20.51C42.21 20.51 42.21 20.51 42.2 20.52L40.82 21.9C40.28 22.44 40.28 23.31 40.82 23.85C41.36 24.39 42.23 24.39 42.77 23.85L44.15 22.47C44.94 21.69 46.22 21.69 47.01 22.47C47.39 22.85 47.6 23.35 47.6 23.9C47.6 24.45 47.39 24.95 47.01 25.33L45.81 26.54L44.43 27.91C43.89 28.45 43.89 29.32 44.43 29.86C44.97 30.4 45.84 30.4 46.38 29.86L47.77 28.48C48.15 28.1 48.66 27.89 49.2 27.89C49.74 27.89 50.25 28.1 50.63 28.48C51.01 28.86 51.22 29.36 51.22 29.91C51.22 30.46 51.01 30.96 50.63 31.34L48.23 33.74C47.69 34.28 47.69 35.15 48.23 35.69C48.5 35.96 48.85 36.09 49.2 36.09C49.55 36.09 49.9 35.96 50.17 35.69L51.35 34.51C51.35 34.51 51.36 34.5 51.37 34.49C51.75 34.11 52.26 33.9 52.8 33.9C53.34 33.9 53.85 34.11 54.23 34.49C55.02 35.28 55.02 36.56 54.23 37.34L51.13 40.44C50.59 40.98 50.59 41.85 51.13 42.39C51.4 42.66 51.75 42.79 52.1 42.79C52.45 42.79 52.8 42.66 53.07 42.39L54 41.46L58.45 45.91L45.77 58.58L41.23 54.04C41.55 53.84 41.85 53.6 42.13 53.31L43.35 52.09C43.89 51.55 43.89 50.68 43.35 50.14ZM66.47 51.85L51.71 66.59C51.36 66.93 50.9 67.12 50.41 67.12C49.92 67.12 49.45 66.93 49.11 66.59L46.68 64.16C46.34 63.82 46.15 63.36 46.15 62.86C46.15 62.36 46.34 61.91 46.68 61.56L61.44 46.82C61.79 46.48 62.25 46.29 62.74 46.29C63.23 46.29 63.7 46.48 64.04 46.83L66.47 49.26C66.81 49.6 67 50.07 67 50.56C67 51.05 66.81 51.52 66.47 51.86V51.85Z"
            fill="#A57F2C" />
        <path
            d="M16.4699 7.73C16.7399 8 17.0899 8.13 17.4399 8.13C17.7899 8.13 18.1499 8 18.4099 7.73C18.9499 7.19 18.9499 6.32 18.4099 5.78L13.3999 0.78C12.8599 0.24 11.9899 0.24 11.4499 0.78C10.9099 1.32 10.9099 2.19 11.4499 2.73L16.4699 7.74V7.73Z"
            fill="#A57F2C" />
        <path
            d="M52.0705 8.14C52.4205 8.14 52.7705 8.01 53.0405 7.74L58.0505 2.73C58.5905 2.19 58.5905 1.32 58.0505 0.78C57.5105 0.24 56.6405 0.24 56.1005 0.78L51.0905 5.79C50.5505 6.33 50.5505 7.2 51.0905 7.74C51.3605 8.01 51.7105 8.14 52.0605 8.14H52.0705Z"
            fill="#A57F2C" />
        <path
            d="M8.46925 59.23C7.93925 59.77 7.93925 60.64 8.48925 61.18C8.75925 61.45 9.09925 61.58 9.44925 61.58C9.79925 61.58 10.1593 61.44 10.4293 61.17C10.9593 60.63 10.9493 59.75 10.4093 59.22C9.86925 58.69 8.99925 58.69 8.45925 59.24L8.46925 59.23Z"
            fill="#A57F2C" />
        <path
            d="M46.7205 48.16C46.9305 48.16 47.1405 48.11 47.3405 48.01C48.0205 47.67 48.2905 46.84 47.9505 46.16C47.6105 45.48 46.7805 45.21 46.1005 45.55C45.4205 45.9 45.1505 46.72 45.4905 47.4C45.7305 47.88 46.2205 48.16 46.7205 48.16Z"
            fill="#A57F2C" />
    </symbol>

    <symbol id="ico-desarrolla" viewBox="0 0 52 73" fill="none">
        <path
            d="M40.5 72.84C40.32 72.84 40.14 72.81 39.96 72.74L25.89 67.02L11.82 72.74C11.38 72.92 10.88 72.87 10.49 72.6C10.1 72.34 9.86 71.89 9.86 71.42V45.69C9.86 44.9 10.5 44.27 11.28 44.27C12.06 44.27 12.7 44.91 12.7 45.69V69.3L25.35 64.16C25.69 64.02 26.08 64.02 26.42 64.16L39.07 69.3V45.69C39.07 44.9 39.71 44.27 40.49 44.27C41.27 44.27 41.91 44.91 41.91 45.69V71.42C41.91 71.89 41.67 72.34 41.28 72.6C41.04 72.76 40.76 72.84 40.49 72.84H40.5Z"
            fill="#A57F2C" />
        <path
            d="M25.89 51.66C11.61 51.66 0 40.07 0 25.83C0 11.59 11.61 0 25.89 0C40.17 0 51.78 11.59 51.78 25.83C51.78 40.07 40.17 51.66 25.89 51.66ZM25.89 2.85C13.18 2.85 2.85 13.16 2.85 25.83C2.85 38.5 13.19 48.82 25.89 48.82C38.59 48.82 48.93 38.51 48.93 25.83C48.93 13.15 38.6 2.85 25.89 2.85Z"
            fill="#A57F2C" />
        <path
            d="M25.89 45.14C15.22 45.14 6.54 36.48 6.54 25.83C6.54 15.18 15.22 6.52 25.89 6.52C36.56 6.52 45.24 15.18 45.24 25.83C45.24 36.48 36.56 45.14 25.89 45.14ZM25.89 9.37C16.79 9.37 9.38 16.76 9.38 25.83C9.38 34.9 16.79 42.29 25.89 42.29C34.99 42.29 42.4 34.9 42.4 25.83C42.4 16.76 34.99 9.37 25.89 9.37Z"
            fill="#A57F2C" />
        <path
            d="M30.36 35.33C29.99 35.33 29.61 35.24 29.26 35.07L25.89 33.37L22.52 35.07C21.7 35.48 20.73 35.4 19.99 34.87C19.25 34.33 18.88 33.43 19.02 32.53L19.6 28.81L16.94 26.15C16.29 25.5 16.06 24.56 16.35 23.68C16.63 22.81 17.37 22.18 18.28 22.03L22.01 21.43L23.73 18.08C24.15 17.27 24.98 16.76 25.89 16.76C26.81 16.76 27.63 17.26 28.05 18.08L29.77 21.43L33.5 22.03C34.41 22.18 35.14 22.81 35.43 23.68C35.71 24.55 35.49 25.5 34.84 26.15L32.18 28.82L32.76 32.54C32.9 33.45 32.53 34.34 31.79 34.88C31.37 35.19 30.87 35.35 30.36 35.35V35.33ZM19.53 24.71L22.13 27.31C22.45 27.63 22.6 28.09 22.53 28.53L21.96 32.16L25.25 30.5C25.65 30.29 26.13 30.29 26.53 30.5L29.82 32.16L29.25 28.53C29.18 28.08 29.33 27.63 29.65 27.31L32.25 24.71L28.61 24.13C28.16 24.06 27.78 23.78 27.57 23.37L25.89 20.09L24.21 23.37C24 23.77 23.62 24.05 23.17 24.12L19.53 24.7V24.71Z"
            fill="#A57F2C" />
    </symbol>

    <symbol id="ico-adquiere" viewBox="0 0 52 73" fill="none">
        <path
            d="M39.3096 72.8399H32.9995C31.2295 72.8399 29.7295 71.5299 29.4695 69.7899L25.6395 52.1299L21.8095 69.7899C21.5495 71.5399 20.0496 72.8399 18.2796 72.8399H11.9696C10.8796 72.8399 9.86955 72.2899 9.26955 71.3799C8.66955 70.4599 8.57955 69.3199 9.01955 68.3199L11.1895 63.4099L14.0896 46.6199C14.2196 45.8499 14.9495 45.3299 15.7295 45.4599C16.4995 45.5899 17.0195 46.3299 16.8895 47.0999L13.9595 64.0699C13.9395 64.1899 13.9095 64.2999 13.8595 64.3999L11.6195 69.4699C11.5495 69.6199 11.5995 69.7499 11.6495 69.8299C11.6995 69.9099 11.7995 69.9999 11.9595 69.9999H18.2696C18.6296 69.9999 18.9395 69.7299 18.9895 69.3699C18.9895 69.3299 18.9996 69.2899 19.0096 69.2499L24.2395 45.1299C24.3795 44.4799 24.9595 44.0099 25.6295 44.0099C26.2995 44.0099 26.8796 44.4799 27.0196 45.1299L32.2495 69.2499C32.2495 69.2499 32.2696 69.3299 32.2696 69.3699C32.3196 69.7299 32.6196 69.9999 32.9896 69.9999H39.2995C39.4695 69.9999 39.5596 69.9099 39.6096 69.8299C39.6596 69.7499 39.7095 69.6299 39.6395 69.4699L37.3996 64.3999C37.3496 64.2899 37.3195 64.1799 37.2995 64.0699L33.3596 41.3099C33.2296 40.5399 33.7496 39.7999 34.5196 39.6699C35.2996 39.5399 36.0295 40.0599 36.1595 40.8299L40.0695 63.4199L42.2396 68.3299C42.6796 69.3299 42.5896 70.4699 41.9896 71.3899C41.3896 72.3099 40.3896 72.8499 39.2896 72.8499L39.3096 72.8399Z"
            fill="#A57F2C" />
        <path
            d="M25.6402 14.81C21.9302 14.81 18.9102 11.79 18.9102 8.08V5.64C18.9102 2.6 21.3802 0.119995 24.4302 0.119995H26.8502C29.8902 0.119995 32.3702 2.59 32.3702 5.64V8.08C32.3702 11.79 29.3502 14.81 25.6402 14.81ZM24.4302 2.97C22.9602 2.97 21.7602 4.17 21.7602 5.64V8.08C21.7602 10.22 23.5002 11.96 25.6402 11.96C27.7802 11.96 29.5202 10.22 29.5202 8.08V5.64C29.5202 4.17 28.3202 2.97 26.8502 2.97H24.4302Z"
            fill="#A57F2C" />
        <path
            d="M34.2796 27.09C33.4896 27.09 32.8596 26.45 32.8596 25.67V23.11C32.8596 21.89 33.3396 20.74 34.1996 19.88L36.5096 17.58L33.7096 14.78L33.1096 15.38C31.1196 17.37 28.4696 18.47 25.6496 18.47C22.8296 18.47 20.1796 17.37 18.1896 15.38L17.5896 14.78L14.7896 17.58L17.0896 19.88C17.9496 20.74 18.4296 21.89 18.4296 23.11V25.67C18.4296 26.46 17.7896 27.09 17.0096 27.09C16.2296 27.09 15.5896 26.45 15.5896 25.67V23.11C15.5896 22.65 15.4096 22.22 15.0796 21.89L11.7696 18.58C11.2096 18.02 11.2096 17.12 11.7696 16.57L16.5796 11.76C16.8496 11.49 17.2096 11.34 17.5896 11.34C17.9696 11.34 18.3296 11.49 18.5996 11.76L20.2096 13.37C21.6696 14.83 23.5996 15.63 25.6596 15.63C27.7196 15.63 29.6496 14.83 31.1096 13.37L32.7196 11.76C33.2796 11.2 34.1796 11.2 34.7296 11.76L39.5396 16.57C39.8096 16.84 39.9596 17.2 39.9596 17.58C39.9596 17.96 39.8096 18.32 39.5396 18.59L36.2296 21.9C35.8996 22.23 35.7196 22.66 35.7196 23.12V25.68C35.7196 26.47 35.0796 27.1 34.2996 27.1L34.2796 27.09Z"
            fill="#A57F2C" />
        <path
            d="M25.6392 46.85C18.3692 46.85 12.4492 40.93 12.4492 33.66C12.4492 29.02 14.9292 24.67 18.9192 22.31C19.5992 21.91 20.4692 22.13 20.8692 22.81C21.2692 23.49 21.0492 24.36 20.3692 24.76C17.2392 26.62 15.2892 30.03 15.2892 33.67C15.2892 39.38 19.9292 44.02 25.6392 44.02C31.3492 44.02 35.9792 39.38 35.9792 33.67C35.9792 27.96 31.3392 23.33 25.6392 23.33C25.1992 23.33 24.7492 23.36 24.3192 23.41C23.5392 23.51 22.8292 22.96 22.7292 22.18C22.6292 21.4 23.1792 20.69 23.9592 20.59C24.5092 20.52 25.0792 20.48 25.6392 20.48C32.9092 20.48 38.8292 26.4 38.8292 33.67C38.8292 40.94 32.9092 46.86 25.6392 46.86V46.85Z"
            fill="#A57F2C" />
        <path
            d="M24.2295 40.64C23.2295 40.64 22.2895 40.2501 21.5795 39.5401L17.5595 35.5201C16.8895 34.8501 16.5195 33.9601 16.5195 33.0201C16.5195 32.0801 16.8895 31.1901 17.5595 30.5201C18.8995 29.1801 21.2295 29.1801 22.5695 30.5201L24.2395 32.19L27.9995 28.43C29.3395 27.09 31.6695 27.09 33.0095 28.43C34.3895 29.81 34.3895 32.06 33.0095 33.44L26.8995 39.55C26.1895 40.26 25.2495 40.6501 24.2495 40.6501L24.2295 40.64ZM20.0595 32.32C19.9495 32.32 19.7495 32.3501 19.5695 32.5201C19.3895 32.7001 19.3695 32.9 19.3695 33.01C19.3695 33.12 19.3995 33.32 19.5695 33.5L23.5895 37.5201C23.9295 37.8601 24.5295 37.8601 24.8695 37.5201L30.9795 31.41C31.1595 31.23 31.1795 31.03 31.1795 30.92C31.1795 30.81 31.1495 30.61 30.9795 30.43C30.7995 30.25 30.5995 30.23 30.4895 30.23C30.3795 30.23 30.1795 30.26 29.9995 30.43L25.5695 34.8601C25.2095 35.2201 24.7395 35.42 24.2295 35.42C23.7195 35.42 23.2495 35.2201 22.8895 34.8601L20.5495 32.5201C20.3695 32.3401 20.1695 32.32 20.0595 32.32Z"
            fill="#A57F2C" />
        <path
            d="M38.5095 18.99C38.1295 18.99 37.7695 18.84 37.4995 18.57L32.6895 13.76C32.1295 13.2 32.1295 12.3 32.6895 11.75L38.3995 6.04C38.9595 5.48 39.8595 5.48 40.4095 6.04C40.9695 6.6 40.9695 7.5 40.4095 8.05L35.6995 12.76L38.4995 15.56L47.8395 6.22C48.2095 5.85 48.4195 5.35 48.4195 4.82C48.4195 4.29 48.2095 3.79 47.8395 3.42C47.0695 2.65 45.8095 2.65 45.0395 3.42L43.9495 4.51C43.3895 5.07 42.4895 5.07 41.9395 4.51C41.3895 3.95 41.3795 3.05 41.9395 2.5L43.0295 1.41C44.9095 -0.47 47.9695 -0.47 49.8495 1.41C50.7595 2.32 51.2595 3.53 51.2595 4.82C51.2595 6.11 50.7595 7.32 49.8495 8.23L39.4995 18.58C39.2295 18.85 38.8695 19 38.4895 19L38.5095 18.99Z"
            fill="#A57F2C" />
        <path
            d="M12.76 18.99C12.4 18.99 12.03 18.85 11.75 18.57L1.41 8.23C0.5 7.32 0 6.11 0 4.82C0 3.53 0.5 2.32 1.41 1.41C3.29 -0.47 6.35 -0.47 8.23 1.41L18.58 11.76C18.85 12.03 19 12.39 19 12.77C19 13.15 18.85 13.51 18.58 13.78L13.77 18.59C13.49 18.87 13.13 19.01 12.76 19.01V18.99ZM4.82 2.84C4.31 2.84 3.81 3.03 3.42 3.42C3.05 3.79 2.84 4.29 2.84 4.82C2.84 5.35 3.05 5.85 3.42 6.22L12.76 15.56L15.56 12.76L6.22 3.42C5.83 3.03 5.33 2.84 4.82 2.84Z"
            fill="#A57F2C" />
        <path
            d="M38.7109 65.25H29.6309C28.8409 65.25 28.2109 64.61 28.2109 63.83C28.2109 63.05 28.8509 62.41 29.6309 62.41H38.7109C39.5009 62.41 40.1309 63.05 40.1309 63.83C40.1309 64.61 39.4909 65.25 38.7109 65.25Z"
            fill="#A57F2C" />
        <path
            d="M21.6406 65.25H12.5606C11.7706 65.25 11.1406 64.61 11.1406 63.83C11.1406 63.05 11.7806 62.41 12.5606 62.41H21.6406C22.4306 62.41 23.0606 63.05 23.0606 63.83C23.0606 64.61 22.4206 65.25 21.6406 65.25Z"
            fill="#A57F2C" />
    </symbol>

</svg>