<svg xmlns="http://www.w3.org/2000/svg" xmlns:xlink="http://www.w3.org/1999/xlink" style="display: none;">

  <symbol id="ico-asesorias" viewBox="0 0 71 70" fill="none">
    <path d="M56.16 30.63H49.94V27.73C49.94 25.24 47.91 23.16 45.42 23.11C44.98 23.11 44.79 22.98 44.39 22.72C43.82 22.35 43.05 21.84 41.69 21.84H38.63C37.22 21.84 35.91 22.28 34.83 23.04C34.54 22.91 34.24 22.8 33.93 22.71C33.9 22.71 33.86 22.69 33.83 22.68L27.59 21.31V20.36C27.89 20.13 28.14 19.92 28.32 19.76C29.66 18.61 30.55 16.99 30.84 15.21C31.89 14.69 32.61 13.61 32.61 12.37V6.4C32.61 3.71 30.42 1.48 27.74 1.41C27.32 1.41 26.93 1.26 26.59 1.01C25.73 0.36 24.66 0 23.58 0H20.16C16.16 0 12.91 3.25 12.91 7.25V12.37C12.91 13.62 13.63 14.7 14.68 15.21C14.98 16.99 15.86 18.61 17.2 19.76C17.39 19.92 17.64 20.13 17.93 20.36V21.31L11.69 22.68C11.69 22.68 11.62 22.7 11.59 22.71C8.2 23.71 5.84 26.87 5.84 30.4V30.64H5.64C2.53 30.64 0 33.17 0 36.28V54.02C0 56.94 2.23 59.35 5.08 59.64V67.17C5.08 68.73 6.35 69.99 7.9 69.99H10.22C11.78 69.99 13.04 68.72 13.04 67.17V59.66H24.02V66.26C24.02 68.32 25.69 69.99 27.75 69.99H54.11C56.17 69.99 57.84 68.32 57.84 66.26V59.37C60.13 58.64 61.78 56.53 61.78 54.01V46.83C61.78 46 61.11 45.33 60.28 45.33C59.45 45.33 58.78 46 58.78 46.83V54.01C58.78 54.82 58.41 55.53 57.84 56.02V51.9C57.84 48.37 55.48 45.21 52.09 44.21C52.06 44.21 52.02 44.19 51.99 44.18L45.75 42.81V40.94C48.1 39.35 49.72 36.66 49.89 33.63H56.14C57.6 33.63 58.78 34.82 58.78 36.27V42.79C58.78 43.62 59.45 44.29 60.28 44.29C61.11 44.29 61.78 43.62 61.78 42.79V36.27C61.78 33.16 59.25 30.63 56.14 30.63H56.16ZM20.96 22.49V21.93C21.52 22.09 22.14 22.2 22.79 22.21C23.43 22.21 24.03 22.1 24.59 21.94V22.51C24.59 23.51 23.78 24.33 22.77 24.33C21.76 24.33 20.95 23.52 20.95 22.51V22.49H20.96ZM15.93 7.23C15.93 4.89 17.84 2.98 20.18 2.98H23.6C24.03 2.98 24.45 3.12 24.79 3.38C25.63 4.02 26.63 4.37 27.68 4.39C28.75 4.41 29.62 5.31 29.62 6.38V7.95C29.54 7.87 29.45 7.79 29.37 7.7C28.15 6.35 26.21 6.02 24.64 6.91C22.69 8.01 19.11 9.59 15.92 8.64V7.23H15.93ZM16.09 12.52C16 12.52 15.92 12.45 15.92 12.35V11.71C19.89 12.51 23.88 10.77 26.11 9.52C26.44 9.33 26.87 9.41 27.14 9.71C27.96 10.62 28.9 11.2 29.62 11.55V12.35C29.62 12.44 29.55 12.52 29.45 12.52C28.63 12.52 27.97 13.17 27.95 13.99C27.92 15.36 27.34 16.63 26.36 17.48C25.32 18.37 24.17 19.2 22.78 19.21C21.36 19.19 20.2 18.37 19.17 17.48C18.19 16.64 17.61 15.37 17.58 13.99C17.56 13.17 16.9 12.52 16.08 12.52H16.09ZM10.06 66.98H8.1V59.65H10.06V66.98ZM5.66 56.65C4.2 56.65 3.02 55.46 3.02 54.01V36.27C3.02 34.81 4.21 33.63 5.66 33.63H11.38C12.21 33.63 12.88 32.96 12.88 32.13C12.88 31.3 12.21 30.63 11.38 30.63H8.86V30.39C8.86 28.2 10.32 26.23 12.41 25.6L18.3 24.3C19.01 26.07 20.74 27.33 22.76 27.33C24.78 27.33 26.51 26.07 27.22 24.3L32.68 25.5C32.23 26.4 31.96 27.41 31.96 28.49V30.63H15.42C14.59 30.63 13.92 31.3 13.92 32.13C13.92 32.96 14.59 33.63 15.42 33.63H31.99C32.16 36.65 33.78 39.34 36.12 40.94V42.81L29.88 44.18C29.88 44.18 29.81 44.2 29.78 44.21C26.39 45.21 24.03 48.37 24.03 51.9V56.66H5.66V56.65ZM54.86 66.25C54.86 66.65 54.53 66.98 54.13 66.98H27.77C27.37 66.98 27.04 66.65 27.04 66.25V62.25C27.04 58.92 29.75 56.21 33.09 56.21H48.81C52.14 56.21 54.86 58.92 54.86 62.25V66.25ZM54.86 51.89V55.54C53.26 54.09 51.14 53.2 48.81 53.2H33.09C30.76 53.2 28.65 54.09 27.04 55.54V51.89C27.04 49.7 28.5 47.73 30.59 47.1L37.79 45.51H44.1L51.3 47.1C53.39 47.74 54.85 49.7 54.85 51.89H54.86ZM42.77 42.51H39.14V42.24C39.73 42.37 40.34 42.44 40.96 42.44H40.98C41.59 42.44 42.19 42.37 42.77 42.24V42.51ZM46.93 33.1C46.93 34.71 46.29 36.33 45.16 37.54C44.02 38.76 42.53 39.44 40.97 39.44H40.96C37.78 39.44 34.99 36.49 34.98 33.13V28.48C34.98 26.47 36.61 24.83 38.63 24.83H41.69C42.15 24.83 42.33 24.94 42.75 25.22C43.3 25.58 44.05 26.07 45.35 26.1C46.23 26.12 46.94 26.85 46.94 27.72V33.1H46.93Z" fill="#A57F2C"/>
    <path d="M66.2794 0H49.0894C47.0294 0 45.3594 1.67 45.3594 3.73V12.56C45.3594 14.62 47.0294 16.29 49.0894 16.29H55.1894C55.5794 16.29 55.8894 16.6 55.8894 16.99V20.06C55.8894 20.97 56.4694 21.78 57.3294 22.07C57.5494 22.15 57.7794 22.18 58.0094 22.18C58.6594 22.18 59.2894 21.88 59.6994 21.35L63.3394 16.58C63.4694 16.41 63.6794 16.3 63.8994 16.3H66.2894C68.3494 16.3 70.0194 14.63 70.0194 12.57V3.74C70.0194 1.68 68.3494 0.01 66.2894 0.01L66.2794 0ZM67.0094 12.56C67.0094 12.97 66.6794 13.29 66.2794 13.29H63.8894C62.7394 13.29 61.6394 13.83 60.9494 14.75L58.8994 17.45V16.99C58.8994 14.95 57.2394 13.29 55.1994 13.29H49.0994C48.6994 13.29 48.3694 12.96 48.3694 12.56V3.74C48.3694 3.34 48.6994 3.01 49.0994 3.01H66.2894C66.6894 3.01 67.0194 3.34 67.0194 3.74V12.57L67.0094 12.56Z" fill="#A57F2C"/>
  </symbol>

  <symbol id="ico-lab-computo" viewBox="0 0 108 68" fill="none">
    <path d="M23.82 58.62H21.78C19.01 58.62 16.75 60.88 16.75 63.65V65.33C16.75 66.26 17.5 67.01 18.43 67.01H51.94C52.87 67.01 53.62 66.26 53.62 65.33V63.65C53.62 60.88 51.36 58.62 48.59 58.62H46.55L45.71 55.28H65.34C68.11 55.28 70.37 53.02 70.37 50.25V5.03C70.35 2.26 68.09 0 65.32 0H5.03C2.26 0 0 2.26 0 5.03V50.25C0 53.02 2.26 55.28 5.03 55.28H24.66L23.82 58.62ZM21.77 61.97H48.57C49.5 61.97 50.25 62.72 50.25 63.65H20.1C20.1 62.72 20.85 61.97 21.78 61.97H21.77ZM27.27 58.62L28.11 55.28H42.25L43.09 58.62H27.27ZM5.03 3.35H65.32C66.25 3.35 67 4.1 67 5.03V45.22H3.35V5.03C3.35 4.1 4.1 3.35 5.03 3.35ZM3.35 50.25V48.57H35.21C34.28 48.57 33.54 49.32 33.54 50.25C33.54 51.18 34.3 51.93 35.22 51.93C36.14 51.93 36.9 51.18 36.9 50.25C36.9 49.32 36.15 48.57 35.22 48.57H66.99V50.25C66.99 51.18 66.24 51.93 65.31 51.93H5.03C4.1 51.93 3.35 51.18 3.35 50.25Z" fill="#A57F2C"/>
    <path d="M102.221 0H78.7607C75.9807 0 73.7207 2.26 73.7207 5.03V61.97C73.7207 64.74 75.9807 67 78.7507 67H102.211C104.981 67 107.241 64.74 107.241 61.97V5.03C107.241 2.26 104.981 0 102.211 0H102.221ZM77.0807 10.05H103.891V11.72H77.0807V10.05ZM78.7507 3.35H102.211C103.141 3.35 103.891 4.1 103.891 5.03V6.7H77.0807V5.03C77.0807 4.1 77.8307 3.35 78.7607 3.35H78.7507ZM102.221 63.65H78.7607C77.8307 63.65 77.0807 62.9 77.0807 61.97V15.07H103.891V61.97C103.891 62.9 103.141 63.65 102.211 63.65H102.221Z" fill="#A57F2C"/>
    <path d="M90.4792 35.18C93.2492 35.18 95.5092 32.92 95.5092 30.15C95.5092 27.38 93.2492 25.12 90.4792 25.12C87.7092 25.12 85.4492 27.38 85.4492 30.15C85.4492 32.92 87.7092 35.18 90.4792 35.18ZM90.4792 28.48C91.4092 28.48 92.1592 29.23 92.1592 30.16C92.1592 31.09 91.4092 31.84 90.4792 31.84C89.5492 31.84 88.7992 31.09 88.7992 30.16C88.7992 29.23 89.5492 28.48 90.4792 28.48Z" fill="#A57F2C"/>
    <path d="M97.1896 45.24H83.7796C82.8496 45.24 82.0996 45.99 82.0996 46.92C82.0996 47.85 82.8496 48.6 83.7796 48.6H97.1896C98.1196 48.6 98.8696 47.85 98.8696 46.92C98.8696 45.99 98.1196 45.24 97.1896 45.24Z" fill="#A57F2C"/>
    <path d="M97.1896 50.27H83.7796C82.8496 50.27 82.0996 51.02 82.0996 51.95C82.0996 52.88 82.8496 53.63 83.7796 53.63H97.1896C98.1196 53.63 98.8696 52.88 98.8696 51.95C98.8696 51.02 98.1196 50.27 97.1896 50.27Z" fill="#A57F2C"/>
    <path d="M97.1896 55.3H83.7796C82.8496 55.3 82.0996 56.05 82.0996 56.98C82.0996 57.91 82.8496 58.66 83.7796 58.66H97.1896C98.1196 58.66 98.8696 57.91 98.8696 56.98C98.8696 56.05 98.1196 55.3 97.1896 55.3Z" fill="#A57F2C"/>
  </symbol>

  <symbol id="ico-est-linea" viewBox="0 0 63 67" fill="none">    
    <path d="M33.5 22.33V21.21C33.5 20.59 34 20.09 34.62 20.09C35.24 20.09 35.74 20.59 35.74 21.21V22.33C35.74 22.95 35.24 23.45 34.62 23.45C34 23.45 33.5 22.95 33.5 22.33ZM62.53 58.07C62.53 61.77 59.53 64.77 55.83 64.77H48.92C48.46 66.07 47.23 67 45.78 67H16.75C15.3 67 14.07 66.06 13.61 64.77H6.7C3 64.77 0 61.77 0 58.07C0 49.59 4.91 43.76 7.03 41.65C9.24 39.44 13.79 34.92 22.64 34.65L23.41 32.34C21.3 30.73 19.78 28.39 19.23 25.69H15.64C13.79 25.69 12.29 24.19 12.29 22.34V18.99C12.29 17.52 13.25 16.28 14.57 15.83C15.05 7.02 22.34 0 31.27 0C40.2 0 47.49 7.02 47.97 15.82C49.29 16.27 50.25 17.51 50.25 18.98V22.33C50.25 24.18 48.75 25.68 46.9 25.68H43.31C42.76 28.37 41.24 30.72 39.13 32.33L39.9 34.64C48.75 34.91 53.3 39.43 55.51 41.64C57.72 43.85 62.54 49.58 62.54 58.06L62.53 58.07ZM46.9 17.87H43.55V23.45H46.9C47.52 23.45 48.02 22.95 48.02 22.33V18.98C48.02 18.36 47.52 17.86 46.9 17.86V17.87ZM16.81 15.63H19.04C19.61 9.38 24.87 4.46 31.27 4.46C37.67 4.46 42.93 9.38 43.5 15.63H45.73C45.16 8.15 38.9 2.23 31.27 2.23C23.64 2.23 17.38 8.15 16.81 15.63ZM31.27 6.7C26.11 6.7 21.84 10.62 21.29 15.63H23.46C25.31 15.63 26.81 14.13 26.81 12.28C26.81 11.66 27.31 11.16 27.93 11.16C28.55 11.16 29.05 11.66 29.05 12.28C29.05 14.13 30.55 15.63 32.4 15.63H41.27C40.71 10.61 36.45 6.7 31.29 6.7H31.27ZM18.98 23.45V17.87H15.63C15.01 17.87 14.51 18.37 14.51 18.99V22.34C14.51 22.96 15.01 23.46 15.63 23.46H18.98V23.45ZM30.15 32.38H32.38C37.31 32.38 41.31 28.37 41.31 23.45V17.87H32.38C30.56 17.87 28.93 16.99 27.91 15.63C26.89 16.99 25.27 17.87 23.44 17.87H21.21V23.45C21.21 28.38 25.22 32.38 30.14 32.38H30.15ZM37.17 33.52C35.72 34.21 34.1 34.61 32.38 34.61H30.15C28.44 34.61 26.82 34.21 25.36 33.52L24.79 35.21L31.26 38.91L37.73 35.21L37.16 33.52H37.17ZM3.07 52.44C4.12 51.76 5.36 51.36 6.7 51.36H13.4V46.89C13.4 45.04 14.9 43.54 16.75 43.54H45.78C47.63 43.54 49.13 45.04 49.13 46.89V51.36H55.83C57.17 51.36 58.41 51.76 59.46 52.44C58.08 47.83 55.32 44.62 53.92 43.22C51.72 41.02 47.64 36.94 39.37 36.85L31.81 41.17C31.47 41.37 31.05 41.37 30.7 41.17L23.14 36.85C14.87 36.94 10.79 41.02 8.59 43.22C7.19 44.62 4.43 47.83 3.05 52.44H3.07ZM6.7 62.53H13.4V53.6H6.7C4.24 53.6 2.23 55.6 2.23 58.07C2.23 60.54 4.23 62.54 6.7 62.54V62.53ZM46.9 63.65V46.9C46.9 46.28 46.4 45.78 45.78 45.78H16.75C16.13 45.78 15.63 46.28 15.63 46.9V63.65C15.63 64.27 16.13 64.77 16.75 64.77H45.78C46.4 64.77 46.9 64.27 46.9 63.65ZM60.3 58.07C60.3 55.61 58.3 53.6 55.83 53.6H49.13V62.53H55.83C58.29 62.53 60.3 60.53 60.3 58.06V58.07ZM36.29 55.27C36.29 58.04 34.04 60.29 31.27 60.29C28.5 60.29 26.25 58.04 26.25 55.27C26.25 52.5 28.5 50.25 31.27 50.25C34.04 50.25 36.29 52.5 36.29 55.27ZM34.06 55.27C34.06 53.73 32.81 52.48 31.27 52.48C29.73 52.48 28.48 53.73 28.48 55.27C28.48 56.81 29.73 58.06 31.27 58.06C32.81 58.06 34.06 56.81 34.06 55.27ZM27.92 23.45C28.54 23.45 29.04 22.95 29.04 22.33V21.21C29.04 20.59 28.54 20.09 27.92 20.09C27.3 20.09 26.8 20.59 26.8 21.21V22.33C26.8 22.95 27.3 23.45 27.92 23.45Z" fill="#A57F2C"/>
  </symbol>

  <symbol id="ico-certificado" viewBox="0 0 67 68" fill="none">
    <path d="M58.62 12.17C59.34 12.17 59.93 11.58 59.93 10.86V3.93C59.93 1.77 58.17 0 56 0H3.93C1.76 0 0 1.76 0 3.93V63.08C0 65.24 1.76 67.01 3.93 67.01H56.01C58.17 67.01 59.94 65.25 59.94 63.08V59.42C59.94 58.7 59.35 58.11 58.63 58.11C57.91 58.11 57.32 58.7 57.32 59.42V63.08C57.32 63.8 56.73 64.39 56.01 64.39H3.93C3.21 64.39 2.62 63.8 2.62 63.08V3.93C2.62 3.21 3.21 2.62 3.93 2.62H56.01C56.73 2.62 57.32 3.21 57.32 3.93V10.87C57.32 11.59 57.91 12.18 58.63 12.18L58.62 12.17Z" fill="#A57F2C"/>
    <path d="M7.5893 6.28003C6.8693 6.28003 6.2793 6.87003 6.2793 7.59003V34.94C6.2793 35.66 6.8693 36.25 7.5893 36.25C8.3093 36.25 8.8993 35.66 8.8993 34.94V8.90003H51.0393V10.99C51.0393 11.71 51.6293 12.3 52.3493 12.3C53.0693 12.3 53.6593 11.71 53.6593 10.99V7.59003C53.6593 6.87003 53.0693 6.28003 52.3493 6.28003H7.5893Z" fill="#A57F2C"/>
    <path d="M8.50953 38.86C8.26953 38.62 7.92953 38.48 7.57953 38.48C7.22953 38.48 6.89953 38.62 6.64953 38.86C6.39953 39.1 6.26953 39.44 6.26953 39.79C6.26953 40.14 6.40953 40.47 6.64953 40.72C6.88953 40.96 7.22953 41.1 7.57953 41.1C7.92953 41.1 8.25953 40.96 8.50953 40.72C8.74953 40.48 8.88953 40.14 8.88953 39.79C8.88953 39.44 8.74953 39.11 8.50953 38.86Z" fill="#A57F2C"/>
    <path d="M52.3393 55.22C51.6193 55.22 51.0293 55.81 51.0293 56.53V58.1H8.8993V44.82C8.8993 44.1 8.3093 43.51 7.5893 43.51C6.8693 43.51 6.2793 44.1 6.2793 44.82V59.41C6.2793 60.13 6.8693 60.72 7.5893 60.72H52.3493C53.0693 60.72 53.6593 60.13 53.6593 59.41V56.53C53.6593 55.81 53.0693 55.22 52.3493 55.22H52.3393Z" fill="#A57F2C"/>
    <path d="M40.5492 46.24C40.0392 45.73 39.2092 45.73 38.6992 46.24L36.1092 48.83L34.4992 47.22C33.4792 46.21 31.8292 46.21 30.8192 47.22L29.7692 48.27C29.2592 48.78 29.2592 49.61 29.7692 50.12C30.2792 50.63 31.1092 50.63 31.6192 50.12L32.6592 49.08L34.2692 50.69C34.7792 51.2 35.4392 51.45 36.1092 51.45C36.7792 51.45 37.4392 51.2 37.9492 50.69L40.5492 48.09C41.0592 47.58 41.0592 46.75 40.5492 46.24Z" fill="#A57F2C"/>
    <path d="M66.4002 27.45C66.9802 26.55 67.1502 25.44 66.8702 24.41C66.5902 23.38 65.8902 22.5 64.9402 22.01C64.5302 21.8 64.2802 21.36 64.3002 20.9C64.3502 19.83 63.9402 18.79 63.1902 18.03C62.4302 17.27 61.3902 16.87 60.3202 16.92C59.8502 16.94 59.4202 16.69 59.2102 16.28C58.7202 15.33 57.8502 14.63 56.8102 14.35C55.7802 14.07 54.6702 14.25 53.7702 14.82C53.3802 15.07 52.8802 15.07 52.4902 14.82C51.5902 14.24 50.4802 14.07 49.4502 14.35C48.4202 14.63 47.5402 15.33 47.0502 16.28C46.8402 16.69 46.4002 16.94 45.9402 16.92C44.8702 16.87 43.8302 17.28 43.0702 18.03C42.3102 18.79 41.9102 19.83 41.9602 20.9C41.9802 21.36 41.7302 21.8 41.3202 22.01C40.3702 22.5 39.6702 23.37 39.3902 24.41C39.2602 24.9 39.2302 25.41 39.3002 25.91H16.4702C15.7502 25.91 15.1602 26.5 15.1602 27.22C15.1602 27.94 15.7502 28.53 16.4702 28.53H39.9702C39.9402 28.6 39.9102 28.67 39.8702 28.74C39.2902 29.64 39.1202 30.75 39.4002 31.78C39.4402 31.92 39.4802 32.06 39.5402 32.2H16.4702C15.7502 32.2 15.1602 32.79 15.1602 33.51C15.1602 34.23 15.7502 34.82 16.4702 34.82H41.8902C41.9502 34.97 41.9802 35.13 41.9702 35.3C41.9202 36.37 42.3302 37.41 43.0802 38.17C43.8302 38.93 44.8802 39.33 45.9502 39.28C46.4102 39.26 46.8502 39.51 47.0602 39.92C47.2202 40.22 47.4102 40.5 47.6402 40.75V52.97C47.6402 53.5 47.9602 53.98 48.4502 54.18C48.9402 54.38 49.5002 54.27 49.8802 53.9L53.1402 50.65L56.4002 53.9C56.6502 54.15 56.9802 54.28 57.3202 54.28C57.4902 54.28 57.6602 54.25 57.8202 54.18C58.3102 53.98 58.6302 53.5 58.6302 52.97V40.75C58.8602 40.5 59.0602 40.22 59.2102 39.92C59.4202 39.51 59.8602 39.26 60.3202 39.28C61.3902 39.33 62.4302 38.92 63.1902 38.17C63.9502 37.41 64.3502 36.37 64.3002 35.3C64.2802 34.84 64.5302 34.4 64.9402 34.19C65.8902 33.7 66.5902 32.83 66.8702 31.79C67.1502 30.76 66.9702 29.65 66.4002 28.75C66.1502 28.36 66.1502 27.86 66.4002 27.47V27.45ZM56.0102 49.81L54.0502 47.86C53.5402 47.35 52.7102 47.35 52.2002 47.86L50.2402 49.81V41.96C51.0202 42 51.8102 41.79 52.4802 41.36C52.8702 41.11 53.3702 41.11 53.7602 41.36C54.3802 41.76 55.0902 41.96 55.8202 41.96C55.8802 41.96 55.9402 41.96 56.0002 41.96V49.81H56.0102ZM64.3401 31.1C64.2501 31.43 64.0402 31.69 63.7402 31.85C62.4202 32.53 61.6202 33.93 61.6902 35.41C61.7102 35.75 61.5802 36.07 61.3402 36.31C61.1002 36.55 60.7802 36.67 60.4402 36.66C58.9602 36.59 57.5602 37.4 56.8802 38.71C56.7202 39.01 56.4602 39.23 56.1302 39.31C55.8002 39.4 55.4702 39.35 55.1802 39.16C54.5602 38.76 53.8402 38.56 53.1302 38.56C52.4202 38.56 51.7002 38.76 51.0802 39.16C50.7902 39.34 50.4602 39.4 50.1302 39.31C49.8002 39.22 49.5402 39.01 49.3802 38.71C48.7002 37.39 47.3002 36.59 45.8202 36.66C45.4802 36.68 45.1602 36.55 44.9202 36.31C44.6802 36.07 44.5602 35.75 44.5702 35.41C44.6202 34.36 44.2302 33.36 43.5302 32.62C43.5102 32.6 43.4902 32.58 43.4702 32.55C43.1902 32.27 42.8702 32.03 42.5102 31.84C42.2102 31.68 41.9902 31.42 41.9102 31.09C41.8302 30.76 41.8702 30.43 42.0602 30.14C42.8602 28.89 42.8602 27.28 42.0602 26.03C41.8802 25.74 41.8202 25.41 41.9102 25.08C42.0002 24.75 42.2102 24.49 42.5102 24.33C43.8302 23.65 44.6302 22.25 44.5602 20.77C44.5402 20.43 44.6702 20.11 44.9102 19.87C45.1502 19.63 45.4702 19.51 45.8102 19.52C47.2902 19.59 48.6902 18.78 49.3702 17.47C49.5302 17.17 49.7902 16.95 50.1202 16.87C50.4502 16.78 50.7802 16.83 51.0702 17.02C52.3202 17.82 53.9302 17.82 55.1802 17.02C55.4702 16.84 55.8002 16.78 56.1302 16.87C56.4602 16.96 56.7202 17.17 56.8802 17.47C57.5602 18.79 58.9602 19.59 60.4402 19.52C60.7802 19.5 61.1002 19.63 61.3402 19.87C61.5802 20.11 61.7002 20.43 61.6902 20.77C61.6202 22.25 62.4302 23.65 63.7402 24.33C64.0402 24.49 64.2601 24.75 64.3401 25.08C64.4301 25.41 64.3802 25.74 64.1902 26.03C63.3902 27.28 63.3902 28.89 64.1902 30.14C64.3702 30.43 64.4301 30.76 64.3401 31.09V31.1Z" fill="#A57F2C"/>
    <path d="M59.3498 24.53C58.8398 24.02 58.0098 24.02 57.4998 24.53L53.1598 28.87L51.4298 27.14C50.9198 26.63 50.0898 26.63 49.5798 27.14C49.0698 27.65 49.0698 28.48 49.5798 28.99L52.2298 31.64C52.4898 31.9 52.8198 32.02 53.1598 32.02C53.4998 32.02 53.8298 31.89 54.0898 31.64L59.3598 26.37C59.8698 25.86 59.8698 25.03 59.3598 24.52L59.3498 24.53Z" fill="#A57F2C"/>
    <path d="M15.9705 15.82C15.7305 15.58 15.3905 15.44 15.0405 15.44C14.6905 15.44 14.3605 15.58 14.1105 15.82C13.8605 16.06 13.7305 16.4 13.7305 16.75C13.7305 17.1 13.8705 17.43 14.1105 17.68C14.3505 17.93 14.6905 18.06 15.0405 18.06C15.3905 18.06 15.7205 17.92 15.9705 17.68C16.2105 17.44 16.3505 17.1 16.3505 16.75C16.3505 16.4 16.2105 16.07 15.9705 15.82Z" fill="#A57F2C"/>
    <path d="M26.2991 15.44H19.9291C19.2091 15.44 18.6191 16.03 18.6191 16.75C18.6191 17.47 19.2091 18.06 19.9291 18.06H26.2991C27.0191 18.06 27.6091 17.47 27.6091 16.75C27.6091 16.03 27.0191 15.44 26.2991 15.44Z" fill="#A57F2C"/>
    <path d="M39.6294 38.47H24.6694C23.9494 38.47 23.3594 39.06 23.3594 39.78C23.3594 40.5 23.9494 41.09 24.6694 41.09H39.6294C40.3494 41.09 40.9394 40.5 40.9394 39.78C40.9394 39.06 40.3494 38.47 39.6294 38.47Z" fill="#A57F2C"/>
  </symbol>

</svg>