<svg xmlns="http://www.w3.org/2000/svg" xmlns:xlink="http://www.w3.org/1999/xlink" style="display: none;">

  <symbol id="ico-cultura" viewBox="0 0 50 50" fill="none">
    <path d="M11.6631 13.3337C12.1247 13.3337 12.4988 12.9595 12.4988 12.498C12.4988 12.0364 12.1247 11.6623 11.6631 11.6623C11.2016 11.6623 10.8274 12.0364 10.8274 12.498C10.8274 12.9595 11.2016 13.3337 11.6631 13.3337Z" fill="#A57F2C"/>
    <path d="M18.3325 13.3337C18.7941 13.3337 19.1682 12.9595 19.1682 12.498C19.1682 12.0364 18.7941 11.6623 18.3325 11.6623C17.871 11.6623 17.4968 12.0364 17.4968 12.498C17.4968 12.9595 17.871 13.3337 18.3325 13.3337Z" fill="#A57F2C"/>
    <path d="M16.6614 14.1619V11.6623H14.9975V14.1619C14.9975 14.6245 14.6244 14.9976 14.1618 14.9976H13.3261V16.6615H14.1618C15.5422 16.6615 16.6614 15.5423 16.6614 14.1619Z" fill="#A57F2C"/>
    <path d="M10.9166 18.7062C11.5658 20.012 12.9014 20.8402 14.3564 20.8328H16.662V19.1688H14.3564C13.5282 19.1688 12.7746 18.7062 12.4089 17.9601L10.9166 18.7062Z" fill="#A57F2C"/>
    <path d="M29.9955 32.4951V29.9955C29.9955 27.2347 27.757 24.9963 24.9963 24.9963H22.4966V22.4071C24.0113 22.0863 25.2052 20.9372 25.5783 19.4374L25.6678 19.0942C27.2198 18.7733 28.3316 17.4078 28.3316 15.826V8.32712C28.3316 6.48411 26.8393 4.99925 24.9963 4.99179C24.0785 4.99179 23.3323 4.24564 23.3323 3.32786C23.3249 1.49231 21.84 0 19.997 0H17.6914C16.6841 0 15.7141 0.395463 14.9978 1.09685C14.2814 0.395463 13.3114 0 12.3041 0H9.99851C8.1555 0 6.67065 1.49231 6.66318 3.33532C6.66318 4.2531 5.91703 4.99925 4.99925 4.99925C3.15624 4.99925 1.67139 6.49157 1.66393 8.33458V15.8335C1.66393 17.4153 2.77571 18.7808 4.32771 19.1016L4.41725 19.4449C4.79033 20.9446 5.98418 22.0937 7.49888 22.4146V25.0037H4.99925C2.23847 24.9963 0 27.2347 0 29.9955V32.4951C0 32.6892 0.0671542 32.8757 0.186539 33.0249L6.57365 40.8297H4.16356C3.88748 40.8297 3.62632 40.9715 3.46963 41.2028L1.8057 43.7024C1.71616 43.8367 1.66393 44.0009 1.66393 44.1651V49.1643C1.66393 49.6269 2.03701 50 2.49963 50H27.4959C27.9585 50 28.3316 49.6269 28.3316 49.1643V44.1651C28.3316 44.0009 28.2794 43.8367 28.1898 43.7024L26.5259 41.2028C26.3692 40.9715 26.108 40.8297 25.832 40.8297H23.4219L29.809 33.0249C29.9284 32.8757 29.9955 32.6892 29.9955 32.4951ZM9.16281 9.97612C10.0731 9.87166 10.8491 9.27474 11.1924 8.42412L11.8191 6.86465L12.4832 7.96896C13.2368 9.2225 14.5948 9.99105 16.0573 9.99105H20.8327V17.4899C20.8327 20.7133 18.2212 23.3249 14.9978 23.3249C11.7744 23.3249 9.16281 20.7133 9.16281 17.4899V9.96866V9.97612ZM6.03641 19.0345L5.81256 18.1242C5.72303 17.7511 5.38726 17.4899 5.00671 17.4899C4.08894 17.4899 3.34278 16.7438 3.34278 15.826V8.32712C3.34278 7.40934 4.08894 6.66318 5.00671 6.66318C6.84972 6.66318 8.33458 5.17087 8.34204 3.32786C8.34204 2.41009 9.08819 1.66393 10.006 1.66393H12.3116C13.1398 1.66393 13.8934 2.12655 14.2591 2.87271C14.468 3.28309 14.9679 3.45471 15.3783 3.24578C15.5425 3.16371 15.6693 3.03686 15.7514 2.87271C16.117 2.13401 16.8781 1.66393 17.6988 1.66393H20.0045C20.9222 1.66393 21.6684 2.41009 21.6684 3.32786C21.6684 5.17087 23.1607 6.65572 25.0037 6.66318C25.9215 6.66318 26.6677 7.40934 26.6677 8.32712V15.826C26.6677 16.7438 25.9215 17.4899 25.0037 17.4899C24.6232 17.4899 24.2874 17.7511 24.1979 18.1242L23.974 19.0345C23.7875 19.7881 23.2353 20.3999 22.5116 20.676V9.99851H24.1755V8.33458H16.0648C15.1843 8.33458 14.3784 7.87196 13.9233 7.11834L12.3937 4.57394C12.1549 4.17848 11.6475 4.05163 11.2521 4.2904C11.0954 4.3874 10.976 4.52917 10.9088 4.69333L9.66274 7.81227C9.53589 8.12565 9.22997 8.33458 8.88673 8.33458H5.84987V9.99851H7.5138V20.676C6.78257 20.3999 6.23787 19.7881 6.05133 19.0345H6.03641ZM26.6602 44.4113V48.3286H3.33532V44.4113L4.61125 42.4937H25.3843L26.6602 44.4113ZM28.3316 32.1967L21.2729 40.8297H8.73004L1.67139 32.1967V29.9955C1.67139 28.1525 3.16371 26.6677 5.00671 26.6602H8.34204C8.80466 26.6602 9.17773 26.2871 9.17773 25.8245V22.1982C11.7669 25.4216 16.4826 25.929 19.706 23.3398C20.1239 23.004 20.5044 22.6235 20.8476 22.1982V25.8245C20.8476 26.2871 21.2207 26.6602 21.6833 26.6602H25.0187C26.8617 26.6602 28.3465 28.1525 28.354 29.9955V32.1967H28.3316Z" fill="#A57F2C"/>
    <path d="M18.1688 29.2642C18.624 28.2047 18.9299 27.078 19.0717 25.9364L17.4152 25.7349C17.1615 27.8018 16.296 29.7493 14.938 31.3311C14.0053 29.9806 12.4682 29.1672 10.8267 29.1672H7.49133V30.8312H10.8267C12.6697 30.8312 14.1545 32.3235 14.162 34.1665V35.8304H15.8259V34.1665C15.8259 32.3235 17.3182 30.8386 19.1612 30.8312H22.4966V29.1672H19.1612C18.8255 29.1672 18.4972 29.1971 18.1688 29.2642Z" fill="#A57F2C"/>
    <path d="M24.9961 0V1.66393H47.1495L44.6499 4.16356H28.3315V5.82749H44.1649V22.5414L39.6507 19.318C39.397 19.1315 39.0537 19.1091 38.7777 19.2583L32.7636 22.4444L28.8911 19.0046L27.7868 20.2507L31.1967 23.2801L28.7866 24.556L29.5626 26.026L39.106 20.9745L44.1724 24.5933V30.8312H31.6742V32.4952H44.6574L47.157 34.9948H30.0028V36.6587H49.1642C49.6268 36.6587 49.9999 36.2856 49.9999 35.823V0.835696C49.9999 0.373079 49.6268 0 49.1642 0H24.9961ZM45.8288 5.34249L48.3285 2.84286V33.8158L45.8288 31.3162V5.34249Z" fill="#A57F2C"/>
    <path d="M38.33 14.1622C38.33 11.864 36.4646 9.99863 34.1664 9.99863C31.8683 9.99863 30.0029 11.864 30.0029 14.1622C30.0029 16.4604 31.8683 18.3257 34.1664 18.3257C36.4646 18.3257 38.33 16.4604 38.33 14.1622ZM31.6593 14.1622C31.6593 12.7818 32.7786 11.6626 34.159 11.6626C35.5394 11.6626 36.6586 12.7818 36.6586 14.1622C36.6586 15.5426 35.5394 16.6618 34.159 16.6618C32.7786 16.6618 31.6593 15.5426 31.6593 14.1622Z" fill="#A57F2C"/>
  </symbol>

  <symbol id="ico-deporte" viewBox="0 0 51 50" fill="none">
    <path d="M50.8209 28.1564C50.8508 28.0072 50.8433 27.8579 50.7985 27.7087C50.2164 19.313 43.2686 12.7757 34.8506 12.7085C32.0445 3.29793 22.1265 -2.06035 12.7085 0.745656C3.29793 3.55912 -2.06035 13.4697 0.745656 22.8877C2.22329 27.843 5.79049 31.9177 10.507 34.0371C8.83531 34.9326 7.28305 36.0297 5.88751 37.3058L3.46957 39.5223C2.43224 40.47 2.36508 42.082 3.31285 43.1119C3.41733 43.2313 3.53673 43.3357 3.6636 43.4253L6.38752 45.4701C10.3129 48.403 15.0742 49.9851 19.9698 50H22.3952C27.2908 49.9925 32.052 48.403 35.9774 45.4701L36.9401 44.7537C44.9178 43.6716 50.8582 36.858 50.8508 28.8132C50.8508 28.5893 50.8284 28.3729 50.8209 28.1564ZM46.3805 20.3355C47.9179 22.425 48.8507 24.8952 49.0895 27.4773L48.3731 27.8355L44.2089 25.0594L45.5596 20.3355H46.3805ZM40.6417 15.6787C42.2462 16.3951 43.7014 17.4026 44.9477 18.6414H44.9253C44.5447 18.6414 44.2163 18.8951 44.1119 19.2533L42.5223 24.8131L39.7984 26.0669L35.6043 23.2683V19.925L40.3282 16.619C40.6267 16.41 40.7611 16.022 40.6491 15.6712L40.6417 15.6787ZM21.4996 19.6862C21.4101 19.7608 21.3355 19.8504 21.2832 19.9548C21.2758 19.9847 21.2683 20.0146 21.2608 20.0444L19.0071 17.7906L21.7011 15.0966C22.4176 15.7458 23.1862 16.3429 23.9997 16.8653C23.0668 17.7011 22.231 18.6489 21.5146 19.6787L21.4996 19.6862ZM20.3802 21.5743C19.4175 23.4773 18.8504 25.5519 18.7011 27.6788C17.9175 25.4624 16.6936 23.4176 15.1115 21.6788L17.7981 18.9922L20.3802 21.5743ZM22.3803 21.4549L23.0594 21.7907L24.4251 25.2086L21.0146 28.6191L20.3578 28.2908C20.4399 25.8728 21.134 23.5221 22.3728 21.4474L22.3803 21.4549ZM20.8131 30.4102C21.1414 30.5744 21.537 30.5072 21.7907 30.2535L25.634 26.4102L28.9699 27.746L30.552 33.2759C30.5669 33.3207 30.5893 33.358 30.6117 33.4028C27.6564 32.052 24.4474 31.3505 21.2011 31.358C20.9996 31.358 20.8056 31.3654 20.6041 31.3729C20.5369 30.9923 20.4698 30.6042 20.4325 30.2236L20.8205 30.4177L20.8131 30.4102ZM29.5669 26.1639L26.0818 24.7683L24.5221 20.8728C24.4474 20.6787 24.2982 20.522 24.1116 20.425L23.3504 20.0444C24.7982 18.1563 26.6937 16.6563 28.8579 15.6787C28.746 16.0294 28.8803 16.41 29.1788 16.6265L33.9028 19.9399V23.2833L29.5669 26.1713V26.1639ZM34.7535 24.7385L38.7685 27.4176C38.7685 27.4176 38.7685 27.4549 38.7834 27.4699C38.7984 27.4997 38.8133 27.5296 38.8357 27.552L37.5073 32.1938H32.0072L30.6565 27.4699L34.7535 24.7385ZM38.6118 14.9399L38.8357 15.5966L34.7535 18.4474L30.6714 15.5891L30.8953 14.9324C33.4177 14.2085 36.0894 14.2085 38.6118 14.9324V14.9399ZM33.1117 12.7906C30.3206 13.0816 27.6564 14.0966 25.3878 15.7384C24.4997 15.2085 23.6638 14.5891 22.8952 13.9025L29.7684 7.02932C31.2759 8.69352 32.4102 10.6562 33.1117 12.7906ZM28.5594 5.83527L21.6937 12.701C19.2907 10.0368 17.8503 6.65618 17.6041 3.08151L17.5071 1.71582C21.5817 1.63373 25.537 3.11136 28.5669 5.84273L28.5594 5.83527ZM15.813 1.83522L15.91 3.20091C16.1861 7.18603 17.8056 10.9547 20.4922 13.9025L17.7981 16.5966L7.04424 5.83527C9.48457 3.63375 12.5443 2.23821 15.813 1.83522ZM5.84273 7.03678L16.5966 17.7981L13.91 20.4847C10.9547 17.7981 7.18603 16.1861 3.20091 15.91L1.83522 15.813C2.23821 12.5518 3.63375 9.48457 5.83527 7.04424L5.84273 7.03678ZM1.71582 17.4921L3.08151 17.5891C6.65618 17.8354 10.0443 19.2757 12.7085 21.6788L5.83527 28.552C3.10389 25.5221 1.63373 21.5668 1.70835 17.4921H1.71582ZM7.02932 29.7609L13.9175 22.8803C16.1041 25.3131 17.4921 28.3579 17.8951 31.6042C16.0891 31.8729 14.3205 32.3505 12.6264 33.0446C10.5592 32.3431 8.6562 31.2236 7.02932 29.7684V29.7609ZM37.8133 41.97C37.776 42.0074 37.7386 42.0447 37.6939 42.0745L34.9625 44.1193C31.3356 46.8283 26.9251 48.2985 22.3952 48.306H19.9698C15.4399 48.2985 11.0368 46.8283 7.40245 44.1193L4.67854 42.0745C4.3054 41.7909 4.23077 41.2611 4.5069 40.8879C4.53675 40.8432 4.57406 40.8059 4.61137 40.7685L7.02185 38.5521C8.74575 36.9774 10.7234 35.7088 12.8727 34.7909C12.9995 34.7685 13.1264 34.7162 13.2234 34.6341C20.731 31.5371 29.3505 33.067 35.3282 38.5596L37.7461 40.776C38.0894 41.0894 38.1118 41.6268 37.7984 41.97H37.8133ZM36.4849 37.3058C35.0147 35.9625 33.3729 34.8132 31.6117 33.8953H37.7909L39.6566 35.761L38.1267 38.8133L36.4849 37.3058ZM39.4999 42.4029C39.8432 41.6641 39.7909 40.8059 39.3655 40.1118L41.2014 36.4327H46.0895L46.4701 37.1864C44.7462 39.6043 42.3059 41.4253 39.4999 42.4029ZM47.5149 35.4924L47.3806 35.2162C47.2388 34.9252 46.9403 34.7461 46.6194 34.7461H41.0372L39.0969 32.8058L40.5894 27.5743L43.1566 26.3952L47.8507 29.5221C48.1045 29.6938 48.4254 29.7087 48.7015 29.5744L49.1418 29.3505C49.0672 31.4923 48.5149 33.5968 47.5224 35.4924H47.5149Z" fill="#A57F2C"/>
    <path d="M28.8207 39.8282H27.9699V38.9775C27.9699 38.5073 27.5893 38.1267 27.1192 38.1267C26.649 38.1267 26.2684 38.5073 26.2684 38.9775V39.8282H24.5744V38.9775C24.5744 38.5073 24.1938 38.1267 23.7236 38.1267C23.2535 38.1267 22.8728 38.5073 22.8728 38.9775V39.8282H21.1788V38.9775C21.1788 38.5073 20.7982 38.1267 20.328 38.1267C19.8579 38.1267 19.4773 38.5073 19.4773 38.9775V39.8282H17.7832V38.9775C17.7832 38.5073 17.4026 38.1267 16.9325 38.1267C16.4623 38.1267 16.0817 38.5073 16.0817 38.9775V39.8282H14.3877V38.9775C14.3877 38.5073 14.0071 38.1267 13.5369 38.1267C13.0668 38.1267 12.6862 38.5073 12.6862 38.9775V39.8282H11.8354C11.3652 39.8282 10.9846 40.2088 10.9846 40.679C10.9846 41.1491 11.3652 41.5297 11.8354 41.5297H12.6862V42.3805C12.6862 42.8507 13.0668 43.2313 13.5369 43.2313C14.0071 43.2313 14.3877 42.8507 14.3877 42.3805V41.5297H16.0817V42.3805C16.0817 42.8507 16.4623 43.2313 16.9325 43.2313C17.4026 43.2313 17.7832 42.8507 17.7832 42.3805V41.5297H19.4773V42.3805C19.4773 42.8507 19.8579 43.2313 20.328 43.2313C20.7982 43.2313 21.1788 42.8507 21.1788 42.3805V41.5297H22.8728V42.3805C22.8728 42.8507 23.2535 43.2313 23.7236 43.2313C24.1938 43.2313 24.5744 42.8507 24.5744 42.3805V41.5297H26.2684V42.3805C26.2684 42.8507 26.649 43.2313 27.1192 43.2313C27.5893 43.2313 27.9699 42.8507 27.9699 42.3805V41.5297H28.8207C29.2908 41.5297 29.6714 41.1491 29.6714 40.679C29.6714 40.2088 29.2908 39.8282 28.8207 39.8282Z" fill="#A57F2C"/>
  </symbol>

</svg>