<svg xmlns="http://www.w3.org/2000/svg" xmlns:xlink="http://www.w3.org/1999/xlink" style="display: none;">

  <symbol id="ico-primavera" viewBox="0 0 69 67" fill="none">
    <path d="M66.1519 1.3826C66.0019 0.972601 65.6519 0.672601 65.2119 0.592601C49.4919 -2.2474 33.7219 5.3026 26.0819 19.3326C20.6019 15.5026 14.1919 13.2026 7.52193 12.6926C7.08193 12.6526 6.66193 12.8626 6.42194 13.2226C-1.01806 24.2226 -2.06806 38.3426 3.66194 50.3126C6.07194 55.3326 9.58193 59.7326 13.9419 63.1926C16.9519 65.6426 20.7119 66.9826 24.5919 66.9926C28.0219 66.9726 31.3719 65.9626 34.2319 64.0826C39.2419 60.8426 42.1819 55.2026 41.9519 49.2326C43.5019 49.0026 45.0219 48.5626 46.4519 47.9326C51.5419 45.6626 56.0419 42.2526 59.6219 37.9826C68.1419 27.8126 70.6319 13.8726 66.1419 1.3826H66.1519ZM32.8919 62.0526C32.7319 62.1626 32.5619 62.2326 32.4019 62.3326C27.1119 58.0326 18.7319 48.1626 17.1119 27.9326C17.0719 27.2726 16.4919 26.7626 15.8319 26.8126C15.8219 26.8126 15.8119 26.8126 15.7919 26.8126C15.1219 26.8626 14.6219 27.4526 14.6719 28.1226C16.2719 48.1826 24.3719 58.5926 29.9919 63.4926C25.1019 65.4726 19.5319 64.6226 15.4519 61.2826C11.3819 58.0526 8.09194 53.9326 5.84194 49.2426C0.621935 38.2926 1.45194 25.3926 8.06194 15.1926C20.1619 16.3626 30.7719 23.7326 36.0919 34.6626C38.3619 39.3426 39.5419 44.4726 39.5419 49.6826C39.6019 54.6726 37.1019 59.3426 32.9019 62.0526H32.8919ZM57.7719 36.4126C54.4319 40.4026 50.2219 43.5826 45.4719 45.7026C44.3219 46.2226 43.1019 46.5826 41.8519 46.7926C41.5319 42.6426 40.5019 38.5726 38.8119 34.7626C42.5319 33.0526 53.6519 26.9426 55.9619 14.1226C56.0819 13.4626 55.6419 12.8226 54.9719 12.7026C54.3119 12.5826 53.6719 13.0226 53.5519 13.6926C51.4719 25.2926 41.0119 31.0226 37.7419 32.5526C35.3619 28.0126 32.0719 24.0126 28.0719 20.8026C35.0119 7.7526 49.4819 0.552601 64.0919 2.8826C67.9719 14.4026 65.5719 27.1026 57.7719 36.4126Z" fill="#A57F2C"/>
  </symbol>

  <symbol id="ico-verano" viewBox="0 0 67 67" fill="none">
    <path d="M35.8894 59.82V64.61C35.8894 65.93 34.8194 67 33.4994 67C32.1794 67 31.1094 65.93 31.1094 64.61V59.82C31.1094 58.5 32.1794 57.43 33.4994 57.43C34.8194 57.43 35.8894 58.5 35.8894 59.82Z" fill="#A57F2C"/>
    <path d="M66.9997 33.5C66.9997 34.82 65.9297 35.89 64.6097 35.89H59.8197C58.4997 35.89 57.4297 34.82 57.4297 33.5C57.4297 32.18 58.4997 31.11 59.8197 31.11H64.6097C65.9297 31.11 66.9997 32.18 66.9997 33.5Z" fill="#A57F2C"/>
    <path d="M9.57 33.5C9.57 34.82 8.5 35.89 7.18 35.89H2.39C1.07 35.89 0 34.82 0 33.5C0 32.18 1.07 31.11 2.39 31.11H7.18C8.5 31.11 9.57 32.18 9.57 33.5Z" fill="#A57F2C"/>
    <path d="M16.0504 50.95C16.9904 51.89 16.9904 53.4 16.0504 54.33L13.2004 57.18C12.2604 58.12 10.7504 58.12 9.8204 57.18C8.8904 56.24 8.8804 54.73 9.8204 53.8L12.6704 50.95C13.6104 50.01 15.1204 50.01 16.0504 50.95Z" fill="#A57F2C"/>
    <path d="M57.1909 53.8C58.1309 54.74 58.1309 56.25 57.1909 57.18C56.2509 58.11 54.7409 58.12 53.8109 57.18L50.9609 54.33C50.0209 53.39 50.0209 51.88 50.9609 50.95C51.9009 50.02 53.4109 50.01 54.3409 50.95L57.1909 53.8Z" fill="#A57F2C"/>
    <path d="M33.4994 0C34.8194 0 35.8894 1.07 35.8894 2.39V7.18C35.8894 8.5 34.8194 9.57 33.4994 9.57C32.1794 9.57 31.1094 8.5 31.1094 7.18V2.39C31.1094 1.07 32.1794 0 33.4994 0Z" fill="#A57F2C"/>
    <path d="M13.2002 9.81002L16.0502 12.66C16.9902 13.6 16.9902 15.11 16.0502 16.04C15.1102 16.97 13.6002 16.98 12.6702 16.04L9.82023 13.19C8.88023 12.25 8.88023 10.74 9.82023 9.81002C10.7602 8.88002 12.2702 8.87002 13.2002 9.81002Z" fill="#A57F2C"/>
    <path d="M50.9491 16.05C50.0091 15.11 50.0091 13.6 50.9491 12.67L53.7991 9.81999C54.7391 8.87999 56.2491 8.87999 57.1791 9.81999C58.1091 10.76 58.1191 12.27 57.1791 13.2L54.3291 16.05C53.3891 16.99 51.8791 16.99 50.9491 16.05Z" fill="#A57F2C"/>
    <path d="M33.4994 14.36C22.9494 14.36 14.3594 22.95 14.3594 33.5C14.3594 44.05 22.9494 52.64 33.4994 52.64C44.0494 52.64 52.6394 44.05 52.6394 33.5C52.6394 22.95 44.0494 14.36 33.4994 14.36ZM33.4994 47.86C25.5794 47.86 19.1394 41.42 19.1394 33.5C19.1394 25.58 25.5794 19.14 33.4994 19.14C41.4194 19.14 47.8594 25.58 47.8594 33.5C47.8594 41.42 41.4194 47.86 33.4994 47.86Z" fill="#A57F2C"/>
  </symbol>

  <symbol id="ico-invierno" viewBox="0 0 62 68" fill="none">    
    <path d="M58.1076 49.14L50.3676 44.6L57.7376 42.5C58.4176 42.26 58.7776 41.51 58.5276 40.82C58.3076 40.2 57.6576 39.84 57.0176 39.98L47.2376 42.77L32.2576 34L47.2376 25.23L57.0076 28.02C57.7176 28.17 58.4176 27.72 58.5676 27.02C58.7076 26.38 58.3476 25.73 57.7276 25.51L50.3576 23.41L58.0976 18.87C58.7476 18.55 59.0076 17.76 58.6776 17.11C58.3576 16.46 57.5676 16.2 56.9176 16.53C56.8676 16.56 56.8176 16.58 56.7676 16.62L49.0276 21.15L50.7976 13.69C51.0076 13 50.6176 12.26 49.9276 12.05C49.2376 11.84 48.4976 12.23 48.2876 12.92C48.2676 12.97 48.2576 13.03 48.2476 13.08L45.8976 22.97L30.9576 31.72V14.4L38.2976 7.38C38.7876 6.85 38.7676 6.02 38.2376 5.53C37.7476 5.08 36.9976 5.06 36.4976 5.49L30.9676 10.78V1.81C30.9676 1.09 30.3776 0.5 29.6576 0.5C28.9376 0.5 28.3476 1.09 28.3476 1.81V10.78L22.8076 5.49C22.3076 4.96 21.4776 4.94 20.9576 5.43C20.4276 5.93 20.4076 6.76 20.8976 7.28C20.9276 7.32 20.9676 7.35 21.0076 7.38L28.3476 14.4V31.71L13.4076 22.96L11.0576 13.07C10.9676 12.35 10.3076 11.85 9.58764 11.94C8.86764 12.03 8.36764 12.69 8.45764 13.41C8.46764 13.5 8.48764 13.58 8.51764 13.67L10.2876 21.13L2.54764 16.6C1.94764 16.19 1.13764 16.35 0.727638 16.95C0.317638 17.55 0.477638 18.36 1.07764 18.77C1.12764 18.8 1.17764 18.83 1.22764 18.86L8.96764 23.4L1.59764 25.5C0.887638 25.65 0.437638 26.35 0.597638 27.06C0.747638 27.77 1.44764 28.22 2.15764 28.06C2.21764 28.05 2.26764 28.03 2.32764 28.01L12.1076 25.23L27.0876 34L12.1076 42.77L2.32764 39.98C1.61764 39.83 0.917638 40.28 0.767638 40.98C0.627638 41.62 0.987638 42.27 1.60764 42.49L8.97764 44.59L1.23764 49.13C0.587638 49.45 0.327638 50.24 0.657638 50.89C0.977638 51.54 1.76764 51.8 2.41764 51.47C2.46764 51.44 2.51764 51.42 2.56764 51.38L10.3076 46.85L8.53764 54.31C8.37764 55.01 8.80764 55.72 9.50764 55.88C9.60764 55.9 9.70764 55.92 9.80764 55.92C10.4176 55.92 10.9376 55.5 11.0776 54.91L13.4276 45.02L28.3676 36.27V53.58L21.0176 60.6C20.4676 61.07 20.3876 61.89 20.8576 62.45C21.3276 63 22.1476 63.08 22.7076 62.61C22.7476 62.57 22.7876 62.54 22.8276 62.5L28.3576 57.21V66.18C28.3576 66.9 28.9476 67.49 29.6676 67.49C30.3876 67.49 30.9776 66.9 30.9776 66.18V57.21L36.5176 62.5C37.0776 62.96 37.8976 62.89 38.3676 62.34C38.7876 61.83 38.7676 61.09 38.3176 60.61L30.9776 53.59V36.28L45.9176 45.03L48.2676 54.92C48.4076 55.51 48.9376 55.93 49.5376 55.93C49.6376 55.93 49.7376 55.92 49.8376 55.89C50.5376 55.72 50.9776 55.02 50.8076 54.32L49.0376 46.86L56.7776 51.39C57.3776 51.8 58.1876 51.64 58.5976 51.04C59.0076 50.44 58.8476 49.63 58.2476 49.22C58.1976 49.19 58.1476 49.16 58.0976 49.13L58.1076 49.14Z" fill="#A57F2C" stroke="#A57F2C" stroke-miterlimit="10"/>
  </symbol>

  <symbol id="ico-calendarios" viewBox="0 0 31 31" fill="none">
    <path d="M27.19 4.03H24.17V3.02C24.17 1.35 22.82 0 21.15 0C19.48 0 18.13 1.35 18.13 3.02V4.03H12.08V3.02C12.08 1.35 10.73 0 9.06 0C7.39 0 6.04 1.35 6.04 3.02V4.03H3.02C1.35 4.03 0 5.38 0 7.05V27.21C0 28.88 1.35 30.23 3.02 30.23H27.21C28.88 30.23 30.23 28.88 30.23 27.21V7.06C30.23 5.39 28.88 4.04 27.21 4.04L27.19 4.03ZM20.13 3.02C20.13 2.46 20.58 2.01 21.14 2.01C21.7 2.01 22.15 2.46 22.15 3.02V4.03H20.13V3.02ZM8.03 3.02C8.03 2.46 8.48 2.01 9.04 2.01C9.6 2.01 10.05 2.46 10.05 3.02V4.03H8.03V3.02ZM2.99 6.05H6.01V7.06C6.01 7.62 6.46 8.07 7.02 8.07C7.58 8.07 8.03 7.62 8.03 7.06V6.05H18.11V7.06C18.11 7.62 18.56 8.07 19.12 8.07C19.68 8.07 20.13 7.62 20.13 7.06V6.05H27.19C27.75 6.05 28.2 6.5 28.2 7.06V10.08H1.99V7.06C1.99 6.5 2.44 6.05 3 6.05H2.99ZM27.19 28.23H2.99C2.43 28.23 1.98 27.78 1.98 27.22V12.1H28.19V27.22C28.19 27.78 27.74 28.23 27.18 28.23H27.19Z" fill="#A57F2C"/>
    <path d="M8.03148 16.13C8.58929 16.13 9.04148 15.6778 9.04148 15.12C9.04148 14.5622 8.58929 14.11 8.03148 14.11C7.47368 14.11 7.02148 14.5622 7.02148 15.12C7.02148 15.6778 7.47368 16.13 8.03148 16.13Z" fill="#A57F2C"/>
    <path d="M15.0901 16.13C15.6479 16.13 16.1001 15.6778 16.1001 15.12C16.1001 14.5622 15.6479 14.11 15.0901 14.11C14.5323 14.11 14.0801 14.5622 14.0801 15.12C14.0801 15.6778 14.5323 16.13 15.0901 16.13Z" fill="#A57F2C"/>
    <path d="M22.1506 16.13C22.7084 16.13 23.1606 15.6778 23.1606 15.12C23.1606 14.5622 22.7084 14.11 22.1506 14.11C21.5928 14.11 21.1406 14.5622 21.1406 15.12C21.1406 15.6778 21.5928 16.13 22.1506 16.13Z" fill="#A57F2C"/>
    <path d="M8.03148 21.17C8.58929 21.17 9.04148 20.7178 9.04148 20.16C9.04148 19.6022 8.58929 19.15 8.03148 19.15C7.47368 19.15 7.02148 19.6022 7.02148 20.16C7.02148 20.7178 7.47368 21.17 8.03148 21.17Z" fill="#A57F2C"/>
    <path d="M15.0901 21.17C15.6479 21.17 16.1001 20.7178 16.1001 20.16C16.1001 19.6022 15.6479 19.15 15.0901 19.15C14.5323 19.15 14.0801 19.6022 14.0801 20.16C14.0801 20.7178 14.5323 21.17 15.0901 21.17Z" fill="#A57F2C"/>
    <path d="M22.1506 21.17C22.7084 21.17 23.1606 20.7178 23.1606 20.16C23.1606 19.6022 22.7084 19.15 22.1506 19.15C21.5928 19.15 21.1406 19.6022 21.1406 20.16C21.1406 20.7178 21.5928 21.17 22.1506 21.17Z" fill="#A57F2C"/>
    <path d="M8.03148 26.2099C8.58929 26.2099 9.04148 25.7577 9.04148 25.1999C9.04148 24.6421 8.58929 24.1899 8.03148 24.1899C7.47368 24.1899 7.02148 24.6421 7.02148 25.1999C7.02148 25.7577 7.47368 26.2099 8.03148 26.2099Z" fill="#A57F2C"/>
    <path d="M15.0901 26.2099C15.6479 26.2099 16.1001 25.7577 16.1001 25.1999C16.1001 24.6421 15.6479 24.1899 15.0901 24.1899C14.5323 24.1899 14.0801 24.6421 14.0801 25.1999C14.0801 25.7577 14.5323 26.2099 15.0901 26.2099Z" fill="#A57F2C"/>
    <path d="M22.1506 26.2099C22.7084 26.2099 23.1606 25.7577 23.1606 25.1999C23.1606 24.6421 22.7084 24.1899 22.1506 24.1899C21.5928 24.1899 21.1406 24.6421 21.1406 25.1999C21.1406 25.7577 21.5928 26.2099 22.1506 26.2099Z" fill="#A57F2C"/>
  </symbol>

  <symbol id="ico-visualiza" viewBox="0 0 23 23" fill="none">
    <path d="M20.7807 1.61404H17.7544V1.41228C17.7544 0.633509 17.1209 0 16.3421 0C15.5633 0 14.9298 0.633509 14.9298 1.41228V1.61404H8.07018V1.41228C8.07018 0.633509 7.43667 0 6.6579 0C5.87912 0 5.24561 0.633509 5.24561 1.41228V1.61404H2.2193C0.996667 1.61404 0 2.6107 0 3.83333V11.2175C0 11.5525 0.270351 11.8228 0.605263 11.8228C0.940175 11.8228 1.21053 11.5525 1.21053 11.2175V6.85965H21.7895V14.7281C21.7895 15.0589 21.5151 15.3333 21.1842 15.3333H19.1667C17.944 15.3333 16.9474 16.33 16.9474 17.5526V19.5702C16.9474 19.9011 16.673 20.1754 16.3421 20.1754H13.1584C12.8235 20.1754 12.5532 20.4458 12.5532 20.7807C12.5532 21.1156 12.8235 21.386 13.1584 21.386H16.3421C16.8263 21.386 17.2823 21.1963 17.6253 20.8533C22.5118 15.9628 22.5239 15.9467 22.5279 15.9426C22.8346 15.6077 23 15.176 23 14.724V3.83333C23 2.6107 22.0033 1.61404 20.7807 1.61404ZM6.6579 4.4386C7.43667 4.4386 8.07018 3.80509 8.07018 3.02632V2.82456H14.9298V3.02632C14.9298 3.80509 15.5633 4.4386 16.3421 4.4386C17.1209 4.4386 17.7544 3.80509 17.7544 3.02632V2.82456H20.7807C21.3375 2.82456 21.7895 3.28053 21.7895 3.83333V5.64912H1.21053V3.83333C1.21053 3.27649 1.66649 2.82456 2.2193 2.82456H5.24561V3.02632C5.24561 3.80509 5.87912 4.4386 6.6579 4.4386ZM16.5439 3.02632C16.5439 3.1393 16.4551 3.22807 16.3421 3.22807C16.2291 3.22807 16.1404 3.1393 16.1404 3.02632V1.41228C16.1404 1.2993 16.2291 1.21053 16.3421 1.21053C16.4551 1.21053 16.5439 1.2993 16.5439 1.41228V3.02632ZM6.85965 3.02632C6.85965 3.1393 6.77088 3.22807 6.6579 3.22807C6.54491 3.22807 6.45614 3.1393 6.45614 3.02632V1.41228C6.45614 1.2993 6.54491 1.21053 6.6579 1.21053C6.77088 1.21053 6.85965 1.2993 6.85965 1.41228V3.02632ZM20.2198 16.5439L18.1579 18.6058V17.5526C18.1579 16.9958 18.6139 16.5439 19.1667 16.5439H20.2198Z" fill="currentColor"/>
    <path d="M13.2643 18.2507C13.1876 18.0772 11.3234 13.9937 6.65884 13.9937C1.99428 13.9937 0.130067 18.0772 0.0534005 18.2507C-0.015196 18.408 -0.015196 18.5856 0.0534005 18.7389C0.130067 18.9124 1.99428 23 6.65884 23C11.3234 23 13.1876 18.9165 13.2643 18.7389C13.3329 18.5815 13.3329 18.404 13.2643 18.2507ZM12.0336 18.4968C11.5534 19.3805 9.93936 21.7894 6.65884 21.7894C3.37831 21.7894 1.76428 19.3805 1.2841 18.4968C1.76428 17.6131 3.37831 15.2042 6.65884 15.2042C9.93936 15.2042 11.5534 17.6131 12.0336 18.4968Z" fill="currentColor"/>
    <path d="M3.83398 18.4968C3.83398 20.0543 5.101 21.3214 6.65855 21.3214C8.21609 21.3214 9.48311 20.0543 9.48311 18.4968C9.48311 16.9433 8.21609 15.6722 6.65855 15.6722C5.101 15.6722 3.83398 16.9393 3.83398 18.4968ZM5.04451 18.4968C5.04451 17.605 5.76679 16.8828 6.65855 16.8828C7.5503 16.8828 8.27258 17.605 8.27258 18.4968C8.27258 19.3845 7.54626 20.1108 6.65855 20.1108C5.76679 20.1108 5.04451 19.3886 5.04451 18.4968Z" fill="currentColor"/>
    <path d="M7.26326 12.9808V11.7622C7.26326 11.4273 6.99291 11.157 6.658 11.157C6.32309 11.157 6.05273 11.4273 6.05273 11.7622V12.9808C6.05273 13.3158 6.32309 13.5861 6.658 13.5861C6.99291 13.5861 7.26326 13.3158 7.26326 12.9808Z" fill="currentColor"/>
    <path d="M2.18622 14.6029C2.34763 14.6029 2.50096 14.5344 2.61394 14.4173C2.72692 14.3003 2.78745 14.147 2.78745 13.9856C2.78745 13.8565 2.7471 13.7354 2.67043 13.6345L1.83113 12.5168C1.73429 12.3877 1.59306 12.307 1.43166 12.2828C1.27026 12.2626 1.11289 12.3029 0.983766 12.3998C0.721485 12.5975 0.669029 12.9768 0.862713 13.2431L1.70201 14.3608C1.81499 14.5142 1.99657 14.6029 2.18622 14.6029Z" fill="currentColor"/>
    <path d="M11.4032 14.603C11.5929 14.603 11.7745 14.5142 11.8874 14.3609L12.7267 13.2431C12.9285 12.9768 12.876 12.5975 12.6097 12.3958C12.3434 12.194 11.9641 12.2465 11.7623 12.5168L10.923 13.6346C10.7253 13.9049 10.7859 14.2842 11.0562 14.486C11.1571 14.5586 11.2781 14.5989 11.4073 14.603H11.4032Z" fill="currentColor"/>
  </symbol>

  <symbol id="ico-suscribete" viewBox="0 0 23 23" fill="none">
    <path d="M5.21627 10.4325C5.21627 11.1622 3.92665 11.1622 3.92665 10.4325C3.92665 9.70284 5.27407 9.70284 5.21627 10.4325ZM4.65635 13.2394C3.81467 13.1274 3.64489 14.305 4.48657 14.3628C5.38244 14.5326 5.55222 13.2972 4.65635 13.2394ZM9.14292 9.87262C8.30124 9.76064 8.13146 10.9383 8.97314 10.9961C9.86901 11.1659 10.0388 9.93042 9.14292 9.87262ZM9.14292 13.2394C8.30124 13.1274 8.13146 14.305 8.97314 14.3628C9.86901 14.5326 10.0388 13.2972 9.14292 13.2394ZM13.6295 10.9961C14.4712 10.9383 14.3014 9.76064 13.4597 9.87262C12.6758 9.93042 12.842 11.1622 13.6295 10.9961ZM19.5755 17.1082H18.2281V15.8186C18.2281 15.4826 18.0041 15.2587 17.6681 15.2587C17.3322 15.2587 17.1082 15.4826 17.1082 15.8186V17.1082H15.8186C15.4826 17.1082 15.2587 17.3322 15.2587 17.6681C15.2587 18.0041 15.4826 18.2281 15.8186 18.2281H17.1082V19.5177C17.1082 19.8536 17.3322 20.0776 17.6681 20.0776C18.0041 20.0776 18.2281 19.8536 18.2281 19.5177V18.2281H19.5177C20.3016 18.2281 20.3016 17.1046 19.5755 17.1046V17.1082ZM23 17.6681C23 20.5833 20.5869 22.9964 17.6717 22.9964C10.9961 22.7724 10.4903 13.3477 17.1118 12.3941V7.17779H1.12345V15.4248C1.12345 16.3785 1.90733 17.1082 2.80682 17.1082H10.2122C10.9419 17.1082 10.9419 18.2317 10.2122 18.2317H2.8032C1.23182 18.2317 0 16.942 0 15.4285V4.3204C0 2.74902 1.28962 1.5172 2.8032 1.5172H4.03864V0.559918C4.03864 0.223967 4.2626 0 4.59856 0C4.93451 0 5.15847 0.223967 5.15847 0.559918V1.51359H13.0118V0.559918C13.0118 0.223967 13.2357 0 13.5717 0C13.9076 0 14.1316 0.223967 14.1316 0.559918V1.51359H15.3671C16.9384 1.51359 18.1703 2.8032 18.1703 4.31679V12.3399C20.9193 12.6216 22.9928 14.9191 22.9928 17.6681H23ZM17.1082 6.05795V4.37459C17.1082 3.42092 16.3243 2.69122 15.4248 2.69122H14.1894V3.64489C14.1894 3.98084 13.9654 4.20481 13.6295 4.20481C13.2935 4.20481 13.0696 3.98084 13.0696 3.64489V2.63342H5.21627V3.58709C5.21627 3.92304 4.9923 4.14701 4.65635 4.14701C4.3204 4.14701 4.09644 3.92304 4.09644 3.58709V2.63342H2.80682C1.85315 2.63342 1.12345 3.41731 1.12345 4.31679V6.00016H17.1118V6.05795H17.1082ZM21.8766 17.6681C21.8766 15.367 19.9692 13.4597 17.6681 13.4597C12.1159 13.6837 12.1159 21.649 17.6681 21.8729C20.0234 21.8729 21.8766 19.9656 21.8766 17.6645V17.6681Z" fill="currentColor"/>
  </symbol>

</svg>