<svg xmlns="http://www.w3.org/2000/svg" xmlns:xlink="http://www.w3.org/1999/xlink" style="display: none;">

    <symbol id="inclusion" viewBox="0 0 71 68" fill="none"> 
        <path fill-rule="evenodd" clip-rule="evenodd" d="M59.2431 58.56H60.7031V58.57C62.1431 58.59 63.3031 59.77 63.2831 61.2L63.2531 64.41C63.2331 65.85 62.0531 67.01 60.6231 67L43.9431 66.86C42.5031 66.85 41.3431 65.66 41.3531 64.23L41.3831 61.02C41.3931 59.59 42.5831 58.42 44.0131 58.43H45.1731L45.1631 50.14C45.1631 47.55 45.5831 45.15 47.5031 43.42C49.3331 41.77 52.6731 39.27 55.2431 36.23C55.2731 36.19 55.3131 36.15 55.3531 36.12C56.9531 34.67 59.3831 34.63 60.9131 36.16C61.0631 36.31 61.1931 36.46 61.3131 36.61C61.3731 36.29 61.4031 35.97 61.4031 35.62L61.3631 24.09C61.3431 19.83 62.7931 17.84 64.2931 17.1C65.6031 16.46 67.0931 16.66 68.2531 17.37C69.4331 18.09 70.2431 19.32 70.2731 20.59L70.8731 41.81C70.9431 44.09 70.1231 46.07 68.5131 47.68L59.2431 56.95V58.54V58.56ZM44.0031 60.71C43.8231 60.71 43.6731 60.85 43.6731 61.03L43.6431 64.24C43.6431 64.42 43.7831 64.56 43.9631 64.56L60.6431 64.7C60.8231 64.7 60.9631 64.56 60.9731 64.38L61.0031 61.17C61.0031 60.99 60.8631 60.84 60.6831 60.84L44.0031 60.7V60.71ZM44.8031 62.23C45.0431 61.63 45.7131 61.34 46.3131 61.58C46.9031 61.82 47.2031 62.49 46.9631 63.09C46.7231 63.69 46.0531 63.98 45.4531 63.74C44.8631 63.5 44.5631 62.83 44.8031 62.23ZM47.4631 58.45L56.9531 58.53V56.49C56.9531 56.19 57.0731 55.9 57.2831 55.68L66.8831 46.08C68.0331 44.93 68.6231 43.52 68.5731 41.89L67.9731 20.67C67.9531 20.13 67.5431 19.64 67.0431 19.33C65.5531 18.42 63.6131 19.33 63.6331 24.09L63.6731 35.62C63.6731 37.51 63.0531 39.12 61.8631 40.58L61.0731 41.55C61.0731 41.55 61.0531 41.57 61.0431 41.59C59.5131 43.31 57.8831 44.78 56.1831 46.47C55.7331 46.92 55.0131 46.92 54.5631 46.47C54.1131 46.02 54.1131 45.3 54.5631 44.85C56.2131 43.2 57.8031 41.77 59.2931 40.1C59.9031 39.27 59.9231 38.41 59.2731 37.77C58.6231 37.12 57.6131 37.18 56.9131 37.77C54.2731 40.86 50.8831 43.42 49.0131 45.11C47.5931 46.39 47.4231 48.21 47.4231 50.13V58.45H47.4631ZM21.6731 28.29H13.3831C13.0631 28.29 12.7531 28.15 12.5331 27.91C12.3131 27.67 12.2131 27.35 12.2431 27.02C12.6131 23.6 14.8131 20.73 17.8431 19.42C16.8631 18.46 16.2531 17.12 16.2531 15.64C16.2531 12.72 18.6331 10.34 21.5531 10.34C24.4731 10.34 26.8531 12.72 26.8531 15.64C26.8531 17.12 26.2431 18.46 25.2631 19.42C26.2131 19.83 27.0731 20.39 27.8331 21.07C28.7431 20.53 29.7031 20.08 30.7231 19.74C28.6931 18.27 27.3731 15.89 27.3731 13.2C27.3731 8.76 30.9931 5.14 35.4331 5.14C39.8731 5.14 43.4931 8.76 43.4931 13.2C43.4931 15.89 42.1731 18.27 40.1431 19.74C41.1631 20.08 42.1231 20.53 43.0331 21.07C43.7831 20.39 44.6531 19.83 45.6031 19.42C44.6231 18.46 44.0131 17.12 44.0131 15.64C44.0131 12.72 46.3931 10.34 49.3131 10.34C52.2331 10.34 54.6131 12.72 54.6131 15.64C54.6131 17.12 54.0031 18.46 53.0231 19.42C56.0531 20.73 58.2631 23.6 58.6231 27.02C58.6531 27.34 58.5531 27.66 58.3331 27.91C58.1131 28.15 57.8031 28.29 57.4831 28.29H49.1931C49.6931 29.53 50.0231 30.85 50.1731 32.22C50.2031 32.54 50.1031 32.86 49.8831 33.11C49.6631 33.35 49.3531 33.49 49.0331 33.49H21.8231C21.5031 33.49 21.1931 33.35 20.9731 33.11C20.7531 32.87 20.6531 32.55 20.6831 32.22C20.8331 30.84 21.1631 29.53 21.6631 28.29H21.6731ZM21.5631 18.66C23.2231 18.66 24.5831 17.3 24.5831 15.64C24.5831 13.98 23.2331 12.62 21.5631 12.62C19.8931 12.62 18.5531 13.98 18.5531 15.64C18.5531 17.3 19.9031 18.66 21.5631 18.66ZM49.3131 18.66C50.9731 18.66 52.3331 17.3 52.3331 15.64C52.3331 13.98 50.9831 12.62 49.3131 12.62C47.6431 12.62 46.3031 13.98 46.3031 15.64C46.3031 17.3 47.6531 18.66 49.3131 18.66ZM35.4431 21.27C29.4131 21.27 24.3831 25.52 23.1731 31.2H47.7131C46.5131 25.53 41.4731 21.27 35.4431 21.27ZM35.4431 18.98C38.6231 18.98 41.2231 16.38 41.2231 13.2C41.2231 10.02 38.6331 7.42 35.4431 7.42C32.2531 7.42 29.6731 10.02 29.6731 13.2C29.6731 16.38 32.2631 18.98 35.4431 18.98ZM21.5631 20.94C18.3531 20.94 15.6531 23.07 14.7731 25.99H22.8331C23.6631 24.65 24.7131 23.45 25.9231 22.43C24.7231 21.49 23.2131 20.93 21.5631 20.93V20.94ZM44.9631 22.44C46.1731 23.45 47.2131 24.65 48.0531 26C50.0731 26 56.1131 26 56.1131 26C55.2431 23.08 52.5331 20.95 49.3231 20.95C47.6831 20.95 46.1731 21.51 44.9731 22.45L44.9631 22.44ZM11.6331 58.56V56.97L2.36307 47.7C0.763072 46.09 -0.0569278 44.11 0.00307216 41.83L0.603072 20.61C0.643072 19.34 1.44307 18.11 2.62307 17.39C3.78307 16.68 5.27307 16.47 6.58307 17.12C8.08307 17.86 9.53307 19.85 9.51307 24.11L9.47307 35.64C9.47307 35.98 9.50307 36.31 9.56307 36.63C9.68307 36.47 9.81307 36.32 9.96307 36.18C11.4931 34.65 13.9131 34.69 15.5231 36.14C15.5631 36.17 15.5931 36.21 15.6331 36.25C18.2031 39.28 21.5431 41.78 23.3731 43.44C25.2931 45.17 25.7131 47.57 25.7131 50.16V58.46H26.8631C28.2931 58.46 29.4831 59.61 29.4931 61.05L29.5231 64.26C29.5331 65.69 28.3731 66.88 26.9331 66.89L10.2531 67.03C8.82307 67.04 7.63307 65.88 7.62307 64.45L7.59307 61.24C7.58307 59.81 8.74307 58.62 10.1731 58.61H11.6331V58.56ZM23.4131 58.45V50.13C23.4231 48.22 23.2631 46.39 21.8331 45.11C19.9631 43.42 16.5731 40.86 13.9331 37.77C13.2431 37.18 12.2231 37.13 11.5731 37.77C10.9331 38.41 10.9531 39.27 11.5531 40.1C13.0431 41.77 14.6331 43.2 16.2831 44.85C16.7331 45.3 16.7331 46.02 16.2831 46.47C15.8331 46.92 15.1131 46.92 14.6631 46.47C12.9631 44.77 11.3331 43.31 9.80307 41.59C9.80307 41.59 9.78307 41.57 9.77307 41.55L8.98307 40.58C7.79307 39.12 7.17307 37.51 7.17307 35.62L7.21307 24.09C7.23307 19.33 5.29307 18.42 3.80307 19.33C3.30307 19.64 2.88307 20.13 2.87307 20.67L2.27307 41.89C2.22307 43.52 2.81307 44.93 3.96307 46.08L13.5631 55.68C13.7731 55.89 13.8931 56.19 13.8931 56.49V58.53L23.3831 58.45H23.4131ZM26.8731 60.71L10.1931 60.85C10.0131 60.85 9.87307 61 9.87307 61.18L9.90307 64.39C9.90307 64.57 10.0531 64.71 10.2331 64.71L26.9131 64.57C27.0931 64.57 27.2331 64.42 27.2331 64.25L27.2031 61.04C27.2031 60.86 27.0531 60.72 26.8731 60.72V60.71ZM26.0731 62.23C26.3131 62.82 26.0231 63.5 25.4231 63.74C24.8231 63.98 24.1531 63.69 23.9131 63.09C23.6731 62.5 23.9731 61.82 24.5631 61.58C25.1631 61.34 25.8331 61.64 26.0731 62.23ZM13.9031 17.87C13.9031 18.5 13.3931 19.01 12.7631 19.01C12.1331 19.01 11.6231 18.5 11.6231 17.87C11.6231 8.11 22.2131 0 35.4431 0C48.6731 0 59.2631 8.11 59.2631 17.87C59.2631 18.5 58.7531 19.01 58.1231 19.01C57.4931 19.01 56.9831 18.5 56.9831 17.87C56.9831 14.48 55.4631 11.35 52.9331 8.8C48.9931 4.83 42.6131 2.29 35.4431 2.29C28.2731 2.29 21.8931 4.84 17.9531 8.8C15.4231 11.34 13.9031 14.47 13.9031 17.87Z" fill="#A57F2C"/>
    </symbol>
    <symbol id="equidad" viewBox="0 0 71 70" fill="none">
        <path d="M4.55273 35.6904C5.3471 40.6953 9.64772 44.4609 14.8408 44.4609C20.0325 44.4608 24.3241 40.6964 25.1182 35.6904H4.55273ZM44.8994 35.9004C45.7878 40.8023 50.0325 44.4609 55.1504 44.4609C60.2706 44.4609 64.5236 40.8003 65.4033 35.9004H44.8994ZM58.3906 9.98047C58.3906 8.30725 57.0183 6.94043 55.3301 6.94043C53.769 6.94063 52.4887 8.1263 52.3232 9.6709L52.2295 10.5479C52.3258 10.8289 52.4634 11.1091 52.6309 11.377C52.9531 11.8923 53.3167 12.2583 53.4863 12.3906L54.2432 12.9805L45.2109 33.4404H65.4795L56.4385 12.9814L57.1924 12.3916C57.928 11.8162 58.3906 10.953 58.3906 9.98047ZM11.7803 9.98047C11.7803 10.9986 12.2882 11.9058 13.0762 12.4697L13.8896 13.0518L4.9834 33.2305H25.0664L16.0801 12.8975L16.7949 12.3037C17.1481 12.0104 17.9074 11.1397 17.8711 9.80371L17.8574 9.6709C17.6926 8.13165 16.4068 6.94043 14.8301 6.94043C13.1477 6.94064 11.7803 8.31178 11.7803 9.98047ZM60.8506 9.98047C60.8506 11.4086 60.3009 12.6876 59.4258 13.6572L67.6211 32.2002H68.1602C69.4095 32.2002 70.4209 33.2116 70.4209 34.4609C70.4206 35.71 69.4093 36.7207 68.1602 36.7207H67.748C66.5112 42.5826 61.342 46.9209 55.1504 46.9209C48.9562 46.9209 43.7962 42.5803 42.5527 36.7197C41.3894 36.7108 40.4372 35.8262 40.3223 34.6914L40.3105 34.4609L40.3223 34.2295C40.4377 33.089 41.3991 32.2003 42.5703 32.2002H43.0693L51.2607 13.6426C51.0174 13.366 50.7697 13.0412 50.5449 12.6816C50.2166 12.1565 49.9058 11.5036 49.7412 10.7705H42.0703V14.3701C42.0703 15.6116 41.0776 16.6308 39.8105 16.6309H39.0205V53.3408H45.6807C49.5271 53.3409 52.6504 56.4487 52.6504 60.3008H50.1904C50.1904 57.8129 48.1741 55.8009 45.6807 55.8008H36.5605V14.1709H39.6104V10.7705H39.6006V6.83008C39.6004 4.4167 37.6479 2.46094 35.2402 2.46094C33.9213 2.46101 32.8421 3.07282 32.0664 3.96191C31.2699 4.87491 30.8702 5.9946 30.8701 6.83008V14.1709H33.9307V55.79H24.8105C22.3214 55.79 20.3108 57.8081 20.3105 60.29H17.8506C17.8508 56.4523 20.96 53.3301 24.8105 53.3301H31.4707V16.6309H30.6709C29.4216 16.6309 28.4102 15.6194 28.4102 14.3701V10.7705H20.2637C20.0815 11.9644 19.5499 12.8848 19.0391 13.5088L27.3008 32.2002H27.8408C29.09 32.2004 30.1006 33.2117 30.1006 34.4609C30.1003 35.7099 29.0898 36.7205 27.8408 36.7207H27.4287C26.1931 42.5814 21.0335 46.9207 14.8408 46.9209C8.64884 46.9209 3.47865 42.5821 2.24219 36.7197C1.06284 36.7106 0.124843 35.8195 0.0117188 34.6904L0 34.4609L0.0117188 34.2305C0.125445 33.0956 1.07283 32.2002 2.26074 32.2002H2.74805L10.8701 13.7998C9.91838 12.8123 9.32031 11.4703 9.32031 9.98047C9.32031 6.94942 11.7928 4.48068 14.8301 4.48047C17.3001 4.48047 19.3601 6.095 20.0693 8.31055H28.4102V6.83008C28.4103 5.32587 29.0764 3.64641 30.2119 2.34473C31.3686 1.01893 33.0894 7.46165e-05 35.2402 0C39.0123 0 42.0603 3.06381 42.0605 6.83008V8.31055H50.1104C50.8165 6.09825 52.8648 4.48064 55.3301 4.48047C58.3619 4.48047 60.8506 6.93369 60.8506 9.98047Z" fill="#A57F2C"/>
        <path d="M55.2708 64.4402C55.2705 63.2673 54.3287 62.3211 53.1506 62.321H17.3401C16.1749 62.3213 15.2212 63.2646 15.2209 64.4402V67.0007H55.2708V64.4402ZM57.7307 69.4607H12.76V64.4402C12.7602 61.8964 14.8259 59.8603 17.3401 59.8601H53.1506C55.6921 59.8602 57.7305 61.9135 57.7307 64.4402V69.4607Z" fill="#A57F2C"/>
    </symbol>
    <symbol id="respeto" viewBox="0 0 85 67" fill="none">
        <path d="M84.1368 19.0081L69.9968 0.648083C69.4768 -0.0319166 68.5168 -0.201917 67.7968 0.258083L58.6668 6.06808H46.7568C46.6068 6.06808 46.4468 6.09808 46.2968 6.14808L37.0668 8.80808L27.4868 6.18808L18.1768 0.258083C17.4668 -0.191917 16.5268 -0.0419166 15.9968 0.618083L0.366791 19.9881C-0.193209 20.6881 -0.103209 21.6981 0.576791 22.2881L8.77679 29.3381L16.1268 39.2481C13.9768 41.5381 14.0168 45.1581 16.2568 47.3881C17.2468 48.3781 18.5068 48.9381 19.8068 49.0681C19.7568 49.3581 19.7368 49.6581 19.7368 49.9681C19.7368 51.5281 20.3468 52.9981 21.4468 54.1081C22.5468 55.2181 24.0268 55.8281 25.5868 55.8281C25.6068 55.8281 25.6268 55.8281 25.6468 55.8281C25.6468 55.8681 25.6468 55.9081 25.6468 55.9481C25.6468 57.5081 26.2568 58.9781 27.3568 60.0881C28.4668 61.1981 29.9368 61.7981 31.4968 61.7981C31.8068 61.7981 32.1068 61.7681 32.4068 61.7281C32.5368 63.0281 33.0968 64.2981 34.0868 65.2881C35.2268 66.4281 36.7268 66.9981 38.2268 66.9981C39.7268 66.9981 41.2268 66.4281 42.3668 65.2881L43.2668 64.3881L43.6468 64.6881C44.7768 65.7881 46.2468 66.3281 47.7168 66.3281C49.1868 66.3281 50.7168 65.7581 51.8568 64.6181C53.0168 63.4581 53.5968 61.9181 53.5668 60.3881C55.0968 60.4081 56.6368 59.8381 57.7968 58.6781C58.9568 57.5181 59.5268 55.9781 59.5068 54.4481C61.0968 54.4781 62.6068 53.8581 63.7368 52.7381C64.8668 51.6181 65.4768 50.0381 65.4468 48.5081C66.9768 48.5281 68.5168 47.9581 69.6768 46.7981C71.6668 44.8081 71.9168 41.7381 70.4468 39.4681L75.8168 28.2181L83.8868 21.2681C84.5568 20.6981 84.6568 19.6981 84.1168 18.9981L84.1368 19.0081ZM17.6568 3.84808L24.3468 8.10808L9.78679 25.8481L3.95679 20.8281L17.6568 3.84808ZM18.5968 41.4581L20.6168 39.4381C20.6768 39.3781 20.7468 39.3181 20.8068 39.2681C21.2068 38.9481 21.6768 38.7581 22.1868 38.7081C22.1968 38.7081 22.2168 38.7081 22.2268 38.7081C22.2968 38.7081 22.3668 38.7081 22.4468 38.7081C23.1368 38.7081 23.7868 38.9981 24.2568 39.5081C25.1968 40.4981 25.1468 42.1181 24.1468 43.1081L22.1868 45.0681C21.1968 46.0581 19.5868 46.0581 18.5968 45.0681C17.6068 44.0781 17.6068 42.4681 18.5968 41.4781V41.4581ZM23.7968 51.7681C23.3168 51.2881 23.0568 50.6481 23.0568 49.9681C23.0568 49.2881 23.3168 48.6481 23.7968 48.1681L27.7168 44.2481C28.4668 43.4981 29.6468 43.2881 30.6068 43.7481C31.5968 44.2181 32.1468 45.2881 32.0068 46.3681C31.9268 46.9481 31.6568 47.4881 31.2468 47.8981L27.3968 51.7481C26.9168 52.2281 26.2768 52.4881 25.5968 52.4881C24.9168 52.4881 24.2768 52.2281 23.7968 51.7481V51.7681ZM29.7068 57.7381C29.2268 57.2581 28.9668 56.6181 28.9668 55.9381C28.9668 55.2581 29.2268 54.6181 29.7068 54.1381L33.6268 50.2181C34.4268 49.4181 35.7168 49.2481 36.6968 49.8181C37.5968 50.3381 38.0668 51.3681 37.9068 52.3881C37.8268 52.9481 37.5568 53.4781 37.1568 53.8781L33.3068 57.7281C32.8268 58.2081 32.1868 58.4681 31.5068 58.4681C30.8268 58.4681 30.1868 58.2081 29.7068 57.7281V57.7381ZM36.4468 62.9481C35.4568 61.9581 35.4568 60.3481 36.4468 59.3581L38.4668 57.3381C38.5268 57.2781 38.5968 57.2181 38.6568 57.1681C38.9868 56.8981 39.3668 56.7181 39.7868 56.6481H39.8168C39.8868 56.6281 39.9568 56.6181 40.0368 56.6181C40.0668 56.6181 40.0968 56.6181 40.1268 56.6181C40.1868 56.6181 40.2468 56.6181 40.3068 56.6181C40.9968 56.6181 41.6468 56.9081 42.1168 57.4181C42.1768 57.4781 42.2268 57.5481 42.2768 57.6081C43.0368 58.6081 42.9368 60.0881 41.9868 61.0281L40.0368 62.9781C39.0468 63.9681 37.4368 63.9681 36.4468 62.9781V62.9481ZM67.3468 44.4581C66.3568 45.4481 64.7468 45.4481 63.7568 44.4581C63.7168 44.4181 63.6868 44.3881 63.6468 44.3581L52.9968 33.5981C52.3568 32.9481 51.3068 32.9381 50.6568 33.5881C50.0068 34.2281 49.9968 35.2781 50.6468 35.9281L61.4168 46.8081C62.4068 47.7981 62.4068 49.4181 61.4168 50.4081C60.9368 50.8881 60.2968 51.1481 59.6168 51.1481C58.9368 51.1481 58.2968 50.8881 57.8168 50.4081L50.6168 43.1281C49.9768 42.4781 48.9268 42.4681 48.2768 43.1181C47.6268 43.7581 47.6168 44.8081 48.2668 45.4581L55.3568 52.6281C55.3568 52.6281 55.4268 52.7181 55.4768 52.7581C56.4668 53.7481 56.4668 55.3581 55.4768 56.3481C54.4868 57.3381 52.8768 57.3381 51.8868 56.3481L47.9568 52.3781C47.3168 51.7281 46.2668 51.7181 45.6168 52.3681C44.9668 53.0081 44.9568 54.0581 45.6068 54.7081L49.4268 58.5681C49.4268 58.5681 49.4968 58.6581 49.5468 58.6981C50.5368 59.6881 50.5368 61.2981 49.5468 62.2881C48.5568 63.2781 46.9468 63.2781 45.9568 62.2881C45.8468 62.1781 45.7068 62.0881 45.5768 61.9881C45.4668 61.9081 45.4368 61.8481 45.4968 61.7181C45.5468 61.5881 45.6368 61.4681 45.6868 61.3281C45.7468 61.1781 45.7968 61.0281 45.8468 60.8681C46.0968 60.0481 46.1768 59.1681 46.0568 58.3181C45.8368 56.6881 44.9368 55.2181 43.5868 54.2881C42.8568 53.7881 42.0068 53.4581 41.1268 53.3281C41.5568 51.4481 41.0368 49.4081 39.7068 47.9981C38.6068 46.8381 37.1268 46.1881 35.5368 46.1681C35.4768 46.1681 35.4168 46.1681 35.3668 46.1681C35.4068 44.6481 34.8468 43.1381 33.7968 42.0281C32.6968 40.8681 31.2168 40.2181 29.6268 40.1981C29.1568 40.1981 28.6768 40.2381 28.2168 40.3481C28.0168 38.9781 27.3268 37.7081 26.2768 36.7981C25.2368 35.8981 23.9268 35.3981 22.5368 35.3781C21.0668 35.3581 19.6268 35.8981 18.5368 36.8781L12.1368 28.2481L27.4568 9.58808L32.3368 10.9281L25.9568 22.1781C25.1868 23.5381 24.9868 25.1181 25.4068 26.6281C25.8268 28.1381 26.8068 29.3881 28.1668 30.1581C28.2568 30.2081 28.3368 30.2481 28.4268 30.2981C28.4268 30.2981 28.4368 30.2981 28.4468 30.2981C28.6768 30.4081 28.9068 30.5081 29.1468 30.5881C30.2568 30.9681 31.4568 31.0181 32.6168 30.6981C34.1268 30.2781 35.3768 29.2981 36.1468 27.9381L40.2868 20.6281L47.6868 21.1481L67.3868 40.8481C68.3768 41.8381 68.3768 43.4481 67.3868 44.4381L67.3468 44.4581ZM68.0368 36.8581L49.5568 18.3781C49.5568 18.3781 49.4868 18.3081 49.4468 18.2781C49.1768 18.0581 48.8468 17.9181 48.5068 17.8981L39.4468 17.2581C38.8168 17.2181 38.1968 17.5481 37.8868 18.0981L33.2268 26.3181C32.8968 26.9081 32.3468 27.3381 31.6968 27.5181C31.0468 27.6981 30.3568 27.6181 29.7668 27.2781C29.1768 26.9481 28.7468 26.3981 28.5668 25.7481C28.3868 25.0981 28.4668 24.4081 28.8068 23.8181L35.0268 12.8381L37.5468 12.1081C37.5468 12.1081 37.5768 12.0981 37.5968 12.0881L47.0068 9.36808H58.3668L72.5568 27.4081L68.0468 36.8581H68.0368ZM74.7168 24.8081L61.5968 8.11808L68.2968 3.85808L80.5568 19.7781L74.7168 24.7981V24.8081Z" fill="#A57F2C"/>
    </symbol>
    <symbol id="fraternidad" viewBox="0 0 61 67" fill="none">
        <path d="M44.41 37.64C45.93 36.12 46.69 34.12 46.69 32.12C46.69 27.88 43.31 24.32 38.89 24.32C36.89 24.32 34.88 25.08 33.36 26.6L31.04 28.92C30.53 29.43 29.7 29.43 29.19 28.92L26.87 26.6C25.35 25.08 23.35 24.32 21.34 24.32C17.02 24.32 13.54 27.79 13.54 32.12C13.54 34.12 14.3 36.12 15.81 37.64C20.58 42.4 25.34 47.17 30.11 51.94C34.88 47.17 39.64 42.41 44.41 37.64ZM48.84 45.58C48.84 44.86 49.43 44.27 50.15 44.27C50.87 44.27 51.46 44.86 51.46 45.58C51.46 46.3 50.87 46.89 50.15 46.89C49.43 46.89 48.84 46.3 48.84 45.58ZM48.84 50.82C48.84 50.1 49.43 49.51 50.15 49.51C50.87 49.51 51.46 50.1 51.46 50.82V61.3C51.46 62.15 51.81 62.92 52.37 63.48C52.93 64.04 53.7 64.39 54.54 64.39C55.38 64.39 56.15 64.04 56.71 63.48C57.27 62.92 57.62 62.15 57.62 61.3V29.87C57.37 30.2 57.1 30.53 56.81 30.85C54.77 33.14 51.9 34.98 48.5 36.15C47.97 37.41 47.23 38.53 46.26 39.5L42.68 43.08V61.31C42.68 62.16 43.03 62.93 43.59 63.48C44.15 64.03 44.92 64.39 45.76 64.39C46.6 64.39 47.37 64.04 47.93 63.48C48.49 62.92 48.84 62.15 48.84 61.31V50.83V50.82ZM8.77 45.58C8.77 44.86 9.36 44.27 10.08 44.27C10.8 44.27 11.39 44.86 11.39 45.58C11.39 46.3 10.8 46.89 10.08 46.89C9.36 46.89 8.77 46.3 8.77 45.58ZM8.77 50.82C8.77 50.1 9.36 49.51 10.08 49.51C10.8 49.51 11.39 50.1 11.39 50.82V61.3C11.39 62.15 11.74 62.92 12.3 63.48C12.86 64.04 13.63 64.39 14.47 64.39C15.31 64.39 16.09 64.04 16.64 63.48C17.2 62.92 17.55 62.15 17.55 61.3V43.08L13.97 39.49C13.01 38.53 12.26 37.4 11.73 36.14C8.33 34.96 5.47 33.13 3.42 30.84C3.14 30.52 2.87 30.2 2.62 29.86V61.29C2.62 62.14 2.97 62.91 3.53 63.47C4.09 64.03 4.86 64.38 5.7 64.38C6.54 64.38 7.31 64.03 7.87 63.47C8.43 62.91 8.78 62.14 8.78 61.29V50.81L8.77 50.82ZM40.08 21.76C40.22 20.44 40.81 19.24 41.71 18.35C42.73 17.33 44.14 16.69 45.7 16.69H54.59C56.14 16.69 57.55 17.32 58.58 18.35C59.6 19.37 60.24 20.78 60.24 22.34V61.3C60.24 62.87 59.6 64.29 58.57 65.33C57.53 66.36 56.11 67 54.54 67C52.97 67 51.55 66.36 50.51 65.33C50.38 65.2 50.26 65.07 50.15 64.93C50.03 65.07 49.91 65.2 49.79 65.33C48.76 66.36 47.33 67 45.76 67C44.19 67 42.77 66.36 41.73 65.33C40.7 64.3 40.06 62.87 40.06 61.3V45.69L31.04 54.71C30.53 55.22 29.7 55.22 29.19 54.71L20.17 45.69V61.29C20.17 62.86 19.53 64.28 18.5 65.32C17.47 66.36 16.04 66.99 14.47 66.99C12.9 66.99 11.48 66.35 10.45 65.32C10.32 65.19 10.2 65.06 10.09 64.92C9.97 65.06 9.85 65.19 9.73 65.32C8.69 66.35 7.27 66.99 5.7 66.99C4.13 66.99 2.71 66.35 1.67 65.32C0.64 64.29 0 62.86 0 61.29V22.34C0 20.79 0.63 19.37 1.66 18.35C2.68 17.33 4.09 16.69 5.65 16.69H14.54C16.09 16.69 17.51 17.32 18.53 18.35C19.43 19.25 20.03 20.44 20.16 21.76C20.56 21.72 20.96 21.69 21.36 21.69C24.03 21.69 26.71 22.7 28.73 24.73L30.13 26.13L31.53 24.73C33.56 22.7 36.23 21.69 38.91 21.69C39.31 21.69 39.71 21.71 40.11 21.76H40.08ZM42.67 22.4C44.47 23.09 46.01 24.27 47.18 25.8C48.02 25.37 48.69 24.88 49.18 24.34C49.74 23.72 50.04 23.05 50.04 22.34C50.04 21.63 50.63 21.03 51.35 21.03C52.07 21.03 52.66 21.62 52.66 22.34C52.66 23.72 52.11 25 51.11 26.1C50.43 26.84 49.55 27.5 48.48 28.06C49.13 29.65 49.4 31.33 49.25 33.04C51.52 32.04 53.44 30.69 54.85 29.11C56.6 27.16 57.6 24.84 57.6 22.34C57.6 21.51 57.26 20.75 56.71 20.2C56.16 19.65 55.4 19.31 54.57 19.31H45.68C44.85 19.31 44.1 19.65 43.55 20.2C42.95 20.8 42.66 21.55 42.66 22.4H42.67ZM10.96 33.04C10.81 31.34 11.08 29.64 11.73 28.06C10.66 27.5 9.78 26.84 9.1 26.1C8.1 25 7.55 23.73 7.55 22.34C7.55 21.62 8.14 21.03 8.86 21.03C9.58 21.03 10.17 21.62 10.17 22.34C10.17 23.06 10.47 23.72 11.03 24.34C11.52 24.88 12.2 25.37 13.03 25.8C14.19 24.27 15.74 23.1 17.54 22.4V22.34C17.54 21.51 17.2 20.75 16.65 20.2C16.1 19.65 15.34 19.31 14.51 19.31H5.63C4.8 19.31 4.04 19.65 3.49 20.2C2.94 20.75 2.6 21.51 2.6 22.34C2.6 24.83 3.6 27.16 5.35 29.11C6.77 30.7 8.68 32.04 10.95 33.04H10.96ZM50.15 2.62C48.93 2.62 47.82 3.11 47.01 3.92C46.21 4.72 45.71 5.83 45.71 7.06C45.71 8.29 46.21 9.39 47.01 10.2C47.81 11.01 48.92 11.5 50.15 11.5C51.38 11.5 52.48 11 53.29 10.2C54.1 9.4 54.59 8.29 54.59 7.06C54.59 5.83 54.09 4.73 53.29 3.92C52.49 3.11 51.38 2.62 50.15 2.62ZM45.16 2.07C46.44 0.79 48.2 0 50.15 0C52.1 0 53.86 0.79 55.14 2.07C56.42 3.35 57.21 5.11 57.21 7.06C57.21 9.01 56.42 10.77 55.14 12.05C53.86 13.33 52.1 14.11 50.15 14.11C48.2 14.11 46.44 13.32 45.16 12.05C43.88 10.77 43.09 9.01 43.09 7.06C43.09 5.11 43.88 3.35 45.16 2.07ZM10.08 0C12.02 0 13.79 0.79 15.06 2.07C16.34 3.35 17.13 5.11 17.13 7.06C17.13 9.01 16.34 10.77 15.06 12.05C13.79 13.33 12.02 14.11 10.08 14.11C8.14 14.11 6.37 13.32 5.09 12.05C3.81 10.77 3.02 9.01 3.02 7.06C3.02 5.11 3.81 3.35 5.09 2.07C6.37 0.79 8.13 0 10.08 0ZM13.22 3.92C12.41 3.11 11.31 2.62 10.08 2.62C8.85 2.62 7.75 3.11 6.94 3.92C6.14 4.72 5.64 5.83 5.64 7.06C5.64 8.29 6.14 9.39 6.94 10.2C7.75 11 8.85 11.5 10.08 11.5C11.31 11.5 12.41 11 13.22 10.2C14.02 9.4 14.52 8.29 14.52 7.06C14.52 5.83 14.02 4.73 13.22 3.92Z" fill="#A57F2C"/>
    </symbol>
    <symbol id="interculturalidad" viewBox="0 0 95 67" fill="none">
        <path d="M18.67 32C12.63 32 7.71997 27.13 7.71997 21.15C7.71997 15.17 12.63 10.3 18.67 10.3C24.71 10.3 29.62 15.17 29.62 21.15C29.62 27.13 24.71 32 18.67 32ZM18.67 13.34C14.31 13.34 10.76 16.84 10.76 21.15C10.76 25.46 14.31 28.96 18.67 28.96C23.03 28.96 26.58 25.46 26.58 21.15C26.58 16.84 23.03 13.34 18.67 13.34Z" fill="#A57F2C"/>
        <path d="M23.08 62.0499H3.98C1.79 62.0499 0 60.2799 0 58.0999V53.1199C0 42.9199 8.38 34.6299 18.67 34.6299C22.72 34.6299 26.58 35.8899 29.82 38.2799C30.5 38.7799 30.64 39.7299 30.14 40.4099C29.64 41.0899 28.69 41.2299 28.01 40.7299C25.3 38.7299 22.07 37.6699 18.67 37.6699C10.05 37.6699 3.04 44.5999 3.04 53.1199V58.0999C3.04 58.5999 3.46 59.0099 3.97 59.0099H23.07C23.91 59.0099 24.59 59.6899 24.59 60.5299C24.59 61.3699 23.91 62.0499 23.07 62.0499H23.08Z" fill="#A57F2C"/>
        <path d="M90.4299 60.89H71.3299C70.4899 60.89 69.8099 60.21 69.8099 59.37C69.8099 58.53 70.4899 57.85 71.3299 57.85H90.4299C90.9499 57.85 91.3599 57.44 91.3599 56.94V51.96C91.3599 43.44 84.3499 36.51 75.7299 36.51C72.1299 36.51 68.6199 37.75 65.8399 40C65.1899 40.53 64.2299 40.43 63.6999 39.77C63.1699 39.12 63.2699 38.16 63.9299 37.63C67.2499 34.94 71.4499 33.46 75.7399 33.46C86.0399 33.46 94.4099 41.76 94.4099 51.95V56.93C94.4099 59.11 92.6199 60.88 90.4299 60.88V60.89Z" fill="#A57F2C"/>
        <path d="M75.73 31.25C69.69 31.25 64.78 26.38 64.78 20.4C64.78 14.42 69.69 9.55005 75.73 9.55005C81.77 9.55005 86.68 14.42 86.68 20.4C86.68 26.38 81.77 31.25 75.73 31.25ZM75.73 12.59C71.37 12.59 67.82 16.09 67.82 20.4C67.82 24.71 71.37 28.21 75.73 28.21C80.09 28.21 83.64 24.71 83.64 20.4C83.64 16.09 80.09 12.59 75.73 12.59Z" fill="#A57F2C"/>
        <path d="M26.5401 66.9999C23.7901 66.9999 21.5601 64.7799 21.5601 62.0599V55.0499C21.5601 41.0499 33.0601 29.6599 47.2101 29.6599C61.3601 29.6599 72.8601 41.0499 72.8601 55.0499V62.0599C72.8601 64.7899 70.6301 66.9999 67.8801 66.9999H26.5401ZM47.2001 32.7099C34.7401 32.7099 24.6001 42.7299 24.6001 55.0499V62.0599C24.6001 63.1099 25.4701 63.9599 26.5301 63.9599H67.8601C68.9301 63.9599 69.7901 63.1099 69.7901 62.0599V55.0499C69.7901 42.7299 59.6501 32.7099 47.1901 32.7099H47.2001Z" fill="#A57F2C"/>
        <path d="M46.6801 27.88C38.9201 27.88 32.6101 21.63 32.6101 13.94C32.6101 6.25 38.9201 0 46.6801 0C54.4401 0 60.7501 6.25 60.7501 13.94C60.7501 21.63 54.4401 27.88 46.6801 27.88ZM46.6801 3.05C40.6001 3.05 35.6501 7.94 35.6501 13.95C35.6501 19.96 40.6001 24.85 46.6801 24.85C52.7601 24.85 57.7101 19.96 57.7101 13.95C57.7101 7.94 52.7601 3.05 46.6801 3.05Z" fill="#A57F2C"/>
    </symbol>
    <symbol id="solidaridad" viewBox="0 0 67 67" fill="none">
        <path d="M66.4604 26.5C65.8804 25.64 64.9004 25.12 63.8604 25.13C62.4704 25.13 61.1404 25.68 60.1504 26.66C59.6904 27.14 59.3104 27.69 59.0504 28.3C58.9104 28.28 58.7604 28.27 58.6204 28.27C56.9904 28.27 55.4604 29.02 54.4604 30.31C53.7404 31.29 53.3604 32.48 53.3804 33.7V41.36C53.3804 41.36 53.2904 41.43 53.2504 41.46L47.5704 47.21L46.3104 47.52C42.4604 48.5 39.7704 51.96 39.7704 55.93V66.06C39.7704 66.46 39.9904 66.82 40.3504 66.99H53.8504C54.2004 66.82 54.4304 66.45 54.4304 66.06V63.19L64.7704 50.94C66.2004 49.24 66.9904 47.08 66.9904 44.86V28.37C67.0104 27.7 66.8204 27.04 66.4504 26.49L66.4604 26.5ZM58.6204 30.36V40.99C57.9204 40.49 57.0804 40.23 56.2204 40.23C55.9704 40.23 55.7204 40.26 55.4804 40.3V33.5C55.5204 31.78 56.9004 30.4 58.6204 30.36ZM64.9104 44.87C64.9104 46.6 64.3004 48.27 63.1804 49.6L52.5904 62.14C52.4304 62.33 52.3404 62.57 52.3404 62.82V64.91H41.8704V55.93C41.8704 52.92 43.9104 50.29 46.8304 49.56L48.3704 49.17C48.5504 49.12 48.7204 49.03 48.8604 48.89L54.7504 42.94C55.1404 42.54 55.6704 42.31 56.2304 42.32C56.7904 42.32 57.3204 42.54 57.7104 42.93C58.4104 43.59 58.5304 44.67 57.9904 45.47C57.9004 45.59 57.8104 45.71 57.7104 45.81L50.8004 52.78C50.3904 53.19 50.3904 53.85 50.8004 54.26C51.2104 54.67 51.8704 54.67 52.2804 54.26L59.1904 47.29C60.1604 46.31 60.7104 44.99 60.7104 43.61V30.36C60.7504 28.64 62.1304 27.26 63.8504 27.22C64.4304 27.22 64.9004 27.69 64.9004 28.26V44.87H64.9104Z" fill="#A57F2C"/>
        <path d="M20.6804 47.5299L19.4204 47.2199L13.7404 41.4699C13.7404 41.4699 13.6504 41.3999 13.6104 41.3699V33.7099C13.6304 32.4899 13.2604 31.2999 12.5304 30.3199C11.5404 29.0299 10.0004 28.2799 8.37038 28.2799C8.23038 28.2799 8.08038 28.2899 7.94038 28.3099C7.68038 27.6999 7.31038 27.1399 6.84038 26.6699C5.86038 25.6899 4.52038 25.1399 3.13038 25.1399C2.09038 25.1399 1.12038 25.6499 0.530376 26.5099C0.180376 27.0499 -0.00962437 27.7099 0.000375627 28.3799V44.8699C0.000375627 47.0999 0.790376 49.2499 2.22038 50.9499L12.5604 63.1999V66.0699C12.5604 66.4699 12.7804 66.8299 13.1404 66.9999H26.6404C26.9904 66.8299 27.2204 66.4599 27.2204 66.0699V55.9399C27.2204 51.9699 24.5204 48.5099 20.6804 47.5299ZM8.38038 30.3599C10.1004 30.3999 11.4804 31.7799 11.5204 33.4999V40.2999C11.2804 40.2499 11.0304 40.2299 10.7804 40.2299C9.92038 40.2299 9.08038 40.4899 8.38038 40.9899V30.3599ZM25.1304 64.9099H14.6604V62.8199C14.6604 62.5699 14.5704 62.3299 14.4104 62.1399L3.82038 49.5999C2.70038 48.2799 2.09038 46.5999 2.09038 44.8699V28.2699C2.09038 27.6899 2.56038 27.2199 3.13038 27.2199C4.85038 27.2599 6.23038 28.6399 6.27038 30.3599V43.6099C6.27038 44.9899 6.81038 46.3199 7.79038 47.2899L14.7004 54.2599C15.1104 54.6699 15.7704 54.6699 16.1804 54.2599C16.5904 53.8499 16.5904 53.1899 16.1804 52.7799L9.27038 45.8099C9.17038 45.6999 9.07038 45.5899 8.99038 45.4699C8.45038 44.6699 8.58038 43.5999 9.27038 42.9299C9.66038 42.5399 10.2004 42.3199 10.7504 42.3199C11.3104 42.3199 11.8404 42.5399 12.2304 42.9399L18.1204 48.8899C18.2504 49.0299 18.4204 49.1199 18.6104 49.1699L20.1504 49.5599C23.0704 50.2999 25.1104 52.9199 25.1104 55.9299V64.9099H25.1304Z" fill="#A57F2C"/>
        <path d="M54.4404 20.94C54.4404 9.37 45.0604 0 33.5004 0C21.9404 0 12.5604 9.37 12.5604 20.94C12.5604 32.51 21.9304 41.88 33.5004 41.88C45.0604 41.87 54.4204 32.5 54.4404 20.94ZM26.1904 3.57L30.1704 5.83C30.3204 5.92 30.3804 6.11 30.2904 6.26C30.2404 6.36 30.1304 6.42 30.0204 6.42L28.5204 6.45C28.0304 6.45 27.6104 6.81 27.5104 7.29L26.8704 10.44L21.4504 15.18C21.2204 15.38 21.0904 15.67 21.0904 15.97V17.47L20.1104 17.22L19.5804 15.63C19.4504 15.24 19.1004 14.96 18.6904 14.92L15.7704 14.63C17.5504 9.65 21.3304 5.64 26.1904 3.57ZM23.4204 31.04L22.5704 31.98C22.0304 32.58 21.8004 33.4 21.9604 34.19L22.3204 36.07C16.2404 31.64 13.4204 23.99 15.1504 16.67L17.7904 16.94L18.2904 18.43C18.4004 18.77 18.6804 19.03 19.0304 19.11L19.7804 19.3L18.6804 20.09C18.4004 20.29 18.2404 20.6 18.2404 20.94V22.83C18.2404 22.97 18.2704 23.1 18.3204 23.23L20.4504 28.44C20.5804 28.75 20.8404 28.98 21.1704 29.06L22.9504 29.51C23.4504 29.64 23.7604 30.14 23.6304 30.65C23.5904 30.8 23.5204 30.94 23.4204 31.05V31.04ZM26.8404 35.48L25.8104 38.13C25.4504 37.97 25.1004 37.8 24.7504 37.62L24.0104 33.8C23.9804 33.65 24.0204 33.5 24.1304 33.38L24.9804 32.44C26.1004 31.2 26.0004 29.28 24.7604 28.16C24.3904 27.83 23.9504 27.59 23.4704 27.47L22.2004 27.15L20.3504 22.62V21.47L23.0604 19.54C23.1904 19.44 23.3604 19.42 23.5104 19.48C23.6604 19.53 23.7704 19.66 23.8104 19.81L23.9804 20.47C24.1004 20.94 24.5204 21.26 25.0004 21.26H29.6504C29.8504 21.26 30.0304 21.38 30.1004 21.56L31.1404 24.15C31.2704 24.48 31.5604 24.72 31.9104 24.79L33.9004 25.19C34.3904 25.29 34.7004 25.76 34.6004 26.25C34.5804 26.35 34.5404 26.45 34.4904 26.53L32.8404 29.29L32.1204 29.53C31.0704 29.88 30.3604 30.86 30.3604 31.97V33.12L27.3204 34.95C27.1204 35.07 26.9704 35.25 26.8804 35.47L26.8404 35.48ZM33.5004 39.78C31.5504 39.78 29.6204 39.48 27.7704 38.88L28.6704 36.57L31.9204 34.62C32.2404 34.43 32.4304 34.09 32.4304 33.72V31.98C32.4304 31.77 32.5604 31.59 32.7604 31.52L33.8404 31.16C34.0804 31.08 34.2804 30.92 34.4104 30.71L36.2604 27.62C37.1104 26.2 36.6504 24.37 35.2304 23.52C34.9404 23.34 34.6104 23.22 34.2804 23.15L32.8504 22.86L32.0204 20.8C31.6304 19.82 30.6804 19.18 29.6304 19.18H25.8004C25.4604 18.04 24.3804 17.29 23.1904 17.38V16.44L28.5204 11.78C28.6904 11.63 28.8104 11.43 28.8604 11.2L29.4004 8.52H30.0604C31.3904 8.48 32.4504 7.39 32.4304 6.06C32.4104 5.21 31.9504 4.43 31.2104 4.01L28.8904 2.69C37.1504 0.55 45.8104 4.27 49.9404 11.74L47.6904 12.7L42.6104 10.8L41.4304 9.62C40.0304 8.31 37.8804 8.2 36.3504 9.36L34.2604 11.03C33.5304 11.61 33.1804 12.55 33.3304 13.47L33.8904 16.85C33.9404 17.14 34.1004 17.39 34.3404 17.55L38.0404 20.02C38.6404 20.42 39.3904 20.55 40.0904 20.38L41.2004 20.1C41.4004 20.05 41.6104 20.13 41.7304 20.31L44.5304 24.71V30.8C44.5304 31.56 44.8004 32.3 45.2904 32.89L46.6004 34.47C43.0904 37.89 38.3904 39.8 33.5004 39.8V39.78ZM46.8904 31.54C46.7204 31.33 46.6204 31.07 46.6204 30.79V24.39C46.6204 24.19 46.5604 24 46.4604 23.83L43.5004 19.17C42.9104 18.23 41.7804 17.78 40.7004 18.05L39.5904 18.33C39.4604 18.36 39.3204 18.33 39.2104 18.26L35.8904 16.05L35.4004 13.12C35.3704 12.95 35.4404 12.77 35.5704 12.66L37.6604 10.99C38.3504 10.47 39.3104 10.51 39.9504 11.1L41.2904 12.44C41.4004 12.55 41.5204 12.63 41.6604 12.68L47.3404 14.81C47.5904 14.91 47.8704 14.9 48.1204 14.79L50.8604 13.61C53.5804 20.07 52.4904 27.5 48.0304 32.9L46.8804 31.53L46.8904 31.54Z" fill="#A57F2C"/>
    </symbol>
    <symbol id="honestidad" viewBox="0 0 74 67" fill="none">
        <path d="M67.06 6.57153C62.89 2.40153 57.35 0.101535 51.46 0.101535C46.01 0.101535 40.86 2.06153 36.83 5.65153C28.18 -2.13847 14.79 -1.87847 6.46 6.45153C2.3 10.6215 0 16.1615 0 22.0515C0 27.9415 2.3 33.4815 6.46 37.6515L6.54 37.7315C4.53 42.5415 5.12 47.2015 5.48 49.3415L3.33 51.7615C2.28 52.9415 2.39 54.7515 3.58 55.8015L15.41 66.2815C15.95 66.7615 16.63 67.0015 17.31 67.0015C18.1 67.0015 18.89 66.6715 19.45 66.0415L22.22 62.9115C24.99 62.9815 27.69 62.4315 30.14 61.3315L34.18 65.3715C34.91 66.1015 35.87 66.4615 36.83 66.4615C37.79 66.4615 38.75 66.1015 39.48 65.3715L50.81 54.0415C51.37 53.4815 51.37 52.5715 50.81 52.0115C50.25 51.4515 49.34 51.4515 48.78 52.0115L37.46 63.3315C37.12 63.6715 36.57 63.6715 36.23 63.3315L32.77 59.8715C34.03 59.0215 35.2 58.0115 36.24 56.8415L52.1 38.9215C52.94 37.9815 53.35 36.7615 53.27 35.4915C53.19 34.2315 52.62 33.0715 51.68 32.2415C51.15 31.7715 50.55 31.4415 49.91 31.2515C50.97 29.3415 50.59 26.8815 48.88 25.3615C48.38 24.9115 47.8 24.5815 47.17 24.3815C48.65 22.4215 48.37 19.5915 46.47 17.9015C45.51 17.0515 44.28 16.6115 43.01 16.6715C41.85 16.7315 40.78 17.1915 39.97 17.9815C39.7 17.4015 39.31 16.8815 38.82 16.4415C37.87 15.6015 36.65 15.1815 35.39 15.2615C34.13 15.3415 32.97 15.9015 32.13 16.8515L24.4 25.5815C24.01 24.5015 23.27 23.6115 22.27 23.0215C20.12 21.7615 17.37 22.3315 15.89 24.3315C15.89 24.3315 8.02 34.9815 7.99 35.0415C4.71 31.4915 2.91 26.9015 2.91 22.0415C2.91 16.9215 4.91 12.1015 8.53 8.47153C12.15 4.85153 16.97 2.85154 22.1 2.85154C27.23 2.85154 32.04 4.85153 35.67 8.47153L35.84 8.64153C36.11 8.91154 36.48 9.06153 36.86 9.06153C37.24 9.06153 37.61 8.90154 37.88 8.63153L37.93 8.58153C41.55 4.96153 46.37 2.97154 51.49 2.97154C56.61 2.97154 61.43 4.97153 65.06 8.59153C68.68 12.2115 70.68 17.0315 70.68 22.1615C70.68 27.2915 68.68 32.1015 65.06 35.7315C65.06 35.7315 65.06 35.7315 65.05 35.7415L57.92 42.8715C57.36 43.4315 57.36 44.3415 57.92 44.9015C58.2 45.1815 58.57 45.3215 58.94 45.3215C59.31 45.3215 59.68 45.1815 59.96 44.9015L67.05 37.8115C67.05 37.8115 67.05 37.8115 67.06 37.8015L67.11 37.7515C71.27 33.5815 73.57 28.0515 73.57 22.1615C73.57 16.2715 71.27 10.7315 67.11 6.56153L67.06 6.57153ZM18.17 26.0615C18.78 25.2415 19.9 25.0115 20.79 25.5215C21.26 25.8015 21.6 26.2415 21.73 26.7715C21.86 27.3015 21.77 27.8515 21.48 28.3115C21.48 28.3115 21.48 28.3115 21.48 28.3215L20.34 30.1815C19.95 30.8215 20.11 31.6415 20.71 32.0915C21.31 32.5315 22.15 32.4515 22.64 31.8915L34.26 18.7715C34.59 18.4015 35.05 18.1715 35.54 18.1415C36.04 18.1115 36.52 18.2815 36.89 18.6115C37.26 18.9415 37.49 19.4015 37.52 19.8915C37.55 20.3915 37.38 20.8715 37.05 21.2415L26.87 32.7415C26.34 33.3315 26.4 34.2415 26.99 34.7715C27.58 35.3015 28.49 35.2415 29.02 34.6515L41.85 20.1615C42.18 19.7915 42.63 19.5815 43.13 19.5515C43.64 19.5315 44.15 19.7015 44.55 20.0615C45.36 20.7715 45.46 21.9815 44.78 22.7515L31.95 37.2415C31.42 37.8315 31.48 38.7415 32.07 39.2715C32.67 39.8015 33.57 39.7415 34.1 39.1515L44.29 27.6515C44.62 27.2815 45.07 27.0615 45.57 27.0315C46.08 27.0015 46.57 27.1715 46.95 27.5215C47.74 28.2215 47.82 29.4115 47.14 30.1815L36.96 41.6815C36.43 42.2715 36.49 43.1815 37.08 43.7115C37.35 43.9515 37.69 44.0715 38.03 44.0715C38.43 44.0715 38.82 43.9115 39.11 43.5915L47.13 34.5315C47.8 33.7715 48.98 33.7115 49.75 34.3915C50.12 34.7215 50.35 35.1815 50.38 35.6715C50.41 36.1615 50.25 36.6415 49.93 37.0015L34.07 54.9215C30.94 58.4515 26.43 60.3015 21.7 59.9915C21.26 59.9615 20.82 60.1415 20.53 60.4715L17.31 64.1015L5.5 53.6515L8.09 50.7215C8.38 50.3915 8.5 49.9515 8.43 49.5215L8.39 49.3115C8.06 47.4115 7.05 41.6415 10.44 36.4915L18.17 26.0515V26.0615Z" fill="#A57F2C"/>  
        <path d="M54.3199 49.8614C55.1152 49.8614 55.7599 49.2167 55.7599 48.4214C55.7599 47.6262 55.1152 46.9814 54.3199 46.9814C53.5246 46.9814 52.8799 47.6262 52.8799 48.4214C52.8799 49.2167 53.5246 49.8614 54.3199 49.8614Z" fill="#A57F2C"/>
    </symbol>
    <symbol id="mexico" viewBox="0 0 79 70" fill="none">
        <path d="M41.9257 29.9026C42.3189 29.4076 43.0389 29.3251 43.5341 29.718C44.7964 30.7197 46.0154 31.8056 47.2011 32.844C48.3915 33.8865 49.5562 34.8886 50.7617 35.7786L51.0917 36.0188C52.6955 37.2238 53.6008 38.4988 53.9824 39.8919C54.3786 41.3384 54.1597 42.7481 53.8876 44.0003C53.3222 46.6027 52.5495 48.7311 53.9511 51.3333C55.4783 53.9698 58.1412 54.7394 60.6796 54.1331C63.2629 53.516 65.5682 51.4974 66.1953 48.7034L66.1962 48.6995C66.3887 47.8573 67.0995 47.2581 67.9257 47.1663C70.8782 46.8382 73.9001 47.1662 76.7216 48.1048C76.7229 48.1052 76.7252 48.1053 76.7265 48.1057C76.7291 48.1066 76.7317 48.1078 76.7343 48.1087C77.3722 48.3179 77.8409 48.8355 78.0126 49.4563L78.0439 49.5823V49.5862C78.3953 51.316 78.3997 53.3022 78.0039 55.1741C77.6092 57.0399 76.7977 58.8803 75.4384 60.2278C75.3714 60.2943 75.296 60.3516 75.2148 60.3997C74.4293 60.8642 73.6012 60.8573 72.9687 60.7845C72.6507 60.7478 72.3337 60.688 72.0693 60.6389C71.7888 60.5869 71.559 60.5457 71.3447 60.5237C70.4379 60.4353 69.4735 60.8267 68.7382 61.5569C68.0477 62.2428 67.6565 63.1308 67.6816 63.9856L67.6923 64.1555V64.1624C67.711 64.3707 67.7881 64.8984 67.7851 65.3069C67.7817 65.769 67.694 66.4133 67.2119 66.9612C67.1498 67.0317 67.0792 67.0945 67.0019 67.1477C66.2643 67.656 65.4473 67.9563 64.7246 68.1917C63.9516 68.4434 63.3351 68.6086 62.7333 68.8665C62.7101 68.8765 62.6859 68.8864 62.6621 68.8948C62.3087 69.0192 61.8417 69.179 61.3505 69.2532C60.8485 69.329 60.243 69.3287 59.6357 69.0647C58.7539 68.683 58.2914 67.9415 58.0019 67.4124C57.6552 66.7786 57.5325 66.4492 57.2734 66.1389C56.8952 65.6863 56.3079 65.4686 55.3496 65.43C54.8755 65.4108 54.3633 65.4376 53.8037 65.4768C53.2651 65.5146 52.6589 65.5661 52.0888 65.5794C51.4567 65.5941 50.9327 65.0934 50.9179 64.4612C50.9032 63.8292 51.4031 63.3053 52.0351 63.2903C52.5348 63.2786 53.0539 63.234 53.6435 63.1927C54.2122 63.1528 54.8327 63.1173 55.4423 63.1419C56.6515 63.1907 58.0394 63.483 59.0312 64.6702C59.482 65.2099 59.82 65.9653 60.0107 66.3138C60.2274 66.7099 60.3705 66.8649 60.4941 66.9368L60.5458 66.9632L60.5488 66.9641C60.6314 67.0001 60.7658 67.0252 61.0087 66.9886C61.2572 66.951 61.5335 66.8631 61.8798 66.7415C62.5959 66.4399 63.3977 66.2161 64.0156 66.0149C64.5939 65.8266 65.0782 65.638 65.4882 65.3958C65.4909 65.3689 65.4947 65.3344 65.4951 65.2903C65.4958 65.1863 65.4867 65.062 65.4697 64.9007C65.4558 64.7699 65.4277 64.5455 65.4121 64.3723C65.2489 62.6586 65.9982 61.0502 67.124 59.9319C68.2499 58.8136 69.8634 58.0756 71.5751 58.2454H71.579C71.8997 58.2784 72.2183 58.3371 72.4873 58.387C72.772 58.4398 73.0061 58.4842 73.2304 58.51C73.5879 58.5512 73.8011 58.5286 73.9462 58.4759C74.8313 57.5381 75.4451 56.2066 75.7636 54.7005C76.0812 53.1985 76.0874 51.6037 75.8339 50.2239C73.4325 49.4503 70.8749 49.1733 68.3749 49.4231C67.4645 53.0617 64.4664 55.5832 61.2119 56.3606C57.8517 57.1633 54.0747 56.131 51.9609 52.4671C51.9558 52.4582 51.9501 52.4487 51.9453 52.4397C50.0386 48.9192 51.1534 45.7963 51.6494 43.5139C51.9085 42.3212 52.0143 41.377 51.7734 40.4973C51.5432 39.6571 50.947 38.7099 49.4433 37.6507C49.4366 37.6459 49.4294 37.6409 49.4228 37.636C48.1253 36.6797 46.8914 35.6159 45.6933 34.5667C44.4843 33.5078 43.3178 32.4692 42.1103 31.511C41.6152 31.1179 41.5327 30.3979 41.9257 29.9026Z" fill="#A57F2C"/>
        <path d="M11.0895 29.0186C11.3529 28.772 11.7176 28.6644 12.0729 28.7276C14.9715 29.2427 18.1447 30.403 20.401 32.668L20.6169 32.8907L20.6618 32.9414C21.323 33.7349 21.7503 34.6299 22.0964 35.4541C22.4186 36.2218 22.6488 36.864 22.945 37.5L23.0758 37.7725L23.0915 37.8038C23.8829 39.514 25.2738 40.8524 26.8747 42.3516C28.3192 43.7044 29.9525 45.2026 31.0153 47.1455L31.2204 47.5401L31.2643 47.6426C31.556 48.4205 31.6658 49.2178 31.7546 49.8858C31.8486 50.5941 31.9199 51.1614 32.0915 51.6924L32.0924 51.6954C32.6778 53.5235 34.4255 54.8238 36.4831 56.1387C38.2638 57.1424 40.0873 58.3464 41.8424 59.4239C43.6436 60.5296 45.431 61.541 47.2682 62.2579C47.8572 62.4877 48.1483 63.1512 47.9186 63.7403C47.6888 64.3293 47.0252 64.6213 46.4362 64.3916C44.4035 63.5985 42.4755 62.4993 40.6442 61.375C38.78 60.2306 37.0675 59.0942 35.321 58.1123C35.3024 58.1019 35.2843 58.0906 35.2663 58.0791C33.2908 56.8175 30.785 55.1208 29.9118 52.3936C29.6643 51.6259 29.5708 50.8331 29.485 50.1875C29.3966 49.5222 29.3126 48.9835 29.1364 48.4942C28.3019 46.8275 26.9009 45.5131 25.3092 44.0225C23.7675 42.5786 22.0386 40.96 21.028 38.7959C20.6219 37.9837 20.2841 37.0524 19.985 36.3399C19.6696 35.5886 19.3527 34.9583 18.9264 34.4375C17.4989 32.9297 15.4819 31.9413 13.3376 31.3555C13.6243 32.4046 14.0609 33.5535 14.5924 34.7608C15.4111 36.6201 16.4002 38.5111 17.2995 40.2969C18.1761 42.0379 18.9959 43.7335 19.3708 45.0782C19.555 45.7392 19.6781 46.4665 19.5436 47.1309C19.4723 47.4831 19.3228 47.8424 19.0534 48.1534C18.782 48.4664 18.4375 48.6728 18.0641 48.793L18.0651 48.794C17.2058 49.0725 16.4624 49.2366 15.821 49.2754C15.1785 49.3143 14.5658 49.2311 14.0348 48.9385C12.941 48.3355 12.7231 47.1636 12.6393 46.3916C12.1887 43.7967 11.2309 41.7674 10.1383 40.0625C9.79718 39.5302 9.95183 38.8218 10.484 38.4805C11.0165 38.1393 11.7249 38.2948 12.0661 38.8272C13.2131 40.6169 14.251 42.7698 14.7975 45.4805L14.901 46.0303L14.9108 46.1065C14.9908 46.8757 15.1375 46.9311 15.1403 46.9327C15.1692 46.9486 15.3086 47.0129 15.6833 46.9903C16.0499 46.9681 16.5715 46.8654 17.3024 46.6319C17.3186 46.4859 17.3039 46.1916 17.1647 45.6924C16.8608 44.6022 16.1528 43.111 15.2546 41.3272C14.3788 39.5881 13.3458 37.6142 12.4958 35.6836C11.65 33.7627 10.9339 31.7748 10.734 29.9815C10.6941 29.6227 10.8261 29.2655 11.0895 29.0186Z" fill="#A57F2C"/>
        <path d="M3.74252 16.1094C5.51231 15.6468 7.62756 16.0714 9.61068 16.6729C11.6098 17.2792 13.8044 18.1792 15.6624 18.8447C17.628 19.5488 19.1912 19.9799 20.2601 19.9121L20.3451 19.9092C21.6473 19.9239 22.8464 19.8728 24.0492 19.8496C25.2266 19.827 26.3916 19.8325 27.5023 19.9795C28.1291 20.0625 28.5705 20.6378 28.4876 21.2647C28.4047 21.8916 27.8284 22.333 27.2015 22.25C26.2724 22.1271 25.2528 22.1173 24.0931 22.1397C22.9667 22.1613 21.686 22.2134 20.349 22.1992C18.7477 22.284 16.7753 21.6763 14.89 21.001C12.8755 20.2794 10.8834 19.4517 8.94662 18.8643C6.99349 18.2719 5.42214 18.0366 4.32162 18.3242C3.81278 18.4573 3.41952 18.6996 3.11264 19.0811C2.83489 19.4264 2.58361 19.9426 2.42611 20.7178L2.3558 21.1162C2.15173 22.1517 2.42578 23.2497 3.0726 24.3526C3.70866 25.4371 4.6636 26.4472 5.68002 27.2627C6.41329 27.7036 6.81629 28.351 6.94564 29.0762C7.05684 29.6999 6.9521 30.3218 6.83041 30.8203C6.77332 31.8222 7.38943 32.8363 8.72787 34.4688C9.1286 34.9578 9.05666 35.6792 8.56771 36.0801C8.07872 36.4807 7.35724 36.4098 6.95639 35.9209C5.68156 34.366 4.3768 32.6467 4.55111 30.5684C4.55659 30.5034 4.56789 30.4391 4.58432 30.376C4.69927 29.9346 4.72279 29.6535 4.69174 29.4785C4.67902 29.4072 4.65867 29.3688 4.64096 29.3438C4.62338 29.3191 4.58077 29.2681 4.47006 29.207C4.41411 29.1762 4.35994 29.1413 4.3099 29.1016C3.11696 28.1547 1.92444 26.9225 1.09701 25.5117C0.276655 24.113 -0.225924 22.4591 0.100917 20.7227C0.290631 19.4734 0.689211 18.4402 1.32846 17.6455C1.97837 16.8377 2.81644 16.3515 3.74252 16.1094Z" fill="#A57F2C"/>
        <path d="M24.5477 14.5645C24.5477 6.53121 31.0107 0.000232805 39.0018 0C44.09 0 48.5643 2.65366 51.1346 6.64453C51.477 7.17618 51.3235 7.88514 50.7918 8.22754C50.2603 8.56952 49.5522 8.41604 49.2098 7.88477C47.0401 4.51572 43.2735 2.28906 39.0018 2.28906C32.2933 2.2893 26.8368 7.77805 26.8367 14.5645C26.8367 18.1738 29.0428 21.9672 31.7879 25.2471C34.4982 28.4853 37.564 31.023 38.9451 32.1006C38.9662 32.1169 38.9854 32.122 39.0018 32.1221C39.0177 32.1221 39.0361 32.1167 39.0565 32.1016C40.437 31.0246 43.5054 28.4865 46.2166 25.2471C48.9618 21.9672 51.1668 18.1738 51.1668 14.5645C51.1668 13.8529 51.1035 13.1483 50.9842 12.46C50.8763 11.8369 51.2938 11.2447 51.9168 11.1367C52.5399 11.0288 53.1321 11.4463 53.2401 12.0693C53.3807 12.8809 53.4569 13.7161 53.4569 14.5645C53.4569 19.0151 50.7973 23.3417 47.9725 26.7168C45.1138 30.1323 41.9062 32.7842 40.4666 33.9072L40.4657 33.9082C39.6022 34.5798 38.4024 34.5798 37.5389 33.9082L37.5379 33.9072C36.0984 32.7842 32.8907 30.1323 30.0321 26.7168C27.2072 23.3417 24.5477 19.0151 24.5477 14.5645Z" fill="#A57F2C"/>
        <path d="M44.0976 14.895C44.0976 12.1075 41.8401 9.84929 39.0526 9.84906C36.265 9.84906 34.0067 12.1073 34.0067 14.895C34.007 17.6824 36.2652 19.9399 39.0526 19.9399C41.8399 19.9397 44.0973 17.6823 44.0976 14.895ZM46.3876 14.895C46.3874 18.947 43.1047 22.2297 39.0526 22.2299C35.0004 22.2299 31.7179 18.9471 31.7177 14.895C31.7177 10.8426 35.0003 7.56 39.0526 7.56C43.1048 7.56023 46.3876 10.8427 46.3876 14.895Z" fill="#A57F2C"/>
    </symbol>
</svg>