<svg width="212" height="53" viewBox="0 0 212 53" fill="none" xmlns="http://www.w3.org/2000/svg">
<path d="M51.8541 26.1437V39.1412H50.535V28.7439L45.4278 37.4907H44.7786L39.6714 28.7991V39.1412H38.3523V26.1437H39.485L45.1308 35.7814L50.718 26.1437H51.8541Z" fill="#852945"/>
<path d="M61.3053 26.1437H59.9482L54.0088 39.1412H55.4384L60.6181 27.5733L65.7978 39.1412H67.2447L61.3053 26.1437Z" fill="#852945"/>
<path d="M78.274 39.1412L75.3043 34.963C74.9694 35.0009 74.624 35.0182 74.2649 35.0182H70.7738V39.1412H69.3995V26.1437H74.2649C75.9224 26.1437 77.2243 26.5408 78.1635 27.3315C79.1028 28.1223 79.5758 29.2135 79.5758 30.5982C79.5758 31.6134 79.3169 32.4698 78.8058 33.1708C78.2913 33.8718 77.5592 34.3759 76.6061 34.6833L79.783 39.1412H78.274ZM77.1794 32.9981C77.8596 32.4284 78.2015 31.6307 78.2015 30.6017C78.2015 29.5726 77.8596 28.7404 77.1794 28.1776C76.4991 27.6147 75.515 27.3315 74.2269 27.3315H70.7738V33.8476H74.2269C75.515 33.8476 76.4991 33.5644 77.1794 32.9947V32.9981Z" fill="#852945"/>
<path d="M91.9795 32.6425H93.2986V37.6012C92.6908 38.1329 91.9726 38.5404 91.1438 38.827C90.3151 39.1136 89.4414 39.2552 88.5264 39.2552C87.228 39.2552 86.0574 38.972 85.018 38.4023C83.9786 37.8325 83.1602 37.0452 82.5663 36.0334C81.9723 35.0251 81.6753 33.8959 81.6753 32.6459C81.6753 31.3959 81.9723 30.2667 82.5663 29.2584C83.1602 28.2501 83.9786 27.4593 85.018 26.8895C86.0574 26.3198 87.2349 26.0366 88.5471 26.0366C89.5381 26.0366 90.4463 26.1955 91.275 26.5097C92.1038 26.8239 92.8048 27.2936 93.3745 27.9117L92.5216 28.7853C91.4926 27.7701 90.1873 27.2625 88.6023 27.2625C87.5491 27.2625 86.5995 27.4938 85.7535 27.96C84.904 28.4227 84.241 29.0685 83.7576 29.8903C83.2741 30.7122 83.0324 31.6341 83.0324 32.6459C83.0324 33.6577 83.2741 34.5762 83.7576 35.3946C84.241 36.213 84.904 36.8553 85.7431 37.3249C86.5857 37.7945 87.5319 38.0293 88.5851 38.0293C89.9214 38.0293 91.054 37.6944 91.9829 37.0279V32.6459L91.9795 32.6425Z" fill="#852945"/>
<path d="M102.394 26.1437H101.041L95.0977 39.1412H96.5273L101.707 27.5733L106.887 39.1412H108.337L102.394 26.1437Z" fill="#852945"/>
<path d="M119.366 39.1412L116.397 34.963C116.062 35.0009 115.716 35.0182 115.357 35.0182H111.866V39.1412H110.492V26.1437H115.357C117.015 26.1437 118.317 26.5408 119.256 27.3315C120.195 28.1223 120.668 29.2135 120.668 30.5982C120.668 31.6134 120.409 32.4698 119.898 33.1708C119.384 33.8718 118.651 34.3759 117.698 34.6833L120.875 39.1412H119.366ZM118.272 32.9981C118.952 32.4284 119.294 31.6307 119.294 30.6017C119.294 29.5726 118.952 28.7404 118.272 28.1776C117.591 27.6147 116.607 27.3315 115.319 27.3315H111.866V33.8476H115.319C116.607 33.8476 117.591 33.5644 118.272 32.9947V32.9981Z" fill="#852945"/>
<path d="M123.914 26.1437H125.288V39.1412H123.914V26.1437Z" fill="#852945"/>
<path d="M132.046 27.335H127.478V26.1471H137.986V27.335H133.417V39.1447H132.043V27.335H132.046Z" fill="#852945"/>
<path d="M144.747 26.1437H143.393L137.45 39.1412H138.88L144.06 27.5733L149.239 39.1412H150.69L144.747 26.1437Z" fill="#852945"/>
<path d="M171.205 26.1437V39.1412H169.886V28.7439L164.778 37.4907H164.129L159.022 28.7991V39.1412H157.703V26.1437H158.836L164.481 35.7814L170.069 26.1437H171.205Z" fill="#852945"/>
<path d="M180.656 26.1437H179.302L173.359 39.1412H174.789L179.969 27.5733L185.148 39.1412H186.599L180.656 26.1437Z" fill="#852945"/>
<path d="M198.129 37.9534V39.1412H187.472V38.1951L196.088 27.3315H187.604V26.1437H197.908V27.0898L189.309 37.9534H198.129Z" fill="#852945"/>
<path d="M206.057 26.1437H204.7L198.761 39.1412H200.19L205.37 27.5733L210.55 39.1412H212L206.057 26.1437Z" fill="#852945"/>
<path d="M45.2483 18.7816C45.5901 19.1718 45.7628 19.6794 45.7628 20.301C45.7628 21.071 45.4796 21.665 44.9168 22.0828C44.3539 22.4972 43.5182 22.7078 42.4098 22.7078H38.3558V13.6122H42.1508C43.1384 13.6122 43.9084 13.8125 44.4575 14.2165C45.0065 14.6206 45.2828 15.1938 45.2828 15.9397C45.2828 16.4611 45.1447 16.8962 44.8719 17.2518C44.5991 17.6075 44.2296 17.8631 43.76 18.0184C44.4091 18.1393 44.9064 18.3948 45.2483 18.785V18.7816ZM39.0188 14.182V17.8078H42.1232C42.9208 17.8078 43.5321 17.6559 43.9602 17.3451C44.3884 17.0378 44.6025 16.5854 44.6025 15.988C44.6025 15.3906 44.3884 14.9521 43.9602 14.6447C43.5321 14.3374 42.9174 14.182 42.1232 14.182H39.0188ZM44.416 21.6719C44.8719 21.3645 45.0998 20.8914 45.0998 20.2492C45.0998 19.6069 44.8719 19.1373 44.416 18.8334C43.9602 18.5295 43.2903 18.3776 42.4098 18.3776H39.0188V22.1346H42.4098C43.2938 22.1346 43.9637 21.9826 44.416 21.6719Z" fill="#A1842B"/>
<path d="M52.1442 16.5129C52.5931 16.9411 52.821 17.573 52.821 18.4052V22.7078H52.196V21.4992C51.9784 21.8963 51.6642 22.2071 51.2463 22.4281C50.8285 22.6491 50.3313 22.7596 49.7511 22.7596C48.9984 22.7596 48.401 22.5835 47.9659 22.2278C47.5273 21.8721 47.3098 21.406 47.3098 20.8258C47.3098 20.2457 47.5101 19.8072 47.9141 19.4549C48.3181 19.1027 48.9604 18.9301 49.8444 18.9301H52.1718V18.3845C52.1718 17.7526 51.9991 17.2726 51.6573 16.9411C51.3154 16.613 50.8147 16.4473 50.1552 16.4473C49.7063 16.4473 49.2746 16.5267 48.8637 16.6821C48.4528 16.8375 48.104 17.0447 47.8174 17.3071L47.4928 16.8409C47.8312 16.537 48.2387 16.3022 48.7152 16.133C49.1917 15.9638 49.689 15.881 50.2104 15.881C51.0495 15.881 51.6952 16.095 52.1476 16.5232L52.1442 16.5129ZM51.2774 21.8342C51.6711 21.5752 51.9681 21.1988 52.1683 20.705V19.4308H49.8547C49.1883 19.4308 48.7048 19.5516 48.4044 19.7934C48.104 20.0351 47.9555 20.37 47.9555 20.7948C47.9555 21.2195 48.1213 21.5855 48.4493 21.8411C48.7774 22.0966 49.2435 22.2244 49.8409 22.2244C50.4038 22.2244 50.8838 22.0931 51.2774 21.8342Z" fill="#A1842B"/>
<path d="M56.4295 22.3176C55.9081 22.0241 55.5041 21.6132 55.2071 21.0883C54.9136 20.5634 54.7651 19.9729 54.7651 19.3134C54.7651 18.6538 54.9136 18.0495 55.2071 17.5281C55.5006 17.0032 55.9081 16.5958 56.4295 16.3057C56.9509 16.0156 57.538 15.8706 58.1975 15.8706C58.7431 15.8706 59.2403 15.9776 59.6858 16.1883C60.1313 16.4024 60.4938 16.7097 60.7701 17.1172L60.2901 17.4694C60.0484 17.131 59.748 16.8789 59.3854 16.7097C59.0263 16.5405 58.6291 16.4576 58.1975 16.4576C57.6692 16.4576 57.1961 16.5785 56.7748 16.8133C56.3535 17.0516 56.0255 17.3865 55.7872 17.8216C55.549 18.2533 55.4315 18.754 55.4315 19.3168C55.4315 19.8797 55.549 20.3769 55.7872 20.812C56.0255 21.2437 56.3535 21.5821 56.7748 21.8203C57.1961 22.0586 57.6692 22.176 58.1975 22.176C58.6291 22.176 59.0263 22.0931 59.3854 21.9239C59.7445 21.7547 60.0449 21.5027 60.2901 21.1642L60.7701 21.5165C60.4938 21.9239 60.1313 22.2347 59.6858 22.4454C59.2403 22.6595 58.7431 22.763 58.1975 22.763C57.538 22.763 56.9509 22.6146 56.4295 22.321V22.3176Z" fill="#A1842B"/>
<path d="M67.9319 16.613C68.4257 17.1068 68.6743 17.8182 68.6743 18.7436V22.7078H68.0251V18.7954C68.0251 18.0323 67.8317 17.4521 67.4484 17.055C67.0617 16.6579 66.523 16.4576 65.8324 16.4576C65.0347 16.4576 64.4062 16.6959 63.947 17.1724C63.4877 17.649 63.2598 18.2912 63.2598 19.0958V22.7078H62.6106V13.0667H63.2598V17.3416C63.4946 16.8755 63.8399 16.5129 64.2992 16.2573C64.7584 16.0018 65.3006 15.874 65.9222 15.874C66.7716 15.874 67.4415 16.1192 67.9353 16.6165L67.9319 16.613Z" fill="#A1842B"/>
<path d="M71.2952 14.1233C71.1916 14.0232 71.1398 13.8989 71.1398 13.7538C71.1398 13.6088 71.1916 13.481 71.2952 13.3774C71.3988 13.2738 71.5231 13.222 71.6716 13.222C71.8201 13.222 71.9444 13.2704 72.048 13.3705C72.1516 13.4707 72.2034 13.595 72.2034 13.74C72.2034 13.885 72.1516 14.0128 72.048 14.1164C71.9444 14.22 71.8167 14.2718 71.6716 14.2718C71.5266 14.2718 71.3988 14.2235 71.2952 14.1233ZM71.347 15.9224H71.9962V22.7043H71.347V15.9224Z" fill="#A1842B"/>
<path d="M74.738 13.0632H75.3872V22.7043H74.738V13.0632Z" fill="#A1842B"/>
<path d="M78.1324 13.0632H78.7816V22.7043H78.1324V13.0632Z" fill="#A1842B"/>
<path d="M87.2522 19.4688H81.4164C81.4336 19.9971 81.5683 20.4667 81.8204 20.8776C82.0725 21.2886 82.4109 21.6062 82.8391 21.8342C83.2672 22.0586 83.7507 22.1726 84.2894 22.1726C84.7314 22.1726 85.1388 22.0931 85.5187 21.9308C85.8951 21.772 86.2093 21.5337 86.4614 21.2229L86.8378 21.6511C86.5443 22.0068 86.1713 22.2796 85.7259 22.4695C85.2804 22.6595 84.797 22.7561 84.2756 22.7561C83.5987 22.7561 82.9979 22.6077 82.4696 22.3141C81.9412 22.0206 81.5269 21.6132 81.2299 21.0917C80.9295 20.5703 80.781 19.9798 80.781 19.3099C80.781 18.64 80.9226 18.0599 81.2023 17.535C81.482 17.0101 81.8722 16.6027 82.366 16.3057C82.8598 16.0122 83.4157 15.8637 84.0304 15.8637C84.645 15.8637 85.1975 16.0087 85.6879 16.2988C86.1782 16.5888 86.5615 16.9929 86.8447 17.5143C87.1244 18.0357 87.266 18.6227 87.266 19.2823L87.2522 19.4653V19.4688ZM82.7424 16.7615C82.3625 16.9756 82.0552 17.2726 81.8273 17.6593C81.5959 18.0461 81.4647 18.4812 81.4302 18.9646H86.6271C86.5995 18.4812 86.4717 18.0461 86.2369 17.6662C86.0021 17.2864 85.6948 16.986 85.3149 16.7684C84.9351 16.5509 84.5035 16.4438 84.0269 16.4438C83.5504 16.4438 83.1222 16.5509 82.7389 16.7615H82.7424Z" fill="#A1842B"/>
<path d="M90.8779 16.2677C91.3199 16.0018 91.8552 15.8706 92.4905 15.8706V16.506L92.3352 16.4922C91.5824 16.4922 90.9919 16.727 90.5672 17.2001C90.1424 17.6731 89.9318 18.3292 89.9318 19.1683V22.7043H89.2826V15.9224H89.9076V17.4038C90.1148 16.91 90.4394 16.5301 90.8814 16.2677H90.8779Z" fill="#A1842B"/>
<path d="M98.5059 16.5129C98.9548 16.9411 99.1827 17.573 99.1827 18.4052V22.7078H98.5577V21.4992C98.3402 21.8963 98.0259 22.2071 97.6081 22.4281C97.1903 22.6491 96.693 22.7596 96.1129 22.7596C95.3601 22.7596 94.7627 22.5835 94.3276 22.2278C93.8891 21.8721 93.6715 21.406 93.6715 20.8258C93.6715 20.2457 93.8718 19.8072 94.2758 19.4549C94.6798 19.1027 95.3221 18.9301 96.2061 18.9301H98.5335V18.3845C98.5335 17.7526 98.3609 17.2726 98.019 16.9411C97.6772 16.613 97.1764 16.4473 96.5169 16.4473C96.0645 16.4473 95.6364 16.5267 95.2254 16.6821C94.8145 16.8375 94.4657 17.0447 94.1791 17.3071L93.8545 16.8409C94.1929 16.537 94.6004 16.3022 95.0769 16.133C95.5535 15.9638 96.0507 15.881 96.5722 15.881C97.4113 15.881 98.057 16.095 98.5094 16.5232L98.5059 16.5129ZM97.6426 21.8342C98.0363 21.5752 98.3332 21.1988 98.5335 20.705V19.4308H96.2199C95.5535 19.4308 95.07 19.5516 94.7696 19.7934C94.4692 20.0351 94.3207 20.37 94.3207 20.7948C94.3207 21.2195 94.4865 21.5855 94.8145 21.8411C95.1426 22.0966 95.6087 22.2244 96.2061 22.2244C96.769 22.2244 97.249 22.0931 97.6426 21.8342Z" fill="#A1842B"/>
<path d="M105.226 22.2762C105.06 22.4315 104.856 22.5524 104.608 22.6318C104.359 22.7112 104.103 22.7561 103.834 22.7561C103.244 22.7561 102.791 22.5938 102.47 22.2692C102.149 21.9447 101.99 21.4923 101.99 20.9122V16.4818H100.744V15.9224H101.99V14.441H102.639V15.9224H104.798V16.4818H102.639V20.8466C102.639 21.2886 102.746 21.6235 102.957 21.8549C103.168 22.0862 103.482 22.2002 103.9 22.2002C104.318 22.2002 104.677 22.0759 104.953 21.8238L105.226 22.2796V22.2762Z" fill="#A1842B"/>
<path d="M107.698 22.3176C107.184 22.0241 106.776 21.6132 106.483 21.0883C106.189 20.5634 106.041 19.9729 106.041 19.3134C106.041 18.6538 106.189 18.0633 106.483 17.5385C106.776 17.0136 107.184 16.6061 107.698 16.3091C108.213 16.0156 108.793 15.8671 109.432 15.8671C110.07 15.8671 110.651 16.0156 111.165 16.3091C111.68 16.6027 112.087 17.0136 112.381 17.5385C112.674 18.0633 112.823 18.6538 112.823 19.3134C112.823 19.9729 112.674 20.5634 112.381 21.0883C112.087 21.6132 111.68 22.0206 111.165 22.3176C110.651 22.6111 110.07 22.7596 109.432 22.7596C108.793 22.7596 108.213 22.6111 107.698 22.3176ZM110.83 21.81C111.241 21.5683 111.566 21.2299 111.804 20.7948C112.042 20.3631 112.16 19.8693 112.16 19.3134C112.16 18.7574 112.042 18.2636 111.804 17.832C111.566 17.4003 111.241 17.0619 110.83 16.8168C110.419 16.575 109.953 16.4542 109.435 16.4542C108.917 16.4542 108.451 16.575 108.037 16.8168C107.626 17.0585 107.301 17.3969 107.063 17.832C106.825 18.2636 106.707 18.7574 106.707 19.3134C106.707 19.8693 106.825 20.3631 107.063 20.7948C107.301 21.2264 107.626 21.5648 108.037 21.81C108.447 22.0517 108.914 22.1726 109.435 22.1726C109.956 22.1726 110.419 22.0517 110.83 21.81Z" fill="#A1842B"/>
<path d="M125.793 13.6088V22.7043H125.247L119.049 14.8036V22.7043H118.386V13.6088H118.945L125.13 21.5096V13.6088H125.793Z" fill="#A1842B"/>
<path d="M132.979 16.5129C133.427 16.9411 133.655 17.573 133.655 18.4052V22.7078H133.03V21.4992C132.813 21.8963 132.499 22.2071 132.081 22.4281C131.663 22.6491 131.166 22.7596 130.585 22.7596C129.833 22.7596 129.235 22.5835 128.8 22.2278C128.362 21.8721 128.144 21.406 128.144 20.8258C128.144 20.2457 128.344 19.8072 128.748 19.4549C129.152 19.1027 129.795 18.9301 130.679 18.9301H133.006V18.3845C133.006 17.7526 132.833 17.2726 132.492 16.9411C132.15 16.613 131.649 16.4473 130.99 16.4473C130.537 16.4473 130.109 16.5267 129.698 16.6821C129.287 16.8375 128.938 17.0447 128.652 17.3071L128.327 16.8409C128.666 16.537 129.073 16.3022 129.55 16.133C130.026 15.9638 130.523 15.881 131.045 15.881C131.884 15.881 132.53 16.095 132.982 16.5232L132.979 16.5129ZM132.115 21.8342C132.509 21.5752 132.806 21.1988 133.006 20.705V19.4308H130.693C130.026 19.4308 129.543 19.5516 129.242 19.7934C128.942 20.0351 128.793 20.37 128.793 20.7948C128.793 21.2195 128.959 21.5855 129.287 21.8411C129.615 22.0966 130.081 22.2244 130.679 22.2244C131.242 22.2244 131.722 22.0931 132.115 21.8342Z" fill="#A1842B"/>
<path d="M137.267 22.3176C136.746 22.0241 136.342 21.6132 136.045 21.0883C135.751 20.5634 135.603 19.9729 135.603 19.3134C135.603 18.6538 135.751 18.0495 136.045 17.5281C136.338 17.0032 136.746 16.5958 137.267 16.3057C137.789 16.0156 138.376 15.8706 139.035 15.8706C139.581 15.8706 140.078 15.9776 140.524 16.1883C140.969 16.4024 141.332 16.7097 141.608 17.1172L141.128 17.4694C140.886 17.131 140.586 16.8789 140.223 16.7097C139.861 16.5405 139.467 16.4576 139.035 16.4576C138.507 16.4576 138.034 16.5785 137.613 16.8133C137.191 17.0516 136.863 17.3865 136.625 17.8216C136.387 18.2533 136.269 18.754 136.269 19.3168C136.269 19.8797 136.387 20.3769 136.625 20.812C136.863 21.2437 137.191 21.5821 137.613 21.8203C138.034 22.0586 138.507 22.176 139.035 22.176C139.467 22.176 139.864 22.0931 140.223 21.9239C140.582 21.7547 140.883 21.5027 141.128 21.1642L141.608 21.5165C141.332 21.9239 140.969 22.2347 140.524 22.4454C140.078 22.6595 139.581 22.763 139.035 22.763C138.376 22.763 137.789 22.6146 137.267 22.321V22.3176Z" fill="#A1842B"/>
<path d="M143.504 14.1233C143.4 14.0232 143.348 13.8989 143.348 13.7538C143.348 13.6088 143.4 13.481 143.504 13.3774C143.607 13.2738 143.732 13.222 143.88 13.222C144.029 13.222 144.153 13.2704 144.256 13.3705C144.36 13.4707 144.412 13.595 144.412 13.74C144.412 13.885 144.36 14.0128 144.256 14.1164C144.153 14.22 144.029 14.2718 143.88 14.2718C143.732 14.2718 143.607 14.2235 143.504 14.1233ZM143.555 15.9224H144.205V22.7043H143.555V15.9224Z" fill="#A1842B"/>
<path d="M147.865 22.3176C147.35 22.0241 146.943 21.6132 146.649 21.0883C146.356 20.5634 146.207 19.9729 146.207 19.3134C146.207 18.6538 146.356 18.0633 146.649 17.5385C146.943 17.0136 147.35 16.6061 147.865 16.3091C148.379 16.0156 148.96 15.8671 149.598 15.8671C150.237 15.8671 150.817 16.0156 151.332 16.3091C151.846 16.6027 152.254 17.0136 152.547 17.5385C152.841 18.0633 152.989 18.6538 152.989 19.3134C152.989 19.9729 152.841 20.5634 152.547 21.0883C152.254 21.6132 151.846 22.0206 151.332 22.3176C150.817 22.6111 150.237 22.7596 149.598 22.7596C148.96 22.7596 148.379 22.6111 147.865 22.3176ZM150.997 21.81C151.408 21.5683 151.732 21.2299 151.971 20.7948C152.209 20.3631 152.326 19.8693 152.326 19.3134C152.326 18.7574 152.209 18.2636 151.971 17.832C151.732 17.4003 151.408 17.0619 150.997 16.8168C150.586 16.575 150.12 16.4542 149.602 16.4542C149.084 16.4542 148.618 16.575 148.203 16.8168C147.792 17.0585 147.468 17.3969 147.23 17.832C146.991 18.2636 146.874 18.7574 146.874 19.3134C146.874 19.8693 146.991 20.3631 147.23 20.7948C147.468 21.2264 147.792 21.5648 148.203 21.81C148.614 22.0517 149.08 22.1726 149.602 22.1726C150.123 22.1726 150.586 22.0517 150.997 21.81Z" fill="#A1842B"/>
<path d="M160.334 16.613C160.828 17.1068 161.073 17.8182 161.073 18.7436V22.7078H160.424V18.7954C160.424 18.0323 160.231 17.4521 159.847 17.055C159.461 16.6579 158.922 16.4576 158.228 16.4576C157.43 16.4576 156.802 16.6959 156.342 17.1724C155.883 17.649 155.655 18.2912 155.655 19.0958V22.7078H155.006V15.9258H155.631V17.3934C155.866 16.9169 156.215 16.544 156.677 16.2746C157.14 16.0053 157.689 15.8706 158.321 15.8706C159.171 15.8706 159.84 16.1158 160.334 16.613Z" fill="#A1842B"/>
<path d="M167.973 16.5129C168.421 16.9411 168.649 17.573 168.649 18.4052V22.7078H168.024V21.4992C167.807 21.8963 167.493 22.2071 167.075 22.4281C166.657 22.6491 166.16 22.7596 165.58 22.7596C164.827 22.7596 164.229 22.5835 163.794 22.2278C163.356 21.8721 163.138 21.406 163.138 20.8258C163.138 20.2457 163.338 19.8072 163.742 19.4549C164.146 19.1027 164.789 18.9301 165.673 18.9301H168V18.3845C168 17.7526 167.828 17.2726 167.486 16.9411C167.144 16.613 166.643 16.4473 165.984 16.4473C165.531 16.4473 165.103 16.5267 164.692 16.6821C164.281 16.8375 163.932 17.0447 163.646 17.3071L163.321 16.8409C163.66 16.537 164.067 16.3022 164.544 16.133C165.02 15.9638 165.517 15.881 166.039 15.881C166.878 15.881 167.524 16.095 167.976 16.5232L167.973 16.5129ZM167.109 21.8342C167.503 21.5752 167.8 21.1988 168 20.705V19.4308H165.687C165.02 19.4308 164.537 19.5516 164.236 19.7934C163.936 20.0351 163.787 20.37 163.787 20.7948C163.787 21.2195 163.953 21.5855 164.281 21.8411C164.609 22.0966 165.075 22.2244 165.673 22.2244C166.236 22.2244 166.716 22.0931 167.109 21.8342Z" fill="#A1842B"/>
<path d="M171.326 13.0632H171.975V22.7043H171.326V13.0632Z" fill="#A1842B"/>
<path d="M31.9157 43.5785C31.7914 43.2816 31.4737 43.0606 30.9212 42.8844C30.9626 42.5529 30.9661 42.1593 30.8038 41.8692C30.6933 41.6689 30.5206 41.5308 30.31 41.4721C29.4053 41.22 28.8355 41.4894 28.4384 41.8347C27.8376 41.5066 26.995 41.6655 26.3009 42.0453C25.631 42.4114 25.1959 42.957 24.7781 43.4853C24.6089 43.6959 24.45 43.8962 24.2774 44.0861C23.0619 45.4087 21.1834 46.272 19.481 46.9384C19.2669 46.8866 19.0562 46.8314 18.8663 46.7761C19.9299 46.1995 21.3871 45.2947 21.8015 44.6179C22.6268 43.2712 22.0639 42.3492 21.6495 42.0488L21.3422 41.8243L21.0487 42.0626C20.5135 42.4977 19.9541 42.805 19.405 43.0364C19.6605 41.5515 20.9417 41.0474 22.209 40.7608C22.7166 40.6468 23.6316 40.709 24.5156 40.7711C25.8451 40.8644 27.0986 40.9507 27.7823 40.557C28.8459 39.9424 28.58 38.4299 28.4211 37.5252C28.3901 37.3525 28.3555 37.1557 28.3555 37.0866C28.3555 36.9485 28.6698 36.5583 28.9805 36.3028L29.1636 36.1543V35.9195C29.1636 35.6709 29.0496 35.4533 28.9115 35.2772C29.1843 35.0079 29.464 34.6349 29.464 34.2482C29.464 33.965 29.4087 33.6715 29.3569 33.409C29.3328 33.2847 29.3086 33.1604 29.2948 33.0534C29.4122 32.9947 29.6056 32.9187 29.7333 32.8704C30.1028 32.7288 30.4827 32.5838 30.7071 32.3386C31.529 31.4442 30.7486 30.3047 30.2824 29.6279C30.1822 29.4794 30.0855 29.3413 30.0199 29.2308C29.7644 28.7922 29.5054 28.3502 29.2499 27.9048C28.9909 27.4593 28.7354 27.0139 28.4798 26.5822C28.4211 26.3785 28.4557 25.5635 28.4833 24.9109C28.5144 24.2168 28.5455 23.426 28.5351 22.6215C28.5075 20.8224 27.1228 18.8852 26.7222 18.3603C26.8016 17.2173 26.1455 16.0743 25.2926 15.3181C23.9839 14.1578 22.5405 13.0114 20.5307 12.8595C20.2579 12.8387 20.0231 13.0425 20.0024 13.3118C19.9817 13.5812 20.1854 13.8194 20.4548 13.8402C22.1606 13.9714 23.4072 14.9624 24.64 16.0536C25.4376 16.7615 26.0661 17.9666 25.5585 18.937C25.2788 19.4722 24.5985 19.9108 23.9977 20.301C23.8665 20.3873 23.7387 20.4702 23.6178 20.5496C23.4728 20.6497 23.3174 20.7464 23.1655 20.8431C22.3713 21.3473 21.4734 21.9205 21.0867 22.9219C20.8312 23.578 20.6654 24.2721 20.4997 24.942C20.3857 25.4151 20.2683 25.9019 20.1233 26.3578C19.7158 27.6389 19.3981 28.4573 18.4174 29.027C17.2434 29.7142 15.8068 30.1217 14.2598 30.2115C13.8075 30.2391 13.3413 30.2253 12.889 30.2149C11.6804 30.1873 10.4303 30.1562 9.21827 30.795C7.82321 31.5271 7.03589 32.8393 7.05661 34.3932C7.06697 35.1978 7.22236 35.771 7.43991 36.1888C7.3225 36.1612 7.21546 36.1336 7.12567 36.1059C6.05175 35.7675 5.4509 34.8317 5.23681 33.1604C5.10559 32.1314 5.04344 31.0644 5.48544 30.2184C5.76169 29.6866 6.25548 29.2135 6.94956 28.8095C7.64019 28.4089 8.46204 28.0532 9.32877 27.7804C9.61193 27.6907 9.97796 27.6043 10.3682 27.5077C11.0864 27.335 11.8288 27.1554 12.3641 26.9034C13.4587 26.3888 14.1424 25.7189 14.8641 25.011C15.1991 24.683 15.5444 24.3446 15.945 24.0096C16.9049 23.205 18.4278 22.991 19.4913 23.5158C19.7365 23.6367 20.03 23.5365 20.1509 23.2914C20.2717 23.0462 20.1716 22.7527 19.9264 22.6318C18.5141 21.9377 16.5769 22.2002 15.313 23.2568C14.8814 23.616 14.5223 23.9716 14.1735 24.31C14.0906 24.3895 14.0112 24.4689 13.9318 24.5483C13.2308 23.7783 11.1451 21.886 7.80594 22.2278C7.5366 22.2554 7.33977 22.4972 7.36739 22.7665C7.39502 23.0358 7.63674 23.2327 7.90608 23.205C10.8205 22.9081 12.6265 24.5725 13.2032 25.2079C12.8372 25.5117 12.44 25.7811 11.9462 26.0124C11.5008 26.2196 10.7756 26.3957 10.1403 26.5511C9.73624 26.6478 9.35294 26.7411 9.03871 26.8412C8.10291 27.1347 7.212 27.5215 6.45922 27.9566C5.60284 28.4538 4.98128 29.0616 4.61525 29.7625C4.04893 30.8503 4.11109 32.0969 4.26303 33.2847C4.36662 34.0928 4.56 34.773 4.84315 35.329C3.80721 34.7074 2.92667 33.7198 2.18424 32.3558C1.10686 30.3703 0.730474 28.1499 1.17593 26.4165C1.36585 25.6809 1.72498 25.1423 2.21877 24.8625C2.68149 24.6001 3.24435 24.569 3.897 24.7624L4.50475 24.942L4.53237 24.31C4.53237 24.2652 4.73611 20.111 7.4848 17.0378V21.6511L8.03385 21.589C8.07183 21.5855 11.8047 21.1919 13.2584 23.4364C13.3517 23.5814 13.5105 23.6609 13.6728 23.6609C13.6901 23.6609 13.7073 23.654 13.7212 23.654C13.7453 23.6574 13.7695 23.6609 13.7937 23.6609C13.7937 23.6609 13.8075 23.6609 13.8144 23.6609C13.8869 23.6609 13.956 23.6367 14.0147 23.6056C14.025 23.6022 14.0354 23.5952 14.0423 23.5883C14.0665 23.5745 14.0872 23.5607 14.1079 23.5435C14.1183 23.5365 14.1252 23.5262 14.1355 23.5193C14.1562 23.4986 14.177 23.4744 14.1942 23.4502C14.1942 23.4468 14.2011 23.4433 14.2046 23.4364C15.6584 21.1919 19.3912 21.5855 19.4292 21.589L19.9782 21.6511V15.6392L19.6364 15.5287C16.9809 14.6827 15.1853 16.2159 15.1128 16.2815C14.909 16.4611 14.8883 16.7684 15.0644 16.9756C15.2405 17.1793 15.5513 17.2035 15.7585 17.0274C15.8138 16.979 17.0741 15.9258 18.9941 16.3748V20.5772C17.9823 20.5496 15.7999 20.6566 14.2633 21.9205C14.2564 20.629 14.2909 18.4121 14.505 15.729C14.5741 14.8588 14.8227 14.0508 15.1715 13.3118C17.8235 13.2186 19.7883 12.4002 21.0038 10.8808C22.7925 8.6501 22.2746 5.75637 22.2504 5.63551L22.171 5.21423L21.7428 5.23495C14.1321 5.60443 14.2564 10.4664 14.2564 10.5182C14.2668 10.7876 14.4981 10.9982 14.7675 10.9879C15.0368 10.9775 15.2509 10.7496 15.2405 10.4803C15.2371 10.3249 15.1956 6.71979 21.3284 6.25017C21.3871 7.06166 21.3629 8.86419 20.2269 10.2765C19.2876 11.4437 17.7786 12.1205 15.7378 12.2931C17.1052 10.1729 19.0977 8.878 19.1288 8.85728C19.3567 8.71225 19.4257 8.40492 19.2807 8.17702C19.1357 7.94911 18.8283 7.88005 18.6004 8.02508C18.4485 8.12177 15.5548 10.0003 14.1942 13.0667C13.7073 11.0638 12.6507 9.0403 11.0691 7.09964C9.3633 5.00704 7.66782 3.75701 7.5953 3.70521C7.3743 3.54291 7.06697 3.59126 6.90813 3.81226C6.74583 4.03326 6.79417 4.34059 7.01517 4.49943C7.05661 4.53051 9.73624 6.52642 11.6424 9.60661C8.83152 9.26475 6.80108 8.25299 5.60975 6.58858C4.15253 4.55813 4.32864 2.05807 4.47022 1.07738C12.63 2.09605 12.3054 6.91662 12.2881 7.13417C12.2639 7.40351 12.4608 7.64523 12.7301 7.67286C13.0029 7.70048 13.2412 7.50366 13.2688 7.23086C13.2757 7.16525 13.4138 5.61479 12.3123 3.94693C10.8758 1.77146 8.12018 0.459267 4.12145 0.0448907L3.69326 0L3.58967 0.417829C3.55168 0.569767 2.69531 4.20246 4.80517 7.15489C6.24513 9.16807 8.68649 10.3421 12.0706 10.6426C12.0844 10.6426 12.1016 10.6426 12.1154 10.6426C12.1534 10.6426 12.1914 10.6356 12.226 10.6287C13.0029 12.1343 13.5416 13.8402 13.5209 15.6738C13.4932 16.0329 13.4656 16.3851 13.4449 16.7304C12.5575 15.9397 10.7169 14.8277 7.85774 15.5253L7.48135 15.6185V15.653C7.45717 15.6669 7.433 15.6841 7.41228 15.7048C4.47021 18.4535 3.76232 22.252 3.59312 23.6954C2.9094 23.5987 2.27402 23.7057 1.73188 24.0096C0.999818 24.424 0.474942 25.1733 0.21941 26.1747C-0.295107 28.1741 0.105457 30.5982 1.31405 32.8289C2.68149 35.3532 4.49784 36.7379 6.86324 37.059C7.40192 37.2248 8.5311 37.425 9.29769 37.4492C9.0318 38.6923 8.37225 40.8989 6.95302 41.6655C4.04548 42.2767 1.0309 43.9894 0.858239 44.0896L0.285019 44.4211L0.768458 44.8769C0.937661 45.0357 4.90876 48.7617 7.97514 49.3867C9.45654 49.6871 11.0519 49.1899 12.4711 47.9778C12.7715 47.7223 13.0443 47.446 13.3102 47.1767C13.621 46.8659 13.9111 46.5689 14.2391 46.31C14.4567 46.1373 14.7053 45.9439 14.9781 45.754C14.985 45.7505 14.9919 45.7436 14.9988 45.7402C15.5962 45.3224 16.2937 44.9149 16.9775 44.7526C17.1259 44.7181 17.2848 44.6801 17.4471 44.6455C18.5003 44.4073 19.9023 44.093 21.2317 43.1711C21.2662 43.3748 21.2317 43.6787 20.9658 44.1103C20.5618 44.7664 18.0859 46.1511 17.4229 46.4066L16.2696 46.8486L17.4126 47.3217C17.5023 47.3597 19.5949 48.2161 21.1178 48.1056C22.7269 47.9916 24.7988 47.7326 26.5668 46.7554C27.2747 46.3652 27.8548 45.8403 28.4177 45.3327C28.5731 45.1911 28.7319 45.0496 28.8908 44.9114C28.9564 44.8527 29.0323 44.7871 29.1118 44.7146C29.4743 44.3866 30.2306 43.6994 30.6104 43.8202C30.7071 43.8513 30.7831 43.8789 30.8452 43.9066C29.9371 45.0565 26.4736 49.1415 22.0501 50.5193C16.9326 52.1181 11.9566 49.9979 11.9083 49.9772C11.6596 49.8667 11.3696 49.9841 11.2591 50.2327C11.152 50.4813 11.2625 50.7714 11.5146 50.8819C11.67 50.951 14.3876 52.1112 17.9443 52.1112C19.3187 52.1112 20.8173 51.9386 22.3436 51.462C27.803 49.7596 31.712 44.4073 31.8743 44.1828L31.9157 44.1172C31.9951 43.9618 31.9951 43.765 31.9226 43.5889L31.9157 43.5785ZM8.46894 16.3989C11.6665 15.8015 13.1997 17.8769 13.2688 17.9701C13.2964 18.0115 13.331 18.0426 13.3689 18.0737C13.2895 19.7346 13.2757 21.0952 13.2792 21.993C11.7391 20.6635 9.49798 20.5496 8.46894 20.5807V16.3989ZM8.17197 48.4164C6.12772 47.9985 3.48953 45.9267 2.20841 44.832C8.94893 43.8444 11.7978 46.1477 12.3779 46.7071C12.1983 46.8866 12.0188 47.0593 11.8288 47.2216C10.9932 47.9364 9.67754 48.7202 8.16852 48.4129L8.17197 48.4164ZM13.6245 45.5364C13.4345 45.6884 13.255 45.8507 13.0823 46.013C12.4124 45.3465 9.82602 43.2574 4.03167 43.6441C5.82384 42.8913 8.14089 42.1558 9.74315 42.5253C11.9704 43.0329 13.4311 44.535 14.0112 45.236C13.8765 45.3362 13.7488 45.4363 13.6279 45.5364H13.6245ZM17.2261 43.6787C17.0569 43.7166 16.8946 43.7546 16.7426 43.7892C16.0658 43.9515 15.4097 44.2864 14.8158 44.6697C14.1804 43.8789 12.5471 42.1593 9.95724 41.5688C9.55323 41.4756 9.11813 41.4445 8.66232 41.4548C9.82948 39.9631 10.268 37.7704 10.3923 36.983C11.2142 36.6101 12.0188 35.8988 12.592 34.9664C12.7336 34.7351 12.661 34.4312 12.4297 34.2896C12.1983 34.148 11.8944 34.2205 11.7529 34.4519C11.0174 35.6536 9.70862 36.4754 8.89713 36.2544C8.17197 36.0541 8.05111 35.0009 8.04075 34.3897C8.02349 33.2191 8.62088 32.2315 9.67409 31.6756C10.3267 31.3337 11.0174 31.2301 11.7391 31.206C11.9601 31.9725 12.6956 34.1515 14.0181 34.5382C14.0768 34.5555 14.139 34.5693 14.208 34.5797V35.7503C14.0803 35.8159 13.994 35.9471 13.994 36.1025C13.994 36.2579 14.0803 36.3857 14.208 36.4547V37.0176C14.0803 37.0832 13.994 37.2144 13.994 37.3698C13.994 37.5252 14.0803 37.653 14.208 37.722V38.2676C13.9352 38.347 13.735 38.5991 13.735 38.8961C13.735 39.2587 14.0319 39.5556 14.3945 39.5556C14.7571 39.5556 15.0541 39.2587 15.0541 38.8961C15.0541 38.5957 14.8538 38.347 14.581 38.2676V37.722C14.7088 37.6564 14.7951 37.5252 14.7951 37.3698C14.7951 37.2144 14.7088 37.0866 14.581 37.0176V36.4547C14.7088 36.3891 14.7951 36.2579 14.7951 36.1025C14.7951 35.9471 14.7088 35.8193 14.581 35.7503V34.5935C14.9263 34.5624 15.3372 34.4036 15.7792 33.9857C15.9761 33.7993 15.9864 33.4885 15.7999 33.2882C15.6135 33.0914 15.3027 33.081 15.1024 33.2675C14.8849 33.4712 14.7122 33.561 14.581 33.5921V33.2295C14.581 33.1259 14.4981 33.0465 14.398 33.0465C14.2978 33.0465 14.215 33.1293 14.215 33.2295V33.5541C13.6417 33.2951 13.0892 32.1659 12.775 31.206C12.8061 31.206 12.8406 31.206 12.8717 31.206C13.3448 31.2163 13.8317 31.2301 14.322 31.199C16.0244 31.0989 17.6128 30.6431 18.9216 29.8799C20.2959 29.0754 20.6896 27.8461 21.066 26.6582C21.2214 26.1678 21.3457 25.6637 21.4631 25.1733C21.6254 24.5034 21.7773 23.8715 22.0087 23.2776C22.278 22.58 23.0032 22.1173 23.7007 21.6753C23.863 21.5717 24.0218 21.4716 24.1772 21.368C24.2912 21.292 24.4155 21.2126 24.5398 21.1297C25.1959 20.705 25.9314 20.225 26.3493 19.5378C26.8431 20.2906 27.5371 21.5337 27.5544 22.6387C27.5682 23.4157 27.5337 24.1892 27.5061 24.8695C27.4508 26.1886 27.4335 26.7376 27.6235 27.0622C27.879 27.5007 28.1414 27.9496 28.4004 28.402C28.656 28.844 28.9149 29.2895 29.1705 29.728C29.2533 29.873 29.3604 30.025 29.4709 30.1873C29.9094 30.8261 30.2513 31.3821 29.982 31.6756C29.906 31.7515 29.5779 31.8793 29.3811 31.9518C28.8493 32.1556 28.2968 32.3662 28.2968 32.9049C28.2968 33.119 28.3417 33.3503 28.3866 33.5955C28.4315 33.8234 28.4764 34.0582 28.4764 34.2343C28.4522 34.3552 28.1587 34.6625 27.879 34.8594L27.2885 35.2772L27.8928 35.6743C27.9481 35.7123 28.0068 35.7606 28.0586 35.809C27.7547 36.1129 27.3714 36.5928 27.3714 37.0866C27.3714 37.242 27.4059 37.4423 27.4508 37.6978C27.5579 38.3056 27.7547 39.4382 27.2885 39.7076C26.8672 39.9493 25.5999 39.863 24.5813 39.7904C23.5798 39.7214 22.6371 39.6558 21.988 39.8008C21.1074 40.0011 18.5037 40.595 18.3794 43.3921C17.9754 43.506 17.5887 43.5958 17.2261 43.6752V43.6787ZM25.006 44.7526C25.2028 44.5385 25.3824 44.314 25.5516 44.0965C25.9245 43.6234 26.2802 43.178 26.774 42.9086C27.0433 42.7601 27.4232 42.6324 27.7098 42.6393C27.6097 42.7636 27.4853 42.9293 27.3299 43.1365C26.5703 44.1552 25.1614 46.0372 23.9424 46.6932C23.1724 46.8832 22.3989 46.9902 21.6875 47.0593C22.9168 46.4653 24.1047 45.7298 25.006 44.7526ZM28.4419 43.9825C28.3659 44.0516 28.3003 44.1103 28.2381 44.1656C28.0724 44.3071 27.9135 44.4522 27.7512 44.5972C27.437 44.8804 27.1331 45.1497 26.8154 45.3949C27.3299 44.7871 27.7823 44.1828 28.1173 43.7339C28.3141 43.4715 28.4798 43.247 28.5627 43.1572C28.6249 43.0882 28.6836 43.0191 28.7457 42.9466C29.1049 42.5219 29.3259 42.256 29.9543 42.401C29.9716 42.515 29.9543 42.7256 29.9129 42.9431C29.35 43.1607 28.8321 43.6303 28.4419 43.9825ZM9.1941 14.5446C9.06633 14.3029 9.15957 14.0059 9.39783 13.8781C10.0229 13.5466 10.9966 13.1633 11.6804 13.1633C11.9532 13.1633 12.1742 13.3843 12.1742 13.6571C12.1742 13.9299 11.9532 14.1509 11.6804 14.1509C11.2832 14.1509 10.5201 14.403 9.8571 14.7518C9.78459 14.7898 9.70516 14.8105 9.62574 14.8105C9.44963 14.8105 9.27697 14.7138 9.19065 14.548L9.1941 14.5446Z" fill="url(#paint0_linear_10006_148)"/>
<defs>
<linearGradient id="paint0_linear_10006_148" x1="15.9864" y1="52.1043" x2="15.9864" y2="0" gradientUnits="userSpaceOnUse">
<stop stop-color="#611232"/>
<stop offset="1" stop-color="#9B2247"/>
</linearGradient>
</defs>
</svg>
