<svg width="47" height="47" viewBox="0 0 47 47" fill="none" xmlns="http://www.w3.org/2000/svg">
<path d="M30.375 23L19.75 33.625L18.2625 32.1375L27.4 23L18.2625 13.8625L19.75 12.375L30.375 23Z" fill="#8E8E93"/>
<path d="M2 23.5C2 35.3741 11.6259 45 23.5 45C35.3741 45 45 35.3741 45 23.5C45 11.6259 35.3741 2 23.5 2V0C36.4787 -1.13463e-06 47 10.5213 47 23.5C47 36.4787 36.4787 47 23.5 47C10.5213 47 1.13463e-06 36.4787 0 23.5C-1.13463e-06 10.5213 10.5213 1.13463e-06 23.5 0V2C11.6259 2 2 11.6259 2 23.5Z" fill="#D9D9D9"/>
</svg>
